<?xml version="1.0" encoding="UTF-8"?>
<svg width="17px" height="15px" viewBox="0 0 17 15" version="1.1" xmlns="http://www.w3.org/2000/svg" xmlns:xlink="http://www.w3.org/1999/xlink">
    <title>Shape@2x</title>
    <g id="Symbols" stroke="none" stroke-width="1" fill="none" fill-rule="evenodd">
        <g id="W_camera" fill="#FFFFFF" fill-rule="nonzero">
            <path d="M5.83333333,0 L4.16666667,1.66666667 L1.66666667,1.66666667 C0.748698333,1.66666667 6.03961325e-13,2.415365 6.03961325e-13,3.33333333 L6.03961325e-13,13.3333333 C6.03961325e-13,14.2513025 0.748698333,15 1.66666667,15 L15,15 C15.9179692,15 16.6666667,14.2513025 16.6666667,13.3333333 L16.6666667,3.33333333 C16.6666667,2.415365 15.9179692,1.66666667 15,1.66666667 L12.5,1.66666667 L10.8333333,0 L5.83333333,0 Z M8.33333333,4.16666667 C10.6673175,4.16666667 12.5,5.99934917 12.5,8.33333333 C12.5,10.6673175 10.6673175,12.5 8.33333333,12.5 C5.99934917,12.5 4.16666667,10.6673175 4.16666667,8.33333333 C4.16666667,5.99934917 5.99934917,4.16666667 8.33333333,4.16666667 Z M8.33333333,5.41666667 C6.722005,5.41666667 5.41666667,6.722005 5.41666667,8.33333333 C5.41666667,9.94466167 6.722005,11.25 8.33333333,11.25 C9.94466167,11.25 11.25,9.94466167 11.25,8.33333333 C11.25,6.722005 9.94466167,5.41666667 8.33333333,5.41666667 Z" id="Shape"></path>
        </g>
    </g>
</svg>