<?xml version="1.0" encoding="UTF-8"?>
<svg width="26px" height="26px" viewBox="0 0 26 26" version="1.1" xmlns="http://www.w3.org/2000/svg" xmlns:xlink="http://www.w3.org/1999/xlink">
    <title>online-course@2x</title>
    <g id="Symbols" stroke="none" stroke-width="1" fill="none" fill-rule="evenodd">
        <g id="course" fill="#FFFFFF" fill-rule="nonzero">
            <g id="online-course">
                <path d="M0.928585938,18.1071211 L0.928585938,1.39287891 L0.464292969,1.39287891 C0.208,1.39318359 0.00035546875,1.60087891 0,1.85712109 L0,19.035707 C0.00035546875,19.292 0.208,19.4996445 0.464292969,19.5 L15.785707,19.5 L15.785707,18.5714141 L1.39287891,18.5714141 C1.13643359,18.5714141 0.928585938,18.3635664 0.928585938,18.1071211 Z" id="Path"></path>
                <path d="M11.1428789,16.0726211 L11.1428789,0.928585938 C11.1423711,0.415949219 10.7269297,0.0005078125 10.214293,0 L7.42858594,0 L7.42858594,7.42858594 C7.4286875,7.55173047 7.37978516,7.66989844 7.29269531,7.75698828 C7.20560547,7.84407813 7.0874375,7.89298047 6.96429297,7.89287891 C6.82322266,7.89292969 6.68982031,7.82879297 6.60181641,7.71854688 L5.10717188,5.85030469 L3.61252734,7.71854688 C3.48943359,7.87261719 3.28239844,7.93208203 3.09628516,7.86677734 C2.91017188,7.80152344 2.78565625,7.62576953 2.78570703,7.42858594 L2.78570703,0 L2.32141406,0 C2.06512109,0.00035546875 1.85747656,0.208 1.85712109,0.464292969 L1.85712109,15.785707 L10.1700625,15.785707 C10.514918,15.7878398 10.8521055,15.8872695 11.1428789,16.0726211 Z" id="Path"></path>
                <path d="M5.10712109,4.64287891 C5.24819141,4.64287891 5.38154297,4.70701563 5.46959766,4.81721094 L6.5,6.10507422 L6.5,0 L3.71429297,0 L3.71429297,6.10507422 L4.74464453,4.81716016 C4.83269922,4.70701562 4.96610156,4.64287891 5.10712109,4.64287891 Z" id="Path"></path>
                <path d="M23.214293,9.77737109 L23.214293,1.85712109 C23.2139375,1.60082813 23.006293,1.39318359 22.75,1.39282813 L22.285707,1.39282813 L22.285707,9.75 L22.75,9.75 C22.9051367,9.75055859 23.0601719,9.75969922 23.214293,9.77737109 Z" id="Path"></path>
                <path d="M10.1700625,16.714293 L1.85712109,16.714293 L1.85712109,17.6428789 L11.1319102,17.6428789 C11.0960586,17.1328828 10.6810234,16.732168 10.1700625,16.714293 Z" id="Path"></path>
                <path d="M16.714293,22.75 C16.7163242,24.5441016 18.1701914,25.9979688 19.964293,26 L22.75,26 C24.5441016,25.9979688 25.9979687,24.5441016 26,22.75 L26,17.6428789 L16.714293,17.6428789 L16.714293,22.75 Z" id="Path"></path>
                <path d="M12.0823828,17.6428789 L15.785707,17.6428789 L15.785707,16.714293 L13.0464648,16.714293 C12.5348945,16.7316094 12.1188945,17.1322734 12.0823828,17.6428789 Z" id="Path"></path>
                <path d="M22.75,10.6785859 L21.8214141,10.6785859 L21.8214141,16.714293 L26,16.714293 L26,13.9285859 C25.9979687,12.1344844 24.5441016,10.6805664 22.75,10.6785859 Z" id="Path"></path>
                <path d="M16.714293,13.9285859 L16.714293,16.714293 L20.8928789,16.714293 L20.8928789,10.6785859 L19.964293,10.6785859 C18.1701914,10.6805664 16.7163242,12.1344844 16.714293,13.9285859 Z" id="Path"></path>
                <path d="M19.964293,9.75 L21.3571719,9.75 L21.3571719,0.464292969 C21.3568164,0.208 21.1491719,0.00035546875 20.8928789,0 L13,0 C12.4873633,0.0005078125 12.0719219,0.415949219 12.0714141,0.928585938 L12.0714141,16.073332 C12.3628477,15.8875234 12.7008477,15.7878398 13.0464648,15.785707 L15.785707,15.785707 L15.785707,13.9285859 C15.7883984,11.6218984 17.6576563,9.75269141 19.964293,9.75 Z" id="Path"></path>
            </g>
        </g>
    </g>
</svg>