<?xml version="1.0" encoding="UTF-8"?>
<svg width="26px" height="26px" viewBox="0 0 26 26" version="1.1" xmlns="http://www.w3.org/2000/svg" xmlns:xlink="http://www.w3.org/1999/xlink">
    <title>home copy@2x</title>
    <g id="Symbols" stroke="none" stroke-width="1" fill="none" fill-rule="evenodd">
        <g id="home-" fill="#FFFFFF" fill-rule="nonzero">
            <g id="home-copy">
                <path d="M25.2989807,11.3087463 C25.2983856,11.3081513 25.2977905,11.3075562 25.2971954,11.306961 L14.6912537,0.701416016 C14.2391815,0.249145508 13.6381378,0 12.9988098,0 C12.3594818,0 11.7584381,0.248947156 11.3061676,0.701217664 L0.705780055,11.3014068 C0.702209473,11.3049774 0.698638891,11.3087463 0.695068359,11.3123169 C-0.233276367,12.2460175 -0.231689453,13.7609253 0.69963075,14.6922455 C1.12512207,15.1179352 1.687088,15.364502 2.28793337,15.3902893 C2.31233214,15.3926697 2.33692931,15.3938599 2.36172483,15.3938599 L2.78443907,15.3938599 L2.78443907,23.1988983 C2.78443907,24.7433624 4.04107666,26 5.5859375,26 L9.73532107,26 C10.1558533,26 10.4970398,25.6590118 10.4970398,25.2382812 L10.4970398,19.1191406 C10.4970398,18.4143524 11.0703125,17.8410797 11.7751007,17.8410797 L14.2225189,17.8410797 C14.9273071,17.8410797 15.5005799,18.4143524 15.5005799,19.1191406 L15.5005799,25.2382812 C15.5005799,25.6590118 15.841568,26 16.2622986,26 L20.4116821,26 C21.956543,26 23.2131806,24.7433624 23.2131806,23.1988983 L23.2131806,15.3938599 L23.6051483,15.3938599 C24.2442779,15.3938599 24.8453217,15.1449127 25.2977905,14.6926422 C26.2301025,13.7597351 26.2304992,12.2422485 25.2989807,11.3087463 L25.2989807,11.3087463 Z" id="Path"></path>
            </g>
        </g>
    </g>
</svg>