<?xml version="1.0" encoding="UTF-8"?>
<svg width="271px" height="289px" viewBox="0 0 271 289" version="1.1" xmlns="http://www.w3.org/2000/svg" xmlns:xlink="http://www.w3.org/1999/xlink">
    <title>Room A to Z -06@2x</title>
    <g id="Symbols" stroke="none" stroke-width="1" fill="none" fill-rule="evenodd">
        <g id="logo" fill="#FFFFFF" fill-rule="nonzero">
            <g id="Room-A-to-Z--06" transform="translate(0.000000, 0.000000)">
                <path d="M266.915735,105.934028 L133.342275,0.796303318 L1.05317536,105.934028 L17.2874882,105.934028 L40.4059716,87.7218009 L40.4059716,176.753649 L222.605308,176.753649 L222.605308,84.8448341 L249.448436,105.934028 L266.915735,105.934028 Z M210.09564,75.0066351 L56.6274408,75.0066351 L133.367962,14.7187678 L210.09564,75.0066351 Z M47.9323223,81.9678673 L205.099479,81.9678673 L53.943128,171.166682 L47.9323223,171.166682 L47.9323223,81.9678673 Z M68.5848341,171.166682 L215.143175,84.7677725 L215.143175,171.218057 L68.5848341,171.166682 Z" id="Shape"></path>
                <path d="M2.56872038,253.609763 L2.56872038,194.850284 L32.8924645,194.850284 C37.221173,194.693891 41.5492092,195.178631 45.7360664,196.288768 C48.6649477,197.219597 51.197303,199.105297 52.9284834,201.64455 C55.5531312,205.422378 56.4904096,210.120776 55.5162492,214.616526 C54.5420887,219.112277 51.7440499,223.001288 47.7910427,225.353839 C45.7830361,226.455051 43.616853,227.23921 41.3692417,227.678531 C43.0924293,228.175301 44.7327291,228.924039 46.2369668,229.900474 C47.3185191,230.819092 48.2923038,231.857508 49.1396209,232.995782 C50.1145743,234.123551 50.9750424,235.345416 51.7083412,236.643365 L60.3649289,253.609763 L39.8151659,253.609763 L30.1182464,235.62872 C29.3762503,233.952374 28.3063584,232.441425 26.971564,231.184834 C25.6647167,230.276533 24.1061648,229.800433 22.5148341,229.823412 L20.8580095,229.823412 L20.8580095,253.673981 L2.56872038,253.609763 Z M20.8066351,218.649479 L28.5127962,218.649479 C30.1392444,218.532097 31.7514697,218.265542 33.3291469,217.853175 C34.5050381,217.622916 35.5533346,216.963725 36.2703318,216.003697 C38.0177401,213.611929 37.7384523,210.298808 35.6153081,208.233318 C34.4080095,207.214392 32.1475355,206.704929 28.8338863,206.704929 L20.8580095,206.704929 L20.8066351,218.649479 Z" id="Shape"></path>
                <path d="M62.5483412,224.262133 C62.5483412,214.663681 65.2198104,207.197267 70.5627488,201.862891 C75.9056872,196.528515 83.3464139,193.857046 92.8849289,193.848483 C102.671754,193.848483 110.206667,196.472859 115.489668,201.721611 C120.77267,206.970363 123.418452,214.325466 123.427014,223.786919 C123.427014,230.63684 122.27109,236.266619 119.959242,240.676256 C117.70917,245.016324 114.222955,248.591929 109.941232,250.951137 C104.900018,253.554543 99.2745802,254.819382 93.6041706,254.624408 C87.9512338,254.81684 82.3276329,253.732508 77.1515166,251.452038 C72.7064859,249.24825 69.027749,245.757478 66.5940758,241.434028 C63.8969194,236.853144 62.5483412,231.129179 62.5483412,224.262133 Z M80.7091943,224.352038 C80.7091943,230.268657 81.8094629,234.528452 84.01,237.131422 C86.2579739,239.72574 89.5715504,241.145844 93.0005213,240.984502 C96.4294922,241.145844 99.7430687,239.72574 101.991043,237.131422 C104.123081,234.562701 105.1891,230.007504 105.1891,223.465829 C105.1891,217.925956 104.075987,213.884502 101.849763,211.341469 C99.5613732,208.75002 96.2230797,207.333488 92.7693365,207.488389 C89.3966663,207.352114 86.1483207,208.772674 83.9586256,211.341469 C81.7923381,214.030063 80.7091943,218.366919 80.7091943,224.352038 Z" id="Shape"></path>
                <path d="M130.927678,224.262133 C130.927678,214.663681 133.599147,207.197267 138.942085,201.862891 C144.285024,196.528515 151.72575,193.857046 161.264265,193.848483 C171.033965,193.848483 178.568878,196.472859 183.869005,201.721611 C189.169131,206.970363 191.814913,214.325466 191.806371,223.786919 C191.806371,230.63684 190.650427,236.266619 188.338578,240.676256 C186.088507,245.016324 182.602292,248.591929 178.320569,250.951137 C173.279355,253.554543 167.653917,254.819382 161.983507,254.624408 C156.33057,254.81684 150.706969,253.732508 145.530853,251.452038 C141.085822,249.24825 137.407086,245.757478 134.973412,241.434028 C132.276256,236.853144 130.927678,231.129179 130.927678,224.262133 Z M149.075687,224.352038 C149.075687,230.268657 150.180237,234.528452 152.389336,237.131422 C154.738103,239.601796 157.993252,241.006718 161.401953,241.021378 C164.810655,241.035811 168.077676,239.658722 170.447441,237.208483 C172.579479,234.639763 173.645498,230.084566 173.645498,223.542891 C173.645498,218.003017 172.532385,213.961564 170.306161,211.418531 C168.016659,208.828625 164.67914,207.412422 161.225735,207.56545 C157.850079,207.432891 154.599374,208.852413 152.40218,211.418531 C150.193081,214.05575 149.08425,218.366919 149.075687,224.352038 Z" id="Shape"></path>
                <polygon id="Path" points="201.387678 194.850284 225.263934 194.850284 234.472796 230.594028 243.617441 194.850284 267.480853 194.850284 267.480853 253.609763 252.607962 253.609763 252.607962 208.798436 241.151469 253.609763 227.691374 253.609763 216.260569 208.798436 216.260569 253.609763 201.387678 253.609763"></polygon>
                <path d="M20.0617062,283.689479 L12.098673,283.689479 L10.9812796,287.43981 L3.85308057,287.43981 L12.3812322,264.732322 L20.0873934,264.732322 L28.615545,287.43981 L21.1919431,287.43981 L20.0617062,283.689479 Z M18.6103791,278.783223 L16.0416588,270.627536 L13.5628436,278.783223 L18.6103791,278.783223 Z" id="Shape"></path>
                <polygon id="Path" points="65.104218 276.728246 74.2745498 276.728246 74.2745498 281.608815 65.104218 281.608815"></polygon>
                <polygon id="Path" points="111.662275 264.732322 132.982654 264.732322 132.982654 270.344976 125.867299 270.344976 125.867299 287.43981 118.816161 287.43981 118.816161 270.344976 111.662275 270.344976"></polygon>
                <path d="M145.505166,279.27128 C145.437693,276.931784 146.372272,274.674775 148.073886,273.06782 C152.30464,269.661517 158.385256,269.84132 162.407346,273.491659 C165.275689,277.013781 165.066285,282.122139 161.919289,285.397678 C160.003729,287.090314 157.497295,287.958103 154.945213,287.812275 C152.635398,287.921952 150.361058,287.212358 148.523412,285.808673 C146.551362,284.220663 145.434805,281.802249 145.505166,279.27128 L145.505166,279.27128 Z M151.824218,279.27128 C151.735312,280.430177 152.053243,281.583811 152.72327,282.533555 C153.267135,283.208926 154.090989,283.59718 154.958057,283.58673 C155.824605,283.608129 156.65135,283.223265 157.192844,282.546398 C157.857492,281.570836 158.165906,280.396145 158.066209,279.219905 C158.157383,278.088624 157.848267,276.961261 157.192844,276.034692 C156.668791,275.362734 155.861542,274.973355 155.009431,274.981517 C154.123917,274.966027 153.280619,275.35925 152.72327,276.047536 C152.06375,276.977977 151.746131,278.107792 151.824218,279.245592 L151.824218,279.27128 Z" id="Shape"></path>
                <polygon id="Path" points="202.196825 276.728246 211.367156 276.728246 211.367156 281.608815 202.196825 281.608815"></polygon>
                <polygon id="Path" points="249.769526 264.732322 269.625735 264.732322 269.625735 269.278957 256.872038 282.559242 270.075261 282.559242 270.075261 287.43981 248.549384 287.43981 248.549384 282.739052 261.161801 269.587204 249.769526 269.587204"></polygon>
            </g>
        </g>
    </g>
</svg>