<?xml version="1.0" encoding="UTF-8"?>
<svg width="34px" height="38px" viewBox="0 0 34 38" version="1.1" xmlns="http://www.w3.org/2000/svg" xmlns:xlink="http://www.w3.org/1999/xlink">
    <title>atom</title>
    <defs>
        <linearGradient x1="50%" y1="0%" x2="50%" y2="100%" id="linearGradient-1">
            <stop stop-color="#FDC830" offset="0%"></stop>
            <stop stop-color="#F37335" offset="100%"></stop>
        </linearGradient>
        <linearGradient x1="50%" y1="0%" x2="50%" y2="100%" id="linearGradient-2">
            <stop stop-color="#FDC830" offset="0%"></stop>
            <stop stop-color="#F37335" offset="100%"></stop>
        </linearGradient>
    </defs>
    <g id="Landing_page" stroke="none" stroke-width="1" fill="none" fill-rule="evenodd">
        <g id="01_Home_Page" transform="translate(-985.000000, -1136.000000)" fill-rule="nonzero">
            <g id="atom" transform="translate(985.000000, 1136.000000)">
                <path d="M13.264375,19 C13.264375,21.0462109 14.9291016,22.7109375 16.9753125,22.7109375 C19.0215234,22.7109375 20.68625,21.0462109 20.68625,19 C20.68625,16.9537891 19.0215234,15.2890625 16.9753125,15.2890625 C14.9291016,15.2890625 13.264375,16.9537891 13.264375,19 L13.264375,19 Z M16.9753125,16.7734375 C18.2030391,16.7734375 19.201875,17.7722734 19.201875,19 C19.201875,20.2277266 18.2030391,21.2265625 16.9753125,21.2265625 C15.7475859,21.2265625 14.74875,20.2277266 14.74875,19 C14.74875,17.7722734 15.7475859,16.7734375 16.9753125,16.7734375 Z" id="Shape" fill="url(#linearGradient-1)"></path>
                <path d="M4.83527734,19.6920898 C2.64255859,21.8131875 -0.618835938,25.6366406 0.906285156,28.2774922 C1.39761328,29.1281875 2.29402734,29.6731758 3.57244531,29.9028828 C3.60354297,29.9722031 3.63790625,30.0401875 3.67627734,30.1063164 C4.28954688,31.1677187 5.65331641,31.5355469 6.71731641,30.9211641 C7.16700781,30.6617695 7.50596484,30.2551992 7.68624219,29.7798281 C8.78942969,29.5878242 9.98257031,29.2876836 11.2479258,28.8842305 C11.3343906,29.2991133 11.4256055,29.7060547 11.5220156,30.0985234 C11.6194648,30.4952969 12.0204688,30.740293 12.4198398,30.64225 C12.8179492,30.5444297 13.0613125,30.1424609 12.9634922,29.7444258 C12.8572109,29.3118047 12.7570898,28.861 12.6635,28.3998047 C13.6842305,28.0274492 14.7310117,27.5980195 15.7870703,27.1184922 C17.5796016,28.021957 19.3525391,28.7846289 21.071,29.3921094 C20.5951094,31.4279297 19.0726602,36.515625 16.9753125,36.515625 C16.4788633,36.515625 15.9587383,36.1940352 15.4294844,35.5597617 C15.1668984,35.2450742 14.698875,35.2026953 14.3841875,35.4653555 C14.0694258,35.7279414 14.0271953,36.1959648 14.2897813,36.5107266 C15.1143516,37.4989492 16.0178906,38 16.9753125,38 C20.0751328,38 21.7630156,32.8940469 22.4854609,29.8605781 C25.5800859,30.8166641 31.0223984,31.9677969 32.6363594,29.1706406 C33.1269453,28.3197969 33.1503984,27.2709375 32.7099102,26.0487773 C32.7542188,25.9873984 32.7965977,25.9243125 32.835043,25.8578867 C33.4489063,24.7947031 33.0833047,23.4303398 32.0198242,22.8162539 C31.5692422,22.5564141 31.0470391,22.4667578 30.5462109,22.5488437 C29.7620898,21.6130937 28.7977656,20.6423125 27.6681563,19.6517148 C30.3416641,17.369043 34.9047813,12.7582031 33.151957,9.72273047 C31.5061563,6.87198828 25.8388125,8.13073828 22.7047031,9.12601172 C22.0290898,5.87738281 20.3083281,-4.21884749e-15 16.9753125,-4.21884749e-15 C15.99325,-4.21884749e-15 15.0730859,0.503871094 14.2345625,1.49639844 C14.159082,1.48867969 14.083082,1.484375 14.0065625,1.484375 C12.7788359,1.484375 11.78,2.48321094 11.78,3.7109375 C11.78,4.23158203 11.963543,4.72899609 12.2852813,5.12161328 C11.7855664,6.50030078 11.3558398,8.19976172 11.0254922,10.1061445 C7.83675781,9.05825 2.06432031,7.71667187 0.390390625,10.61625 C-0.806980469,12.6899219 0.811136719,15.9752148 4.83527734,19.6920898 Z M2.19167969,27.535082 C1.44800781,26.2473125 2.91724219,23.590207 5.95011719,20.6793477 C7.32375781,21.8487383 8.86201562,22.9925234 10.5350547,24.0879922 C10.6443789,25.2316289 10.7903672,26.3463945 10.9708672,27.4143281 C9.81134766,27.7910625 8.71907031,28.0765078 7.70865625,28.2671758 C7.66241797,28.1337305 7.60482422,28.0035508 7.53298047,27.8789375 C6.91844922,26.816793 5.55408594,26.4512656 4.49127344,27.0643867 C3.98940625,27.3539141 3.63122656,27.8249805 3.47143359,28.3607656 C2.94945312,28.2207148 2.44454297,27.9728984 2.19167969,27.535082 L2.19167969,27.535082 Z M12.2229375,12.1075273 C12.863668,12.3525234 13.5145664,12.6206016 14.1719219,12.9099805 C13.4669922,13.3065312 12.7648086,13.7205234 11.9924883,14.2032422 C12.0558711,13.4920039 12.1327617,12.7920469 12.2229375,12.1075273 L12.2229375,12.1075273 Z M21.5587656,11.0896172 C21.7871367,12.4910156 21.9517539,13.9605469 22.0529141,15.4793594 C20.5582969,14.5228281 19.0245664,13.6381406 17.4831914,12.8458555 C18.8621016,12.1708359 20.2260937,11.582875 21.5587656,11.0896172 Z M21.3804922,27.9268086 C20.1123906,27.4711055 18.8126719,26.9273789 17.4962539,26.3023828 C18.9622969,25.568582 20.4372461,24.7466836 21.9523477,23.8012109 C21.8194961,25.2398672 21.6282344,26.6204844 21.3804922,27.9268086 L21.3804922,27.9268086 Z M23.650918,18.3600859 C24.2367266,18.783207 24.79975,19.2098906 25.3362773,19.6377617 C24.7857969,20.0674141 24.2127539,20.4927617 23.6204141,20.9115781 C23.6426055,20.2738164 23.6549258,19.6348672 23.6549258,19 C23.655,18.7864727 23.6533672,18.5730937 23.650918,18.3600859 L23.650918,18.3600859 Z M22.143832,17.3127109 C22.1613477,17.8683125 22.170625,18.4337852 22.170625,19 C22.170625,19.9819141 22.1416055,20.9735508 22.0874258,21.9540547 C20.1320586,23.2324727 18.0011641,24.4367461 15.8206172,25.4670508 C14.5335156,24.7964102 13.2735781,24.0742617 11.9498125,23.2333633 C11.8375937,21.8462148 11.78,20.4242578 11.78,19 C11.78,18.0269922 11.8084258,17.0360234 11.8615664,16.0489141 C13.1223203,15.223082 14.4668672,14.4225586 15.8444414,13.6854922 C17.9988633,14.7356133 20.1481641,15.9782578 22.143832,17.3127109 L22.143832,17.3127109 Z M12.13625,25.0958086 C12.8240352,25.5123242 13.388543,25.8385898 14.1086875,26.2343984 C13.5305234,26.4793203 12.9577773,26.7072461 12.3931211,26.9174336 C12.2964883,26.3236836 12.2106914,25.7156094 12.13625,25.0958086 L12.13625,25.0958086 Z M10.3900313,22.2027617 C9.1924375,21.3783398 8.07574219,20.5304648 7.05323047,19.6687109 C8.04672266,18.7984219 9.14323047,17.9369648 10.329543,17.0942109 C10.3077969,17.7330117 10.295625,18.3702539 10.295625,19 C10.295625,20.0729805 10.3277617,21.1447734 10.3900313,22.2027617 Z M5.97535156,29.6355469 C5.62103125,29.840168 5.16629297,29.7181523 4.96100391,29.3628672 C4.75764453,29.0120352 4.87876953,28.5545508 5.23294141,28.3502266 C5.58800391,28.1455313 6.04311328,28.2679922 6.24758594,28.6214219 C6.45621484,28.9831641 6.32440234,29.4341914 5.97535156,29.6355469 Z M31.5502422,25.1145859 C31.3396836,25.4781094 30.8834609,25.5883242 30.5355234,25.3871172 C30.1799414,25.1819766 30.0589648,24.7285 30.2638086,24.3741055 C30.4717695,24.0145898 30.9285859,23.900293 31.2779336,24.1018711 C31.6323281,24.3064922 31.7542695,24.7612305 31.5502422,25.1145859 L31.5502422,25.1145859 Z M29.2254883,23.2870234 C29.1337539,23.393082 29.0504063,23.5073047 28.9787852,23.6311016 C28.36225,24.6982187 28.7288164,26.0586484 29.7933359,26.6725859 C30.2635859,26.944375 30.8409336,27.0459805 31.4252578,26.9071914 C31.5651602,27.4293945 31.6033086,27.9909336 31.3507422,28.4289727 C30.6945,29.5660781 27.8049414,29.9687148 22.8002969,28.4038867 C23.1429648,26.6465352 23.3860313,24.7601914 23.5243008,22.7812227 C24.57175,22.0761445 25.5714766,21.3475391 26.5054453,20.6072813 C27.5695195,21.5272969 28.4806289,22.4249727 29.2254883,23.2870234 L29.2254883,23.2870234 Z M31.8665625,10.4648438 C33.091543,12.5861641 28.4029219,17.0927266 26.5167266,18.6816016 C25.612668,17.9491367 24.6335,17.2197148 23.5967383,16.5054336 C23.5028516,14.4457891 23.2964492,12.4625898 22.9806484,10.5956914 C28.1876133,8.90691797 31.1894648,9.29211328 31.8665625,10.4648437 L31.8665625,10.4648438 Z M21.2893516,9.60769141 C19.5042422,10.25525 17.6661406,11.0663867 15.8120078,12.0251445 C14.6730469,11.4910664 13.5447734,11.014582 12.4466328,10.6048203 C12.7467734,8.80783594 13.1348633,7.20404297 13.5855938,5.89608594 C13.7232695,5.92250781 13.8638398,5.9375 14.0065625,5.9375 C15.2342891,5.9375 16.233125,4.93866406 16.233125,3.7109375 C16.233125,3.13188281 16.0043086,2.586375 15.6204492,2.18002734 C16.0028242,1.79794922 16.469957,1.484375 16.9753125,1.484375 C18.3277266,1.484375 20.1580352,4.00283984 21.2893516,9.60769141 Z M14.0065625,2.96875 C14.426418,2.96875 14.74875,3.31290234 14.74875,3.7109375 C14.74875,4.12017969 14.4158047,4.453125 14.0065625,4.453125 C13.6002891,4.453125 13.264375,4.12210937 13.264375,3.7109375 C13.264375,3.30169531 13.5973203,2.96875 14.0065625,2.96875 Z M1.67593359,11.3584375 C2.36995313,10.1560938 5.45017969,9.79019531 10.7943008,11.5928203 C10.6319844,12.763918 10.5080391,13.980957 10.423875,15.2228594 C8.76679297,16.3431172 7.25896484,17.5033789 5.92955859,18.6804883 C4.313,17.1960391 0.57,13.2735781 1.67593359,11.3584375 L1.67593359,11.3584375 Z" id="Shape" fill="url(#linearGradient-2)"></path>
                <circle id="Oval" fill="url(#linearGradient-1)" cx="13.264375" cy="33.1015625" r="1"></circle>
            </g>
        </g>
    </g>
</svg>