<?xml version="1.0" encoding="UTF-8"?>
<svg width="38px" height="38px" viewBox="0 0 38 38" version="1.1" xmlns="http://www.w3.org/2000/svg" xmlns:xlink="http://www.w3.org/1999/xlink">
    <title>education</title>
    <defs>
        <linearGradient x1="46.5824179%" y1="-30.6686444%" x2="57.4806141%" y2="110.823907%" id="linearGradient-1">
            <stop stop-color="#0E6BA8" offset="0%"></stop>
            <stop stop-color="#155799" offset="100%"></stop>
        </linearGradient>
        <linearGradient x1="46.5824179%" y1="1.20044969%" x2="57.4806141%" y2="86.7947093%" id="linearGradient-2">
            <stop stop-color="#0E6BA8" offset="0%"></stop>
            <stop stop-color="#155799" offset="100%"></stop>
        </linearGradient>
    </defs>
    <g id="Landing_page" stroke="none" stroke-width="1" fill="none" fill-rule="evenodd">
        <g id="01_Home_Page" transform="translate(-692.000000, -1136.000000)" fill-rule="nonzero">
            <g id="education" transform="translate(692.000000, 1136.000000)">
                <path d="M37.6725667,11.320611 C37.8746,11.2097767 38,10.996975 38,10.7664397 C38,10.5359045 37.8746,10.3231027 37.6725667,10.2122684 L19.3059,0.0788506571 C19.1152667,-0.0262835524 18.8847333,-0.0262835524 18.6941,0.0788506571 L0.327433333,10.2122684 C0.1254,10.3231027 0,10.5359045 0,10.7664397 C0,10.996975 0.1254,11.2097767 0.327433333,11.320611 L5.06666667,13.9356661 L5.06666667,27.8665822 L0.633333333,27.8665822 C0.283733333,27.8665822 0,28.1503179 0,28.4999208 L0,37.3666614 C0,37.7162643 0.283733333,38 0.633333333,38 L27.8666667,38 L31.0333333,38 L37.3666667,38 C37.7162667,38 38,37.7162643 38,37.3666614 L38,28.4999208 C38,28.1503179 37.7162667,27.8665822 37.3666667,27.8665822 L32.9333333,27.8665822 L32.9333333,13.9356661 L35.4666667,12.5378878 L35.4666667,18.4830374 C34.7313667,18.7452395 34.2,19.441912 34.2,20.2665189 L34.2,25.3332278 C34.2,25.6828307 34.4837333,25.9665664 34.8333333,25.9665664 L37.3666667,25.9665664 C37.7162667,25.9665664 38,25.6828307 38,25.3332278 L38,20.2665189 C38,19.441912 37.4686333,18.7452395 36.7333333,18.4830374 L36.7333333,11.8393153 L37.6725667,11.320611 Z M36.7333333,24.6998892 L35.4666667,24.6998892 L35.4666667,20.2665189 C35.4666667,19.9175493 35.7510333,19.6331803 36.1,19.6331803 C36.4489667,19.6331803 36.7333333,19.9175493 36.7333333,20.2665189 L36.7333333,24.6998892 Z M19,1.35629464 L36.0556667,10.7664397 L19,20.1765848 L1.94433333,10.7664397 L19,1.35629464 Z M1.26666667,29.1332594 L27.2333333,29.1332594 L27.2333333,30.3999367 L21.5333333,30.3999367 C21.2774667,30.3999367 21.0463,30.5544713 20.9481333,30.7907066 C20.8499667,31.0275752 20.9044333,31.2999108 21.0855667,31.4810457 L22.5378,32.9332911 L21.0855667,34.3855365 C20.9044333,34.5666714 20.8499667,34.839007 20.9481333,35.0758756 C21.0463,35.3121109 21.2774667,35.4666456 21.5333333,35.4666456 L27.2333333,35.4666456 L27.2333333,36.7333228 L1.26666667,36.7333228 L1.26666667,29.1332594 Z M23.8811,32.4855207 L23.0622,31.6666139 L27.2333333,31.6666139 L27.2333333,34.1999683 L23.0622,34.1999683 L23.8811,33.3810615 C24.1287333,33.1334261 24.1287333,32.7331561 23.8811,32.4855207 Z M28.5,36.7333228 L28.5,29.1332594 L30.4,29.1332594 L30.4,36.7333228 L28.5,36.7333228 Z M36.7333333,36.7333228 L31.6666667,36.7333228 L31.6666667,29.1332594 L36.7333333,29.1332594 L36.7333333,36.7333228 Z M31.6666667,27.8665822 L31.0333333,27.8665822 L27.8666667,27.8665822 L6.33333333,27.8665822 L6.33333333,25.9665664 L10.1333333,25.9665664 L10.1333333,24.6998892 L6.33333333,24.6998892 L6.33333333,14.6342386 L18.6941,21.4540288 C18.7891,21.5065959 18.8942333,21.5331961 19,21.5331961 C19.1057667,21.5331961 19.2109,21.5065959 19.3059,21.4540288 L31.6666667,14.6342386 L31.6666667,27.8665822 Z" id="Shape" fill="url(#linearGradient-1)"></path>
                <polygon id="Path" fill="url(#linearGradient-1)" points="11.5151515 24.7575758 12.6666667 24.7575758 12.6666667 25.9090909 11.5151515 25.9090909"></polygon>
                <polygon id="Path" fill="url(#linearGradient-1)" points="13.8181818 24.7575758 14.969697 24.7575758 14.969697 25.9090909 13.8181818 25.9090909"></polygon>
                <polygon id="Path" fill="url(#linearGradient-1)" points="16.6969697 24.7575758 17.8484848 24.7575758 17.8484848 25.9090909 16.6969697 25.9090909"></polygon>
                <path d="M21.8787879,10.6515152 C21.8787879,9.52168687 20.7407311,8.63636364 19.2878788,8.63636364 C17.8350265,8.63636364 16.6969697,9.52168687 16.6969697,10.6515152 C16.6969697,11.7813434 17.8350265,12.6666667 19.2878788,12.6666667 C20.7407311,12.6666667 21.8787879,11.7813434 21.8787879,10.6515152 Z M17.9924242,10.6515152 C17.9924242,10.3774545 18.4970038,9.97979798 19.2878788,9.97979798 C20.0787538,9.97979798 20.5833333,10.3774545 20.5833333,10.6515152 C20.5833333,10.9255758 20.0787538,11.3232323 19.2878788,11.3232323 C18.4970038,11.3232323 17.9924242,10.9255758 17.9924242,10.6515152 Z" id="Shape" fill="url(#linearGradient-2)"></path>
            </g>
        </g>
    </g>
</svg>