<?xml version="1.0" encoding="UTF-8"?>
<svg width="28px" height="28px" viewBox="0 0 28 28" version="1.1" xmlns="http://www.w3.org/2000/svg" xmlns:xlink="http://www.w3.org/1999/xlink">
    <title>Group 3</title>
    <g id="Landing_page" stroke="none" stroke-width="1" fill="none" fill-rule="evenodd">
        <g id="01_Home_Page" transform="translate(-1411.000000, -133.000000)">
            <g id="Group-3" transform="translate(1411.000000, 133.000000)">
                <circle id="bg" fill="#6DD400" cx="14" cy="14" r="14"></circle>
                <g id="facebook-logo" transform="translate(10.000000, 6.000000)" fill="#FFFFFF" fill-rule="nonzero">
                    <path d="M8.50567925,0.00339622642 L6.38898113,0 C4.0109434,0 2.47415094,1.57669811 2.47415094,4.0170566 L2.47415094,5.86918868 L0.34590566,5.86918868 C0.162,5.86918868 0.0130754717,6.01828302 0.0130754717,6.20218868 L0.0130754717,8.88571698 C0.0130754717,9.06962264 0.162169811,9.21854717 0.34590566,9.21854717 L2.47415094,9.21854717 L2.47415094,15.9899434 C2.47415094,16.1738491 2.62307547,16.3227736 2.80698113,16.3227736 L5.58373585,16.3227736 C5.76764151,16.3227736 5.91656604,16.1736792 5.91656604,15.9899434 L5.91656604,9.21854717 L8.40498113,9.21854717 C8.58888679,9.21854717 8.73781132,9.06962264 8.73781132,8.88571698 L8.73883019,6.20218868 C8.73883019,6.11388679 8.70367925,6.02932075 8.64135849,5.96683019 C8.57903774,5.90433962 8.49413208,5.86918868 8.40583019,5.86918868 L5.91656604,5.86918868 L5.91656604,4.29911321 C5.91656604,3.5444717 6.09639623,3.16137736 7.07943396,3.16137736 L8.50533962,3.16086792 C8.68907547,3.16086792 8.838,3.01177358 8.838,2.82803774 L8.838,0.336226415 C8.838,0.152660377 8.68924528,0.00373584906 8.50567925,0.00339622642 Z" id="Path"></path>
                </g>
            </g>
        </g>
    </g>
</svg>