<?xml version="1.0" encoding="UTF-8"?>
<svg width="28px" height="28px" viewBox="0 0 28 28" version="1.1" xmlns="http://www.w3.org/2000/svg" xmlns:xlink="http://www.w3.org/1999/xlink">
    <title>Group 5</title>
    <g id="Landing_page" stroke="none" stroke-width="1" fill="none" fill-rule="evenodd">
        <g id="01_Home_Page" transform="translate(-1507.000000, -133.000000)">
            <g id="Group-5" transform="translate(1507.000000, 133.000000)">
                <circle id="bg" fill="#6DD400" cx="14" cy="14" r="14"></circle>
                <g id="twitter" transform="translate(7.000000, 8.000000)" fill="#FFFFFF" fill-rule="nonzero">
                    <path d="M14.6599839,1.422 C14.4243387,1.52651613 14.1820645,1.61472581 13.9345161,1.68633871 C14.2275968,1.3548871 14.4510484,0.964887097 14.5874516,0.538112903 C14.6180323,0.442451613 14.5863387,0.337741935 14.5077097,0.275177419 C14.4291774,0.212564516 14.3200645,0.205064516 14.2335968,0.256306452 C13.707871,0.568112903 13.1406774,0.792193548 12.5459516,0.923225806 C11.946871,0.33783871 11.1331935,0.00469354839 10.2920323,0.00469354839 C8.51646774,0.00469354839 7.07191935,1.44919355 7.07191935,3.22470968 C7.07191935,3.36454839 7.08077419,3.5036129 7.09829032,3.64074194 C4.89498387,3.44729032 2.8466129,2.36433871 1.44,0.638903226 C1.38987097,0.577403226 1.31264516,0.544258065 1.23358065,0.550596774 C1.15446774,0.556790323 1.0833871,0.601403226 1.04341935,0.669967742 C0.758129032,1.1595 0.607306452,1.7193871 0.607306452,2.28904839 C0.607306452,3.06493548 0.884322581,3.80109677 1.37366129,4.37632258 C1.22487097,4.32479032 1.08048387,4.2603871 0.942677419,4.1838871 C0.868693548,4.14270968 0.778403226,4.14333871 0.704903226,4.18548387 C0.631354839,4.22762903 0.585241935,4.30514516 0.583306452,4.38987097 C0.582967742,4.40414516 0.582967742,4.41841935 0.582967742,4.4328871 C0.582967742,5.59103226 1.20629032,6.63372581 2.15927419,7.20203226 C2.07740323,7.19385484 1.99558065,7.182 1.91429032,7.16646774 C1.83048387,7.15045161 1.74430645,7.17982258 1.68779032,7.24374194 C1.63117742,7.3076129 1.61245161,7.39664516 1.63853226,7.47793548 C1.99127419,8.57922581 2.89945161,9.38927419 3.99735484,9.63624194 C3.08675806,10.2065806 2.04541935,10.5053226 0.952258065,10.5053226 C0.72416129,10.5053226 0.494758065,10.4919194 0.270241935,10.4653548 C0.158709677,10.4520968 0.0520645161,10.5179516 0.0140806452,10.6240161 C-0.0239032258,10.730129 0.0163548387,10.8484355 0.111241935,10.9092581 C1.51558065,11.8096935 3.13940323,12.285629 4.80706452,12.285629 C8.08548387,12.285629 10.136371,10.7396613 11.2795161,9.44274194 C12.705,7.82559677 13.5225484,5.68509677 13.5225484,3.57014516 C13.5225484,3.48179032 13.5211935,3.39256452 13.5184839,3.30362903 C14.0808871,2.87990323 14.5650968,2.36709677 14.9591129,1.77769355 C15.0189677,1.68817742 15.0124839,1.56987097 14.9431452,1.48746774 C14.8739032,1.40501613 14.7585,1.37835484 14.6599839,1.422 Z" id="XMLID_827_"></path>
                </g>
            </g>
        </g>
    </g>
</svg>