<?xml version="1.0" encoding="UTF-8"?>
<svg width="60px" height="60px" viewBox="0 0 60 60" version="1.1" xmlns="http://www.w3.org/2000/svg" xmlns:xlink="http://www.w3.org/1999/xlink">
    <title>book</title>
    <g id="Symbols" stroke="none" stroke-width="1" fill="none" fill-rule="evenodd">
        <g id="Quiz" fill="#FFFFFF" fill-rule="nonzero">
            <g id="book">
                <path d="M30,0 C21.2356641,0 14.1796875,7.07519531 14.1796875,15.8203125 C14.1796875,21.3083203 17.1185156,26.4924609 21.8564062,29.3524219 C24.9085547,31.1789062 27.1967578,34.0319531 28.4207812,37.6849219 C28.7143359,38.2891406 29.390625,38.5243359 30.061875,38.5243359 C30.7347656,38.5243359 31.4111719,37.9939453 31.7047266,37.3896094 C32.8033594,34.0319531 35.0915625,31.1789062 38.150625,29.3490234 C42.8814844,26.4924609 45.8203125,21.3083203 45.8203125,15.8203125 C45.8203125,7.13929687 38.8102734,0 30,0 L30,0 Z M30,24.609375 C29.0292188,24.609375 28.2421875,23.8223438 28.2421875,22.8515625 C28.2421875,21.8807813 29.0292188,21.09375 30,21.09375 C30.9707812,21.09375 31.7578125,21.8807813 31.7578125,22.8515625 C31.7578125,23.8223438 30.9707812,24.609375 30,24.609375 Z M31.7800781,17.2708594 C31.7800781,18.2407031 30.9817969,19.1814844 30.0119531,19.1814844 C29.0403516,19.1814844 28.2420703,18.5497266 28.2420703,17.578125 C28.2420703,15.8048438 29.1878906,14.4642188 30.5937891,13.96125 C31.2891797,13.7105859 31.7578125,13.04625 31.7578125,12.3046875 C31.7578125,11.3348438 30.9698437,10.546875 30,10.546875 C29.0301562,10.546875 28.2421875,11.3348438 28.2421875,12.3046875 C28.2421875,13.2762891 27.4559766,14.0625 26.484375,14.0625 C25.5127734,14.0625 24.7265625,13.2762891 24.7265625,12.3046875 C24.7265625,9.39679688 27.0921094,7.03125 30,7.03125 C32.9078906,7.03125 35.2734375,9.39679688 35.2734375,12.3046875 C35.2734375,14.5242188 33.8692969,16.5207422 31.7800781,17.2708594 L31.7800781,17.2708594 Z" id="Shape"></path>
                <path d="M58.2421875,17.578125 L56.484375,17.578125 L56.484375,47.6953125 C56.484375,50.6032031 54.1188281,52.96875 51.2109375,52.96875 L34.9730859,52.96875 C34.2469922,55.0149609 32.2917188,56.484375 30,56.484375 C27.7082812,56.484375 25.753125,55.0149609 25.0269141,52.96875 L8.7890625,52.96875 C5.88117187,52.96875 3.515625,50.6032031 3.515625,47.6953125 L3.515625,17.578125 L1.7578125,17.578125 C0.786210937,17.578125 0,18.3643359 0,19.3359375 L0,54.7265625 C0,55.6981641 0.786210937,56.484375 1.7578125,56.484375 L22.2408984,56.484375 L25.2414844,59.4849609 C25.5711328,59.8146094 26.0175,60 26.484375,60 L33.515625,60 C33.9825,60 34.4288672,59.8146094 34.7583984,59.4849609 L37.7591016,56.484375 L58.2421875,56.484375 C59.2137891,56.484375 60,55.6981641 60,54.7265625 L60,19.3359375 C60,18.3643359 59.2137891,17.578125 58.2421875,17.578125 Z" id="Path"></path>
                <g id="Group" transform="translate(7.148438, 10.546875)">
                    <path d="M18.0106641,28.47 C17.8981641,28.2556641 16.9286719,24.2305078 12.9019922,21.8216016 C7.10847656,18.3248438 3.515625,11.9853516 3.515625,5.2734375 C3.515625,3.51046875 3.7284375,1.89339844 4.16789063,0.331289062 C4.19707031,0.216328125 4.2515625,0.11390625 4.28285156,0 L1.7578125,0 C0.786210938,0 1.66533454e-15,0.786210938 1.66533454e-15,1.7578125 L1.66533454e-15,37.1484375 C1.66533454e-15,38.1200391 0.786210938,38.90625 1.7578125,38.90625 L19.3359375,38.90625 C20.3057813,38.90625 21.09375,39.6942187 21.09375,40.6640625 L21.09375,31.1846484 C18.7372266,30.4263281 18.0682031,28.5445312 18.0106641,28.47 L18.0106641,28.47 Z" id="Path"></path>
                    <path d="M43.9453125,0 L41.4092578,0 C41.4534375,0.157265625 41.5275,0.299296875 41.5678125,0.458320313 C41.9763281,1.90195313 42.1875,3.50707031 42.1875,5.2734375 C42.1875,11.9853516 38.5980469,18.3230859 32.8198828,21.8112891 C28.7878125,24.2228906 28.0062891,27.8391797 27.718125,28.3790625 C27.0801563,29.6925 25.9215234,30.6734766 24.609375,31.1546484 L24.609375,40.6640625 C24.609375,39.6942187 25.3973437,38.90625 26.3671875,38.90625 L43.9453125,38.90625 C44.9169141,38.90625 45.703125,38.1200391 45.703125,37.1484375 L45.703125,1.7578125 C45.703125,0.786210938 44.9169141,0 43.9453125,0 Z" id="Path"></path>
                </g>
            </g>
        </g>
    </g>
</svg>