<?xml version="1.0" encoding="UTF-8"?>
<svg width="14px" height="16px" viewBox="0 0 14 16" version="1.1" xmlns="http://www.w3.org/2000/svg" xmlns:xlink="http://www.w3.org/1999/xlink">
    <title>017-calendar copy@2x</title>
    <g id="Symbols" stroke="none" stroke-width="1" fill="none" fill-rule="evenodd">
        <g id="coures-icons" transform="translate(-199.000000, -52.000000)" fill="#414D55" fill-rule="nonzero">
            <g id="017-calendar-copy" transform="translate(199.000000, 52.000000)">
                <path d="M4.94921875,16 L3.28125,16 C1.47196875,16 0,14.31775 0,12.25 L0,7.125 C0,5.05725 1.47196875,3.375 3.28125,3.375 L10.71875,3.375 C12.5280312,3.375 14,5.05725 14,7.125 L14,9 C14,9.3451875 13.7551641,9.625 13.453125,9.625 C13.1510859,9.625 12.90625,9.3451875 12.90625,9 L12.90625,7.125 C12.90625,5.7465 11.9249375,4.625 10.71875,4.625 L3.28125,4.625 C2.0750625,4.625 1.09375,5.7465 1.09375,7.125 L1.09375,12.25 C1.09375,13.6285 2.0750625,14.75 3.28125,14.75 L4.94921875,14.75 C5.25125781,14.75 5.49609375,15.0298125 5.49609375,15.375 C5.49609375,15.7201875 5.25125781,16 4.94921875,16 Z M5.5234375,1.875 C5.5234375,0.841125 4.78745313,0 3.8828125,0 C2.97817188,0 2.2421875,0.841125 2.2421875,1.875 C2.2421875,2.2201875 2.48702344,2.5 2.7890625,2.5 C3.09110156,2.5 3.3359375,2.2201875 3.3359375,1.875 C3.3359375,1.530375 3.58126563,1.25 3.8828125,1.25 C4.18435937,1.25 4.4296875,1.530375 4.4296875,1.875 C4.4296875,2.2201875 4.67452344,2.5 4.9765625,2.5 C5.27860156,2.5 5.5234375,2.2201875 5.5234375,1.875 Z M11.8125,1.875 C11.8125,0.841125 11.0765156,0 10.171875,0 C9.26723437,0 8.53125,0.841125 8.53125,1.875 C8.53125,2.2201875 8.77608594,2.5 9.078125,2.5 C9.38016406,2.5 9.625,2.2201875 9.625,1.875 C9.625,1.530375 9.87032813,1.25 10.171875,1.25 C10.4734219,1.25 10.71875,1.530375 10.71875,1.875 C10.71875,2.2201875 10.9635859,2.5 11.265625,2.5 C11.5676641,2.5 11.8125,2.2201875 11.8125,1.875 Z M14,14.09375 L14,12.443 C14,11.3888437 13.2496055,10.53125 12.3272188,10.53125 L10.8828125,10.53125 C10.5807734,10.53125 10.3359375,10.8110625 10.3359375,11.15625 C10.3359375,11.5014375 10.5807734,11.78125 10.8828125,11.78125 L12.3272188,11.78125 C12.6464844,11.78125 12.90625,12.078125 12.90625,12.443 L12.90625,14.09375 C12.90625,14.4389375 13.1510859,14.71875 13.453125,14.71875 C13.7551641,14.71875 14,14.4389375 14,14.09375 Z M12.0983789,13.7125938 C12.306957,13.4629688 12.2989727,13.0673438 12.0805508,12.8289375 C11.8621289,12.5905625 11.515957,12.5996875 11.3073516,12.8493125 C10.2980391,14.0572188 8.88100391,14.75 7.41958984,14.75 L7.1640625,14.75 C6.86202344,14.75 6.6171875,15.0298125 6.6171875,15.375 C6.6171875,15.7201875 6.86202344,16 7.1640625,16 L7.41958984,16 C9.17836719,16 10.8837148,15.1662813 12.0983789,13.7125938 L12.0983789,13.7125938 Z M3.58203125,6.3125 C3.20449609,6.3125 2.8984375,6.66228125 2.8984375,7.09375 C2.8984375,7.52521875 3.20449609,7.875 3.58203125,7.875 C3.95956641,7.875 4.265625,7.52521875 4.265625,7.09375 C4.265625,6.66228125 3.95956641,6.3125 3.58203125,6.3125 Z M5.93359375,6.3125 C5.55605859,6.3125 5.25,6.66228125 5.25,7.09375 C5.25,7.52521875 5.55605859,7.875 5.93359375,7.875 C6.31112891,7.875 6.6171875,7.52521875 6.6171875,7.09375 C6.6171875,6.66228125 6.31112891,6.3125 5.93359375,6.3125 Z M8.28515625,6.3125 C7.90762109,6.3125 7.6015625,6.66228125 7.6015625,7.09375 C7.6015625,7.52521875 7.90762109,7.875 8.28515625,7.875 C8.66269141,7.875 8.96875,7.52521875 8.96875,7.09375 C8.96875,6.66228125 8.66269141,6.3125 8.28515625,6.3125 Z M10.6367188,6.3125 C10.2591836,6.3125 9.953125,6.66228125 9.953125,7.09375 C9.953125,7.52521875 10.2591836,7.875 10.6367188,7.875 C11.0142539,7.875 11.3203125,7.52521875 11.3203125,7.09375 C11.3203125,6.66228125 11.0142539,6.3125 10.6367188,6.3125 Z M3.58203125,9 C3.20449609,9 2.8984375,9.34978125 2.8984375,9.78125 C2.8984375,10.2127188 3.20449609,10.5625 3.58203125,10.5625 C3.95956641,10.5625 4.265625,10.2127188 4.265625,9.78125 C4.265625,9.34978125 3.95956641,9 3.58203125,9 Z M3.58203125,11.6875 C3.20449609,11.6875 2.8984375,12.0372812 2.8984375,12.46875 C2.8984375,12.9002188 3.20449609,13.25 3.58203125,13.25 C3.95956641,13.25 4.265625,12.9002188 4.265625,12.46875 C4.265625,12.0372812 3.95956641,11.6875 3.58203125,11.6875 Z M5.93359375,9 C5.55605859,9 5.25,9.34978125 5.25,9.78125 C5.25,10.2127188 5.55605859,10.5625 5.93359375,10.5625 C6.31112891,10.5625 6.6171875,10.2127188 6.6171875,9.78125 C6.6171875,9.34978125 6.31112891,9 5.93359375,9 Z M5.93359375,11.6875 C5.55605859,11.6875 5.25,12.0372812 5.25,12.46875 C5.25,12.9002188 5.55605859,13.25 5.93359375,13.25 C6.31112891,13.25 6.6171875,12.9002188 6.6171875,12.46875 C6.6171875,12.0372812 6.31112891,11.6875 5.93359375,11.6875 Z M8.28515625,9 C7.90762109,9 7.6015625,9.34978125 7.6015625,9.78125 C7.6015625,10.2127188 7.90762109,10.5625 8.28515625,10.5625 C8.66269141,10.5625 8.96875,10.2127188 8.96875,9.78125 C8.96875,9.34978125 8.66269141,9 8.28515625,9 Z" id="Shape"></path>
            </g>
        </g>
    </g>
</svg>