<?xml version="1.0" encoding="UTF-8"?>
<svg width="427px" height="362px" viewBox="0 0 427 362" version="1.1" xmlns="http://www.w3.org/2000/svg" xmlns:xlink="http://www.w3.org/1999/xlink">
    <title>Stu-01@2x</title>
    <g id="Symbols" stroke="none" stroke-width="1" fill="none" fill-rule="evenodd">
        <g id="Stu" fill-rule="nonzero">
            <g id="Stu-01">
                <path d="M375.91,146.46 C366.91,111.67 334.26,113.83 303.28,120.29 C286.61,123.76 263.28,128.57 238.92,121.47 C186.51,106.19 126.24,102.38 96.54,121.47 C66.84,140.56 48.99,163.56 57.54,195.69 C66.09,227.82 87.86,256.69 69.36,273.92 C50.86,291.15 51.17,356.25 127.25,361.32 C203.33,366.39 195.79,293.38 246.04,296.77 C296.29,300.16 399.43,349.58 403.79,313.77 C408.15,277.96 352.18,252.37 372.24,192.87 C376.23,181 380,162.36 375.91,146.46 Z" id="Path" fill="#2C2A40" opacity="0.1"></path>
                <path d="M201,89.52 C201,89.52 202.94,77.04 208.41,77.52 C209.93,77.65 210.96,79.19 211.63,80.83 C211.813839,81.2839387 212.265002,81.5716428 212.754126,81.5468485 C213.24325,81.5220542 213.663007,81.1902021 213.8,80.72 C215.25,75.65 218.21,67.91 222.8,67.91 C227.54,67.91 227.7,76.77 227.36,82.16 C227.337377,82.5197834 227.55818,82.8502545 227.899229,82.967052 C228.240277,83.0838495 228.617314,82.9581181 228.82,82.66 C230.07,80.82 231.89,79.05 234.12,79.56 C238.44,80.56 237.28,89.56 237.28,89.56 L201,89.52 Z" id="Path" fill="#2C2A40" opacity="0.1"></path>
                <path d="M0.87,206.87 C0.87,206.87 2.81,194.39 8.28,194.87 C9.8,195 10.83,196.53 11.5,198.18 C11.6838388,198.633939 12.1350019,198.921643 12.624126,198.896849 C13.11325,198.872054 13.5330071,198.540202 13.67,198.07 C15.12,193 18.08,185.26 22.67,185.26 C27.26,185.26 27.57,194.12 27.22,199.51 C27.197377,199.869783 27.4181801,200.200255 27.7592288,200.317052 C28.1002775,200.43385 28.4773143,200.308118 28.68,200.01 C29.93,198.17 31.76,196.4 33.98,196.91 C38.31,197.91 37.14,206.91 37.14,206.91 L0.87,206.87 Z" id="Path" fill="#2C2A40" opacity="0.1"></path>
                <path d="M385.83,157 C385.83,157 387.77,144.52 393.24,145 C394.76,145.14 395.79,146.67 396.46,148.32 C396.643839,148.773939 397.095002,149.061643 397.584126,149.036849 C398.07325,149.012054 398.493007,148.680202 398.63,148.21 C400.08,143.14 403.04,135.4 407.63,135.4 C412.38,135.4 412.53,144.25 412.19,149.64 C412.167377,149.999783 412.38818,150.330255 412.729229,150.447052 C413.070277,150.56385 413.447314,150.438118 413.65,150.14 C414.9,148.3 416.72,146.53 418.95,147.05 C423.27,148.05 422.11,156.99 422.11,156.99 L385.83,157 Z" id="Path" fill="#2C2A40" opacity="0.1"></path>
                <path d="M371.5,360.69 C371.5,360.69 377.6,359.62 377.25,351.53 C376.9,343.44 374.19,332.31 368.8,329.07 C363.41,325.83 359.48,330.51 359.48,330.51 L371.5,360.69 Z" id="Path" fill="#7B7B9A"></path>
                <path d="M347.42,329.08 C347.6,331.77 350.12,335.72 355.51,338.6 C360.9,341.48 363.77,351.71 366.19,356.2 C366.940474,357.735369 368.082098,359.045996 369.5,360 C370.097647,360.396896 370.785289,360.637571 371.5,360.7 C371.5,360.7 371.5,360 371.5,358.77 C371.530722,353.76344 371.14607,348.76296 370.35,343.82 C368.91,335 363.69,332 363.69,332 C362.74,330.38 360.69,329.22 358.35,328.49 C354.53,327.3 349.95,327.24 348.17,328.14 C347.67,328.34 347.39,328.67 347.42,329.08 Z" id="Path" fill="#B0B1CA"></path>
                <path d="M368.3,342.37 C369.58,347.76 370.15,356.66 369.5,359.99 C370.097647,360.386896 370.785289,360.627571 371.5,360.69 C371.65518,355.040693 371.280205,349.389282 370.38,343.81 C368.91,335 363.69,332 363.69,332 C362.74,330.38 360.69,329.22 358.35,328.49 C361.44,331.53 367.22,337.8 368.3,342.37 Z" id="Path" fill="#2C2A40"></path>
                <path d="M347.42,329.08 C347.6,331.77 350.12,335.72 355.51,338.6 C360.9,341.48 363.77,351.71 366.19,356.2 C366.940474,357.735369 368.082098,359.045996 369.5,360 C370.097647,360.396896 370.785289,360.637571 371.5,360.7 C371.5,360.7 371.5,360 371.5,358.77 C371.391999,358.663128 371.257326,358.587158 371.11,358.55 C369.31,358.1 366.89,357.41 365.45,350.73 C364.01,344.05 361.58,339.23 357.45,337.17 C353.68,335.29 348.95,329.17 348.14,328.1 C347.67,328.34 347.39,328.67 347.42,329.08 Z" id="Path" fill="#2C2A40" opacity="0.2"></path>
                <path d="M304,160.23 C304,160.23 345.61,153.98 356.9,171.65 C368.19,189.32 353.02,248.37 340.78,257.31 C328.54,266.25 308.19,261.62 300.58,256 C292.97,250.38 289.45,168.76 304,160.23 Z" id="Path" fill="#2C2A40"></path>
                <path d="M352.21,233.76 C355.709893,232.658439 358.408194,229.85085 359.37,226.31 L353.08,223.52 C353.08,223.52 350.62,229.9 352.21,233.76 Z" id="Path" fill="#00497B"></path>
                <path d="M352.21,222.9 C360.83,236.01 380.3,239.42 380.3,239.42 C384.3,238.25 389.7,232.64 395.01,225.8 L395.01,225.8 C405.1,212.8 415.01,195.36 415.01,195.36 L406.93,192.67 C406.93,192.67 392.74,208.34 386.63,211.76 C380.52,215.18 378.72,218.4 378.72,218.4 C378.047531,217.683767 377.325769,217.015469 376.56,216.4 C373.342929,213.900841 369.866245,211.755153 366.19,210 C359.28,208.07 352.21,222.9 352.21,222.9 Z" id="Path" fill="#F9B587"></path>
                <path d="M352.21,222.9 C360.83,236.01 380.3,239.42 380.3,239.42 C384.3,238.25 389.7,232.64 395.01,225.8 C395.01,225.8 385.52,235.88 379.49,236.73 C373.46,237.58 362.03,229.36 360.88,226.22 C359.73,223.08 361.43,215.07 366.19,210 C359.28,208.07 352.21,222.9 352.21,222.9 Z" id="Path" fill="#F39568"></path>
                <path d="M269.47,257.31 C269.47,257.31 269.01,283.82 272.73,300.57 C276.45,317.32 292.36,273.16 292.36,273.16 C292.36,273.16 278.11,260.64 269.47,257.31 Z" id="Path" fill="#2C2A40"></path>
                <path d="M325,272.84 C325,272.84 324.65,288.47 314.41,299.52 C308.066076,306.529599 303.099466,314.671582 299.77,323.52 C299.77,323.52 315.1,316.52 325,318.39 C325,318.39 330.18,318.66 332.07,316.51 C333.96,314.36 334.49,311.79 337.46,312.6 C340.43,313.41 344.6,312.47 345.67,312.33 C346.74,312.19 353.67,323.11 352.28,330.25 C352.28,330.25 346.89,331.73 346.21,332.68 C345.53,333.63 341.63,337.68 339.21,337.53 C336.79,337.38 330.31,341.17 330.31,341.17 C330.31,341.17 297,353.84 294,356 C288.86,359.6 264.63,363.54 262.47,349.94 C260.31,336.34 281.47,271.65 284.47,264.64 C287.47,257.63 321.48,264.35 325,272.84 Z" id="Path" fill="#2C2A40"></path>
                <path d="M294.73,317.7 L295.67,318.04 C296.01,317.11 296.43,316.11 296.92,315.04 L296.01,314.62 C295.51,315.71 295.08,316.73 294.73,317.7 Z" id="Path" fill="#5B5B6C"></path>
                <path d="M344,316.34 L344.21,317.34 C345.21,317.12 346.27,316.91 347.39,316.72 L347.22,315.72 C346.1,315.91 345,316.12 344,316.34 Z" id="Path" fill="#5B5B6C"></path>
                <path d="M294.47,325.39 L293.47,325.5 L293.47,325.62 C293.549736,326.777844 293.994353,327.880634 294.74,328.77 L295.47,328.09 C294.876527,327.347191 294.527243,326.439052 294.47,325.49 L294.47,325.39 Z" id="Path" fill="#5B5B6C"></path>
                <path d="M302.37,328.33 L302.63,329.33 C303.63,329.04 304.74,328.69 305.76,328.33 L305.45,327.38 C304.44,327.71 303.37,328.05 302.37,328.33 Z" id="Path" fill="#5B5B6C"></path>
                <path d="M301.58,305.09 C300.94,306.09 300.35,306.96 299.8,307.83 L300.65,308.36 C301.19,307.5 301.78,306.59 302.41,305.64 L301.58,305.09 Z" id="Path" fill="#5B5B6C"></path>
                <path d="M299.49,310.27 L298.63,309.77 C298.04,310.77 297.5,311.71 297.03,312.62 L297.91,313.09 C298.38,312.2 298.91,311.25 299.49,310.27 Z" id="Path" fill="#5B5B6C"></path>
                <path d="M320.21,271.78 L319.21,271.6 C319.03,272.66 318.81,273.72 318.57,274.77 L319.57,274.99 C319.81,273.93 320,272.85 320.21,271.78 Z" id="Path" fill="#5B5B6C"></path>
                <path d="M305.53,301.13 L304.71,300.55 C304.03,301.5 303.42,302.38 302.84,303.22 L303.67,303.79 C304.24,303 304.85,302.08 305.53,301.13 Z" id="Path" fill="#5B5B6C"></path>
                <polygon id="Path" fill="#5B5B6C" points="307.94 296.09 306 298.72 306.81 299.3 308.72 296.68"></polygon>
                <path d="M295,320.14 L294,319.88 C293.699557,320.952102 293.501997,322.050403 293.41,323.16 L294.41,323.24 C294.516543,322.191534 294.713952,321.154303 295,320.14 L295,320.14 Z" id="Path" fill="#5B5B6C"></path>
                <path d="M297.18,329 L296.99,330 C297.395739,330.074454 297.807488,330.111277 298.22,330.11 C298.952106,330.099067 299.681732,330.022089 300.4,329.88 L300.22,328.88 C299.222158,329.102717 298.192293,329.14337 297.18,329 L297.18,329 Z" id="Path" fill="#5B5B6C"></path>
                <path d="M324,324.63 L324.16,325.63 C325.25,325.45 326.34,325.21 327.39,324.93 L327.13,323.93 C326.06,324.22 325,324.45 324,324.63 Z" id="Path" fill="#5B5B6C"></path>
                <path d="M329.19,323.3 L329.52,324.24 C330.56755,323.882436 331.589858,323.454804 332.58,322.96 L332.13,322.07 C331.177982,322.543917 330.195869,322.954801 329.19,323.3 Z" id="Path" fill="#5B5B6C"></path>
                <path d="M307.6,326.69 L307.9,327.64 C309.15,327.25 310.1,326.97 311,326.74 L310.75,325.74 C309.84,326 308.87,326.29 307.6,326.69 Z" id="Path" fill="#5B5B6C"></path>
                <path d="M318.55,325.11 L318.55,326.11 C319.64,326.11 320.74,326.04 321.84,325.92 L321.74,324.92 C320.68,325 319.61,325.1 318.55,325.11 Z" id="Path" fill="#5B5B6C"></path>
                <path d="M338.64,317.87 L339,318.81 C339.996529,318.41812 341.014897,318.084229 342.05,317.81 L341.8,316.81 C340.728726,317.107409 339.673921,317.461236 338.64,317.87 L338.64,317.87 Z" id="Path" fill="#5B5B6C"></path>
                <path d="M335.51,319.72 C335.05811,320.203888 334.551357,320.633453 334,321 L334.56,321.83 C335.169819,321.426829 335.730306,320.953603 336.23,320.42 C336.473949,320.172732 336.745767,319.954606 337.04,319.77 L336.51,318.93 C336.143891,319.14896 335.80775,319.414511 335.51,319.72 Z" id="Path" fill="#5B5B6C"></path>
                <path d="M318.05,276.93 C317.76,277.98 317.45,279.02 317.11,280.01 L318.06,280.33 C318.4,279.33 318.72,278.26 319.01,277.19 L318.05,276.93 Z" id="Path" fill="#5B5B6C"></path>
                <polygon id="Path" fill="#5B5B6C" points="309.27 294.27 310.08 294.86 312 292.23 311.19 291.64"></polygon>
                <path d="M315,287.53 L314.12,287.05 C313.61,288.05 313.06,288.94 312.49,289.81 L313.32,290.36 C313.88,289.46 314.44,288.51 315,287.53 Z" id="Path" fill="#5B5B6C"></path>
                <path d="M315.09,285.07 L315.99,285.49 C316.45,284.49 316.88,283.49 317.29,282.49 L316.35,282.13 C316,283.13 315.53,284.12 315.09,285.07 Z" id="Path" fill="#5B5B6C"></path>
                <path d="M313,325.29 L313.17,326.29 C314.198141,326.097009 315.244673,326.019861 316.29,326.06 L316.34,325.06 C315.221615,325.014982 314.101657,325.092105 313,325.29 Z" id="Path" fill="#5B5B6C"></path>
                <path d="M268.24,79.89 L272.3,97.21 L272.3,97.31 C272.547924,99.8123535 272.931825,102.299363 273.45,104.76 C274.45,109.48 276.16,115.47 279.12,119.76 C279.559324,120.403614 280.043881,121.015158 280.57,121.59 C280.57,121.59 283.14,131.47 285.91,140.02 L285.91,140.02 C287.54,145.02 289.24,149.61 290.53,151.41 C290.53,151.41 306.95,148.32 303.02,138.5 C303.02,138.5 297.43,125.7 293.02,116.26 L293.02,116.26 C292.16,114.44 291.36,112.74 290.64,111.26 L285.64,99.77 L283.23,94.26 L275.91,77.56 L268.24,79.89 Z" id="Path" fill="#F9B587"></path>
                <path d="M285.94,140 C287.57,145 289.27,149.59 290.56,151.39 C290.56,151.39 306.98,148.3 303.05,138.48 C303.05,138.48 297.46,125.68 293.05,116.24 C293.15,116.61 297,130.1 295.85,133.89 C294.7,137.68 291.28,141.36 285.94,140 Z" id="Path" fill="#F39568"></path>
                <path d="M286,152 C286.422704,159.345749 288.685386,166.467349 292.58,172.71 C294.64,174.87 297.21,174.87 299.83,173.71 C306.51,170.84 313.57,160.71 313.57,160.71 L304,140.47 L303.06,138.47 C297.62,139.96 292.12,143.82 288.93,146.35 C287.2,147.72 286.15,148.7 286.15,148.7 C286.024612,149.795277 285.974495,150.897864 286,152 Z" id="Path" fill="#6DD400"></path>
                <path d="M286,152 C286.422704,159.345749 288.685386,166.467349 292.58,172.71 C294.64,174.87 297.21,174.87 299.83,173.71 C294.07,167.98 290.12,151.96 288.88,146.3 C287.15,147.67 286.1,148.65 286.1,148.65 C285.989,149.762995 285.955586,150.882366 286,152 Z" id="Path" fill="#2C2A40" opacity="0.2"></path>
                <path d="M286,152 C290.49,147.53 300.79,142.07 303.95,140.44 L303.01,138.44 C294.64,140.73 286.1,148.67 286.1,148.67 C285.989925,149.776366 285.956512,150.889022 286,152 L286,152 Z" id="Path" fill="#2C2A40"></path>
                <path d="M264.19,260.71 C276.71,276.92 329,278 329,278 C329,278 327.15,256.55 329,245.93 C331,234.25 332.8,217.1 332.8,217.1 C337.58,220.59 344.88,227.1 349.04,230.88 C350.98,232.63 352.23,233.8 352.23,233.8 C353.212303,228.916491 354.896437,224.200916 357.23,219.8 C361.52,212.02 366.23,210.05 366.23,210.05 L364,207.14 L348.13,186.42 L331.09,172.3 L328.16,169.87 L314.74,161.27 L309.25,157.75 C309.25,157.75 295.05,163.7 291.01,169.87 C286.97,176.04 277.68,204.64 274.84,218.67 C271.15,236.88 266.73,252.29 264.97,258.17 L264.97,258.17 C264.48,259.82 264.19,260.71 264.19,260.71 Z" id="Path" fill="#6DD400"></path>
                <path d="M264.19,260.71 C276.71,276.92 329,278 329,278 C329,278 327.15,256.55 329,245.93 C331,234.25 332.8,217.1 332.8,217.1 C337.58,220.59 344.88,227.1 349.04,230.88 C350.98,232.63 352.23,233.8 352.23,233.8 C353.212303,228.916491 354.896437,224.200916 357.23,219.8 C357.23,219.8 338.91,209.88 331.08,201.21 C331.08,201.21 321.32,228.21 317.96,241.81 C313.61,259.42 298.86,266.6 285.32,265.7 C271.78,264.8 265,258.17 265,258.17 L265,258.17 C264.48,259.82 264.19,260.71 264.19,260.71 Z" id="Path" fill="#2C2A40" opacity="0.2"></path>
                <path d="M322.75,175.46 C325.85,174.85 327.42,173.12 329.75,171.21 L328.13,169.87 L313.82,158.51 C311.92,159.71 309.55,160.9 309.22,165.72 C308.75,173 316.43,176.7 322.75,175.46 Z" id="Path" fill="#2C2A40"></path>
                <path d="M349,230.84 C350.94,232.59 352.19,233.76 352.19,233.76 C356.47,214.09 366.19,210 366.19,210 L364,207.14 C356.174966,212.851504 350.812999,221.323411 349,230.84 Z" id="Path" fill="#2C2A40"></path>
                <path d="M338.91,153.22 C338.91,153.22 339.19,161.03 330.19,162.63 C330.19,162.63 332.44,152.42 338.91,153.22 Z" id="Path" fill="#2C2A40"></path>
                <path d="M324.16,136.49 C329.59,145.23 338.38,152.58 338.38,152.58 C338.38,152.58 357.13,143.52 350.97,128.65 C349.655452,125.272246 347.649195,122.206657 345.08,119.65 L345.08,119.65 C335.7,110.65 323.2,116.48 323.2,116.48 C317.74,122.12 319.94,129.72 324.16,136.49 Z" id="Path" fill="#6DD400"></path>
                <path d="M324.16,136.49 C329.59,145.23 338.38,152.58 338.38,152.58 C338.38,152.58 357.13,143.52 350.97,128.65 C349.655452,125.272246 347.649195,122.206657 345.08,119.65 C345.19,119.82 350.36,128.1 345.08,133.65 C339.8,139.2 330.49,141.17 324.16,136.49 Z" id="Path" fill="#2C2A40" opacity="0.2"></path>
                <path d="M338.28,132.52 C338.28,132.52 333.37,107.17 317.69,108.32 C303,109.39 314.45,128.83 314.45,128.83 C314.45,128.83 335.65,134.89 338.28,132.52 Z" id="Path" fill="#2C2A40"></path>
                <path d="M318.89,123.55 C318.89,123.55 312.16,124.89 312.79,131.09 C312.79,131.09 318.49,127.71 318.89,123.55 Z" id="Path" fill="#2C2A40"></path>
                <path d="M330.62,161.09 L328.16,169.87 C327.903928,171.066406 326.974221,172.003926 325.78,172.27 C315.48,174.53 310.58,166.98 311.62,164.34 C312.95,163.86 335.87,156.53 340.04,147.72 C338.64413,153.180273 335.292026,157.937983 330.62,161.09 Z" id="Path" fill="#F9B587"></path>
                <path d="M312.79,160.71 C316.832505,162.368642 321.247211,162.907526 325.57,162.27 C334.69,160.65 339.43,149.86 339.43,149.86 C340.293112,145.175416 340.115587,140.358346 338.91,135.75 C338.366641,133.871314 337.500375,132.101561 336.35,130.52 C332.06,124.72 324.93,123.68 321.01,123.31 C319.060013,123.118183 317.172052,124.058279 316.15,125.73 L314.43,128.54 L313.28,130.42 C313.031261,130.819093 312.807498,131.23322 312.61,131.66 C311.935159,133.086419 311.531624,134.625954 311.42,136.2 L311.28,138.04 C310.406459,139.168159 309.730236,140.436078 309.28,141.79 C308.879782,142.961357 308.647475,144.183493 308.59,145.42 L308.24,153.7 C308.09733,156.770386 309.927561,159.590148 312.79,160.71 Z" id="Path" fill="#F9B587"></path>
                <path d="M322.22,133.18 C322.22,133.18 329.52,130.42 331.08,136.46 L329.94,137.33 C329.94,137.33 327.73,132.67 321.94,134.75 L322.22,133.18 Z" id="Path" fill="#2C2A40"></path>
                <path d="M311.28,138 C310.406459,139.128159 309.730236,140.396078 309.28,141.75 C310.72,141.45 313.21,141.75 317.39,144.31 C317.39,144.31 315.85,141.31 313.49,140.25 C313.17939,140.125406 312.951698,139.853694 312.883361,139.526078 C312.815024,139.198462 312.915103,138.85838 313.15,138.62 L316.25,135.13 C316.132825,134.441597 315.779174,133.815635 315.25,133.36 C314.4329,132.704322 313.55951,132.122062 312.64,131.62 C311.965159,133.046419 311.561624,134.585954 311.45,136.16 L311.28,138 Z" id="Path" fill="#F39568"></path>
                <path d="M313.37,130.53 C314.39952,131.075479 315.356922,131.74734 316.22,132.53 L315.8,133.92 C314.924422,133.096128 313.908387,132.435705 312.8,131.97 C312.579178,131.898499 312.398385,131.7378 312.301479,131.526888 C312.204574,131.315976 312.200411,131.074122 312.29,130.86 L312.29,130.86 C312.387748,130.671322 312.557383,130.529978 312.760603,130.467883 C312.963823,130.405788 313.183489,130.428179 313.37,130.53 Z" id="Path" fill="#2C2A40"></path>
                <path d="M310.54,145.27 L323.2,149.42 C323.2,149.42 318.94,155.42 312.55,152.42 C307.54,150 310.54,145.27 310.54,145.27 Z" id="Path" fill="#FFFFFF"></path>
                <path d="M313.61,160.81 C313.61,160.81 321.55,163.16 330.19,154.44 C330.19,154.44 330.38,159.13 325.74,163.72 C322.37,167.07 316,166.51 312.79,165.96 C312.33118,165.890687 311.936515,165.598538 311.736237,165.179958 C311.53596,164.761379 311.556096,164.27076 311.79,163.87 L313.61,160.81 Z" id="Path" fill="#F39568"></path>
                <path d="M337.08,146.72 C337.08,146.72 341.28,143.35 343.76,146.77 C346.24,150.19 340,159.34 336,155.36 C332,151.38 337.08,146.72 337.08,146.72 Z" id="Path" fill="#F9B587"></path>
                <path d="M322.05,137.68 C322.05,137.68 323.71,135.83 325.66,136.68 C327.248538,137.257688 328.218907,138.865253 327.99,140.54 C327.99,140.54 326.9,135.54 322.05,137.68 Z" id="Path" fill="#2C2A40"></path>
                <path d="M315,136.41 C315,136.41 314.06,133.24 311.67,135.55 C312.222772,135.210818 312.889651,135.110839 313.517586,135.273008 C314.145522,135.435178 314.680593,135.84557 315,136.41 L315,136.41 Z" id="Path" fill="#2C2A40"></path>
                <path d="M314.34,128.49 C314.34,128.59 314.12,128.94 314.12,129.04 C314.12,129.14 318.22,125.61 325.43,128.39 C332.64,131.17 336.18,138 336.18,138 L338.91,135.75 C338.366641,133.871314 337.500375,132.101561 336.35,130.52 C332.06,124.72 324.93,123.68 321.01,123.31 C319.060013,123.118183 317.172052,124.058279 316.15,125.73 L314.34,128.49 Z" id="Path" fill="#F39568"></path>
                <path d="M334.89,147.26 L337.26,148.34 L340.71,145.24 C341.26,142.24 338.84,134.31 338.28,132.52 C337.97,132.23 337.47,131.94 337.12,131.66 C337.12,131.66 334.74,139.88 337.31,142.93 L334.89,147.26 Z" id="Path" fill="#2C2A40"></path>
                <path d="M272.3,97.21 L272.3,97.31 C272.547924,99.8123535 272.931825,102.299363 273.45,104.76 L285.63,99.76 L283.22,94.25 L272.3,97.21 Z" id="Path" fill="#F39568"></path>
                <path d="M290.17,180.69 L299.81,189.3 C299.81,189.3 296.37,202.83 288.99,199.81 C280.09,196.17 290.17,180.69 290.17,180.69 Z" id="Path" fill="#2C2A40" opacity="0.2"></path>
                <rect id="Rectangle" fill="#2C2A40" transform="translate(275.548574, 84.068485) rotate(159.530000) translate(-275.548574, -84.068485) " x="252.643574" y="68.9034847" width="45.81" height="30.33"></rect>
                <polygon id="Path" fill="#2C2A40" points="248.79 77.89 259.4 106.3 302.32 90.28 300.7 89.82 250.01 75.42 249.19 77.08 249.19 77.08"></polygon>
                <polygon id="Path" fill="#FFFFFF" points="249.19 77.08 259.32 104.33 260.62 103.84 276 82 250 75.4"></polygon>
                <rect id="Rectangle" fill="#2C2A40" transform="translate(275.834157, 81.953170) rotate(159.530000) translate(-275.834157, -81.953170) " x="253.929157" y="66.7881704" width="43.81" height="30.33"></rect>
                <path d="M263.89,67.89 L263.89,67.89 C264.401723,67.3185657 265.12349,66.9793349 265.89,66.95 C266.147185,66.32004 266.732655,65.8847889 267.41,65.82 C267.842611,65.7365149 268.290764,65.8035615 268.68,66.01 C269.02,65.36 269.87,65.01 270.34,65.23 L270.64,65.37 C270.735913,65.0771234 270.916955,64.8194866 271.16,64.63 L271.16,64.63 C271.742736,63.9558311 272.656658,63.6692624 273.52,63.89 C273.52,63.89 278.06,65.73 278.52,69.23 C278.98,72.73 279.59,76.81 277.97,76.23 C277.36449,75.8827876 276.895375,75.3396017 276.64,74.69 C276.82,76.8 276.71,78.37 275.64,77.99 C274.84867,77.4799963 274.266711,76.7028688 274,75.8 C274.1,77.59 273.92,78.8 273,78.49 C272.08,78.18 271.32,76.49 270.79,74.67 C270.95,76.67 270.79,78.19 269.79,77.82 C268.53,77.37 268.17,74.55 267.29,72.27 C266.25,69.6 266,71 264.5,70 L263.14,70.5 C262.969124,69.5606364 263.246506,68.5953492 263.89,67.89 Z" id="Path" fill="#F9B587"></path>
                <path d="M404.56,197.2 C402.653374,196.010727 401.264543,194.147051 400.67,191.98 C400.5,191.36 400.29,190.69 400.06,190.05 C399.16,187.53 399.88,182.14 400.06,179.98 C400.394589,177.630741 401.124932,175.355183 402.22,173.25 C402.67,172.8 405.36,174.71 404.28,177.48 C403.478999,179.673761 403.572379,182.094465 404.54,184.22 C405.09,185.11 407.61,183.49 408.24,181.87 C408.87,180.25 414.35,168.04 415.42,167.68 C416.49,167.32 417.42,167.59 416.68,170.68 C415.94,173.77 412.55,179.31 413,180.83 C413.45,182.35 414.26,181.1 414.52,180.29 C414.78,179.48 419.2,167.92 419.91,167.51 C420.62,167.1 422.7,166.37 421.62,171.27 C420.54,176.17 417.2,182.14 417.4,183.21 C417.6,184.28 422.18,172.37 423.46,171.69 C424.74,171.01 425.69,172.23 424.68,175.2 C423.67,178.17 420.97,183.91 420.74,184.56 C420.51,185.21 420.66,185.56 421.13,185.3 C421.6,185.04 424.45,178.03 425.13,177.62 C425.81,177.21 427.4,177.96 425.65,182.74 C423.9,187.52 422.73,191.74 417.97,196.17 C415.03,198.88 413.59,200.53 410.83,200.12 C409.14,199.93 406.62,198.48 404.56,197.2 Z" id="Path" fill="#F9B587"></path>
                <path d="M345.08,183.75 C345.08,183.75 346.25,170.75 336.08,168.1 C328.79,166.17 316.43,179.6 313.31,194.69 C307.77,221.37 320.6,244.63 328.98,247.69 C328.98,247.69 336.63,241.76 330.8,233.76 C330.8,233.76 315.02,217.86 322.05,194.96 C327.91,175.88 337.27,170.96 340.79,180.33 L345.08,183.75 Z" id="Path" fill="#2C2A40"></path>
                <path d="M280.07,198.91 L284.43,185.5 C284.43,185.5 283.82,162.08 308.53,156.18 C308.278692,155.378353 308.167067,154.53947 308.2,153.7 L308.36,150.13 C305.27,150.33 273.77,159.44 280.07,198.91 Z" id="Path" fill="#2C2A40"></path>
                <path d="M378.68,226.22 C378.399341,223.620888 378.399341,220.999112 378.68,218.4 C378.007531,217.683767 377.285769,217.015469 376.52,216.4 C375.45,224.65 378.68,226.22 378.68,226.22 Z" id="Path" fill="#F39568"></path>
                <path d="M279.14,119.74 C279.579324,120.383614 280.063881,120.995158 280.59,121.57 C280.59,121.57 284.75,119.14 285.94,118.51 C283.624514,118.57703 281.332249,118.99166 279.14,119.74 L279.14,119.74 Z" id="Path" fill="#F39568"></path>
                <path d="M345.71,313 C347.95,315.1 349.71,320 350.92,324 L350.92,324 C351.87,327.24 352.4,329.86 352.4,329.86 C354.4,332.02 358.91,331.4 366.18,332.19 C372.73,332.9 377.32,337.45 382.18,339.41 L382.18,339.41 C382.713455,339.630597 383.261407,339.814361 383.82,339.96 C386.72,340.72 388.77,340.25 389.88,338.84 C390.99,337.43 391.13,335.54 390.55,332.98 C389.34,327.58 375.73,315.72 371.83,314.14 C367.797904,312.745177 364.065743,310.600881 360.83,307.82 C356.19,304 351.46,303.73 350.52,305.17 L349.82,306.25 C348.42,308.54 345.71,313 345.71,313 Z" id="Path" fill="#B0B1CA"></path>
                <path d="M349.87,306.24 C351.41,306.07 354.01,305.99 355.87,307.07 C358.65,308.68 362.6,312.46 366.82,314.43 C372.773995,317.582051 378.324394,321.44349 383.35,325.93 C387.57,329.88 390.06,336.1 388.83,338.15 C387.6,340.2 385.37,340.15 382.21,339.4 C382.743455,339.620597 383.291407,339.804361 383.85,339.95 C389.37,341.4 391.8,338.37 390.58,332.95 C389.36,327.53 375.76,315.69 371.86,314.11 C367.827904,312.715177 364.095743,310.570881 360.86,307.79 C356.22,303.97 351.49,303.7 350.55,305.14 L349.87,306.24 Z" id="Path" fill="#2C2A40"></path>
                <path d="M350.93,324 C351.88,327.24 352.41,329.86 352.41,329.86 C354.41,332.02 358.92,331.4 366.19,332.19 C372.74,332.9 377.33,337.45 382.19,339.41 L382.19,339.41 C382.723455,339.630597 383.271407,339.814361 383.83,339.96 C386.73,340.72 388.78,340.25 389.89,338.84 L390.25,336.72 C386.847766,338.136734 382.972426,337.835484 379.83,335.91 C375.57,333.44 373.64,331.03 370.22,330.07 C370.523765,328.23286 370.240318,326.346712 369.41,324.68 C369.260313,326.367123 368.904323,328.029527 368.35,329.63 C367.631306,329.529731 366.904869,329.496255 366.18,329.53 C360.64,329.79 352,327.12 350.93,324 Z" id="Path" fill="#2C2A40" opacity="0.2"></path>
                <path d="M25.93,272.61 C27.596534,272.454072 29.1377881,271.658354 30.23,270.39 L30.34,270.27 L30.34,270.27 C32.43,268.02 33.94,264.58 35.43,262 C35.8167526,261.299677 36.2581202,260.630939 36.75,260 C38.15,258.23 40.6,253.58 42.75,249.28 C42.86,249.07 42.97,248.85 43.07,248.64 C45.15,244.44 46.84,240.77 46.84,240.77 C46.2824552,239.16883 45.6141747,237.608395 44.84,236.1 C44.4357103,235.373845 43.9882406,234.672586 43.5,234 C42.7759304,232.745778 41.66821,231.757242 40.34,231.18 C36.74,230.07 33.41,232.45 30.65,235.67 C27.89,238.89 20.49,252.11 19.28,257.67 C19.28,257.79 19.23,257.9 19.21,258.02 C18,264.86 20.31,272.93 25.93,272.61 Z" id="Path" fill="#B0B1CA"></path>
                <path d="M25.93,272.61 C27.652555,272.447044 29.2393767,271.605057 30.34,270.27 C26.43,272.14 24.05,271.01 22.68,269.46 C20.97,267.52 20.32,262.2 20.77,259.95 C21.86,254.47 25.91,245.89 27.97,242.48 C30.03,239.07 34.12,233.48 38.09,232.87 C39.9678571,232.656634 41.8645529,233.052801 43.5,234 C42.7759304,232.745778 41.66821,231.757242 40.34,231.18 C36.74,230.07 33.41,232.45 30.65,235.67 C27.89,238.89 20.17,252.67 19.21,257.98 C18,264.86 20.31,272.93 25.93,272.61 Z" id="Path" fill="#2C2A40"></path>
                <path d="M25.93,272.61 C27.596534,272.454072 29.1377881,271.658354 30.23,270.39 L30.34,270.27 L30.34,270.27 C32.43,268.02 33.94,264.58 35.43,262 C35.8167526,261.299677 36.2581202,260.630939 36.75,260 C38.15,258.23 40.6,253.58 42.75,249.28 C42.86,249.07 42.97,248.85 43.07,248.64 C42.4330573,247.817924 41.343594,247.492292 40.36,247.83 C38.1288451,250.128791 36.2939973,252.781379 34.93,255.68 C32,261.47 30.51,267 25.09,267 C19.67,267 20.64,263.49 19.92,258.36 C19.82,257.65 19.59,257.41 19.28,257.54 C19.28,257.66 19.23,257.77 19.21,257.89 C18,264.86 20.31,272.93 25.93,272.61 Z" id="Path" fill="#2C2A40" opacity="0.2"></path>
                <path d="M115.62,321.23 C115.68,324.23 118.04,344.11 124.52,348.14 C127.79,350.14 129.67,350.09 130.61,348.57 C131.212909,347.369663 131.485571,346.030517 131.4,344.69 C131.399888,343.32554 131.309692,341.962576 131.13,340.61 C130.24,333.33 130.13,316.45 136.54,312.79 C136.54,312.79 135.37,304.08 132.37,298.72 C131.649675,297.243042 130.535362,295.993766 129.15,295.11 C129.15,295.11 124.67,295.11 121.86,295.52 C120.385496,295.586927 118.918066,295.764089 117.47,296.05 C115.47,296.6 113.61,297.96 113.14,301.7 C112.3,308.28 115.56,318.23 115.62,321.23 Z" id="Path" fill="#B0B1CA"></path>
                <path d="M115.62,321.23 C115.68,324.23 118.04,344.11 124.52,348.14 C127.79,350.14 129.67,350.09 130.61,348.57 C128.399642,348.603455 126.257657,347.80378 124.61,346.33 C121.79,343.91 118.25,330.26 118.46,325.86 C118.67,321.46 116.85,313.45 115.25,307.3 C114.05,302.65 116.25,298.02 117.45,296.05 C115.45,296.6 113.59,297.96 113.12,301.7 C112.3,308.28 115.56,318.23 115.62,321.23 Z" id="Path" fill="#2C2A40"></path>
                <path d="M115.62,321.23 C115.68,324.23 118.04,344.11 124.52,348.14 C127.79,350.14 129.67,350.09 130.61,348.57 C131.212909,347.369663 131.485571,346.030517 131.4,344.69 C130.17,344.97 128.31,344.5 126.15,343.29 C122.35,341.15 121.6,329.51 122.15,321.82 C122.7,314.13 118.15,308.09 120.74,303.25 C123.33,298.41 132.12,299.51 132.12,299.51 C132.22,299.24 132.31,298.98 132.38,298.72 C131.659675,297.243042 130.545362,295.993766 129.16,295.11 C129.16,295.11 124.68,295.11 121.87,295.52 C120.395496,295.586927 118.928066,295.764089 117.48,296.05 C115.48,296.6 113.62,297.96 113.15,301.7 C112.3,308.28 115.56,318.23 115.62,321.23 Z" id="Path" fill="#2C2A40" opacity="0.2"></path>
                <path d="M116.18,110.57 C116.18,110.57 77.18,111.63 69.72,129.57 C62.26,147.51 85.72,199.01 98.38,205.19 C111.04,211.37 128.84,203.82 134.88,197.45 C140.92,191.08 130.87,116 116.18,110.57 Z" id="Path" fill="#2C2A40"></path>
                <path d="M91.83,158.46 C91.6339573,163.636461 90.621481,168.749467 88.83,173.61 C88.83,173.61 87.95,178.87 86.59,185.4 L86.59,185.4 C84.99,193.09 83.43,198.75 81.13,203.4 C79.4444367,206.844122 78.0041879,210.402974 76.82,214.05 L76.5,215.05 L76.5,215.05 C75.59,217.99 75.18,219.88 75.18,219.88 L66.63,217.02 C66.63,217.02 66.09,208.02 66.25,203.1 C66.44,197.01 65.8,185.1 69.7,175.26 L69.7,175.26 C69.9875396,174.522911 70.3215435,173.804802 70.7,173.11 C71.3031084,167.698275 72.1842733,162.321166 73.34,157 C73.6804299,155.322683 74.25966,153.702859 75.06,152.19 C75.06,152.19 87.73,150.9 91.83,158.46 Z" id="Path" fill="#F9B587"></path>
                <path d="M76.2,174.06 C76.2,174.06 71.2,174.11 69.66,175.32 L69.66,175.32 C69.9475396,174.582911 70.2815435,173.864802 70.66,173.17 C70.66,173.17 74.49,173 76.2,174.06 Z" id="Path" fill="#F39568"></path>
                <path d="M91.83,158.46 C91.6339573,163.636461 90.621481,168.749467 88.83,173.61 C88.83,173.61 87.95,178.87 86.59,185.4 C87.12,180.49 86.75,171.67 86.85,165.24 C86.92,160.85 82.97,159.82 79.51,158.58 C78.07,158.06 75.25,157.53 73.59,156.98 C73.51,156.98 73.44,156.98 73.37,157.04 C73.7104299,155.362683 74.28966,153.742859 75.09,152.23 C75.09,152.23 87.73,150.9 91.83,158.46 Z" id="Path" fill="#F39568"></path>
                <path d="M73.88,213.27 L82.08,219.09 C82.9496771,219.703532 83.4736903,220.695813 83.49,221.76 L83.62,229.66 C83.6372516,230.580086 82.919236,231.346856 82,231.39 L82,231.39 C81.2090355,231.400336 80.514221,230.866818 80.32,230.1 L78.43,222.66 L76.45,222 L77.66,226.45 L79.16,230.45 L82.89,235.12 C83.1505811,235.445594 83.2669647,235.863448 83.2122194,236.276869 C83.1574741,236.690291 82.9363445,237.063451 82.6,237.31 L82.6,237.31 C81.9805033,237.752665 81.130502,237.676165 80.6,237.13 L75.68,232 L72.38,228 L75,233 L80,240.47 C80.3288177,240.963584 80.3288177,241.606416 80,242.1 L80,242.1 C79.7567715,242.461095 79.365082,242.6948 78.9317938,242.737355 C78.4985056,242.77991 78.0688326,242.626875 77.76,242.32 L72.32,237 L69.23,232.19 L71.94,240.67 L74.34,246.09 C74.6114973,246.686836 74.3920875,247.392389 73.83,247.73 L73.83,247.73 C73.5345617,247.915367 73.1774005,247.975269 72.8376511,247.896432 C72.4979018,247.817595 72.2036169,247.606529 72.02,247.31 L68.54,241.68 L66,235.11 L67.63,240.73 L68.52,242.65 C68.6984074,243.050649 68.5255313,243.520517 68.13,243.71 L68.13,243.71 C67.7783369,243.883544 67.3525998,243.772853 67.13,243.45 L65.8,241.62 L63.8,236.96 L66.57,216.96 C66.57,216.96 67.78,214.26 73.88,213.27 Z" id="Path" fill="#F9B587"></path>
                <path d="M76.46,215.11 C74.7918456,214.202612 72.8900342,213.81598 71,214 C71,214 74.2,212.79 76.83,214.09 L76.46,215.11 Z" id="Path" fill="#F39568"></path>
                <path d="M154.59,95.39 C163.32,78.18 159.77,55.58 159.15,49.87 C159.031095,49.1779874 158.819176,48.5052274 158.52,47.87 L158.52,47.87 C155.22,40.01 140.24,18.87 136.82,14.03 C136.59,13.71 136.41,13.46 136.3,13.29 L136.13,13.06 L125.62,17.96 C125.62,17.96 132.69,25.35 135.46,34.62 C138.23,43.89 144.88,56 144.88,56 C141.95,66.76 141.73,80.83 141.73,80.83 C146.82,92.75 154.59,95.39 154.59,95.39 Z" id="Path" fill="#F9B587"></path>
                <path d="M154.59,95.39 C163.32,78.18 159.77,55.58 159.15,49.87 C159.031095,49.1779874 158.819176,48.5052274 158.52,47.87 C158.52,48.15 158.26,66.35 157.07,72.23 C155.88,78.11 153.97,84.37 150.52,85.23 C147.07,86.09 143.6,84.1 141.73,80.89 C146.82,92.75 154.59,95.39 154.59,95.39 Z" id="Path" fill="#F39568"></path>
                <path d="M136.09,13.85 C133.466441,16.0861597 130.65617,18.0934961 127.69,19.85 C127.38,19.98 126.96,19.79 126.55,19.47 C125.006022,19.5399508 123.462633,19.3194666 122,18.82 C121.2,18.43 121.24,17.29 121.48,16.08 C119.54,15.56 115.83,12.5 115.95,9.68 C116.09,6.6 119.4,6.46 119.4,6.46 C119.359519,5.57107369 119.739495,4.7148741 120.425827,4.14850253 C121.11216,3.58213096 122.024911,3.37155247 122.89,3.58 C123.1,2.04 125.89,1.43 125.89,1.43 C126.21,0.13 128.04,-0.06 129.11,0.43 C130.18,0.92 136.43,8.6 136.68,9.98 C136.740219,11.2962724 136.539711,12.6114689 136.09,13.85 Z" id="Path" fill="#F9B587"></path>
                <path d="M126.51,14.53 C126.93,16.31 125.44,16.53 125.44,16.53 C125.74,16.31 125.74,15.53 125.67,14.9 C125.662504,14.5616634 125.612101,14.2256458 125.52,13.9 L125.52,13.9 C125.354707,13.2058361 124.899544,12.615945 124.27,12.28 C122.95,11.65 122.34,12.04 122.34,12.04 L119.78,8.39 C120.920106,9.23177699 121.966149,10.1940021 122.9,11.26 C124.552483,11.1969146 126.013389,12.3252222 126.37,13.94 C126.912382,13.9555337 127.398786,13.6081021 127.56,13.09 C127.762783,12.2211508 127.611678,11.3073242 127.14,10.55 L123.58,5.55 C123.58,5.55 128.48,10.35 128.58,12.18 C128.687511,12.7803233 128.515234,13.3968959 128.112115,13.8545436 C127.708995,14.3121913 127.119091,14.5608966 126.51,14.53 Z" id="Path" fill="#F39568"></path>
                <path d="M127.3,4.12 C128.615015,5.72651758 129.814679,7.42409207 130.89,9.2 C131.084306,9.69234583 131.066742,10.2430658 130.841458,10.7220298 C130.616175,11.2009938 130.203158,11.5657103 129.7,11.73 C129.240863,11.8723621 128.741186,11.7828676 128.36,11.49 L128.36,12.73 C128.36,12.73 131.66,13.32 131.700017,10.18 C131.71,8.6 127.3,4.12 127.3,4.12 Z" id="Path" fill="#F39568"></path>
                <path d="M131.49,9.44 C131.955374,9.89182589 132.616587,10.0796703 133.25,9.94 C134.25,9.65 134.44,9 134.25,8.4 C134.599395,8.80233666 134.620231,9.39408498 134.3,9.82 C133.62,10.91 131.99,10.67 131.48,10.52 L131.49,9.44 Z" id="Path" fill="#F39568"></path>
                <path d="M134.83,15.28 C135.632203,15.0973306 136.342021,14.6323997 136.83,13.97 C136.6,13.65 136.42,13.4 136.31,13.23 C135.927159,13.9866787 135.427727,14.6784589 134.83,15.28 L134.83,15.28 Z" id="Path" fill="#F39568"></path>
                <path d="M127.35,19.91 C128.189278,19.8387164 129.007242,19.6079215 129.76,19.23 C129.270674,19.8500009 128.60463,20.3068163 127.85,20.54 L127.35,19.91 Z" id="Path" fill="#F39568"></path>
                <path d="M144.88,56 C144.88,56 149.48,55.3 151.05,54 C149.773469,56.5253422 147.179616,58.1126251 144.35,58.1 L144.88,56 Z" id="Path" fill="#F39568"></path>
                <path d="M39.47,254.86 C41.33,256.24 40.47,256.56 42.31,257.55 C44.6362379,259.092964 46.8762567,260.762128 49.02,262.55 L49.02,262.55 C61.19,275.46 81.7,295.55 92.81,297.09 C103.29,298.53 118.9,269.15 128.87,247.58 L128.87,247.58 C128.98,247.42 133.05,241.42 139.12,243.19 C145.19,244.96 167.95,266.26 178.38,271.65 C178.38,271.65 164.38,272.36 159.83,278.22 C155.28,284.08 142.52,289.69 140.21,290.62 C137.9,291.55 136.69,290.51 134.54,291.92 C132.39,293.33 129.14,295.09 129.14,295.09 C129.05,301.62 131.49,307.27 136.25,312.94 C137.496187,312.28328 138.797904,311.737831 140.14,311.31 C142.79,310.52 148.37,309.05 149.36,307.22 C150.35,305.39 184.82,298.14 184.82,298.14 C184.82,298.14 211.3,292.89 213.36,280.33 C215.42,267.77 161.65,211.33 161.65,211.33 L157.5,193.2 L138.09,196.41 L138.09,196.41 L102.67,199.1 C102.67,199.1 96.61,215.38 94.9,230.1 C93.76,239.93 87.25,263.28 87.25,263.28 C87.25,263.28 81.25,257.12 69.6,252.13 C66.6,250.86 63.6,249.46 60.6,248.13 L60.6,248.13 C60.6,248.13 56.18,245.91 54.6,243.77 C53.02,241.63 52.12,242.45 50.45,241.95 C48.78,241.45 47.38,239.43 46.26,239.64 C45.6994934,239.689008 45.1814577,239.958818 44.82,240.39 C41.98,243.07 40.7,244.82 38.82,251.39 C38.89,251.29 37.62,253.48 39.47,254.86 Z" id="Path" fill="#2C2A40"></path>
                <path d="M71.16,258.55 L70.76,259.18 C71.58,259.71 72.47,260.33 73.4,261.02 L73.85,260.42 C72.91,259.72 72,259.08 71.16,258.55 Z" id="Path" fill="#5B5B6C"></path>
                <path d="M66.3,255.91 L65.95,256.58 C66.75,257 67.52,257.39 68.24,257.74 L68.84,258.05 L69.19,257.39 L68.57,257.07 C67.85,256.72 67.09,256.33 66.3,255.91 Z" id="Path" fill="#5B5B6C"></path>
                <path d="M61.13,253.88 C62.13,254.44 63.04,254.99 63.96,255.5 L64.32,254.84 C63.41,254.34 62.47,253.84 61.51,253.23 L61.13,253.88 Z" id="Path" fill="#5B5B6C"></path>
                <path d="M75.17,262.4 C75.95,263.03 76.76,263.71 77.65,264.48 L78.14,263.91 C77.24,263.14 76.42,262.45 75.64,261.82 L75.17,262.4 Z" id="Path" fill="#5B5B6C"></path>
                <path d="M83.93,269.08 L83.44,269.64 C84.1595643,270.308961 84.9247402,270.927116 85.73,271.49 C85.8456374,271.564233 85.9658802,271.631035 86.09,271.69 L86.41,271.01 C86.3159122,270.967741 86.225587,270.91756 86.14,270.86 C85.365406,270.315361 84.6271714,269.720765 83.93,269.08 L83.93,269.08 Z" id="Path" fill="#5B5B6C"></path>
                <path d="M88.22,270.88 L88.58,271.54 C89.5594992,270.931224 90.3871731,270.10697 91,269.13 L90.38,268.7 C89.8383601,269.583995 89.0989659,270.330236 88.22,270.88 L88.22,270.88 Z" id="Path" fill="#5B5B6C"></path>
                <polygon id="Path" fill="#5B5B6C" points="79.84 265.4 79.34 265.96 81.34 267.79 81.73 268.14 82.24 267.58 81.85 267.23"></polygon>
                <path d="M56.42,251 L59.19,252.73 L59.58,252.09 C58.64,251.52 57.72,250.94 56.83,250.37 L56.42,251 Z" id="Path" fill="#5B5B6C"></path>
                <path d="M43.44,243.19 C43.25,243.41 43.06,243.64 42.88,243.87 C43.47,243.95 44.32,244.08 45.26,244.3 L45.43,243.57 C44.68,243.4 44,243.27 43.44,243.19 Z" id="Path" fill="#5B5B6C"></path>
                <path d="M47.64,244.22 L47.38,244.93 C48.2957018,245.226566 49.1448535,245.698694 49.88,246.32 L50.05,246.48 L50.55,245.92 L50.39,245.78 C49.583357,245.086322 48.6492887,244.55645 47.64,244.22 L47.64,244.22 Z" id="Path" fill="#5B5B6C"></path>
                <path d="M52.29,247.29 L51.85,247.89 C52.61,248.45 53.51,249.08 54.53,249.76 L54.95,249.13 C53.94,248.46 53,247.84 52.29,247.29 Z" id="Path" fill="#5B5B6C"></path>
                <path d="M101.52,224.15 L102.25,224.34 C102.523333,223.286667 102.803333,222.236667 103.09,221.19 L102.37,221 C102.08,222 101.8,223.1 101.52,224.15 Z" id="Path" fill="#5B5B6C"></path>
                <path d="M103,218.82 L103.72,219.02 C104.01,217.97 104.31,216.93 104.61,215.89 L103.88,215.69 C103.56,216.72 103.26,217.77 103,218.82 Z" id="Path" fill="#5B5B6C"></path>
                <path d="M98.9,234.86 L99.64,235.02 C99.86,234.02 100.11,232.93 100.36,231.85 L99.63,231.68 C99.38,232.76 99.13,233.83 98.9,234.86 Z" id="Path" fill="#5B5B6C"></path>
                <path d="M100.16,229.49 L100.89,229.67 C101.14,228.67 101.41,227.58 101.68,226.51 L100.96,226.33 C100.68,227.4 100.42,228.46 100.16,229.49 Z" id="Path" fill="#5B5B6C"></path>
                <path d="M104.48,213.52 L105.2,213.73 C105.52,212.67 105.83,211.63 106.14,210.62 L105.42,210.4 C105.11,211.41 104.8,212.46 104.48,213.52 Z" id="Path" fill="#5B5B6C"></path>
                <path d="M91.48,266.81 L92.14,267.15 C92.6,266.26 93.06,265.26 93.5,264.15 L92.8,263.87 C92.37,265 91.93,265.94 91.48,266.81 Z" id="Path" fill="#5B5B6C"></path>
                <path d="M107.79,203 L108.5,203.24 C108.88,202.12 109.24,201.09 109.57,200.18 L108.86,199.92 C108.53,200.83 108.17,201.87 107.79,203 Z" id="Path" fill="#5B5B6C"></path>
                <path d="M106.08,208.24 L106.8,208.47 C107.14,207.39 107.47,206.35 107.8,205.37 L107.09,205.14 C106.75,206.12 106.42,207.17 106.08,208.24 Z" id="Path" fill="#5B5B6C"></path>
                <path d="M93.57,261.78 L94.28,262.03 C94.62,261.03 94.95,260.03 95.28,258.9 L94.56,258.7 C94.23,259.77 93.91,260.81 93.57,261.78 Z" id="Path" fill="#5B5B6C"></path>
                <path d="M97.79,240.27 L98.52,240.41 C98.71,239.41 98.93,238.34 99.16,237.22 L98.43,237.07 C98.19,238.19 98,239.27 97.79,240.27 Z" id="Path" fill="#5B5B6C"></path>
                <path d="M95.1,256.53 L95.83,256.71 C96.08,255.71 96.32,254.6 96.53,253.52 L95.8,253.38 C95.59,254.44 95.35,255.5 95.1,256.53 Z" id="Path" fill="#5B5B6C"></path>
                <path d="M96.2,251.17 L96.94,251.3 C97.12,250.22 97.28,249.13 97.41,248.06 L96.67,247.97 C96.54,249 96.38,250.11 96.2,251.17 Z" id="Path" fill="#5B5B6C"></path>
                <path d="M96.92,245.73 L97.66,245.82 C97.78,244.82 97.93,243.82 98.13,242.62 L97.39,242.49 C97.19,243.67 97,244.76 96.92,245.73 Z" id="Path" fill="#5B5B6C"></path>
                <path d="M142.72,239.51 C141.591978,239.487084 140.467615,239.645778 139.39,239.98 L139.62,240.69 C140.617235,240.383644 141.65699,240.238483 142.7,240.26 L142.72,239.51 Z" id="Path" fill="#5B5B6C"></path>
                <path d="M147.75,241.74 L148.12,241.09 L147.28,240.64 C146.553752,240.299683 145.797081,240.028487 145.02,239.83 L144.84,240.56 C145.570807,240.740135 146.281196,240.994803 146.96,241.32 C147.2,241.44 147.47,241.58 147.75,241.74 Z" id="Path" fill="#5B5B6C"></path>
                <path d="M149.7,289.69 L150.03,290.37 C151.03,289.88 152.03,289.37 152.94,288.88 L152.59,288.22 C151.64,288.71 150.67,289.21 149.7,289.69 Z" id="Path" fill="#5B5B6C"></path>
                <path d="M154.57,287.16 L154.93,287.82 C155.93,287.26 156.93,286.72 157.78,286.21 L157.4,285.56 C156.53,286.07 155.58,286.61 154.57,287.16 Z" id="Path" fill="#5B5B6C"></path>
                <path d="M159.31,284.4 L159.71,285.03 C160.647939,284.45475 161.552708,283.827087 162.42,283.15 L161.95,282.56 C161.104733,283.221722 160.223377,283.836001 159.31,284.4 Z" id="Path" fill="#5B5B6C"></path>
                <path d="M130.94,299.16 C131.61,298.7 132.27,298.26 132.94,297.87 L132.55,297.23 C131.99,297.58 131.41,297.96 130.82,298.36 C130.83,298.63 130.89,298.9 130.94,299.16 Z" id="Path" fill="#5B5B6C"></path>
                <path d="M134.48,296.1 L134.83,296.76 C135.763597,296.256028 136.740923,295.837652 137.75,295.51 L137.54,294.79 C136.480243,295.127238 135.455496,295.565937 134.48,296.1 Z" id="Path" fill="#5B5B6C"></path>
                <path d="M153.94,246.3 C154.7,246.93 155.53,247.64 156.41,248.4 L156.91,247.84 C156.02,247.07 155.19,246.36 154.42,245.72 L153.94,246.3 Z" id="Path" fill="#5B5B6C"></path>
                <path d="M139.67,294.14 L139.92,294.85 C140.79,294.54 141.81,294.13 142.97,293.64 L142.68,292.95 C141.53,293.44 140.52,293.84 139.67,294.14 Z" id="Path" fill="#5B5B6C"></path>
                <path d="M144.74,292.05 L145.04,292.73 C146.04,292.31 147.04,291.84 148.04,291.36 L147.72,290.68 L144.74,292.05 Z" id="Path" fill="#5B5B6C"></path>
                <path d="M136.81,242 C137.06,241.83 137.33,241.67 137.62,241.51 L137.26,240.85 C136.784484,241.109194 136.3268,241.39984 135.89,241.72 L136.81,242 Z" id="Path" fill="#5B5B6C"></path>
                <path d="M150.05,242.32 L149.62,242.94 C150.38,243.47 151.25,244.12 152.2,244.88 L152.67,244.29 C151.71,243.53 150.83,242.87 150.05,242.32 Z" id="Path" fill="#5B5B6C"></path>
                <path d="M182.39,275.62 C181.571009,276.081244 180.688037,276.418256 179.77,276.62 L179.97,277.35 C180.975249,277.141126 181.940723,276.773166 182.83,276.26 C182.926226,276.194657 183.016569,276.121045 183.1,276.04 L182.61,275.48 L182.39,275.62 Z" id="Path" fill="#5B5B6C"></path>
                <path d="M175.07,263.93 L174.6,264.52 C175.6,265.32 176.47,265.97 177.23,266.52 L177.65,265.9 C176.91,265.36 176.06,264.72 175.07,263.93 Z" id="Path" fill="#5B5B6C"></path>
                <path d="M179.56,267 L179.56,267 L179.24,267.68 L179.24,267.68 C180.191405,268.108137 181.082377,268.659531 181.89,269.32 L182.37,268.74 C181.511945,268.04173 180.567505,267.456917 179.56,267 Z" id="Path" fill="#5B5B6C"></path>
                <path d="M183.92,270.53 L183.28,270.91 C183.519001,271.314501 183.684869,271.757945 183.77,272.22 C183.864028,272.725856 183.836609,273.246809 183.69,273.74 L184.41,273.95 C184.589238,273.346508 184.623501,272.709231 184.51,272.09 C184.410251,271.538333 184.210284,271.009606 183.92,270.53 Z" id="Path" fill="#5B5B6C"></path>
                <polygon id="Path" fill="#5B5B6C" points="176 277.52 174.44 277.89 174.62 278.62 176.17 278.25 177.78 277.86 177.61 277.13"></polygon>
                <path d="M169.09,279.3 L169.3,280.02 C170.23,279.74 171.25,279.46 172.43,279.16 L172.24,278.43 C171.06,278.73 170,279 169.09,279.3 Z" id="Path" fill="#5B5B6C"></path>
                <path d="M163.89,281.29 L164.23,281.95 C165.199041,281.465416 166.201618,281.051018 167.23,280.71 L166.98,280 C165.921406,280.35802 164.888927,280.789055 163.89,281.29 L163.89,281.29 Z" id="Path" fill="#5B5B6C"></path>
                <polygon id="Path" fill="#5B5B6C" points="164.41 254.56 162.7 253 162.2 253.56 163.91 255.11 164.61 255.74 165.11 255.19"></polygon>
                <path d="M166.28,257.27 C167.1,258.01 167.9,258.74 168.7,259.45 L169.2,258.89 L166.78,256.71 L166.28,257.27 Z" id="Path" fill="#5B5B6C"></path>
                <path d="M173.34,262.5 C172.59,261.87 171.78,261.17 170.88,260.38 L170.39,260.94 C171.29,261.74 172.1,262.44 172.86,263.08 L173.34,262.5 Z" id="Path" fill="#5B5B6C"></path>
                <polygon id="Path" fill="#5B5B6C" points="161 251.5 158.57 249.33 158.07 249.89 160.5 252.06"></polygon>
                <path d="M164.69,210 C164.69,210 129.19,221.56 110.02,216.38 C108.59,215.99 96.93,213.63 96.93,213.63 C96.93,213.63 103.51,188.63 101.67,172.06 C101.19,167.66 100.15,158.98 97.04,151.06 C95.93,148.24 94.79,145.37 93.67,142.58 C90.34,134.32 87.24,126.79 85.87,123.49 C87.5883424,122.281157 89.5343673,121.434024 91.59,121 L91.7,121 C95.5711654,120.354707 99.3985291,119.46967 103.16,118.35 L103.16,118.35 C109.069587,116.64677 114.686762,114.057341 119.82,110.67 L124.62,108 L129.62,105.19 C129.62,105.19 135.82,107.43 142.26,116.63 C140.671987,118.574775 138.911496,120.372082 137,122 C138.645903,123.04321 140.391089,123.920827 142.21,124.62 C143.463435,123.908511 144.633947,123.059973 145.7,122.09 C149.78,129.65 153.52,140.43 155.35,155.68 C157,169.53 159.91,185.68 162.06,196.78 C163.55,204.7 164.69,210 164.69,210 Z" id="Path" fill="#6DD400"></path>
                <path d="M112.67,124.17 C106.09,123.61 104.58,120.47 103.17,118.33 C109.079587,116.62677 114.696762,114.037341 119.83,110.65 L122.97,108.88 C123.87,108.88 126.1,110.54 126.1,113.88 C126.1,118.33 121.42,124.92 112.67,124.17 Z" id="Path" fill="#2C2A40"></path>
                <path d="M133.72,133.68 L145.27,128.51 C145.27,128.51 154.27,142 146.93,144.64 C139.06,147.47 133.72,133.68 133.72,133.68 Z" id="Path" fill="#2C2A40" opacity="0.2"></path>
                <path d="M121.38,77.89 C121.38,77.89 126.23,74.22 124.25,66.89 C124.25,66.89 122.62,69.69 121.14,69.97 C121.14,69.97 124.89,59.82 113.43,54.17 C113.43,54.17 114.77,59.75 113.43,61.61 C113.43,61.61 110.43,55.16 105.92,53.82 C105.92,53.82 106.59,65.14 99.58,67.42 C94.58,69.06 88.11,74.87 86.32,84.42 C86.32,84.42 83.42,83.58 82.32,84.72 C82.32,84.72 86.05,85.35 86.56,87.72 C85.6784335,87.2762659 84.6236498,87.357107 83.82,87.93 C83.82,87.93 86.45,88.48 86.82,90.53 C87.19,92.58 97.19,108.33 103.2,110.95 C109.21,113.57 121.38,77.89 121.38,77.89 Z" id="Path" fill="#2C2A40"></path>
                <path d="M105.84,113.3 L106.64,117.92 C106.833582,119.096037 107.704982,120.045941 108.86,120.34 C118.8,122.94 123.19,116.76 123.68,114.34 C122.4,113.83 99.63,104.61 95.9,95.88 C95.9,95.91 98.3,107.65 105.84,113.3 Z" id="Path" fill="#F9B587"></path>
                <path d="M124.26,87.56 C125.075722,88.6928221 125.697525,89.9533243 126.1,91.29 C126.447893,92.4447928 126.626419,93.6439473 126.630105,94.85 L126.630105,102.92 C126.646421,105.925174 124.742829,108.605495 121.9,109.58 C117.902083,111.029241 113.587574,111.374678 109.41,110.58 C100.59,108.66 96.41,97.98 96.41,97.98 C96.41,97.98 92.73,86.9 100.13,79.26 C105.25,73.96 112.13,72.93 115.87,72.79 C117.474097,72.7246413 118.97987,73.5624692 119.77,74.96 L122.6,80.02 C122.829931,80.4181698 123.030465,80.8326062 123.2,81.26 C123.801593,82.6735452 124.140465,84.1849171 124.2,85.72 L124.26,87.56 Z" id="Path" fill="#F9B587"></path>
                <path d="M113.79,82.41 C113.79,82.41 106.79,79.41 105.04,85.28 L106.12,86.17 C106.12,86.17 108.44,81.72 114.02,83.96 L113.79,82.41 Z" id="Path" fill="#2C2A40"></path>
                <path d="M124.26,87.56 C125.075722,88.6928221 125.697525,89.9533243 126.1,91.29 C124.71,90.94 122.27,91.15 118.1,93.47 C118.1,93.47 119.71,90.63 122.04,89.67 C122.341742,89.5528804 122.568136,89.2969585 122.647573,88.983183 C122.72701,88.6694075 122.649664,88.3365894 122.44,88.09 L119.55,84.58 C119.678237,83.918115 120.031562,83.3209969 120.55,82.89 C121.371538,82.2895076 122.241145,81.7577095 123.15,81.3 C123.751593,82.7135452 124.090465,84.2249171 124.15,85.76 L124.26,87.56 Z" id="Path" fill="#F39568"></path>
                <path d="M122.51,80.17 C121.486736,80.6575655 120.529157,81.2724321 119.66,82 L120.02,83.37 C120.90317,82.5988037 121.919882,81.9955548 123.02,81.59 C123.23804,81.5267924 123.419548,81.3749855 123.520312,81.1715565 C123.621076,80.9681275 123.631846,80.7317496 123.55,80.52 L123.55,80.52 C123.357875,80.1379853 122.893999,79.9818731 122.51,80.17 L122.51,80.17 Z" id="Path" fill="#2C2A40"></path>
                <path d="M124.71,94.62 L112.23,98.2 C112.23,98.2 116.16,104.2 122.49,101.48 C127.46,99.38 124.71,94.62 124.71,94.62 Z" id="Path" fill="#FFFFFF"></path>
                <path d="M121.14,109.64 C121.14,109.64 113.32,111.64 105.24,102.82 C105.24,102.82 104.88,107.38 109.24,112.02 C113.6,116.66 123.7,114.37 123.7,114.37 L121.14,109.64 Z" id="Path" fill="#F39568"></path>
                <path d="M98.81,95 C98.81,95 94.81,91.57 92.31,94.81 C89.81,98.05 95.47,107.19 99.55,103.46 C103.63,99.73 98.81,95 98.81,95 Z" id="Path" fill="#F9B587"></path>
                <path d="M113.79,86.81 C113.79,86.81 112.24,84.94 110.32,85.68 C108.747418,86.1777413 107.738036,87.708498 107.9,89.35 C107.9,89.35 109.15,84.54 113.79,86.81 Z" id="Path" fill="#2C2A40"></path>
                <path d="M120.68,85.83 C120.68,85.83 121.68,82.83 123.95,85.12 C123.425881,84.7678029 122.780844,84.6444635 122.163761,84.7784479 C121.546678,84.9124324 121.01087,85.292163 120.68,85.83 Z" id="Path" fill="#2C2A40"></path>
                <path d="M97.28,82.61 C97.28,82.61 100.28,86.28 97.85,90.11 L100.41,96 L97.76,96.67 L95.57,93.41 L93.87,85 C93.87,85 95.92,81.13 97.28,82.61 Z" id="Path" fill="#2C2A40"></path>
                <path d="M161.49,88.42 C161.49,88.42 161.17,90.02 160.49,92.56 C158.34,100.76 152.57,118.75 142.15,124.56 C140.354077,123.876381 138.629221,123.018977 137,122 C132.61,119.25 127.11,114.28 127.61,106.76 C127.61,106.76 136.55,91.91 140.34,81.46 C140.69,80.46 140.99,79.59 141.24,78.72 L157.86,86.72 L161.49,88.42 Z" id="Path" fill="#6DD400"></path>
                <path d="M161.49,88.42 C161.49,88.42 161.17,90.02 160.49,92.56 C156.59,89.56 144.2,83.36 140.28,81.43 C140.63,80.43 140.93,79.56 141.18,78.69 L157.8,86.69 L161.49,88.42 Z" id="Path" fill="#2C2A40"></path>
                <path d="M161.49,88.42 C161.49,88.42 156.79,112.05 145.66,122.06 C144.648427,120.177571 143.529931,118.35459 142.31,116.6 C150.78,106.51 155.97,92.31 157.81,86.66 L161.49,88.42 Z" id="Path" fill="#2C2A40" opacity="0.2"></path>
                <path d="M98.72,136.58 C98.5495085,137.691607 98.3191739,138.793208 98.03,139.88 L97.03,151.14 L95.92,162 L95.6,165.14 C93.71,167.79 87.31,168.03 81.26,167.59 L81.26,167.59 C77.1248093,167.263973 73.0115032,166.703068 68.94,165.91 C68.94,165.91 69.1,164.69 69.46,162.6 C70.9395302,153.885957 73.1849,145.319419 76.17,137 C78.85,129.74 82.68,125.73 85.87,123.54 C87.5842595,122.313444 89.5305441,121.449185 91.59,121 L91.7,121 C99.92,121.75 99.54,131.37 98.72,136.58 Z" id="Path" fill="#6DD400"></path>
                <path d="M95.92,162 L95.6,165.14 C93.71,167.79 87.31,168.03 81.26,167.59 L81.26,167.59 C77.1248093,167.263973 73.0115032,166.703068 68.94,165.91 C68.94,165.91 69.1,164.69 69.46,162.6 C74.2390585,163.636278 79.1102598,164.189062 84,164.25 C88.0937514,164.430268 92.1736437,163.660154 95.92,162 L95.92,162 Z" id="Path" fill="#2C2A40"></path>
                <path d="M121.24,109.86 C121.24,109.86 134.24,107.86 142.46,115.21 C150.68,122.56 158.89,137.94 153.91,147.21 L155.91,160.59 C155.91,160.59 169.48,139.26 154.91,118.59 C145.11,104.69 132.58,104.35 126.25,105.28 C125.545594,107.266792 123.955928,108.812095 121.95,109.46 L121.24,109.86 Z" id="Path" fill="#2C2A40"></path>
                <path d="M89.93,121.45 C89.93,121.45 93.65,112.96 100.58,113.94 C107.51,114.92 128.25,143.1 123.86,163.82 C119.47,184.54 101.54,186.75 101.54,186.75 C101.54,186.75 98.07,181.49 101.97,176.6 C109.561425,174.249899 115.295379,167.98842 116.97,160.22 C120.15,146.73 104.12,119.36 98.23,118.52 C96.11,118.22 94.52,120.52 94.52,120.52 C93.0066185,120.907015 91.4746702,121.21741 89.93,121.45 Z" id="Path" fill="#2C2A40"></path>
                <path d="M164.69,210 C164.69,210 129.18,221.6 110,216.41 C108.57,216.03 96.9,213.67 96.9,213.67 C96.9,213.67 103.49,188.67 101.65,172.09 C101.16,167.7 100.12,159.02 97.02,151.09 L95.58,165.09 C93.69,167.73 87.29,167.98 81.24,167.53 L81.24,167.53 C81.24,167.53 90.9,162.39 91.94,150.84 C92.1632271,148.04242 92.7377437,145.284068 93.65,142.63 C95.5,137.4 98.06,135.49 98.06,135.49 C98.06,135.49 98.3,135.87 98.69,136.49 C100.58,139.71 106.03,149.64 106.69,157.63 C107.46,167.31 110.53,187.93 125.47,200.14 C133.78,206.93 161.55,205.86 161.99,196.94 C161.99,196.84 161.99,196.75 161.99,196.67 C163.55,204.7 164.69,210 164.69,210 Z" id="Path" fill="#2C2A40" opacity="0.2"></path>
            </g>
        </g>
    </g>
</svg>