<?xml version="1.0" encoding="UTF-8"?>
<svg width="20px" height="20px" viewBox="0 0 20 20" version="1.1" xmlns="http://www.w3.org/2000/svg" xmlns:xlink="http://www.w3.org/1999/xlink">
    <title>Group@2x</title>
    <g id="Symbols" stroke="none" stroke-width="1" fill="none" fill-rule="evenodd">
        <g id="Group">
            <rect id="Rectangle" fill="#FF8080" x="0" y="0" width="20" height="20" rx="4"></rect>
            <g id="trash" transform="translate(5.000000, 4.000000)" fill="#FFFFFF" fill-rule="nonzero">
                <path d="M9.03846154,1.53846154 L6.92307692,1.53846154 L6.92307692,1.15384615 C6.92307692,0.516586538 6.40649038,0 5.76923077,0 L4.23076923,0 C3.59350962,0 3.07692308,0.516586538 3.07692308,1.15384615 L3.07692308,1.53846154 L0.961538462,1.53846154 C0.430504808,1.53846154 0,1.96896635 0,2.5 L0,3.26923077 C0,3.48165865 0.1721875,3.65384615 0.384615385,3.65384615 L9.61538462,3.65384615 C9.8278125,3.65384615 10,3.48165865 10,3.26923077 L10,2.5 C10,1.96896635 9.56949519,1.53846154 9.03846154,1.53846154 Z M3.84615385,1.15384615 C3.84615385,0.941826923 4.01875,0.769230769 4.23076923,0.769230769 L5.76923077,0.769230769 C5.98125,0.769230769 6.15384615,0.941826923 6.15384615,1.15384615 L6.15384615,1.53846154 L3.84615385,1.53846154 L3.84615385,1.15384615 Z" id="Shape"></path>
                <path d="M0.729903846,4.42307692 C0.661274038,4.42307692 0.606586538,4.48043269 0.609855769,4.54899038 L0.927163462,11.2086538 C0.956490385,11.825 1.46274038,12.3076923 2.07956731,12.3076923 L7.92043269,12.3076923 C8.53725962,12.3076923 9.04350962,11.825 9.07283654,11.2086538 L9.39014423,4.54899038 C9.39341346,4.48043269 9.33872596,4.42307692 9.27009615,4.42307692 L0.729903846,4.42307692 Z M6.53846154,5.38461538 C6.53846154,5.17211538 6.71057692,5 6.92307692,5 C7.13557692,5 7.30769231,5.17211538 7.30769231,5.38461538 L7.30769231,10.3846154 C7.30769231,10.5971154 7.13557692,10.7692308 6.92307692,10.7692308 C6.71057692,10.7692308 6.53846154,10.5971154 6.53846154,10.3846154 L6.53846154,5.38461538 Z M4.61538462,5.38461538 C4.61538462,5.17211538 4.7875,5 5,5 C5.2125,5 5.38461538,5.17211538 5.38461538,5.38461538 L5.38461538,10.3846154 C5.38461538,10.5971154 5.2125,10.7692308 5,10.7692308 C4.7875,10.7692308 4.61538462,10.5971154 4.61538462,10.3846154 L4.61538462,5.38461538 Z M2.69230769,5.38461538 C2.69230769,5.17211538 2.86442308,5 3.07692308,5 C3.28942308,5 3.46153846,5.17211538 3.46153846,5.38461538 L3.46153846,10.3846154 C3.46153846,10.5971154 3.28942308,10.7692308 3.07692308,10.7692308 C2.86442308,10.7692308 2.69230769,10.5971154 2.69230769,10.3846154 L2.69230769,5.38461538 Z" id="Shape"></path>
            </g>
        </g>
    </g>
</svg>