<?xml version="1.0" encoding="UTF-8"?>
<svg width="30px" height="30px" viewBox="0 0 30 30" version="1.1" xmlns="http://www.w3.org/2000/svg" xmlns:xlink="http://www.w3.org/1999/xlink">
    <title>Group 6</title>
    <g id="Symbols" stroke="none" stroke-width="1" fill="none" fill-rule="evenodd">
        <g id="Group-6">
            <circle id="Oval-Copy-15" fill="#FF7373" cx="15" cy="15" r="15"></circle>
            <g id="reading-book-copy-4" transform="translate(6.000000, 4.000000)" fill="#FFFFFF" fill-rule="nonzero">
                <circle id="Oval" cx="9" cy="3.55813953" r="3.55813953"></circle>
                <path d="M11.6145628,7.59830233 C10.8612,8.08752558 9.96325116,8.37209302 9,8.37209302 C8.03674884,8.37209302 7.1388,8.08752558 6.38543721,7.59830233 C5.55262326,7.91656744 4.78046512,8.38611628 4.10906512,8.98873953 L9,10.8228558 L13.8909349,8.98873953 C13.2195349,8.38611628 12.4473767,7.91652558 11.6145628,7.59830233 Z" id="Path"></path>
                <path d="M16.5348837,12.9767442 L16.1162791,12.9767442 C15.769507,12.9767442 15.4883721,13.2578791 15.4883721,13.6046512 L15.4883721,15.2790698 C15.4883721,15.6258419 15.769507,15.9069767 16.1162791,15.9069767 L16.5348837,15.9069767 C17.3440465,15.9069767 18,15.2510233 18,14.4418605 C18,13.6326977 17.3440465,12.9767442 16.5348837,12.9767442 Z" id="Path"></path>
                <path d="M1.94466977,9.80690233 C1.77538605,9.92423721 1.6744186,10.1170465 1.6744186,10.323 L1.6744186,11.7209302 L1.88372093,11.7209302 C2.92240465,11.7209302 3.76744186,12.5659674 3.76744186,13.6046512 L3.76744186,15.2790698 C3.76744186,16.3177535 2.92240465,17.1627907 1.88372093,17.1627907 L1.6744186,17.1627907 L1.6744186,18.4857907 C1.6744186,18.7475442 1.83679535,18.9818372 2.08184651,19.0737209 L8.37209302,21.4325581 L8.37209302,11.9285581 L2.52280465,9.73506977 C2.32995349,9.66269302 2.11391163,9.68952558 1.94466977,9.80690233 Z" id="Path"></path>
                <path d="M14.2325581,15.2790698 L14.2325581,13.6046512 C14.2325581,12.5659674 15.0775953,11.7209302 16.1162791,11.7209302 L16.3255814,11.7209302 L16.3255814,10.323 C16.3255814,10.1170465 16.224614,9.92423721 16.0553302,9.80690233 C15.8860465,9.68952558 15.6699628,9.66269302 15.4771953,9.73506977 L9.62790698,11.9285581 L9.62790698,21.4325581 L15.9181535,19.0737209 C16.1632047,18.9818372 16.3255814,18.7475442 16.3255814,18.4857907 L16.3255814,17.1627907 L16.1162791,17.1627907 C15.0775953,17.1627907 14.2325581,16.3177535 14.2325581,15.2790698 L14.2325581,15.2790698 Z" id="Path"></path>
                <path d="M2.51162791,15.2790698 L2.51162791,13.6046512 C2.51162791,13.2578791 2.23049302,12.9767442 1.88372093,12.9767442 L1.46511628,12.9767442 C0.655953488,12.9767442 0,13.6326977 0,14.4418605 C0,15.2510233 0.655953488,15.9069767 1.46511628,15.9069767 L1.88372093,15.9069767 C2.23049302,15.9069767 2.51162791,15.6258419 2.51162791,15.2790698 Z" id="Path"></path>
            </g>
        </g>
    </g>
</svg>