<?xml version="1.0" encoding="UTF-8"?>
<svg width="70px" height="38px" viewBox="0 0 70 38" version="1.1" xmlns="http://www.w3.org/2000/svg" xmlns:xlink="http://www.w3.org/1999/xlink">
    <title>hahha-02@2x</title>
    <defs>
        <linearGradient x1="70.1834143%" y1="41.8827967%" x2="-81.6637927%" y2="102.947086%" id="linearGradient-1">
            <stop stop-color="#69B21B" offset="0%"></stop>
            <stop stop-color="#1D664A" offset="100%"></stop>
        </linearGradient>
    </defs>
    <g id="Symbols" stroke="none" stroke-width="1" fill="none" fill-rule="evenodd">
        <g id="p" fill-rule="nonzero">
            <g id="hahha-02" transform="translate(0.000000, -0.000000)">
                <path d="M2.52608696,0.719478261 C1.99286957,1.00069565 1.15530435,1.46086957 0.589217391,2.44695652 C0.274222153,3.00629773 0.0949204096,3.63176893 0.0657391304,4.27304348 C0.0939213173,4.91678872 0.273250825,5.54485905 0.589217391,6.10643478 C1.15530435,7.0973913 1.99286957,7.55269565 2.52608696,7.83391304 C3.62879074,8.39746732 4.87457637,8.61915697 6.104,8.4706087 L6.104,0.0827826087 C4.87457637,-0.0657656656 3.62879074,0.155923987 2.52608696,0.719478261 Z" id="Path" fill="#3E7D29"></path>
                <path d="M69.9573913,8.47669565 L6.104,8.47669565 C4.87457637,8.62524393 3.62879074,8.40355427 2.52608696,7.84 C1.99286957,7.55878261 1.15530435,7.10347826 0.589217391,6.11252174 C0.273250825,5.550946 0.0939213173,4.92287568 0.0657391304,4.27913043 L0.0657391304,32.9693913 C0.0937929725,33.6127727 0.273137062,34.2404771 0.589217391,34.8015652 C1.15530435,35.7925217 1.99286957,36.2478261 2.52608696,36.5290435 C3.54272205,37.0525607 4.68530249,37.28192 5.82521739,37.1913043 L5.82521739,37.2083478 L69.9573913,37.2083478 L57.6532174,22.8431304 L69.9573913,8.47669565 Z" id="Path" fill="url(#linearGradient-1)"></path>
            </g>
        </g>
    </g>
</svg>