<?xml version="1.0" encoding="UTF-8"?>
<svg width="30px" height="30px" viewBox="0 0 30 30" version="1.1" xmlns="http://www.w3.org/2000/svg" xmlns:xlink="http://www.w3.org/1999/xlink">
    <title>Group 8</title>
    <g id="User" stroke="none" stroke-width="1" fill="none" fill-rule="evenodd">
        <g id="Group-8">
            <circle id="Oval-Copy-17" fill="#FBDB3D" cx="15" cy="15" r="15"></circle>
            <path d="M17.1176225,20.792053 C16.4975166,20.792053 15.8015364,21.9289139 15.5953709,22.9139073 L23.4705497,22.9139073 C23.7631987,22.9139073 23.9999404,22.6766291 23.9999404,22.3834437 L23.9999404,20.792053 L23.4705497,20.792053 L17.1176225,20.792053 Z M23.4706093,7 L17.1176225,7 C16.5193311,7 15.9734305,7.21003974 15.5293907,7.54703311 L15.5293907,18.1397351 C15.5293907,18.4329205 15.2925894,18.6701987 15,18.6701987 C14.7074106,18.6701987 14.4706093,18.4329205 14.4706093,18.1397351 L14.4706093,7.54703311 C14.0265695,7.21003974 13.4806689,7 12.8823775,7 L6.52939073,7 C6.23674172,7 6,7.23727815 6,7.53046358 L6,19.7311258 L12.8823775,19.7311258 C13.8146225,19.7311258 14.5427881,20.5467881 15,21.4780795 C15.4572119,20.5467881 16.1854371,19.7311258 17.1176225,19.7311258 L24,19.7311258 L24,7.53046358 C24,7.23727815 23.7631987,7 23.4706093,7 Z M10.7646954,9.1218543 C11.6404967,9.1218543 12.3529272,9.83571523 12.3529272,10.713245 C12.3529272,11.2794702 12.0489536,11.8078477 11.5587815,12.0911987 C11.3954106,12.1860265 11.2940861,12.3626291 11.2940861,12.5512119 L11.2940861,12.8350993 C11.2940861,13.1282848 11.0572848,13.3655629 10.7646954,13.3655629 C10.4720464,13.3655629 10.2353046,13.1282848 10.2353046,12.8350993 L10.2353046,12.5512119 C10.2353046,11.9849868 10.5392781,11.4571457 11.0283775,11.1732583 C11.1927616,11.0784305 11.2940861,10.9023046 11.2940861,10.713245 C11.2940861,10.4205364 11.0562715,10.1827815 10.7646954,10.1827815 C10.4731192,10.1827815 10.2353046,10.4205364 10.2353046,10.713245 C10.2353046,11.0064305 9.99850331,11.2437086 9.70591391,11.2437086 C9.4132649,11.2437086 9.17652318,11.0064305 9.17652318,10.713245 C9.17646358,9.83571523 9.88889404,9.1218543 10.7646954,9.1218543 L10.7646954,9.1218543 Z M11.2940861,14.9569536 C11.2940861,15.2499007 11.0570464,15.4874172 10.7646954,15.4874172 C10.4723444,15.4874172 10.2353046,15.2499007 10.2353046,14.9569536 C10.2353046,14.663947 10.4723444,14.4264901 10.7646954,14.4264901 C11.0570464,14.4264901 11.2940861,14.663947 11.2940861,14.9569536 Z M12.3529272,17.6092715 L9.17646358,17.6092715 C8.88381457,17.6092715 8.64707285,17.3719934 8.64707285,17.0788079 C8.64707285,16.7856225 8.88387417,16.5483444 9.17646358,16.5483444 L12.3529272,16.5483444 C12.6455762,16.5483444 12.8823179,16.7856225 12.8823179,17.0788079 C12.8823775,17.3719934 12.6455762,17.6092715 12.3529272,17.6092715 Z M20.8235364,17.6092715 L17.6470728,17.6092715 C17.3544238,17.6092715 17.1176821,17.3719934 17.1176821,17.0788079 C17.1176821,16.7856225 17.3544834,16.5483444 17.6470728,16.5483444 L20.8235364,16.5483444 C21.1161854,16.5483444 21.3529272,16.7856225 21.3529272,17.0788079 C21.3529272,17.3719934 21.1161258,17.6092715 20.8235364,17.6092715 Z M20.8235364,15.4874172 L17.6470728,15.4874172 C17.3544238,15.4874172 17.1176821,15.2501391 17.1176821,14.9569536 C17.1176821,14.6637682 17.3544834,14.4264901 17.6470728,14.4264901 L20.8235364,14.4264901 C21.1161854,14.4264901 21.3529272,14.6637682 21.3529272,14.9569536 C21.3529272,15.2501391 21.1161258,15.4874172 20.8235364,15.4874172 Z M20.8235364,13.3655629 L17.6470728,13.3655629 C17.3544238,13.3655629 17.1176821,13.1282848 17.1176821,12.8350993 C17.1176821,12.5419139 17.3544834,12.3046358 17.6470728,12.3046358 L20.8235364,12.3046358 C21.1161854,12.3046358 21.3529272,12.5419139 21.3529272,12.8350993 C21.3529272,13.1282848 21.1161258,13.3655629 20.8235364,13.3655629 Z M20.8235364,11.2437086 L17.6470728,11.2437086 C17.3544238,11.2437086 17.1176821,11.0064305 17.1176821,10.713245 C17.1176821,10.4200596 17.3544834,10.1827815 17.6470728,10.1827815 L20.8235364,10.1827815 C21.1161854,10.1827815 21.3529272,10.4200596 21.3529272,10.713245 C21.3529272,11.0064305 21.1161258,11.2437086 20.8235364,11.2437086 Z M12.8823775,20.792053 L6,20.792053 L6,22.3834437 C6,22.6766291 6.23680132,22.9139073 6.52939073,22.9139073 L14.4045695,22.9139073 C14.1984636,21.9289139 13.5024238,20.792053 12.8823775,20.792053 L12.8823775,20.792053 Z" id="Shape-Copy" fill="#FFFFFF" fill-rule="nonzero"></path>
        </g>
    </g>
</svg>