<?xml version="1.0" encoding="UTF-8"?>
<svg width="20px" height="27px" viewBox="0 0 20 27" version="1.1" xmlns="http://www.w3.org/2000/svg" xmlns:xlink="http://www.w3.org/1999/xlink">
    <title>profit-report copy@2x</title>
    <g id="Symbols" stroke="none" stroke-width="1" fill="none" fill-rule="evenodd">
        <g id="Report" fill="#FFFFFF" fill-rule="nonzero">
            <g id="profit-report-copy">
                <polygon id="Path" points="13.3333333 0 13.3333333 6.73076923 20 6.73076923"></polygon>
                <path d="M13.3333333,8.41346154 C12.415,8.41346154 11.6666667,7.65793269 11.6666667,6.73076923 L11.6666667,0 L1.66666667,0 C0.748333333,0 0,0.755528846 0,1.68269231 L0,25.2403846 C0,26.1692308 0.748333333,26.9230769 1.66666667,26.9230769 L18.3333333,26.9230769 C19.2533333,26.9230769 20,26.1692308 20,25.2403846 L20,8.41346154 L13.3333333,8.41346154 Z M6.66666667,23.5576923 L3.33333333,23.5576923 L3.33333333,18.5096154 L6.66666667,18.5096154 L6.66666667,23.5576923 Z M11.6666667,23.5576923 L8.33333333,23.5576923 L8.33333333,15.1442308 L11.6666667,15.1442308 L11.6666667,23.5576923 Z M16.6666667,23.5576923 L13.3333333,23.5576923 L13.3333333,11.7788462 L16.6666667,11.7788462 L16.6666667,23.5576923 Z" id="Shape"></path>
            </g>
        </g>
    </g>
</svg>