<?xml version="1.0" encoding="UTF-8"?>
<svg width="26px" height="27px" viewBox="0 0 26 27" version="1.1" xmlns="http://www.w3.org/2000/svg" xmlns:xlink="http://www.w3.org/1999/xlink">
    <title>search</title>
    <g id="Symbols" stroke="none" stroke-width="1" fill="none" fill-rule="evenodd">
        <g id="search" fill="#C3C3C3" fill-rule="nonzero">
            <g id="Shape">
                <path d="M25.6035,24.0903929 L19.3087143,17.5435 C20.9272143,15.6195 21.814,13.1987143 21.814,10.6785714 C21.814,4.7905 17.0235,0 11.1354286,0 C5.24735714,0 0.456857143,4.7905 0.456857143,10.6785714 C0.456857143,16.5666429 5.24735714,21.3571429 11.1354286,21.3571429 C13.3458929,21.3571429 15.4523571,20.6904286 17.2533214,19.4247857 L23.5959286,26.0213571 C23.8610357,26.2966786 24.2176071,26.4485 24.5997143,26.4485 C24.9613929,26.4485 25.3045,26.3106071 25.5649643,26.0598929 C26.1183929,25.5273571 26.1360357,24.6442857 25.6035,24.0903929 Z M11.1354286,2.78571429 C15.4876429,2.78571429 19.0282857,6.32635714 19.0282857,10.6785714 C19.0282857,15.0307857 15.4876429,18.5714286 11.1354286,18.5714286 C6.78321429,18.5714286 3.24257143,15.0307857 3.24257143,10.6785714 C3.24257143,6.32635714 6.78321429,2.78571429 11.1354286,2.78571429 Z"></path>
            </g>
        </g>
    </g>
</svg>