<?xml version="1.0" encoding="UTF-8"?>
<svg width="50px" height="50px" viewBox="0 0 50 50" version="1.1" xmlns="http://www.w3.org/2000/svg" xmlns:xlink="http://www.w3.org/1999/xlink">
    <title>video copy 3@2x</title>
    <g id="Symbols" stroke="none" stroke-width="1" fill="none" fill-rule="evenodd">
        <g id="video-icon" fill="#FFFFFF" fill-rule="nonzero">
            <g id="video-copy-3">
                <path d="M25,0 C11.1918571,0 0,11.1918571 0,25 C0,38.808 11.1918571,50 25,50 C38.808,50 50,38.808 50,25 C50,11.1918571 38.808,0 25,0 Z M36.9625714,27.0071429 L22.0502857,37.266 C21.6354286,37.5501429 21.1525714,37.6954286 20.6684286,37.6954286 C20.2787143,37.6954286 19.8918571,37.6028571 19.5355714,37.4167143 C18.7348571,36.9931429 18.232,36.1628571 18.232,35.2591429 L18.232,14.7411429 C18.232,13.8374286 18.7348571,13.007 19.5355714,12.5834286 C20.3362857,12.1634286 21.3037143,12.2212857 22.0502857,12.7341429 L36.9625714,22.9928571 C37.6224286,23.4471429 38.0178571,24.1987143 38.0178571,25 C38.0178571,25.8012857 37.6225714,26.5528571 36.9625714,27.0071429 Z" id="Shape"></path>
            </g>
        </g>
    </g>
</svg>