<?xml version="1.0" encoding="UTF-8"?>
<svg width="60px" height="57px" viewBox="0 0 60 57" version="1.1" xmlns="http://www.w3.org/2000/svg" xmlns:xlink="http://www.w3.org/1999/xlink">
    <title>video-player@2x</title>
    <g id="Symbols" stroke="none" stroke-width="1" fill="none" fill-rule="evenodd">
        <g id="online_icon" fill="#C3C3C3" fill-rule="nonzero">
            <g id="video-player">
                <path d="M60,4.83221477 C60,2.16342282 57.8365772,0 55.1677852,0 L4.83221477,0 C2.16342282,0 0,2.16342282 0,4.83221477 L0,51.5436242 C0,54.2124161 2.16342282,56.3758389 4.83221477,56.3758389 L55.1677852,56.3758389 C57.8365772,56.3758389 60,54.2124161 60,51.5436242 L60,4.83221477 Z M18.3221477,6.04026846 L26.9798658,6.04026846 L26.9798658,12.885906 L18.3221477,12.885906 L18.3221477,6.04026846 Z M12.2818792,50.3355705 L6.04026846,50.3355705 L6.04026846,43.4899329 L12.2818792,43.4899329 L12.2818792,50.3355705 Z M12.2818792,12.885906 L6.04026846,12.885906 L6.04026846,6.04026846 L12.2818792,6.04026846 L12.2818792,12.885906 Z M26.9798658,50.3355705 L18.3221477,50.3355705 L18.3221477,43.4899329 L26.9798658,43.4899329 L26.9798658,50.3355705 Z M24.7651007,33.7667114 L24.7651007,22.6089262 C24.7651007,20.9478523 25.9465772,20.3333557 27.3362416,21.2432215 L35.437651,26.5328859 C36.8273154,27.4427517 36.8385906,28.9316779 35.4489262,29.841745 L27.330604,35.1324161 C25.9409396,36.0424832 24.7651007,35.4277852 24.7651007,33.7667114 Z M41.6778523,50.3355705 L33.0201342,50.3355705 L33.0201342,43.4899329 L41.6778523,43.4899329 L41.6778523,50.3355705 Z M41.6778523,12.885906 L33.0201342,12.885906 L33.0201342,6.04026846 L41.6778523,6.04026846 L41.6778523,12.885906 Z M53.9597315,50.3355705 L47.7181208,50.3355705 L47.7181208,43.4899329 L53.9597315,43.4899329 L53.9597315,50.3355705 Z M53.9597315,12.885906 L47.7181208,12.885906 L47.7181208,6.04026846 L53.9597315,6.04026846 L53.9597315,12.885906 Z" id="Shape"></path>
            </g>
        </g>
    </g>
</svg>