<?xml version="1.0" encoding="UTF-8"?>
<svg width="26px" height="26px" viewBox="0 0 26 26" version="1.1" xmlns="http://www.w3.org/2000/svg" xmlns:xlink="http://www.w3.org/1999/xlink">
    <title>Group 16@2x</title>
    <g id="Symbols" stroke="none" stroke-width="1" fill="none" fill-rule="evenodd">
        <g id="Group-16">
            <circle id="Oval" fill="#FFFFFF" cx="13" cy="13" r="13"></circle>
            <path d="M13.142,8.018 C13.516,8.018 13.8191667,7.916 14.0515,7.712 C14.2838333,7.508 14.4,7.24166667 14.4,6.913 C14.4,6.58433333 14.2838333,6.31233333 14.0515,6.097 C13.8191667,5.88166667 13.516,5.774 13.142,5.774 C12.768,5.774 12.4676667,5.88166667 12.241,6.097 C12.0143333,6.31233333 11.901,6.58433333 11.901,6.913 C11.901,7.24166667 12.0143333,7.508 12.241,7.712 C12.4676667,7.916 12.768,8.018 13.142,8.018 Z M14.111,19 L14.111,9.633 L12.173,9.633 L12.173,19 L14.111,19 Z" id="i" fill="#70B547" fill-rule="nonzero"></path>
        </g>
    </g>
</svg>