<?xml version="1.0" encoding="UTF-8"?>
<svg width="24px" height="24px" viewBox="0 0 24 24" version="1.1" xmlns="http://www.w3.org/2000/svg" xmlns:xlink="http://www.w3.org/1999/xlink">
    <title>Group 2</title>
    <g id="Symbols" stroke="none" stroke-width="1" fill="none" fill-rule="evenodd">
        <g id="edited" fill-rule="nonzero">
            <g id="Group-2">
                <rect id="Rectangle" fill="#70B547" x="0" y="0" width="24" height="24" rx="12"></rect>
                <path d="M10.3780134,6.59617011 C10.5522468,6.59617011 10.6934571,6.73738044 10.6934571,6.91161381 C10.6934571,7.08584714 10.5522468,7.2270575 10.3780134,7.2270575 L10.3780134,7.2270575 L7.57721847,7.2270575 C7.05476485,7.22767359 6.63150348,7.65093497 6.63088739,8.17338858 L6.63088739,8.17338858 L6.63088739,16.3935309 C6.63150348,16.9158613 7.05476485,17.3392459 7.57721847,17.3398619 L7.57721847,17.3398619 L16.4282482,17.3398619 C16.9507018,17.3392459 17.3739631,16.9158613 17.3745793,16.3935309 L17.3745793,16.3935309 L17.3745793,13.5926127 C17.3745793,13.4183793 17.5157896,13.277169 17.6900229,13.277169 C17.8642563,13.277169 18.0054666,13.4185025 18.0054666,13.5927359 L18.0054666,13.5927359 L18.0054666,16.3935309 C18.0044809,17.2642048 17.298922,17.9697636 16.4282482,17.9707493 L16.4282482,17.9707493 L7.57721847,17.9707493 C6.7065446,17.9697636 6.00098576,17.2642048 6,16.3935309 L6,16.3935309 L6,8.17338858 C6.00098576,7.30271468 6.7065446,6.59715587 7.57721847,6.59617011 L7.57721847,6.59617011 Z M10.6356669,12.2126697 L11.8225238,13.3995266 L10.1809844,13.8542091 L10.6356669,12.2126697 Z M15.5383519,7.01129894 L17.0237714,8.49671837 L12.4179237,13.1026892 L10.9325043,11.6172698 L15.5383519,7.01129894 Z M16.3191983,6.23057579 C16.627372,5.9231414 17.1262906,5.9231414 17.4344642,6.23057579 L17.4344642,6.23057579 L17.8046177,6.60072925 C18.1121753,6.90890295 18.1121753,7.40782153 17.8046177,7.71599523 L17.8046177,7.71599523 L17.4700749,8.05053806 L15.9846555,6.56511862 Z" id="Combined-Shape" fill="#FFFFFF"></path>
            </g>
        </g>
    </g>
</svg>