<?xml version="1.0" encoding="UTF-8"?>
<svg width="30px" height="30px" viewBox="0 0 30 30" version="1.1" xmlns="http://www.w3.org/2000/svg" xmlns:xlink="http://www.w3.org/1999/xlink">
    <title>Group 19@2x</title>
    <g id="Symbols" stroke="none" stroke-width="1" fill="none" fill-rule="evenodd">
        <g id="Group-19">
            <circle id="Oval-Copy-13" fill="#FFFFFF" cx="15" cy="15" r="15"></circle>
            <g id="youtube" transform="translate(6.000000, 8.000000)" fill="#62984B" fill-rule="nonzero">
                <path d="M17.6291016,1.99786376 C17.4216797,1.22673341 16.8136963,0.618859856 16.0426758,0.411218269 C14.6341187,0.0258178781 8.99978029,0.0258178781 8.99978029,0.0258178781 C8.99978029,0.0258178781 3.36566163,0.0258178781 1.95710451,0.396606431 C1.20091553,0.604028306 0.5781006,1.22684327 0.370678725,1.99786376 C0,3.40631103 0,6.32724609 0,6.32724609 C0,6.32724609 0,9.26290282 0.370678725,10.6566284 C0.578320313,11.4276489 1.18608398,12.0355225 1.95721436,12.2431641 C3.38049315,12.6286743 9,12.6286743 9,12.6286743 C9,12.6286743 14.6341187,12.6286743 16.0426758,12.2578858 C16.8138062,12.050354 17.4216797,11.4424805 17.6293213,10.67146 C17.9999658,9.26290282 17.9999658,6.34207764 17.9999658,6.34207764 C17.9999658,6.34207764 18.0147217,3.40631103 17.6291016,1.99786376 L17.6291016,1.99786376 Z M7.20593263,9.02570799 L7.20593263,3.62878419 L11.8911621,6.32724609 L7.20593263,9.02570799 Z" id="Shape"></path>
            </g>
        </g>
    </g>
</svg>