<?xml version="1.0" encoding="UTF-8"?>
<svg width="20px" height="20px" viewBox="0 0 20 20" version="1.1" xmlns="http://www.w3.org/2000/svg" xmlns:xlink="http://www.w3.org/1999/xlink">
    <title>Group@2x</title>
    <g id="Symbols" stroke="none" stroke-width="1" fill="none" fill-rule="evenodd">
        <g id="Report" fill="#FFFFFF" fill-rule="nonzero">
            <g id="Group">
                <path d="M2.96875,9.375 C3.44146727,9.375 3.86932375,9.18533324 4.18548586,8.88076781 L5.91995238,9.7479248 C5.91125488,9.81857301 5.8984375,9.88800047 5.8984375,9.9609375 C5.8984375,10.9301758 6.68701172,11.71875 7.65625,11.71875 C8.62548828,11.71875 9.4140625,10.9301758 9.4140625,9.9609375 C9.4140625,9.69039918 9.34753418,9.43710328 9.23782348,9.20791625 L11.5907288,6.85501098 C11.8199158,6.96472168 12.0732117,7.03125 12.34375,7.03125 C13.3129883,7.03125 14.1015625,6.24267578 14.1015625,5.2734375 C14.1015625,5.09094238 14.0657043,4.91836547 14.0138245,4.75280762 L16.058197,3.21990969 C16.3371277,3.40621949 16.6714477,3.515625 17.03125,3.515625 C18.0004883,3.515625 18.7890625,2.72705078 18.7890625,1.7578125 C18.7890625,0.788574219 18.0004883,0 17.03125,0 C16.0620117,0 15.2734375,0.788574219 15.2734375,1.7578125 C15.2734375,1.94030762 15.3092957,2.11288453 15.3611755,2.27844238 L13.316803,3.81134031 C13.0378723,3.62503051 12.7035523,3.515625 12.34375,3.515625 C11.3745117,3.515625 10.5859375,4.30419922 10.5859375,5.2734375 C10.5859375,5.54397582 10.6524658,5.79727172 10.7621765,6.02645875 L8.40927125,8.37936402 C8.18008422,8.26965332 7.92678832,8.203125 7.65625,8.203125 C7.18353273,8.203125 6.75567625,8.39279176 6.43951414,8.69735719 L4.70504762,7.8302002 C4.71374512,7.75955199 4.7265625,7.69012453 4.7265625,7.6171875 C4.7265625,6.64794922 3.93798828,5.859375 2.96875,5.859375 C1.99951172,5.859375 1.2109375,6.64794922 1.2109375,7.6171875 C1.2109375,8.58642578 1.99951172,9.375 2.96875,9.375 Z" id="Path"></path>
                <path d="M19.4140625,18.828125 L18.7890625,18.828125 L18.7890625,6.4453125 C18.7890625,6.12152102 18.5269165,5.859375 18.203125,5.859375 L15.859375,5.859375 C15.5355835,5.859375 15.2734375,6.12152102 15.2734375,6.4453125 L15.2734375,18.828125 L14.1015625,18.828125 L14.1015625,9.9609375 C14.1015625,9.63714602 13.8394165,9.375 13.515625,9.375 L11.171875,9.375 C10.8480835,9.375 10.5859375,9.63714602 10.5859375,9.9609375 L10.5859375,18.828125 L9.4140625,18.828125 L9.4140625,14.6484375 C9.4140625,14.324646 9.15191648,14.0625 8.828125,14.0625 L6.484375,14.0625 C6.16058352,14.0625 5.8984375,14.324646 5.8984375,14.6484375 L5.8984375,18.828125 L4.7265625,18.828125 L4.7265625,12.3046875 C4.7265625,11.980896 4.46441648,11.71875 4.140625,11.71875 L1.796875,11.71875 C1.47308352,11.71875 1.2109375,11.980896 1.2109375,12.3046875 L1.2109375,18.828125 L0.5859375,18.828125 C0.262146016,18.828125 0,19.090271 0,19.4140625 C0,19.737854 0.262146016,20 0.5859375,20 L19.4140625,20 C19.737854,20 20,19.737854 20,19.4140625 C20,19.090271 19.737854,18.828125 19.4140625,18.828125 Z" id="Path"></path>
            </g>
        </g>
    </g>
</svg>