<?xml version="1.0" encoding="UTF-8"?>
<svg width="80px" height="80px" viewBox="0 0 80 80" version="1.1" xmlns="http://www.w3.org/2000/svg" xmlns:xlink="http://www.w3.org/1999/xlink">
    <title>Group 19@2x</title>
    <defs>
        <circle id="path-1" cx="30" cy="30" r="30"></circle>
        <filter x="-26.7%" y="-23.3%" width="153.3%" height="153.3%" filterUnits="objectBoundingBox" id="filter-2">
            <feOffset dx="0" dy="2" in="SourceAlpha" result="shadowOffsetOuter1"></feOffset>
            <feGaussianBlur stdDeviation="5" in="shadowOffsetOuter1" result="shadowBlurOuter1"></feGaussianBlur>
            <feColorMatrix values="0 0 0 0 0   0 0 0 0 0   0 0 0 0 0  0 0 0 0.0799278846 0" type="matrix" in="shadowBlurOuter1"></feColorMatrix>
        </filter>
    </defs>
    <g id="Symbols" stroke="none" stroke-width="1" fill="none" fill-rule="evenodd">
        <g id="Group-19" transform="translate(10.000000, 8.000000)">
            <g id="Oval-Copy-2">
                <use fill="black" fill-opacity="1" filter="url(#filter-2)" xlink:href="#path-1"></use>
                <use fill="#FFFFFF" fill-rule="evenodd" xlink:href="#path-1"></use>
            </g>
            <g id="paper-plane-copy" transform="translate(18.000000, 18.000000)" fill="#70B547" fill-rule="nonzero">
                <path d="M8.75,17.612 L8.75,22.25 C8.75,22.574 8.958,22.861 9.266,22.963 C9.343,22.988 9.422,23 9.5,23 C9.734,23 9.96,22.89 10.104,22.694 L12.817,19.002 L8.75,17.612 Z" id="Path"></path>
                <path d="M23.685,0.139 C23.455,-0.024 23.153,-0.046 22.903,0.085 L0.403,11.835 C0.137,11.974 -0.02,12.258 0.002,12.557 C0.025,12.857 0.224,13.113 0.507,13.21 L6.762,15.348 L20.083,3.958 L9.775,16.377 L20.258,19.96 C20.336,19.986 20.418,20 20.5,20 C20.636,20 20.771,19.963 20.89,19.891 C21.08,19.775 21.209,19.58 21.242,19.361 L23.992,0.861 C24.033,0.581 23.915,0.303 23.685,0.139 Z" id="Path"></path>
            </g>
        </g>
    </g>
</svg>