<?xml version="1.0" encoding="UTF-8"?>
<svg width="44px" height="58px" viewBox="0 0 44 58" version="1.1" xmlns="http://www.w3.org/2000/svg" xmlns:xlink="http://www.w3.org/1999/xlink">
    <title>shopping-support-online@2x</title>
    <g id="Symbols" stroke="none" stroke-width="1" fill="none" fill-rule="evenodd">
        <g id="video" fill="#FFFFFF" fill-rule="nonzero">
            <g id="shopping-support-online" transform="translate(0.000000, 0.000000)">
                <path d="M8.72266667,39.12 L10.1733333,37.6693333 L20.7866667,37.6693333 L14.0146667,25.4333333 L9.00666667,26.452 C7.69333333,26.7186667 6.64533333,27.708 6.30266667,29.004 L0.357333333,48.4066667 C0.0773333333,49.4626667 0.305333333,50.5893333 0.972,51.4533333 C1.63866667,52.32 2.66933333,52.8266667 3.76266667,52.8266667 L8.724,52.8266667 L8.72266667,39.12 L8.72266667,39.12 Z" id="Path"></path>
                <path d="M43.08,48.4066667 L37.1346667,29.004 C36.7866667,27.692 35.7186667,26.696 34.3853333,26.4426667 L29.396,25.4986667 L22.652,37.668 L34.0653333,37.668 L35.516,39.1186667 L35.516,52.824 L39.6773333,52.824 C40.7693333,52.824 41.8013333,52.3173333 42.468,51.4506667 C43.1333333,50.584 43.3573333,49.4626667 43.08,48.4066667 Z" id="Path"></path>
                <polygon id="Path" points="11.6253333 52.8266667 11.2226667 52.8266667 11.2226667 52.832 32.212 52.8306667 32.212 52.8266667 32.6133333 52.8266667 32.6133333 40.5733333 11.6253333 40.5733333"></polygon>
                <rect id="Rectangle" x="5.82933333" y="54.144" width="31.7773333" height="2.624"></rect>
                <path d="M10.4053333,16.872 C10.4613333,16.9866667 10.5346667,17.1626667 10.612,17.3466667 C10.92,18.088 11.1706667,18.6413333 11.5186667,18.9666667 C13.1306667,24.2266667 17.2906667,27.868 21.7106667,27.8547032 C26.112,27.84 30.2213333,24.1666667 31.7733333,18.892 C32.1146667,18.564 32.3573333,18.0133333 32.6573333,17.2773333 C32.7333333,17.0893333 32.8026667,16.912 32.8573333,16.7973333 C33.4533333,15.5653333 33.248,14.2306667 32.4146667,13.5813333 C32.4146667,13.5413333 32.4146667,13.5 32.4146667,13.46 C32.3946667,6.93066667 31.5426667,-0.0333333333 21.6146667,-0.000119193607 C11.6133333,0.032 10.8,6.70266667 10.8213333,13.5306667 C10.8213333,13.572 10.8226667,13.612 10.8226667,13.652 C9.996,14.3106667 9.80133333,15.6466667 10.4053333,16.872 Z M11.8013333,14.7693333 L11.8306667,14.7573333 C11.9946667,14.6973333 12.1253333,14.5813333 12.2093333,14.4373333 L13.9413333,14.7053333 C14.108,14.7293333 14.2693333,14.64 14.336,14.4866667 L15.4306667,11.9586667 C16.6693333,12.256 21.36,13.316 25.036,13.3026667 C26.1746667,13.3 27.12,13.1893333 27.852,12.9746667 L28.5466667,14.6506667 C28.604,14.792 28.7413333,14.88 28.8866667,14.8786667 C28.9173333,14.8786667 28.9533333,14.8733333 28.9853333,14.8653333 L31.0026667,14.2986667 C31.0826667,14.476 31.2306667,14.6213333 31.42,14.692 L31.448,14.7013333 C31.748,14.8506667 31.8466667,15.5053333 31.5306667,16.156 C31.4546667,16.3133333 31.376,16.512 31.288,16.7226667 C31.1653333,17.028 30.9133333,17.6493333 30.76,17.816 C30.5933333,17.912 30.4666667,18.0706667 30.416,18.2586667 C29.0973333,23.0293333 25.5093333,26.3693333 21.6973333,26.3826991 C17.8653333,26.3946667 14.228,23.0786667 12.8533333,18.3186667 C12.7986667,18.1306667 12.6746667,17.9746667 12.5053333,17.88 C12.3506667,17.7133333 12.0893333,17.088 11.9626667,16.7813333 C11.8773333,16.5746667 11.7946667,16.3773333 11.7173333,16.2226667 C11.4066667,15.5746667 11.5,14.92 11.8013333,14.7693333 Z" id="Shape"></path>
            </g>
        </g>
    </g>
</svg>