<?xml version="1.0" encoding="UTF-8"?>
<svg width="28px" height="28px" viewBox="0 0 28 28" version="1.1" xmlns="http://www.w3.org/2000/svg" xmlns:xlink="http://www.w3.org/1999/xlink">
    <title>button(2)@1x</title>
    <g id="Symbols" stroke="none" stroke-width="1" fill="none" fill-rule="evenodd">
        <g id="Add" fill="#FFFFFF" fill-rule="nonzero">
            <g id="button(2)">
                <path d="M8.53125,14 C8.53125,14.6040781 9.02092188,15.09375 9.625,15.09375 L12.90625,15.09375 L12.90625,18.375 C12.90625,18.9790781 13.3959219,19.46875 14,19.46875 C14.6040781,19.46875 15.09375,18.9790781 15.09375,18.375 L15.09375,15.09375 L18.375,15.09375 C18.9790781,15.09375 19.46875,14.6040781 19.46875,14 C19.46875,13.3959219 18.9790781,12.90625 18.375,12.90625 L15.09375,12.90625 L15.09375,9.625 C15.09375,9.02092188 14.6040781,8.53125 14,8.53125 C13.3959219,8.53125 12.90625,9.02092188 12.90625,9.625 L12.90625,12.90625 L9.625,12.90625 C9.02092188,12.90625 8.53125,13.3959219 8.53125,14 Z" id="Path"></path>
                <path d="M8.77220313,3.3796875 L10.1869141,2.79365625 C10.7449453,2.5624375 11.0100156,1.92264844 10.7787969,1.3645625 C10.5475781,0.806476562 9.90784375,0.541296875 9.34970313,0.772679687 L7.93499219,1.35871094 C7.37696094,1.58992969 7.11189063,2.22971875 7.34310938,2.78780469 C7.5735625,3.34403125 8.2123125,3.61145312 8.77220313,3.3796875 Z" id="Path"></path>
                <path d="M14,0 C13.3959219,0 12.90625,0.489671875 12.90625,1.09375 C12.90625,1.69782813 13.3959219,2.1875 14,2.1875 C20.5284844,2.1875 25.8125,7.47075 25.8125,14 C25.8125,20.5284844 20.52925,25.8125 14,25.8125 C7.47151563,25.8125 2.1875,20.52925 2.1875,14 C2.1875,13.3959219 1.69782813,12.90625 1.09375,12.90625 C0.489671875,12.90625 0,13.3959219 0,14 C0,21.7373516 6.26155469,28 14,28 C21.7373516,28 28,21.7384453 28,14 C28,6.26264844 21.7384453,0 14,0 Z" id="Path"></path>
                <path d="M5.10595313,6.18871094 L6.18871094,5.10595313 C6.615875,4.67878906 6.615875,3.98622656 6.18871094,3.55911719 C5.76154687,3.13200781 5.06898438,3.13195313 4.641875,3.55911719 L3.55911719,4.641875 C3.13195312,5.06903906 3.13195312,5.76160156 3.55911719,6.18871094 C3.98617188,6.61576562 4.67878906,6.615875 5.10595313,6.18871094 Z" id="Path"></path>
                <path d="M1.3645625,10.7788516 C1.92385156,11.0105078 2.56298438,10.7437422 2.79365625,10.1869687 L3.3796875,8.77220312 C3.61090625,8.21411719 3.34583594,7.57432812 2.78780469,7.34310937 C2.22960938,7.11194531 1.58992969,7.37696094 1.35871094,7.93499219 L0.772679688,9.34970312 C0.541460938,9.90784375 0.80653125,10.5476328 1.3645625,10.7788516 Z" id="Path"></path>
            </g>
        </g>
    </g>
</svg>