<?xml version="1.0" encoding="UTF-8"?>
<svg width="648px" height="654px" viewBox="0 0 648 654" version="1.1" xmlns="http://www.w3.org/2000/svg" xmlns:xlink="http://www.w3.org/1999/xlink">
    <title>21-01@2x</title>
    <g id="Symbols" stroke="none" stroke-width="1" fill="none" fill-rule="evenodd">
        <g id="21-01" transform="translate(1.000000, 1.000000)">
            <polygon id="Path" fill="#4C9003" fill-rule="nonzero" points="626 458.968414 424.188841 577 422 531.991989 623.957082 417"></polygon>
            <polygon id="Path" fill="#6DD400" fill-rule="nonzero" points="421.065587 533 212 468.155263 435.729177 370 623 417.997191"></polygon>
            <polygon id="Path" fill="#FFFFFF" fill-rule="nonzero" points="214.167933 512.359404 423 577 420.832067 532.640596 212 468"></polygon>
            <polygon id="Path" fill="#BF4D17" fill-rule="nonzero" points="212.219608 472.534442 422 537 421.780392 532.483769 212 468"></polygon>
            <polygon id="Path" fill="#4C9003" fill-rule="nonzero" points="214.219608 512.533245 424 577 423.780392 572.466755 214 508"></polygon>
            <polygon id="Path" fill="#4C9003" fill-rule="nonzero" points="408.818082 567.603799 424 572 422.200662 536.52284 407 532"></polygon>
            <polygon id="Path" fill="#8F3B14" fill-rule="nonzero" points="232.621302 503.558887 239.491124 499.5 247 508 246.39645 495.550321 232 491"></polygon>
            <polygon id="Path" fill="#FFFFFF" fill-rule="nonzero" points="598 402.865466 420.879792 506 419 467.205773 596.302712 368"></polygon>
            <polygon id="Path" fill="#5CB201" fill-rule="nonzero" points="596 371.372566 418.183052 471 418 466.97115 595.835253 368"></polygon>
            <polygon id="Path" fill="#5CB201" fill-rule="nonzero" points="598 404.395385 421.200288 506 421 501.962244 597.836128 401"></polygon>
            <polygon id="Path" fill="#E2D6D6" fill-rule="nonzero" style="mix-blend-mode: multiply;" points="598 411.086222 421.281102 513 420 506.540032 590.880732 409"></polygon>
            <polygon id="Path" fill="#6DD400" fill-rule="nonzero" points="596 368.111111 431.239164 327 237 411.553734 245.456298 422.919854 245.036223 414.23133 418.563848 467"></polygon>
            <path d="M243.729697,451.982598 L419.051133,505.959384 C419.266627,506.035367 419.505627,506.003559 419.693566,505.873883 C419.881505,505.744208 419.995505,505.532451 420,505.304679 L418.175256,468.113801 L246.649288,415.37368 C244.676343,414.673956 242.485703,414.967961 240.768755,416.162906 C239.051807,417.357851 238.02038,419.306309 238,421.393329 L239.222579,446.563096 C239.445964,449.128774 241.241526,451.287814 243.729697,451.982598 Z" id="Path" fill="#FFFFFF" fill-rule="nonzero"></path>
            <polygon id="Path" fill="#6DD400" fill-rule="nonzero" points="392.534979 490.145374 398.491084 486.60279 405 494 404.482853 472.964758 392 469"></polygon>
            <polygon id="Path" fill="#4C7ED6" fill-rule="nonzero" points="253 454 238.844789 449.532231 237 411 251.172949 415.467769"></polygon>
            <polygon id="Path" fill="#4C7ED6" fill-rule="nonzero" points="242 451 238.890909 449.949309 237 411 240.127273 412.050691"></polygon>
            <polygon id="Path" fill="#5CB201" fill-rule="nonzero" points="237.201186 414.958269 419 471 418.817104 467.041731 237 411"></polygon>
            <polygon id="Path" fill="#5CB201" fill-rule="nonzero" points="239.219233 449.714547 421 506 420.799036 502.084172 239 446"></polygon>
            <polygon id="Path" fill="#E2D6D6" fill-rule="nonzero" style="mix-blend-mode: multiply;" points="240 456.415077 422 513 420.594947 506.442325 247.28073 453"></polygon>
            <path d="M348.759374,385.063917 C355.032267,393.589379 347.881535,416.573439 330.471057,442.022032 C311.532486,469.328158 286.91781,492.236524 258.305359,509.185143 C193.21724,547.138963 128.952095,545.550708 116.753788,528.408506 L56,439.520987 L291.772979,302 C291.772979,302 348.302166,384.44322 348.759374,385.063917 Z" id="Path" fill="#3D3A3A" fill-rule="nonzero"></path>
            <polygon id="Path" fill="#333030" fill-rule="nonzero" points="343 268.567707 214.861014 443 208 432.883476 336.521165 259"></polygon>
            <polygon id="Path" fill="#3D3A3A" fill-rule="nonzero" points="337 259 266.661355 353.564544 208.045817 432.353133 15.1988712 475.686857 7 477 143.933931 305.34301"></polygon>
            <polygon id="Path" fill="#333030" fill-rule="nonzero" points="13.1917808 486 215 442.17657 208.09589 432 7 476.886927"></polygon>
            <path d="M337,259 L266.685425,353.789762 L262.852076,359 C274.242599,284.301645 144,305.453382 144,305.453382 L337,259 Z" id="Path" fill="#E2D6D6" fill-rule="nonzero" style="mix-blend-mode: multiply;"></path>
            <path d="M348.766203,384.8 C355.019976,393.361667 347.89104,416.443333 330.533629,442 C330.533629,442 336.003401,406.928333 321.289714,385.295 C301.799092,356.511667 276,360.875 276,360.875 L305.172119,321 C305.172119,321 348.310389,384.176667 348.766203,384.8 Z" id="Path" fill="#EEE1E1" fill-rule="nonzero" style="mix-blend-mode: multiply;"></path>
            <path d="M185.446709,356.840943 C186.142725,358.060453 186.18452,359.544608 185.558228,360.80103 C183.815294,364.220294 181.039704,367.009615 177.621798,368.77672 C171.302392,372.477736 164.611257,373.069899 162.566743,370.146096 C161.098411,367.999506 162.566743,364.594572 166.005243,361.430203 C167.340176,360.200269 168.811852,359.12618 170.391654,358.228824 C176.71106,354.546313 183.420782,353.91714 185.446709,356.840943 Z" id="Path" fill="#FF6822" fill-rule="nonzero"></path>
            <path d="M174,364 L111.403805,446.853078 C111.403805,446.853078 98.8663959,458.70747 89,489" id="Path" stroke="#FF6822" stroke-width="2.24"></path>
            <path d="M185.446564,357.717777 C186.142762,358.855698 186.184568,360.240558 185.558112,361.412921 C179.391693,358.358489 171.941195,358.582132 166,362 C167.335283,360.852353 168.807345,359.850124 170.387561,359.012804 C176.708624,355.576666 183.420106,354.989587 185.446564,357.717777 Z" id="Path" fill="#BF4D17" fill-rule="nonzero"></path>
            <path d="M106.11114,524.203765 C111.127208,544.618141 111.30961,561.952133 106.548906,562.954624 C101.788202,563.957116 93.780734,548.227111 88.8558677,527.812735 C83.9310014,507.39836 83.6573977,490.046141 88.4181018,489.043649 C89.7313995,488.770242 91.3183009,489.790961 92.9781632,491.832399 C97.3558222,497.063582 102.499571,509.366889 106.11114,524.203765 Z" id="Path" fill="#FF6822" fill-rule="nonzero"></path>
            <path d="M106.196706,524.315736 C111.102406,544.695028 111.280795,561.999231 106.62484,563 C106.874585,517.874423 89,495.839313 89,495.839313 L93.3526933,492 C97.634031,497.222194 102.664603,509.504357 106.196706,524.315736 Z" id="Path" fill="#BF4D17" fill-rule="nonzero"></path>
            <path d="M97.7869913,488.631215 C98.5034359,491.711866 97.379745,494.932475 94.910693,496.874969 C93.7702819,497.80486 92.4285393,498.448355 90.9952161,498.752817 C86.3039792,499.875359 81.5679149,497.074137 80.2322936,492.386911 C79.5061331,489.402991 80.5125684,486.260314 82.8302404,484.274607 C84.0302132,483.252297 85.4667209,482.554535 87.0055121,482.246531 C91.7068813,481.124322 96.4510573,483.933775 97.7869913,488.631215 Z" id="Path" fill="#FF6822" fill-rule="nonzero"></path>
            <path d="M97.7883393,488.241156 C98.5002499,491.140599 97.3836703,494.171767 94.9302438,496 C94.7680832,495.682864 94.6384006,495.351399 94.543018,495.010261 C91.5558472,484.671028 84.7332966,484.123137 83,484.140811 C84.1713392,483.189223 85.5720891,482.533109 87.075091,482.232029 C91.7467075,481.175831 96.4608599,483.820028 97.7883393,488.241156 Z" id="Path" fill="#BF4D17" fill-rule="nonzero"></path>
            <polygon id="Rectangle" fill="#EBC827" fill-rule="nonzero" transform="translate(592.063902, 368.948232) rotate(-17.030000) translate(-592.063902, -368.948232) " points="577.829184 257.410091 606.331892 257.405838 606.298619 480.486373 577.795912 480.490626"></polygon>
            <polygon id="Rectangle" fill="#3D3A3A" fill-rule="nonzero" transform="translate(588.161070, 369.704512) rotate(-17.030000) translate(-588.161070, -369.704512) " points="586.598344 257.735198 589.757196 257.734727 589.723796 481.673826 586.564944 481.674297"></polygon>
            <polygon id="Rectangle" fill="#3D3A3A" fill-rule="nonzero" transform="translate(595.716378, 367.399028) rotate(-17.030000) translate(-595.716378, -367.399028) " points="594.153653 255.420581 597.312505 255.420109 597.279102 479.377476 594.12025 479.377947"></polygon>
            <polygon id="Rectangle" fill="#3D3A3A" fill-rule="nonzero" transform="translate(624.966113, 477.586266) rotate(-17.030000) translate(-624.966113, -477.586266) " points="610.377387 474.747875 639.555686 474.743521 639.554839 480.424658 610.376539 480.429012"></polygon>
            <path d="M612.681026,480.10368 L641.895844,480.099321 L641.895408,483.022092 C641.89482,486.966799 638.697938,490.165092 634.754972,490.16568 L619.764118,490.167917 C615.821152,490.168505 612.625224,486.971166 612.625812,483.02646 L612.626248,480.103688 L612.681026,480.10368 Z" id="Path" fill="#FF6822" fill-rule="nonzero" transform="translate(627.260828, 485.133619) rotate(-17.030000) translate(-627.260828, -485.133619) "></path>
            <polygon id="Path" fill="#FBE5C6" fill-rule="nonzero" points="573 258.514589 546 267 550.792364 247.596817 552.926323 239 559.093101 244.997347"></polygon>
            <polygon id="Path" fill="#3D3A3A" fill-rule="nonzero" points="559 244.580994 551 247 553.056645 239"></polygon>
            <path d="M145.786624,133.899545 L145.786624,133.899545 C147.189971,131.637477 146.504551,128.666458 144.252162,127.248267 L116.12035,109.724707 C113.848608,108.322567 110.871486,109.016071 109.452745,111.27789 L106.913575,115.370985 L104.849358,118.660078 L63.7294172,184.789133 C63.0520367,185.876707 62.8350615,187.189175 63.1263603,188.436983 C63.4176591,189.684792 64.1932943,190.765401 65.282147,191.440411 L162.976257,252.27037 C164.063514,252.947948 165.3756,253.164987 166.623044,252.873603 C167.870488,252.582219 168.950782,251.806357 169.625595,250.717187 L210.270583,185.410406 C210.947963,184.322832 211.164938,183.010363 210.87364,181.762555 C210.582341,180.514747 209.806706,179.434137 208.717853,178.759128 L147.339354,140.587369 C146.240332,139.912167 145.457486,138.824746 145.165716,137.568055 C144.873947,136.311364 145.09757,134.990132 145.786624,133.899545 L145.786624,133.899545 Z" id="Path" fill="#D1B223" fill-rule="nonzero"></path>
            <path d="M162.837369,252.272039 L65.2789767,191.581273 C64.1916365,190.907808 63.4170789,189.829671 63.1261848,188.584718 C62.8352907,187.339765 63.0519644,186.0303 63.7284038,184.945214 L111.504288,124.272678 C112.921058,122.016035 115.894044,121.324117 118.162631,122.723049 L215.721023,183.413816 C216.808363,184.087281 217.582921,185.165418 217.873815,186.410371 C218.164709,187.655324 217.948036,188.964789 217.271596,190.049874 L169.47747,250.72241 C168.803595,251.809089 167.724801,252.583175 166.47909,252.873892 C165.233378,253.164609 163.923116,252.948067 162.837369,252.272039 Z" id="Path" fill="#EBC827" fill-rule="nonzero"></path>
            <path d="M391.066663,364.937238 C386.732806,361.545697 379.685737,365.911404 379.066614,371.359517 C378.447492,376.807631 382.235064,381.858861 386.641759,385.196282 C399.734376,395.082263 417.743553,394.486939 434.168505,393.458653 L463.959216,391.654642 C471.625408,391.167559 480.347749,390.121232 484.772653,383.897394 C489.853098,376.68135 485.683127,365.857283 477.907679,361.617857 C470.13223,357.378431 460.335529,358.74948 452.323358,362.447702 C445.258079,365.694922 438.739085,370.746153 430.981845,371.467758 C417.197268,372.874886 398.204779,358.83968 385.458142,364.251714" id="Path" fill-opacity="0.206621503" fill="#1B1B1B" fill-rule="nonzero"></path>
            <path d="M504.74507,166.882824 C501.991223,167.516338 492.114093,167.661141 482.897887,168.385157 C481.061989,163.335146 478.308142,152.257703 474.324244,138.211794 C472.537889,133.90302 469.213971,130.387701 464.979525,128.328977 C462.18896,127.09815 458.003114,129.342599 459.214806,134.700317 C460.457766,140.472051 462.126756,146.146545 464.208448,151.67849 C469.073577,165.32619 472.598501,171.860433 474.819937,175.100405 C475.08745,175.670055 475.468279,176.180934 475.939834,176.602738 C476.167817,176.863338 476.449439,177.073122 476.765988,177.218151 C477.656737,177.763579 478.692292,178.034577 479.740143,177.996468 C488.22199,177.670661 487.652862,177.399155 498.539735,174.195385 C506.103634,171.987136 504.873583,173.616172 506.379019,171.679429 C507.60907,170.122795 506.984865,166.357912 504.74507,166.882824 Z" id="Path" fill="#68C604" fill-rule="nonzero"></path>
            <path d="M433.73437,152.5613 C435.458535,159.635123 436.591279,166.839589 437.120932,174.10047 C437.54262,179.45044 437.153832,184.833285 435.96767,190.067589 C435.326969,193.20986 434.4666,196.333862 433.533007,199.421325 C433.185198,200.590542 430.183057,209.999086 430,211.003881 L473.805628,214 C473.970379,205.413563 466.043995,177.845618 473.805628,160.873702 C479.297349,149.126725 473.164927,148.341157 469.723449,138.019164 C468.881385,135.47977 462.767269,130.400984 460.295994,129.615416 C458.98174,129.210594 457.634008,128.923247 456.268732,128.756773 C448.946437,127.660632 433.441478,123.477027 431.080038,133.890366 C430.439338,136.740333 431.555988,145.746957 432.562803,148.816152 C433.057058,150.058445 433.386561,151.300738 433.73437,152.5613 Z" id="Path" fill="#6DD400" fill-rule="nonzero"></path>
            <path d="M472.864916,300.198994 C472.960198,299.388622 473.003073,298.57301 472.993277,297.757183 C473.154968,296.304962 473.234555,294.84487 473.231661,293.38379 C473.231661,286.769033 474.001827,258.597093 474.460259,241.777753 L474.460259,241.777753 C475.05387,232.526482 475.157925,223.250607 474.771993,213.988485 L430.890885,211 C429.446964,216.207399 428.561842,221.552069 428.250317,226.944662 C427.058394,233.522974 420.511985,281.028955 418.733269,289.739296 C418.641583,290.194857 418.568234,290.613974 418.494885,291.051314 C408.977837,305.210173 401.826299,359.148686 400.047583,368.478591 C399.809198,369.717719 400.506015,369.626607 401.257843,369.535495 C403.458316,369.262158 402.669813,367.203018 405.750476,367.603913 C407.382494,367.80436 407.694228,370.063946 407.694228,370.063946 C411.966814,357.563331 426.251554,313.574287 432.761288,300.381219 C433.635187,298.668692 434.205866,296.819435 434.448317,294.914477 C439.674442,280.336501 447.999566,255.371716 450.346738,244.565791 C451.593673,256.920626 454.5093,284.837451 457.058182,297.88474 C451.318613,315.560537 457.296566,352.807267 456.379702,374 C458.891909,370.355506 461.092383,369.681274 462.100933,369.808832 C463.092629,369.98452 463.967948,370.557822 464.521454,371.394187 C466.135135,343.076467 471.251235,314.84986 472.864916,300.198994 Z" id="Path" fill="#323232" fill-rule="nonzero"></path>
            <path d="M464.996621,371.87725 C466.442396,374.00879 468.433782,375.722509 470.767506,376.843476 C473.903857,378.492973 480.732141,379.62811 476.825144,380.639092 C473.315887,381.267608 469.706615,381.073218 466.287005,380.071523 C463.955198,379.58498 461.588023,379.282508 459.207814,379.16696 C455.623413,378.900913 455.623413,378.688074 456.447825,374.803776 C457.397691,369.447346 463.562861,368.720148 464.996621,371.87725 Z" id="Path" fill="#21103F" fill-rule="nonzero"></path>
            <path d="M406.984168,369.977808 C407.414291,371.008294 407.611431,375.860947 410.765671,377.622142 C413.919911,379.383336 420.730202,380.563711 416.823245,381.63167 C413.312151,382.281215 409.704743,382.06956 406.285217,381.013378 C404.062912,380.488767 403.865772,377.884447 401.213343,377.67835 C397.628979,377.397308 397.628979,377.172475 398.435461,373.069266 C399.457005,367.429696 405.62211,366.64278 406.984168,369.977808 Z" id="Path" fill="#21103F" fill-rule="nonzero"></path>
            <path d="M441,147 L443,148.057751 L439,159 C439.62,155.462006 440.26,151.431611 441,147 Z" id="Path" fill-opacity="0.565941871" fill="#000000" fill-rule="nonzero"></path>
            <path d="M445.225702,110 C445.134182,110.472591 443.706475,120.469704 443.02923,128.176569 C442.699759,131.939119 445.207398,135.719845 447.934683,135.992494 L448.062811,135.992494 C450.753488,136.174259 454.139715,133.029713 454.158019,129.303516 C454.158019,122.560009 454.981696,115.707443 455,115.598383 L445.225702,110 Z" id="Path" fill="#D68952" fill-rule="nonzero"></path>
            <path d="M440.02942,101.64635 C440.287762,110.272697 440.416933,112.197735 443.978362,115.957006 C447.444448,119.441157 452.068817,121.581346 457.006181,121.986369 C461.453355,122.276941 465.088596,117.863883 466.3434,114.304379 C468.493095,107.245215 469.349128,99.865872 468.871461,92.5115016 C468.576213,87.7170685 463.003407,81.6150627 456.858557,81.124723 C450.713708,80.6343832 439.346659,80.5617403 440.02942,101.64635 Z" id="Path" fill="#EB975A" fill-rule="nonzero"></path>
            <path d="M469.021374,87.5743653 C467.524809,84.9631716 465.311519,82.8423653 462.64722,81.4665571 C458.1048,78.4059587 452.378964,77.727723 447.255086,79.6433307 C445.714005,79.0329392 444.142497,78.5034914 442.546904,78.0571238 L442.655554,77.8383366 C442.655554,77.8383366 433.438382,72.8244642 426.068266,76.1245039 C421.993878,77.9477302 419.187077,81.9405959 417.774622,87.9937073 L418.010032,87.9937073 C416.951713,91.2474209 417.002698,94.7637652 418.154899,97.9849877 C419.331944,101.175634 421.541168,103.928706 422.700105,107.101119 C425.433289,113.842583 422.502436,121.562779 416,124.74995 C418.317874,126.737267 421.939553,126.135602 424.492836,124.476466 C427.04612,122.81733 428.693983,119.170878 431.029966,117.183561 C434.92327,113.901754 434.651645,104.183957 439.740103,104.566835 L447.454278,99.2794784 C453.647349,97.9120586 461.343416,96.1252968 465.562671,92.6429345 C467.118833,93.4999437 468.34817,94.853128 469.057591,96.4899421 C469.800035,99.0606912 470.75978,91.220818 469.021374,87.5743653 Z M424.963654,78.9322724 C422.28639,80.5200327 420.161437,82.9014877 418.879234,85.7511389 C419.893627,81.7411883 422.59034,78.3738575 426.267459,76.5256137 C431.989711,73.9548645 438.834683,76.5256137 441.387967,77.7289431 C435.82869,76.2338975 429.907246,76.0698071 424.963654,78.9322724 Z" id="Shape" fill="#0F0F0F" fill-rule="nonzero"></path>
            <path d="M442.467799,102.575478 C443.484117,105.551028 443.003675,108.401853 441.377566,108.918566 C439.751457,109.435278 437.681864,107.4397 436.573154,104.446333 C435.464443,101.452966 436.037277,98.6199574 437.663386,98.0854275 C439.289495,97.5508977 441.433002,99.5821111 442.467799,102.575478 Z" id="Path" fill="#EB975A" fill-rule="nonzero"></path>
            <polygon id="Path" fill="#E0D4D4" fill-rule="nonzero" points="502 183.440865 476 189 476 154.559135 502 149"></polygon>
            <path d="M467.435513,171.75101 C469.439925,169.938966 471.835355,168.65642 474.418445,168.012253 C476.331577,167.793496 473.04099,170.557789 471.510485,171.989654 C469.979979,173.421518 465.618038,173.322083 467.435513,171.75101 Z" id="Path" fill="#EB975A" fill-rule="nonzero"></path>
            <path d="M470.604028,172.474197 C475.961923,171.679952 478.677568,170.419519 481.154677,171.300095 C483.631785,172.180672 480.053739,175.409452 478.237193,175.961971 C476.420647,176.51449 470.016862,178.828161 468.108571,177.688592 C466.20028,176.549022 466.585608,173.078515 470.604028,172.474197 Z" id="Path" fill="#EB975A" fill-rule="nonzero"></path>
            <path d="M466.76891,171.757465 C463.947062,172.290975 446.997533,171.757465 437.259392,171.904641 C437.868026,165.944047 439.60171,155.347435 441.409168,142.212051 C441.485742,137.477899 439.826407,132.878814 436.742976,129.279034 C434.658866,127.034613 429.882013,127.439344 428.830737,132.958413 C427.642403,138.831716 426.884218,144.783505 426.562192,150.766608 C425.344925,167.930911 426.359314,175.308066 427.207713,178.54592 C427.400648,179.26101 427.86323,179.874032 428.498754,180.256831 C429.516382,181.339844 430.939118,181.952808 432.427209,181.949346 C440.426157,182.246658 448.419853,181.233654 456.090153,178.950652 C464.076166,176.982184 466.566032,178.821873 468.244386,176.853406 C469.609201,175.271272 469.129671,171.31594 466.76891,171.757465 Z" id="Path" fill="#68C604" fill-rule="nonzero"></path>
            <path d="M502.002462,169.561486 C501.971567,167.511001 502.23165,165.467968 502.773073,163.508103 C503.158378,162.29369 504.448315,161.396892 505.285936,162.499206 C506.123557,163.601519 507.430245,167.300809 506.860663,169.150454 C506.341456,170.775943 505.279058,172.114755 503.895485,172.88711 C502.672558,173.410242 502.002462,172.083729 502.002462,169.561486 Z" id="Path" fill="#EB975A" fill-rule="nonzero"></path>
            <polygon id="Path" fill="#6DD400" fill-rule="nonzero" points="584.894035 155.532721 572 143.996556 647 123 620.884578 187 599.8613 167.969001 591.095538 176.106774"></polygon>
            <polygon id="Path" fill="#A9B3D1" fill-rule="nonzero" style="mix-blend-mode: multiply;" points="647 123 599.941728 167.878589 591.190922 176 585 155.467312"></polygon>
            <polygon id="Path" fill="#6DD400" fill-rule="nonzero" points="192.878049 18.2230377 201 3 123 9.80216975 169.939024 60 183.109756 34.992023 194.195122 39.4479898"></polygon>
            <polygon id="Path" fill="#A9B3D1" fill-rule="nonzero" style="mix-blend-mode: multiply;" points="124 9 183.945015 34.4907975 195 39 193.686536 17.5214724"></polygon>
            <line x1="582" y1="184" x2="579" y2="186" id="Path" stroke="#A5B9F6" stroke-width="0.75" stroke-linecap="round" stroke-linejoin="round"></line>
            <path d="M561,197 C553.565328,201.832536 546.690226,207.471268 540.50041,213.813087 C528.796809,226.103781 520.549427,242.770984 522.213533,259.638777 C523.237598,269.832395 527.699596,279.31483 531.356972,288.8155 C535.014347,298.316171 538.196264,308.673907 536.294429,318.739877 C535.226579,324.210145 532.448135,329.202386 528.357924,333" id="Path" stroke="#A5B9F6" stroke-width="0.75" stroke-linecap="round" stroke-linejoin="round" stroke-dasharray="3.79"></path>
            <path d="M520,337.809152 C518.6843,338.079884 517.343143,338.207294 516,338.189152" id="Path" stroke="#A5B9F6" stroke-width="0.75" stroke-linecap="round" stroke-linejoin="round"></path>
            <line x1="207" y1="49" x2="209" y2="52" id="Path" stroke="#A5B9F6" stroke-width="0.75" stroke-linecap="round" stroke-linejoin="round"></line>
            <path d="M220.996982,70 C223.025468,74.0454961 224.501714,78.3441689 225.386295,82.7812194 C227.800417,95.4528856 223.081906,110.388653 211.413648,115.866319 C195.795008,123.169873 178.62182,111.119009 164.228531,101.624389 C144.9016,88.9168371 123.345848,79.9654542 100.693221,75.2403 C84.4893401,71.8806651 67.133264,70.8216498 51.8072453,77.0661885 C34.1402595,84.2601891 21.3563847,100.437561 14.0408626,118.020867 C6.72534053,135.604173 4.18319661,154.776003 1.71420792,173.673948 C0.452280361,183.351157 -0.827936,193.192696 0.690034829,202.888164 C2.20800566,212.583632 6.90822858,222.133029 15.1930573,227.336811 C27.3551128,234.950766 43.0469076,231.298989 57.3853308,232.10238 C90.7212813,233.929788 117.234891,260.700102 118.689406,294" id="Path" stroke="#A5B9F6" stroke-width="0.75" stroke-linecap="round" stroke-linejoin="round" stroke-dasharray="3.92"></path>
            <path d="M118.3,304 C118.14,305.333333 117.94,306.666667 117.7,308" id="Path" stroke="#A5B9F6" stroke-width="0.75" stroke-linecap="round" stroke-linejoin="round"></path>
            <path d="M236.078732,590 C235.86878,588.674932 235.86878,587.325068 236.078732,586" id="Path" stroke="#A5B9F6" stroke-width="0.75" stroke-linecap="round" stroke-linejoin="round"></path>
            <path d="M252,572.756942 C259.728131,572.64734 267.036056,577.122755 272.352571,582.822058 C277.943134,588.831901 281.852874,596.211769 286.456866,602.915758 C304.000585,628.832081 331.614483,646.200097 362.575129,650.791041 C393.535774,655.381984 425.002567,646.774642 449.313975,627.064731 C469.081912,611.062839 482.766001,588.850168 500.633878,570.765839 C514.99395,556.243574 534.195523,544.041219 554,543" id="Path" stroke="#A5B9F6" stroke-width="0.75" stroke-linecap="round" stroke-linejoin="round" stroke-dasharray="4.02"></path>
            <path d="M565,544.59 C566.3,544.81 567.62,545.09 569,545.41" id="Path" stroke="#A5B9F6" stroke-width="0.75" stroke-linecap="round" stroke-linejoin="round"></path>
            <path d="M424,0.352087573 C433.613842,-1.8113302 442.589194,6.3514814 447.113355,15.0778724 C451.637516,23.8042634 453.863111,33.894153 460.302743,41.3297654 C471.248294,54.0557523 490.439493,54.9465714 507.277399,54.5284318 C524.115304,54.1102922 543.051107,54.1648322 555,66" id="Path" stroke="#A5B9F6" stroke-width="0.75" stroke-linecap="round" stroke-linejoin="round" stroke-dasharray="4"></path>
            <polygon id="Rectangle" fill="#3D3A3A" fill-rule="nonzero" transform="translate(292.666541, 138.083296) rotate(22.960000) translate(-292.666541, -138.083296) " points="290.790368 114.391059 294.533649 114.391776 294.542714 161.775533 290.799433 161.774817"></polygon>
            <path d="M265.768931,203.233172 L265.768931,203.233172 C263.456614,202.243613 261.628284,200.361978 260.687833,198.003936 C259.747383,195.645894 259.772208,193.0055 260.756823,190.666039 L277.827046,149.855057 C278.804128,147.512148 280.6601,145.658714 282.986363,144.702793 C285.312626,143.746872 287.918465,143.766834 290.230197,144.758284 L290.230197,144.758284 C292.543803,145.751636 294.372385,147.636697 295.312643,149.997709 C296.252901,152.358721 296.227595,155.001732 295.242305,157.343817 L278.172082,198.154799 C277.195436,200.497687 275.338354,202.350189 273.01108,203.303073 C270.683807,204.255957 268.077866,204.230804 265.768931,203.233172 Z" id="Path" fill="#6DD400" fill-rule="nonzero"></path>
            <ellipse id="Oval" stroke="#6DD400" stroke-width="7" transform="translate(320.213787, 73.495012) rotate(-73.440000) translate(-320.213787, -73.495012) " cx="320.213787" cy="73.4950123" rx="48.2441137" ry="48.222593"></ellipse>
            <ellipse id="Oval" fill="#D0EAFF" fill-rule="nonzero" transform="translate(320.506883, 72.666478) rotate(-35.850000) translate(-320.506883, -72.666478) " cx="320.506883" cy="72.666478" rx="41.1802796" ry="41.1871686"></ellipse>
            <ellipse id="Oval" fill="#FFFFFF" fill-rule="nonzero" opacity="0.35" cx="315" cy="54.5" rx="16" ry="13.5"></ellipse>
        </g>
    </g>
</svg>