<?xml version="1.0" encoding="UTF-8"?>
<svg width="80px" height="62px" viewBox="0 0 80 62" version="1.1" xmlns="http://www.w3.org/2000/svg" xmlns:xlink="http://www.w3.org/1999/xlink">
    <title>open-book@2x</title>
    <g id="Symbols" stroke="none" stroke-width="1" fill="none" fill-rule="evenodd">
        <g id="Assessment" fill="#C3C3C3" fill-rule="nonzero">
            <g id="open-book" transform="translate(0.000000, 0.000000)">
                <path d="M12.2375758,0.0131986532 C12.2354209,0.0131986532 12.2329966,0.0131986532 12.2308418,0.0131986532 C11.4742088,0.0131986532 10.7625589,0.308148148 10.2251852,0.844175084 C9.68188552,1.38612795 9.38262626,2.10774411 9.38262626,2.8759596 L9.38262626,45.8025589 C9.38262626,47.3767003 10.6682828,48.6604714 12.2488889,48.6645118 C18.9123232,48.680404 30.076229,50.0692256 37.7777778,58.1287542 L37.7777778,13.2048485 C37.7777778,12.6712458 37.6414815,12.1699663 37.3842424,11.7551515 C31.063165,1.57548822 18.9160943,0.0288215488 12.2375758,0.0131986532 Z" id="Path"></path>
                <path d="M70.6173737,45.8025589 L70.6173737,2.87569024 C70.6173737,2.10747475 70.3181145,1.38585859 69.7748148,0.843905724 C69.2374411,0.307878788 68.5252525,0.0129292929 67.7694276,0.0129292929 C67.7670034,0.0129292929 67.7645791,0.0129292929 67.7624242,0.0129292929 C61.0841751,0.0288215488 48.9371044,1.57548822 42.6157576,11.7551515 C42.3585185,12.1699663 42.2224916,12.6712458 42.2224916,13.2048485 L42.2224916,58.1284848 C49.9240404,50.0689562 61.0879461,48.6801347 67.7513805,48.6642424 C69.3317172,48.660202 70.6173737,47.376431 70.6173737,45.8025589 Z" id="Path"></path>
                <path d="M77.1375084,9.91272727 L75.0618182,9.91272727 L75.0618182,45.8025589 C75.0618182,49.8216835 71.7872054,53.0989899 67.7618855,53.1089562 C62.109899,53.1224242 52.7905724,54.2276094 46.1904377,60.4743434 C57.6053872,57.6794613 69.6387879,59.4962963 76.4967003,61.0591246 C77.3529966,61.2541414 78.2378451,61.0526599 78.9239057,60.5058586 C79.6075421,59.960404 79.9997307,59.1450505 79.9997307,58.269899 L79.9997307,12.7749495 C79.9997307,11.1967677 78.7156902,9.91272727 77.1375084,9.91272727 Z" id="Path"></path>
                <path d="M4.93791246,45.8025589 L4.93791246,9.91272727 L2.86222222,9.91272727 C1.28430976,9.91272727 0,11.1967677 0,12.7749495 L0,58.2690909 C0,59.1445118 0.392188552,59.959596 1.07582492,60.5050505 C1.7613468,61.0515825 2.64538721,61.2538721 3.5030303,61.0583165 C10.3609428,59.4952189 22.3946128,57.6786532 33.8090236,60.4735354 C27.2091582,54.2270707 17.8898316,53.1221549 12.2378451,53.1086869 C8.21279461,53.0989899 4.93791246,49.8216835 4.93791246,45.8025589 Z" id="Path"></path>
            </g>
        </g>
    </g>
</svg>