<?xml version="1.0" encoding="UTF-8"?>
<svg width="618px" height="572px" viewBox="0 0 618 572" version="1.1" xmlns="http://www.w3.org/2000/svg" xmlns:xlink="http://www.w3.org/1999/xlink">
    <title>4117341-01@2x</title>
    <g id="Symbols" stroke="none" stroke-width="1" fill="none" fill-rule="evenodd">
        <g id="4117341-01">
            <rect id="Rectangle" fill="#F2F5F4" fill-rule="nonzero" style="mix-blend-mode: multiply;" x="7.93832636" y="163.873431" width="427.014728" height="338.077029" rx="13.82"></rect>
            <rect id="Rectangle" stroke="#F2F5F4" fill="#FFFFFF" fill-rule="nonzero" x="27.706569" y="142.359791" width="427.014728" height="338.077029" rx="13.82"></rect>
            <path d="M45.5742678,149.910251 L436.840669,149.910251 C446.708727,149.910251 454.708368,157.909892 454.708368,167.77795 L454.708368,181.650628 L27.706569,181.650628 L27.706569,167.77795 C27.706569,157.909892 35.7062103,149.910251 45.5742678,149.910251 Z" id="Path" fill="#F2F5F4" fill-rule="nonzero" style="mix-blend-mode: multiply;"></path>
            <path d="M45.5742678,142.359791 L436.840669,142.359791 C446.708727,142.359791 454.708368,150.359432 454.708368,160.22749 L454.708368,174.100167 L27.706569,174.100167 L27.706569,160.22749 C27.706569,150.359432 35.7062103,142.359791 45.5742678,142.359791 L45.5742678,142.359791 Z" id="Path" fill="#FFFFFF" fill-rule="nonzero"></path>
            <circle id="Oval" fill="#D57548" fill-rule="nonzero" cx="49.6597908" cy="158.236444" r="5.40426778"></circle>
            <path d="M76.5647854,158.236444 C76.5647854,160.423441 75.2466528,162.394846 73.2256286,163.230561 C71.2046044,164.066276 68.8791215,163.601535 67.3345339,162.053243 C65.7899463,160.504952 65.3307768,158.178362 66.17133,156.159346 C67.0118831,154.140329 68.9864397,152.826944 71.173431,152.83216 C72.6055458,152.83216 73.978817,153.40196 74.9902616,154.415831 C76.0017063,155.429701 76.5682042,156.804333 76.5647854,158.236444 Z" id="Path" fill="#FFB72F" fill-rule="nonzero"></path>
            <path d="M98.07841,158.236444 C98.07841,160.422266 96.7617025,162.392858 94.742266,163.229336 C92.7228295,164.065814 90.3983576,163.603448 88.8527479,162.057838 C87.3071381,160.512228 86.8447719,158.187756 87.6812499,156.16832 C88.5177278,154.148883 90.48832,152.832176 92.6741423,152.832176 C95.6588369,152.832176 98.07841,155.251749 98.07841,158.236444 Z" id="Path" fill="#AABC95" fill-rule="nonzero"></path>
            <line x1="324.643933" y1="201.41887" x2="406.96205" y2="201.41887" id="Path" stroke="#F2F5F4" stroke-width="5" stroke-linecap="round" stroke-linejoin="round"></line>
            <line x1="324.643933" y1="217.386025" x2="406.96205" y2="217.386025" id="Path" stroke="#F2F5F4" stroke-width="5" stroke-linecap="round" stroke-linejoin="round"></line>
            <line x1="324.643933" y1="233.35318" x2="406.96205" y2="233.35318" id="Path" stroke="#F2F5F4" stroke-width="5" stroke-linecap="round" stroke-linejoin="round"></line>
            <line x1="324.643933" y1="249.320335" x2="406.96205" y2="249.320335" id="Path" stroke="#F2F5F4" stroke-width="5" stroke-linecap="round" stroke-linejoin="round"></line>
            <line x1="324.643933" y1="265.300418" x2="406.96205" y2="265.300418" id="Path" stroke="#F2F5F4" stroke-width="5" stroke-linecap="round" stroke-linejoin="round"></line>
            <line x1="59.6020921" y1="297.234728" x2="406.96205" y2="297.234728" id="Path" stroke="#F2F5F4" stroke-width="5" stroke-linecap="round" stroke-linejoin="round"></line>
            <line x1="59.6020921" y1="313.201883" x2="406.96205" y2="313.201883" id="Path" stroke="#F2F5F4" stroke-width="5" stroke-linecap="round" stroke-linejoin="round"></line>
            <line x1="59.6020921" y1="329.169038" x2="406.96205" y2="329.169038" id="Path" stroke="#F2F5F4" stroke-width="5" stroke-linecap="round" stroke-linejoin="round"></line>
            <line x1="59.6020921" y1="345.149121" x2="406.96205" y2="345.149121" id="Path" stroke="#F2F5F4" stroke-width="5" stroke-linecap="round" stroke-linejoin="round"></line>
            <line x1="59.6020921" y1="361.116276" x2="406.96205" y2="361.116276" id="Path" stroke="#F2F5F4" stroke-width="5" stroke-linecap="round" stroke-linejoin="round"></line>
            <line x1="206.758494" y1="386.883515" x2="330.940293" y2="386.883515" id="Path" stroke="#F2F5F4" stroke-width="5" stroke-linecap="round" stroke-linejoin="round"></line>
            <line x1="206.758494" y1="402.850669" x2="330.940293" y2="402.850669" id="Path" stroke="#F2F5F4" stroke-width="5" stroke-linecap="round" stroke-linejoin="round"></line>
            <line x1="206.758494" y1="418.817824" x2="330.940293" y2="418.817824" id="Path" stroke="#F2F5F4" stroke-width="5" stroke-linecap="round" stroke-linejoin="round"></line>
            <line x1="206.758494" y1="434.797908" x2="293.562929" y2="434.797908" id="Path" stroke="#F2F5F4" stroke-width="5" stroke-linecap="round" stroke-linejoin="round"></line>
            <line x1="206.758494" y1="450.765063" x2="293.562929" y2="450.765063" id="Path" stroke="#F2F5F4" stroke-width="5" stroke-linecap="round" stroke-linejoin="round"></line>
            <circle id="Oval" stroke="#F2F5F4" stroke-width="5" stroke-linecap="round" stroke-linejoin="round" transform="translate(267.984648, 235.569819) rotate(-76.910000) translate(-267.984648, -235.569819) " cx="267.984648" cy="235.569819" r="43.8030126"></circle>
            <polyline id="Path" stroke="#F2F5F4" stroke-width="5" stroke-linecap="round" stroke-linejoin="round" points="267.976695 191.761004 267.976695 235.564017 300.143724 265.300418"></polyline>
            <circle id="Oval" stroke="#F2F5F4" stroke-width="5" stroke-linecap="round" stroke-linejoin="round" transform="translate(101.840530, 420.332991) rotate(-76.910000) translate(-101.840530, -420.332991) " cx="101.84053" cy="420.332991" r="43.8030126"></circle>
            <polyline id="Path" stroke="#F2F5F4" stroke-width="5" stroke-linecap="round" stroke-linejoin="round" points="101.840711 376.52749 101.840711 420.330502 134.007741 450.066904"></polyline>
            <rect id="Rectangle" stroke="#F2F5F4" stroke-width="5" stroke-linecap="round" stroke-linejoin="round" x="343.533013" y="382.24205" width="78.9566109" height="70.074477"></rect>
            <polygon id="Path" stroke="#F2F5F4" stroke-width="5" stroke-linecap="round" stroke-linejoin="round" points="58.0506276 200.526778 130.01272 270.601255 58.0506276 270.601255"></polygon>
            <rect id="Rectangle" fill="#F2F5F4" fill-rule="nonzero" style="mix-blend-mode: multiply;" x="385.21569" y="134.1241" width="204.483013" height="135.740209" rx="13.82"></rect>
            <rect id="Rectangle" stroke="#F1F1F3" fill="#FFFFFF" fill-rule="nonzero" x="401.105272" y="120.341925" width="204.483013" height="135.740209" rx="13.82"></rect>
            <path d="M418.972971,127.892385 L587.720586,127.892385 C597.588643,127.892385 605.588285,135.892026 605.588285,145.760084 L605.588285,159.632762 L401.105272,159.632762 L401.105272,145.760084 C401.105272,135.892026 409.104913,127.892385 418.972971,127.892385 L418.972971,127.892385 Z" id="Path" fill="#F2F5F4" fill-rule="nonzero" style="mix-blend-mode: multiply;"></path>
            <path d="M418.972971,120.341925 L587.720586,120.341925 C597.588643,120.341925 605.588285,128.341566 605.588285,138.209623 L605.588285,152.082301 L401.105272,152.082301 L401.105272,138.222552 C401.105272,128.354495 409.104913,120.354854 418.972971,120.354854 L418.972971,120.341925 Z" id="Path" stroke="#F1F1F3" fill="#FFFFFF" fill-rule="nonzero"></path>
            <line x1="490.146402" y1="136.218577" x2="517.581464" y2="136.218577" id="Path" stroke="#E3E9E7" stroke-width="5" stroke-linecap="round" stroke-linejoin="round"></line>
            <line x1="530.458619" y1="136.218577" x2="586.194979" y2="136.218577" id="Path" stroke="#E3E9E7" stroke-width="5" stroke-linecap="round" stroke-linejoin="round"></line>
            <path d="M428.449848,136.218577 C428.455061,138.406744 427.140274,140.382117 425.119668,141.221909 C423.099062,142.061701 420.771458,141.600157 419.224186,140.052885 C417.676914,138.505613 417.21537,136.178009 418.055162,134.157403 C418.894955,132.136797 420.870327,130.82201 423.058494,130.827223 C426.033099,130.834346 428.442725,133.243972 428.449848,136.218577 L428.449848,136.218577 Z" id="Path" fill="#D57548" fill-rule="nonzero"></path>
            <path d="M449.924702,136.218577 C449.929915,138.406744 448.615127,140.382117 446.594521,141.221909 C444.573915,142.061701 442.246311,141.600157 440.699039,140.052885 C439.151768,138.505613 438.690224,136.178009 439.530016,134.157403 C440.369808,132.136797 442.345181,130.82201 444.533347,130.827223 C447.507952,130.834346 449.917578,133.243972 449.924702,136.218577 Z" id="Path" fill="#FFB72F" fill-rule="nonzero"></path>
            <path d="M471.477129,136.218577 C471.482345,138.405569 470.16896,140.380125 468.149943,141.220678 C466.130926,142.061232 463.804337,141.602062 462.256046,140.057474 C460.707754,138.512887 460.243013,136.187404 461.078728,134.16638 C461.914443,132.145356 463.885848,130.827238 466.072845,130.827238 C469.052498,130.827238 471.469985,133.238933 471.477129,136.218577 Z" id="Path" fill="#AABC95" fill-rule="nonzero"></path>
            <path d="M430.608954,222.997155 C469.783431,180.125021 508.401967,222.997155 508.401967,222.997155 C548.882259,178.521841 586.194979,222.997155 586.194979,222.997155" id="Path" stroke="#EAA105"></path>
            <line x1="430.608954" y1="222.997155" x2="586.194979" y2="222.997155" id="Path" stroke="#450000"></line>
            <line x1="586.194979" y1="214.748536" x2="586.194979" y2="227.767908" id="Path" stroke="#450000"></line>
            <line x1="430.608954" y1="214.748536" x2="430.608954" y2="227.767908" id="Path" stroke="#450000"></line>
            <rect id="Rectangle" stroke="#450000" x="582.393891" y="201.88431" width="7.60217573" height="7.60217573" rx="1.64"></rect>
            <rect id="Rectangle" stroke="#450000" x="426.807866" y="201.88431" width="7.60217573" height="7.60217573" rx="1.64"></rect>
            <rect id="Rectangle" stroke="#450000" x="504.600879" y="228.582427" width="7.60217573" height="7.60217573" rx="1.64"></rect>
            <circle id="Oval" stroke="#C43F00" cx="508.401967" cy="232.370586" r="11.3774059"></circle>
            <path d="M433.543808,189.873389 L431.966485,187.468619 L430.440879,189.886318 C430.162177,190.332967 429.674444,190.606097 429.147992,190.610335 L428.462762,190.610335 C427.879849,190.625401 427.338513,190.309638 427.064679,189.794829 C426.790844,189.28002 426.831576,188.654647 427.169874,188.179707 L429.665146,184.688912 L427.273305,181.288619 C426.942594,180.813913 426.906146,180.193811 427.17897,179.683631 C427.451793,179.173452 427.98776,178.859453 428.566192,178.870921 L429.238494,178.870921 C429.754437,178.866093 430.239023,179.118077 430.531381,179.543222 L432.069916,181.818703 L433.556736,179.569079 C433.838139,179.128623 434.326986,178.864646 434.849623,178.870921 L435.289205,178.870921 C435.876372,178.845588 436.425882,179.159788 436.70188,179.678665 C436.977877,180.197541 436.931282,180.828818 436.582092,181.301548 L434.254895,184.533766 L436.840669,188.179707 C437.178968,188.654647 437.2197,189.28002 436.945865,189.794829 C436.672031,190.309638 436.130694,190.625401 435.547782,190.610335 L434.823766,190.610335 C434.298716,190.601344 433.815195,190.322953 433.543808,189.873389 Z" id="Path" fill="#AABC95" fill-rule="nonzero"></path>
            <path d="M461.935607,186.31795 L461.935607,189.045941 C461.935637,189.890628 461.254656,190.577379 460.41,190.584477 L459.517908,190.584477 C458.671126,190.577449 457.9864,189.892723 457.979372,189.045941 L457.979372,186.266234 L454.941088,181.172259 C454.659712,180.701155 454.650548,180.115847 454.917038,179.636165 C455.183528,179.156483 455.685329,178.855044 456.233975,178.845063 L456.828703,178.845063 C457.360977,178.852342 457.850967,179.136536 458.12159,179.594937 L460.073849,182.904728 L462.051967,179.594937 C462.32259,179.136536 462.81258,178.852342 463.344854,178.845063 L463.603431,178.845063 C464.148027,178.857643 464.645372,179.157264 464.911049,179.632826 C465.176725,180.108387 465.171123,180.688984 464.896318,181.159331 L461.935607,186.31795 Z" id="Path" fill="#AABC95" fill-rule="nonzero"></path>
            <path d="M489.241381,189.045941 L489.241381,189.045941 C489.241381,189.895651 488.552555,190.584477 487.702845,190.584477 L480.32046,190.584477 C479.295173,190.57743 478.46575,189.748007 478.458703,188.72272 L478.458703,188.72272 C478.46272,188.353217 478.595291,187.996647 478.83364,187.714268 L483.824184,181.909205 L480.165314,181.909205 C479.758462,181.912653 479.367089,181.753443 479.078179,181.466962 C478.78927,181.180481 478.626764,180.790464 478.626778,180.383598 L478.626778,180.383598 C478.626778,179.533889 479.315604,178.845063 480.165314,178.845063 L487.108117,178.845063 C488.136337,178.845063 488.969874,179.6786 488.969874,180.70682 L488.969874,180.70682 C488.974443,181.073988 488.840582,181.429412 488.594937,181.702343 L483.604393,187.468619 L487.702845,187.468619 C488.1177,187.468487 488.515027,187.635896 488.8047,187.932871 C489.094373,188.229847 489.251839,188.631218 489.241381,189.045941 Z" id="Path" fill="#AABC95" fill-rule="nonzero"></path>
            <rect id="Rectangle" fill="#AABC95" fill-rule="nonzero" x="442.78795" y="180.59046" width="9.01142259" height="3.30979079" rx="0.92"></rect>
            <rect id="Rectangle" fill="#AABC95" fill-rule="nonzero" x="442.78795" y="185.930084" width="9.01142259" height="3.30979079" rx="0.92"></rect>
            <path d="M468.629121,183.30576 L475.800543,183.30576 C476.308645,183.30576 476.720543,183.717658 476.720543,184.22576 L476.720543,185.695551 C476.720543,186.203653 476.308645,186.615551 475.800543,186.615551 L468.629121,186.615551 C468.121019,186.615551 467.709121,186.203653 467.709121,185.695551 L467.709121,184.22576 C467.709121,183.717658 468.121019,183.30576 468.629121,183.30576 Z" id="Rectangle" fill="#AABC95" fill-rule="nonzero" transform="translate(472.214832, 184.960656) rotate(45.000000) translate(-472.214832, -184.960656) "></path>
            <path d="M468.62811,183.293367 L475.799532,183.293367 C476.307634,183.293367 476.719532,183.705265 476.719532,184.213367 L476.719532,185.683158 C476.719532,186.19126 476.307634,186.603158 475.799532,186.603158 L468.62811,186.603158 C468.120008,186.603158 467.70811,186.19126 467.70811,185.683158 L467.70811,184.213367 C467.70811,183.705265 468.120008,183.293367 468.62811,183.293367 Z" id="Rectangle" fill="#AABC95" fill-rule="nonzero" transform="translate(472.213821, 184.948263) rotate(135.000000) translate(-472.213821, -184.948263) "></path>
            <line x1="503.346778" y1="179.22" x2="586.194979" y2="179.22" id="Path" stroke="#E3E9E7" stroke-width="5" stroke-linecap="round" stroke-linejoin="round"></line>
            <line x1="503.346778" y1="191.929079" x2="544.770879" y2="191.929079" id="Path" stroke="#E3E9E7" stroke-width="5" stroke-linecap="round" stroke-linejoin="round"></line>
            <path d="M272.023431,438.068912 L125.254895,438.068912 C92.6224268,434.759121 99.0351464,398.84272 135.778996,381.763682 C136.658159,381.3241 137.56318,380.923305 138.494059,380.535439 L257.905105,375.932762 C259.973724,377.070502 262.132845,378.35046 264.36954,379.811423 L264.70569,380.044142 C287.020921,394.71841 311.908996,423.394644 272.023431,438.068912 Z" id="Path" fill="#C43F00" fill-rule="nonzero"></path>
            <path d="M116.670126,480.43682 L287.150209,480.43682 C276.173598,422.851632 254.698745,392.19728 254.698745,392.19728 L150.582552,385.991423 C125.810837,410.349414 118.661172,453.531841 116.670126,480.43682 Z" id="Path" fill="#000000" fill-rule="nonzero"></path>
            <path d="M337.327155,353.501172 C332.646904,390.736318 263.787741,394.343473 275.540084,342.020335 L337.327155,353.501172 Z" id="Path" fill="#B22900" fill-rule="nonzero"></path>
            <path d="M331.8841,337.870167 L288.753389,377.678159 C274.686778,363.120251 222.492929,286.33569 212.705774,250.445146 C208.837555,236.156731 215.792374,221.154393 229.196361,214.873066 C242.600348,208.59174 258.579515,212.846839 267.084603,224.962343 L331.8841,337.870167 Z" id="Path" fill="#B22900" fill-rule="nonzero"></path>
            <path d="M371.093592,241.972348 L386.322337,241.972348 C388.454156,241.972348 390.182337,243.700529 390.182337,245.832348 L390.182337,259.018332 C390.182337,261.150151 388.454156,262.878332 386.322337,262.878332 L371.093592,262.878332 C368.961773,262.878332 367.233592,261.150151 367.233592,259.018332 L367.233592,245.832348 C367.233592,243.700529 368.961773,241.972348 371.093592,241.972348 Z" id="Rectangle" fill="#450000" fill-rule="nonzero" transform="translate(378.707965, 252.425340) rotate(-35.380000) translate(-378.707965, -252.425340) "></path>
            <path d="M412.844686,248.428243 C393.981464,260.335732 377.393724,328.587238 338.322678,357.625481 C336.200098,359.177804 333.905049,360.479344 331.483305,361.504142 C311.28841,369.959623 287.163138,355.039707 287.163138,331.483305 L316.110879,305.121339 L381.298243,245.570962 L412.844686,248.428243 Z" id="Path" fill="#EFBFA9" fill-rule="nonzero"></path>
            <path d="M331.483305,361.542929 C311.28841,369.99841 287.163138,355.078494 287.163138,331.522092 L316.110879,305.121339 C297.299372,340.417155 307.526109,366.481757 331.457448,361.568787 L331.483305,361.542929 Z" id="Path" fill="#ECB298" fill-rule="nonzero"></path>
            <path d="M381.298243,245.519247 L374.12272,263.115439 C405.397657,278.630084 427.725816,264.046318 441.546778,261.977699 L423.252427,224.962343 L381.298243,245.519247 Z" id="Path" fill="#EFBFA9" fill-rule="nonzero"></path>
            <path d="M434.526402,241.601799 C433.814014,242.052665 433.195093,242.63647 432.703431,243.321339 C432.574142,243.515272 432.457782,243.696276 432.341423,243.903138 C430.689363,246.770271 431.413256,250.417366 434.035105,252.436192 L438.573138,255.952845 L445.037573,260.917531 C445.917645,261.602199 446.959851,262.047586 448.062929,262.210418 C449.563181,262.425086 451.090681,262.094816 452.368243,261.27954 C453.077172,260.82355 453.691699,260.23536 454.178285,259.547071 C455.986668,256.986138 455.668955,253.4913 453.42841,251.298452 L453.42841,251.298452 C453.30518,251.179596 453.175708,251.067387 453.040544,250.962301 L442.348368,242.118954 L442.012218,241.886234 C439.818322,240.245539 436.838473,240.132315 434.526402,241.601799 L434.526402,241.601799 Z" id="Path" fill="#EFBFA9" fill-rule="nonzero"></path>
            <path d="M477.411464,224.962343 C477.666633,223.444955 477.270778,221.890273 476.32101,220.679688 C475.371241,219.469102 473.955438,218.714624 472.420921,218.601339 L444.753138,216.623222 L417.60251,224.483975 L422.205188,247.859372 L452.187238,230.198536 L472.304561,229.565021 C474.880958,229.431158 477.011452,227.511016 477.411464,224.962343 Z" id="Path" fill="#EFBFA9" fill-rule="nonzero"></path>
            <polygon id="Path" fill="#E89076" fill-rule="nonzero" points="417.486151 224.483975 423.058494 222.867866 444.145481 226.578452 447.700921 232.771381 420.783013 247.924017"></polygon>
            <path d="M448.73523,270.846904 C447.340691,272.74763 445.022032,273.73851 442.684519,273.432678 L428.928201,271.583849 C425.384014,271.094178 422.860398,267.891127 423.21364,264.330753 C423.332054,263.344967 423.662881,262.396596 424.183305,261.551046 C424.264445,261.400174 424.359681,261.257319 424.467741,261.124393 C424.550288,261.006145 424.641012,260.89382 424.739247,260.788243 C426.244096,258.982535 428.610505,258.135974 430.919247,258.577406 L444.597992,260.865816 C446.487002,261.192704 448.129271,262.350836 449.071381,264.02046 C449.200669,264.25318 449.317029,264.498828 449.433389,264.757406 C449.841692,265.655839 450.010927,266.64453 449.924686,267.627615 C449.825502,268.788281 449.414533,269.900579 448.73523,270.846904 L448.73523,270.846904 Z" id="Path" fill="#EFBFA9" fill-rule="nonzero"></path>
            <path d="M449.071381,263.955816 C448.075179,264.748107 446.863027,265.221252 445.593515,265.313347 L431.824268,266.334728 C428.372259,266.619163 424.196234,264.382469 424.235021,259.728075 C425.683054,257.95682 428.566192,258.060251 430.970962,258.435188 L444.649707,260.723598 C446.534215,261.08229 448.157693,262.269043 449.071381,263.955816 L449.071381,263.955816 Z" id="Path" fill="#E89076" fill-rule="nonzero"></path>
            <path d="M444.50749,257.375021 C443.534221,258.963749 441.913351,260.045904 440.072887,260.335732 L430.608954,261.628619 C428.137416,262.029183 425.652689,260.992527 424.19869,258.954185 C422.744691,256.915843 422.57335,254.228992 423.756653,252.022469 C423.80826,251.891166 423.873247,251.765525 423.950586,251.647531 C424.997765,249.926833 426.774021,248.779171 428.773054,248.531674 L438.301632,247.639582 C440.743304,247.345874 443.137298,248.477277 444.460474,250.550254 C445.783651,252.62323 445.801926,255.271049 444.50749,257.362092 L444.50749,257.375021 Z" id="Path" fill="#E89076" fill-rule="nonzero"></path>
            <path d="M426.432929,253.186067 C426.343642,253.306035 426.261613,253.431238 426.18728,253.561004 C426.083849,253.703222 426.019205,253.858368 425.928703,254.000586 L425.928703,254.000586 C425.300469,255.162563 425.043281,256.48911 425.191757,257.801674 C425.572612,261.353199 428.717014,263.952495 432.276778,263.658452 L446.097741,262.624142 C446.754384,262.568455 447.399183,262.415969 448.011213,262.171632 C450.680788,261.069787 452.295644,258.330865 451.967448,255.461548 C451.841042,254.546033 451.528652,253.666063 451.049498,252.875774 C450.681211,252.290439 450.218062,251.770488 449.679038,251.337238 C448.469132,250.313628 446.918314,249.782842 445.334937,249.850418 L432.289707,250.432218 L431.449331,250.432218 C429.444705,250.537038 427.597538,251.551075 426.432929,253.186067 Z" id="Path" fill="#EFBFA9" fill-rule="nonzero"></path>
            <path d="M432.418996,250.354644 L431.591548,250.354644 C429.583262,250.449382 427.727399,251.453451 426.549289,253.082636 C426.471715,253.186067 426.381213,253.315356 426.30364,253.444644 C426.226067,253.573933 426.135565,253.754937 426.045063,253.884226 L426.045063,253.884226 C427.487092,256.468397 430.471635,257.778426 433.349874,257.090586 L438.676569,255.797699 L450.247908,253.017992 C450.565659,252.953338 450.874048,252.849094 451.165858,252.707699 C452.053688,252.357751 452.849717,251.809375 453.493054,251.104519 L453.493054,251.104519 C453.376695,250.988159 453.247406,250.884728 453.105188,250.768368 L442.413013,241.93795 C442.306402,241.848871 442.194116,241.766815 442.076862,241.692301 L432.457782,243.747992 C431.260242,245.783691 431.24544,248.305024 432.418996,250.354644 Z" id="Path" fill="#E89076" fill-rule="nonzero"></path>
            <path d="M433.776527,231.931004 C431.799569,233.183389 430.630813,235.386566 430.702501,237.72573 C430.774189,240.064895 432.075667,242.192367 434.125607,243.321339 L438.004268,245.493389 L446.239958,250.005565 C447.419449,250.66332 448.780083,250.92184 450.118619,250.74251 C451.042288,250.642183 451.928723,250.323066 452.704393,249.811632 C453.699383,249.183251 454.497022,248.287032 455.005732,247.225858 C456.451684,244.234885 455.395156,240.634865 452.562176,238.899665 L448.683515,236.611255 L444.753138,234.180628 L440.783975,231.840502 C438.624999,230.521005 435.900705,230.55619 433.776527,231.931004 L433.776527,231.931004 Z" id="Path" fill="#EFBFA9" fill-rule="nonzero"></path>
            <path d="M445.141004,246.682845 C444.439864,248.395989 443.021779,249.714809 441.262343,250.29 L432.108703,253.030921 C428.706752,254.123768 425.0524,252.313776 423.860084,248.945397 C423.362241,247.535718 423.362241,245.998048 423.860084,244.588368 C423.893856,244.446144 423.94149,244.307574 424.002301,244.174644 C424.754921,242.29141 426.33382,240.860384 428.281757,240.295983 L437.551757,237.968787 C439.920328,237.292186 442.466872,238.038008 444.096197,239.885497 C445.725522,241.732987 446.147166,244.352786 445.179791,246.618201 L445.141004,246.682845 Z" id="Path" fill="#E89076" fill-rule="nonzero"></path>
            <path d="M451.851088,248.23431 C450.991128,249.887536 449.459558,251.08923 447.649205,251.531172 L434.125607,254.698745 C430.651436,255.534953 427.144808,253.445898 426.226067,249.992636 C425.845777,248.543742 425.964182,247.009022 426.562218,245.635607 C426.609315,245.500544 426.669959,245.370593 426.743222,245.247741 C427.652399,243.451337 429.333894,242.169971 431.307113,241.769874 L444.921213,239.041883 C446.479415,238.738665 448.094712,239.019386 449.459247,239.830544 C450.865218,240.661719 451.894082,242.005732 452.329456,243.579916 C452.756759,245.136687 452.586116,246.797001 451.851088,248.23431 Z" id="Path" fill="#EFBFA9" fill-rule="nonzero"></path>
            <path d="M389.081423,248.854895 L419.800418,231.129414 L441.029623,235.305439 L433.543808,245.932971 L424.790962,246.799205 C424.790962,246.799205 411.668159,272.708661 389.081423,248.854895 Z" id="Path" fill="#E89076" fill-rule="nonzero"></path>
            <path d="M441.029623,235.305439 L446.291674,246.708703 C447.439112,249.180419 446.391659,252.115587 443.938619,253.302427 L443.938619,253.302427 C441.750661,254.354363 439.123267,253.683887 437.706904,251.712176 L433.543808,245.932971 L441.029623,235.305439 Z" id="Path" fill="#E89076" fill-rule="nonzero"></path>
            <path d="M381.298243,245.519247 L417.499079,224.483975 L442.568159,229.371088 L433.789456,241.950879 L423.44636,242.998117 C423.44636,242.998117 408.061004,273.587824 381.298243,245.519247 Z" id="Path" fill="#EFBFA9" fill-rule="nonzero"></path>
            <path d="M444.753138,234.180628 L436.569163,242.209456 L438.107699,245.493389 L440.15046,249.798703 C440.257854,250.025526 440.37874,250.245711 440.512469,250.458075 C441.890158,252.651514 444.549665,253.673186 447.041548,252.966276 C448.338142,252.624179 449.473137,251.837005 450.247908,250.74251 C451.281305,249.328362 451.627561,247.525937 451.191715,245.82954 L448.786946,236.598326 L444.753138,234.180628 Z" id="Path" fill="#E89076" fill-rule="nonzero"></path>
            <path d="M442.55523,229.371088 L448.825732,242.804184 C450.169277,245.711981 448.939389,249.160263 446.058954,250.561506 L446.058954,250.561506 C443.487691,251.817809 440.385226,251.036731 438.715356,248.712678 L433.776527,241.912092 L442.55523,229.371088 Z" id="Path" fill="#EFBFA9" fill-rule="nonzero"></path>
            <polygon id="Path" fill="#450000" fill-rule="nonzero" points="380.63887 244.756444 398.571213 271.622636 392.792008 280.646987 370.903431 252.526695"></polygon>
            <path d="M275.540084,423.485146 L162.761548,423.679079 L121.802887,423.756653 C127.233024,410.030313 131.890395,396.010717 135.753138,381.763682 C141.209121,361.685146 146.005732,337.521088 145.139498,316.563389 C144.635272,304.035314 142.993305,290.873724 143.006234,277.375983 C143.006234,268.804142 135.856569,209.538201 143.006234,204.082218 C159.490544,191.515356 206.887782,189.511381 204.030502,192.200586 L241.188075,213.32636 C243.269623,220.450167 263.374017,248.324812 266.619163,264.472971 C266.877741,265.688285 267.11046,266.955314 267.317322,268.196485 C268.006491,272.471277 268.343773,276.795405 268.325774,281.125356 C268.360894,282.420585 268.30473,283.71668 268.157699,285.004017 C268.076114,286.906943 267.873149,288.802722 267.550042,290.679791 C265.562051,303.125196 259.226655,314.462945 249.669414,322.678745 L249.83749,323.428619 L249.83749,323.583766 L257.051799,351.626485 L264.291967,379.824351 L264.4859,380.574226 L275.540084,423.485146 Z" id="Path" fill="#C43F00" fill-rule="nonzero"></path>
            <path d="M264.653975,380.018285 L264.511757,380.535439 L166.86,409.845188 L162.761548,423.704937 L159.943054,433.246444 L152.405523,438.09477 L125.254895,438.09477 C92.6224268,434.784979 99.0351464,398.868577 135.778996,381.78954 C141.234979,361.711004 146.03159,337.546946 145.165356,316.589247 C144.66113,304.061172 143.019163,290.899582 143.032092,277.401841 L180.228452,238.925523 L179.297573,329.686192 L243.373054,340.688661 L257.077657,351.626485 L264.317824,379.824351 L264.653975,380.018285 Z" id="Path" fill="#B22900" fill-rule="nonzero"></path>
            <g id="Group" transform="translate(162.903766, 258.577406)" stroke="#EAA105">
                <polygon id="Path" points="42.8074895 33.5504184 21.6558577 66.583682 0.504225941 33.5504184 21.6558577 0.530083682"></polygon>
                <polygon id="Path" points="84.8651046 33.5504184 63.7134728 66.583682 42.5747699 33.5504184 63.7134728 0.530083682"></polygon>
                <polygon id="Path" points="126.935649 33.5504184 105.784017 66.583682 84.6323849 33.5504184 105.784017 0.530083682"></polygon>
            </g>
            <circle id="Oval" fill="#450000" fill-rule="nonzero" cx="269.243724" cy="100.121172" r="24.72"></circle>
            <circle id="Oval" fill="#450000" fill-rule="nonzero" cx="244.071213" cy="72.168954" r="24.72"></circle>
            <circle id="Oval" fill="#450000" fill-rule="nonzero" cx="211.749038" cy="81.1545188" r="24.72"></circle>
            <path d="M180.732678,96.2554393 C170.75159,121.828745 174.268243,138.106192 190.403473,148.733724 L205.685397,132.06841 L196.544686,91.9889121 L180.732678,96.2554393 Z" id="Path" fill="#450000" fill-rule="nonzero"></path>
            <polygon id="Path" fill="#EFBFA9" fill-rule="nonzero" points="189.369163 132.06841 195.187155 194.333849 241.563013 225.673431 242.222385 148.914728"></polygon>
            <polygon id="Path" fill="#450000" fill-rule="nonzero" points="181.792845 149.470669 192.795314 168.670042 199.660544 154.034561"></polygon>
            <path d="M241.769874,199.453682 C241.769874,199.453682 213.171213,194.282134 212.330837,161.959958 L242.209456,171.682469 L241.769874,199.453682 Z" id="Path" fill="#E89076" fill-rule="nonzero"></path>
            <path d="M260.904603,86.7397908 C274.738494,103.68954 276.548536,126.030628 276.548536,126.030628 L261.551046,128.40954 L250.160711,92.4802092 L260.904603,86.7397908 Z" id="Path" fill="#450000" fill-rule="nonzero"></path>
            <path d="M194.075272,106.598536 L198.535732,124.259372 L200.578494,132.314059 L206.047406,153.93113 C209.023085,165.59933 217.828936,174.894395 229.319372,178.495983 L247.174142,184.132971 C254.499316,186.430692 262.47132,185.281937 268.84975,181.009545 C275.228179,176.737154 279.32454,169.802291 279.987615,162.153891 C281.047782,150.298117 281.034854,136.464226 276.522678,121.7641 C271.193568,104.88907 258.089109,91.5970606 241.291506,86.0287029 L241.226862,86.0287029 L238.369582,85.1753975 L238.059289,85.0978243 C236.637113,84.722887 235.163222,84.4125941 233.702259,84.1669456 C230.160212,83.5501761 226.565225,83.2902975 222.971297,83.3912134 L211.425816,83.727364 C205.845835,83.8770779 200.635586,86.5520354 197.261908,90.999157 C193.88823,95.4462785 192.716013,101.184571 194.075272,106.598536 Z" id="Path" fill="#EFBFA9" fill-rule="nonzero"></path>
            <ellipse id="Oval" stroke="#FFFFFF" cx="275.333222" cy="132.210628" rx="15.0362762" ry="16.6653138"></ellipse>
            <path d="M269.670377,135.753138 C270.0841,139.980879 268.855858,143.51046 266.916527,143.756109 C264.977197,144.001757 263.037866,140.65318 262.688787,136.425439 C262.339707,132.197699 263.516234,128.668117 265.442636,128.422469 C267.369038,128.17682 269.269582,131.473682 269.670377,135.753138 Z" id="Path" fill="#000000" fill-rule="nonzero"></path>
            <path d="M257.439665,129.417992 C261.318326,138.739707 267.718117,140.65318 272.165649,140.717824 C275.015647,140.762729 277.362914,142.969944 277.582845,145.811799 L277.582845,145.811799 C277.890083,149.564107 275.953098,153.143979 272.644017,154.939582 L261.008033,161.300586 C257.874509,162.34748 254.444899,162.025537 251.560947,160.413772 C248.676995,158.802007 246.605689,156.049632 245.855397,152.832176 L240.476987,129.986862 L257.439665,129.417992 Z" id="Path" fill="#EFBFA9" fill-rule="nonzero"></path>
            <path d="M265.261632,159.800837 L264.550544,158.50795 L272.307866,154.293138 C275.355329,152.639038 277.143632,149.346128 276.871757,145.889372 C276.684551,143.426445 274.648388,141.513686 272.178577,141.480628 C267.356109,141.403054 260.775314,139.308577 256.780293,129.715356 L258.163682,129.146485 C261.835481,137.989833 267.821548,139.916234 272.191506,139.980879 C275.434121,140.018306 278.110891,142.526725 278.358577,145.760084 C278.668356,149.804394 276.585594,153.656493 273.031883,155.611883 L265.261632,159.800837 Z" id="Path" fill="#E89076" fill-rule="nonzero"></path>
            <path d="M243.99364,139.541297 C244.394435,143.769038 243.166192,147.298619 241.239791,147.544268 C239.313389,147.789916 237.36113,144.441339 236.999121,140.213598 C236.637113,135.985858 237.826569,132.456276 239.752971,132.210628 C241.679372,131.964979 243.579916,135.300628 243.99364,139.541297 Z" id="Path" fill="#000000" fill-rule="nonzero"></path>
            <path d="M233.094603,122.720837 C223.475523,126.741715 220.838033,121.802887 227.729121,117.549289 C235.163222,113.114686 245.066736,117.730293 233.094603,122.720837 Z" id="Path" fill="#450000" fill-rule="nonzero"></path>
            <path d="M260.827029,118.22159 C253.315356,117.006276 255.409833,112.27431 261.680335,112.196736 C268.442134,112.119163 270.213389,119.734268 260.827029,118.22159 Z" id="Path" fill="#450000" fill-rule="nonzero"></path>
            <path d="M260.982176,162.903766 L243.65749,161.610879 C243.65749,161.610879 245.609749,171.617824 250.639079,172.703849 C256.095063,173.867448 260.982176,162.903766 260.982176,162.903766 Z" id="Path" fill="#FFFFFF" fill-rule="nonzero"></path>
            <ellipse id="Oval" stroke="#FFFFFF" cx="237.283556" cy="139.877448" rx="15.0362762" ry="16.6653138"></ellipse>
            <line x1="222.273138" y1="136.76159" x2="205.452678" y2="132.003766" id="Path" stroke="#FFFFFF"></line>
            <path d="M219.040921,83.5205021 C228.09113,104.982427 211.025021,134.343891 175.160335,132.210628 C160.059414,101.698494 160.692929,74.4056485 219.040921,83.5205021 Z" id="Path" fill="#450000" fill-rule="nonzero"></path>
            <path d="M206.719707,134.58954 C170.699874,85.0978243 151.991799,163.472636 204.935523,159.361255 L206.719707,134.58954 Z" id="Path" fill="#EFBFA9" fill-rule="nonzero"></path>
            <polygon id="Path" fill="#450000" fill-rule="nonzero" points="206.331841 102.900879 207.004142 144.467197 203.526276 146.794393 190.403473 106.831255"></polygon>
            <path d="M208.322887,88.0068201 C225.953229,94.7015149 245.300716,95.3877894 263.361088,89.9590795 C263.361088,89.9590795 253.793724,66.9456904 208.322887,88.0068201 Z" id="Path" fill="#450000" fill-rule="nonzero"></path>
            <path d="M171.953975,92.7258577 C171.953975,78.0903766 155.792887,85.1107531 166.885858,94.5876151 C147.414979,92.001841 162.153891,116.088326 171.113598,107.645774" id="Path" fill="#450000" fill-rule="nonzero"></path>
            <path d="M243.347197,226.500879 L243.347197,226.500879 C249.591841,192.536736 217.644603,185.348285 193.506402,175.418912 L180.228452,192.49795 L243.347197,226.500879 Z" id="Path" fill="#FFFFFF" fill-rule="nonzero"></path>
            <path d="M129.676569,323.816485 C155.172301,318.877657 178.625272,326.027322 166.084268,351.212762 L127.297657,353.501172 L129.676569,323.816485 Z" id="Path" fill="#C43F00" fill-rule="nonzero"></path>
            <path d="M123.974937,396.761172 C55.1287029,414.551297 66.2604603,340.714519 107.309623,329.686192 L123.974937,396.761172 Z" id="Path" fill="#C43F00" fill-rule="nonzero"></path>
            <path d="M127.064937,378.104812 L86.0804184,384.142594 C78.749749,326.066109 95.9710042,262.714644 134.524895,211.619749 C143.531975,199.689909 160.202135,196.699417 172.794351,204.754519 L172.794351,204.754519 C183.644436,211.708355 188.49997,225.062395 184.650126,237.36113 L127.064937,378.104812 Z" id="Path" fill="#C43F00" fill-rule="nonzero"></path>
            <path d="M330.707573,294.325732 L327.514142,290.278996 L327.514142,290.278996 C327.130921,289.806327 326.579493,289.500493 325.975607,289.42569 L264.524686,281.30636 C262.729955,281.076111 260.94281,281.784132 259.79272,283.181046 L193.790837,364.012343 C193.250416,364.664348 193.081794,365.547801 193.344079,366.353016 C193.606364,367.158231 194.262968,367.772881 195.083724,367.981506 L237.412845,377.846234 C239.139735,378.275912 240.966238,377.787542 242.248243,376.553347 L326.660837,294.35159 L330.707573,294.325732 Z" id="Path" fill="#E5EBEA" fill-rule="nonzero"></path>
            <path d="M196.906695,367.994435 L262.843933,287.163138 C263.994024,285.766224 265.781168,285.058203 267.5759,285.288452 L329.02682,293.407782 C329.965252,293.529247 330.751752,294.17629 331.051811,295.073716 C331.351871,295.971141 331.112717,296.961117 330.436067,297.622594 L245.351172,380.483724 C244.069167,381.717919 242.242664,382.206289 240.515774,381.776611 L198.186653,371.898954 C197.391332,371.677669 196.759192,371.073599 196.502036,370.289142 C196.24488,369.504685 196.396725,368.643614 196.906695,367.994435 Z" id="Path" fill="#FFFFFF" fill-rule="nonzero"></path>
            <ellipse id="Oval" fill="#E5EBEA" fill-rule="nonzero" transform="translate(269.718279, 328.248755) rotate(-42.320000) translate(-269.718279, -328.248755) " cx="269.718279" cy="328.248755" rx="13.756318" ry="7.34359833"></ellipse>
            <path d="M269.838452,293.899079 C269.066326,295.247346 267.707539,296.156393 266.166653,296.355565 C264.964268,296.355565 264.666904,295.191967 265.494351,293.769791 C266.27215,292.421 267.634889,291.512508 269.179079,291.313305 C270.368536,291.365021 270.6659,292.51569 269.838452,293.899079 Z" id="Path" fill="#E5EBEA" fill-rule="nonzero"></path>
            <polygon id="Path" fill="#EFBFA9" fill-rule="nonzero" points="243.140335 371.071506 299.04477 332.91841 227.237824 338.322678 221.148326 362.370377"></polygon>
            <path d="M232.887741,340.81795 L222.790293,339.382845 C221.374565,339.18835 220.129484,338.347306 219.420489,337.106565 C218.711494,335.865823 218.61902,334.366146 219.170209,333.047699 L219.519289,332.194393 C220.56402,329.674423 222.621907,327.711084 225.188193,326.785941 C227.75448,325.860799 230.591756,326.059438 233.0041,327.333138 L233.0041,327.333138 C236.410163,329.108134 238.440728,332.732693 238.175649,336.564351 L238.175649,336.564351 C238.08873,337.850461 237.467948,339.041626 236.463534,339.849577 C235.45912,340.657529 234.162601,341.008643 232.887741,340.81795 Z" id="Path" fill="#EFBFA9" fill-rule="nonzero"></path>
            <path d="M255.09954,340.378368 L299.057699,332.91841 L299.574854,331.625523 C301.622529,326.545612 305.803171,322.625078 311.003975,320.90749 C311.824123,320.632309 312.372736,319.859026 312.361676,318.994017 C312.361676,318.864728 312.361676,318.735439 312.361676,318.606151 C311.593143,315.171592 308.510758,312.754353 304.99205,312.826946 C304.406442,312.845162 303.824987,312.931946 303.259582,313.085523 L300.673808,313.977615 L300.402301,314.081046 C295.90875,315.630741 292.469155,319.297706 291.209874,323.88113 L256.301925,339.861213 L255.09954,340.378368 Z" id="Path" fill="#EFBFA9" fill-rule="nonzero"></path>
            <path d="M271.415774,342.214268 L291.455523,335.297322 C294.286946,326.73841 299.083556,323.428619 304.293891,321.722008 C305.256737,321.40661 305.818286,320.407053 305.586778,319.420669 C305.018022,316.839138 303.10793,314.761234 300.583305,313.977615 L300.311799,314.081046 C295.818248,315.630741 292.378653,319.297706 291.119372,323.88113 L287.331213,333.176987 L271.415774,342.214268 Z" id="Path" fill="#E89076" fill-rule="nonzero"></path>
            <path d="M287.331213,333.176987 L287.848368,331.8841 C289.890252,326.804934 294.066809,322.883796 299.264561,321.166067 L299.264561,321.166067 C300.227407,320.850668 300.788955,319.851112 300.557448,318.864728 L300.557448,318.864728 C300.117341,316.916128 298.90632,315.229073 297.200891,314.188762 C295.495462,313.14845 293.441234,312.843702 291.507238,313.3441 L288.637029,314.339623 C284.149146,315.909479 280.711835,319.573692 279.431674,324.152636 L279.431674,324.152636 L243.411841,340.636946 L287.331213,333.176987 Z" id="Path" fill="#EFBFA9" fill-rule="nonzero"></path>
            <path d="M140.834184,342.214268 L229.396946,351.186904 L243.140335,371.058577 C243.140335,371.058577 182.581506,401.441423 125.823766,397.666192 C101.258912,396.037155 92.6741423,364.270921 113.0759,350.527531 L116.282259,348.36841 C123.495619,343.510975 132.182506,341.333535 140.834184,342.214268 L140.834184,342.214268 Z" id="Path" fill="#EFBFA9" fill-rule="nonzero"></path>
            <polygon id="Path" fill="#FFFFFF" fill-rule="nonzero" points="120.122134 445.41251 221.730126 459.504979 227.276611 423.769582 127.866527 423.756653"></polygon>
            <polygon id="Path" fill="#FFFFFF" fill-rule="nonzero" points="235.163222 423.769582 241.601799 459.504979 278.410293 445.41251 270.6659 423.769582"></polygon>
            <path d="M315.684226,518.111548 L315.684226,571.119916 L584.915021,571.119916 C591.465934,570.985505 597.195294,566.67286 599.136778,560.414812 C599.733071,558.648897 600.034468,556.796835 600.028947,554.932971 L600.028947,534.298494 C600.033945,532.324785 599.697126,530.36511 599.033347,528.50636 C596.977413,522.422156 591.323145,518.283624 584.902092,518.163264 L315.684226,518.111548 Z" id="Path" fill="#B22900" fill-rule="nonzero"></path>
            <path d="M446.808828,528.50636 L446.808828,560.363096 L599.149707,560.363096 C599.746,558.597182 600.047397,556.745119 600.041876,554.881255 L600.041876,534.298494 C600.046874,532.324785 599.710055,530.36511 599.046276,528.50636 L446.808828,528.50636 Z" id="Path" fill="#C43F00" fill-rule="nonzero"></path>
            <circle id="Oval" fill="#FFB72F" fill-rule="nonzero" cx="494.503431" cy="544.434728" r="11.7523431"></circle>
            <path d="M320.067113,518.111548 L441.598494,518.111548 C453.737204,518.111548 463.577573,527.951917 463.577573,540.090628 L463.577573,549.011548 C463.577573,561.150259 453.737204,570.990628 441.598494,570.990628 L320.067113,570.990628 L320.067113,517.982259 L320.067113,518.111548 Z" id="Path" fill="#C43F00" fill-rule="nonzero"></path>
            <path d="M312.710586,518.111548 L335.917908,518.111548 L335.917908,526.049874 L312.710586,526.049874 C310.598825,525.958902 308.948721,524.193808 309,522.080711 L309,522.080711 C308.948721,519.967614 310.598825,518.202521 312.710586,518.111548 L312.710586,518.111548 Z" id="Path" fill="#C43F00" fill-rule="nonzero"></path>
            <path d="M312.309791,563.129874 L335.930837,563.129874 L335.930837,571.068201 L312.309791,571.068201 C310.488984,571.068201 309.012929,569.592145 309.012929,567.771339 L309.012929,566.478452 C308.999071,565.595144 309.340291,564.743227 309.960081,564.113715 C310.579871,563.484203 311.426374,563.129766 312.309791,563.129874 L312.309791,563.129874 Z" id="Path" fill="#C43F00" fill-rule="nonzero"></path>
            <path d="M315.684226,526.049874 L438.741213,526.049874 C447.252592,526.049874 454.152427,532.94971 454.152427,541.461088 L454.152427,547.705732 C454.152427,556.21711 447.252592,563.116946 438.741213,563.116946 L315.684226,563.116946 L315.684226,526.049874 Z" id="Path" fill="#E9EEEC" fill-rule="nonzero"></path>
            <path d="M315.684226,530.924059 L435.599498,530.924059 C442.482861,530.924059 448.062929,536.504127 448.062929,543.38749 L448.062929,554.764895 C448.062929,559.384746 444.3178,563.129874 439.69795,563.129874 L315.684226,563.129874 L315.684226,530.924059 Z" id="Path" fill="#FFFFFF" fill-rule="nonzero"></path>
            <g id="Group" transform="translate(315.464435, 536.548117)" stroke="#F1F4F6">
                <line x1="133.684519" y1="1.04723849" x2="0.219790795" y2="1.04723849" id="Path"></line>
                <line x1="138.235481" y1="7.60217573" x2="0.219790795" y2="7.60217573" id="Path"></line>
                <line x1="138.235481" y1="14.157113" x2="0.219790795" y2="14.157113" id="Path"></line>
                <line x1="138.235481" y1="20.7120502" x2="0.219790795" y2="20.7120502" id="Path"></line>
            </g>
            <path d="M575.606234,560.363096 L560.608745,560.363096 C558.666154,566.618466 552.935786,570.926661 546.386987,571.055272 L574.959791,571.055272 C581.507214,570.922673 587.235509,566.616037 589.181548,560.363096 L575.606234,560.363096 Z" id="Path" fill="#EAA105" fill-rule="nonzero"></path>
            <path d="M574.946862,518.111548 L546.374059,518.111548 C552.796399,518.228089 558.452632,522.368058 560.505314,528.454644 L589.078117,528.454644 C587.025435,522.368058 581.369202,518.228089 574.946862,518.111548 L574.946862,518.111548 Z" id="Path" fill="#EAA105" fill-rule="nonzero"></path>
            <path d="M589.078117,528.50636 L560.505314,528.50636 C561.169093,530.36511 561.505912,532.324785 561.500837,534.298494 L561.500837,554.881255 C561.506434,556.745119 561.205037,558.597182 560.608745,560.363096 L589.181548,560.363096 C589.777841,558.597182 590.079238,556.745119 590.073717,554.881255 L590.073717,534.298494 C590.078715,532.324785 589.741896,530.36511 589.078117,528.50636 L589.078117,528.50636 Z" id="Path" fill="#FFB72F" fill-rule="nonzero"></path>
            <polyline id="Path" fill="#DEE5E3" fill-rule="nonzero" points="415.740753 537.517782 415.740753 560.363096 423.304142 555.734561 430.867531 560.363096 430.867531 537.517782"></polyline>
            <polygon id="Path" fill="#EAA105" fill-rule="nonzero" points="410.064979 555.734561 418.63682 551.118954 425.191757 555.734561 430.867531 537.517782 415.740753 537.517782"></polygon>
            <path d="M572.296444,479.86795 L572.296444,518.240837 L342.731423,518.240837 C337.490115,518.352948 332.699946,515.288875 330.604142,510.483515 C330.089486,509.223622 329.828393,507.875305 329.828393,506.514351 L329.828393,491.594435 C329.830975,490.153913 330.125659,488.728874 330.694644,487.405481 C332.84421,482.716932 337.574847,479.754567 342.731423,479.86795 L572.296444,479.86795 Z" id="Path" fill="#EAA105" fill-rule="nonzero"></path>
            <path d="M460.500502,487.41841 L460.500502,510.496444 L330.604142,510.496444 C330.089486,509.236551 329.825971,507.888234 329.828393,506.52728 L329.828393,491.594435 C329.830975,490.153913 330.125659,488.728874 330.694644,487.405481 L460.500502,487.41841 Z" id="Path" fill="#FFB72F" fill-rule="nonzero"></path>
            <rect id="Rectangle" fill="#C43F00" fill-rule="nonzero" x="342.640921" y="495.136946" width="87.114728" height="7.6151046" rx="2.45"></rect>
            <path d="M446.175314,479.86795 L552.670418,479.86795 C561.481694,479.86795 568.624644,487.0109 568.624644,495.822176 L568.624644,502.286611 C568.624644,511.097887 561.481694,518.240837 552.670418,518.240837 L446.175314,518.240837 L446.175314,479.86795 Z" id="Path" fill="#FFB72F" fill-rule="nonzero" transform="translate(507.399979, 499.054393) rotate(180.000000) translate(-507.399979, -499.054393) "></path>
            <path d="M574.830502,479.86795 L555.049331,479.86795 L555.049331,485.621297 L574.830502,485.621297 C576.499424,485.694481 577.914376,484.406587 577.998075,482.738159 L577.998075,482.738159 C577.914447,481.071588 576.497225,479.787411 574.830502,479.86795 Z" id="Path" fill="#FFB72F" fill-rule="nonzero"></path>
            <path d="M557.441172,512.48749 L577.998075,512.48749 L577.998075,518.240837 L557.441172,518.240837 C556.120194,518.240837 555.049331,517.169973 555.049331,515.848996 L555.049331,514.879331 C555.049331,513.558353 556.120194,512.48749 557.441172,512.48749 L557.441172,512.48749 Z" id="Path" fill="#FFB72F" fill-rule="nonzero" transform="translate(566.523703, 515.364163) rotate(180.000000) translate(-566.523703, -515.364163) "></path>
            <path d="M572.296444,485.621297 L572.296444,512.48749 L467.663096,512.48749 C460.244202,512.48749 454.23,506.473287 454.23,499.054393 C454.23,491.635499 460.244202,485.621297 467.663096,485.621297 L572.296444,485.621297 Z" id="Path" fill="#E9EEEC" fill-rule="nonzero"></path>
            <path d="M572.296444,489.150879 L572.296444,512.48749 L467.663096,512.48749 C465.448725,512.485634 463.268753,511.939531 461.315021,510.897238 C460.110169,509.773946 459.427211,508.200394 459.427211,506.553138 L459.427211,504.600879 C459.406752,500.491047 461.025807,496.542641 463.92586,493.630454 C466.825913,490.718267 470.767524,489.08274 474.877406,489.086229 L572.296444,489.150879 Z" id="Path" fill="#FFFFFF" fill-rule="nonzero"></path>
            <g id="Group" transform="translate(453.803347, 492.589958)" stroke="#F1F4F6">
                <line x1="4.69317992" y1="1.39631799" x2="118.493096" y2="1.39631799" id="Path"></line>
                <line x1="0.814518828" y1="6.14121339" x2="118.493096" y2="6.14121339" id="Path"></line>
                <line x1="0.814518828" y1="10.8990377" x2="118.493096" y2="10.8990377" id="Path"></line>
                <line x1="0.814518828" y1="15.6439331" x2="118.493096" y2="15.6439331" id="Path"></line>
            </g>
            <path d="M585.858828,427.208661 L585.858828,479.86795 L333.280418,479.86795 C323.332825,479.865706 314.235304,474.258696 309.762562,465.37336 C305.28982,456.488023 306.205158,445.840695 312.128787,437.849121 C312.915893,436.811414 313.780278,435.834659 314.714561,434.927197 C319.644296,429.964186 326.349795,427.172167 333.345063,427.169874 L585.858828,427.208661 Z" id="Path" fill="#450000" fill-rule="nonzero"></path>
            <path d="M469.537782,437.849121 L469.537782,469.22749 L312.128787,469.22749 C305.217682,459.909665 305.217682,447.166946 312.128787,437.849121 L469.537782,437.849121 Z" id="Path" fill="#5E2222" fill-rule="nonzero"></path>
            <path d="M428.449833,427.22159 L559.29,427.22159 C571.378727,427.22159 581.178577,437.02144 581.178577,449.110167 L581.178577,457.979372 C581.178577,470.0681 571.378727,479.86795 559.29,479.86795 L428.449833,479.86795 L428.449833,427.22159 Z" id="Path" fill="#5E2222" fill-rule="nonzero" transform="translate(504.814205, 453.544770) rotate(180.000000) translate(-504.814205, -453.544770) "></path>
            <path d="M589.000544,427.208638 L564.319331,427.208638 L564.319331,435.095272 L589.000544,435.095272 C591.155573,435.095686 592.914523,433.371225 592.956778,431.216611 L592.956778,431.216611 C592.974151,430.15738 592.564598,429.135708 591.820388,428.38177 C591.076178,427.627832 590.059911,427.205045 589.000544,427.208638 Z" id="Path" fill="#5E2222" fill-rule="nonzero"></path>
            <path d="M567.629223,471.981339 L592.982738,471.981339 L592.982738,479.86795 L567.629223,479.86795 C565.815557,479.86795 564.345188,478.397683 564.345188,476.584017 L564.345188,475.29113 C564.338397,474.415705 564.681336,473.573765 565.297942,472.952305 C565.914547,472.330844 566.753771,471.981339 567.629223,471.981339 Z" id="Path" fill="#5E2222" fill-rule="nonzero" transform="translate(578.663963, 475.924644) rotate(180.000000) translate(-578.663963, -475.924644) "></path>
            <path d="M585.8459,435.095272 L585.8459,471.96841 L457.009707,471.96841 C447.433187,471.969369 439.450376,464.638216 438.637782,455.096234 C438.637782,454.592008 438.637782,454.061925 438.637782,453.531841 C438.644913,443.35256 446.895071,435.102403 457.074351,435.095272 L585.8459,435.095272 Z" id="Path" fill="#F2F5F4" fill-rule="nonzero"></path>
            <path d="M585.8459,441.068401 L585.8459,471.96841 L457.009707,471.96841 C447.433187,471.969369 439.450376,464.638216 438.637782,455.096234 C438.975263,451.506601 440.552416,448.146578 443.098243,445.593515 C445.993297,442.692467 449.924675,441.064086 454.023138,441.068401 L585.8459,441.068401 Z" id="Path" fill="#FFFFFF" fill-rule="nonzero"></path>
            <g id="Group" transform="translate(438.288703, 443.460251)" stroke="#F1F4F6">
                <line x1="5.61112971" y1="0.646443515" x2="147.557197" y2="0.646443515" id="Path"></line>
                <line x1="0.775732218" y1="7.99004184" x2="147.557197" y2="7.99004184" id="Path"></line>
                <line x1="0.775732218" y1="15.3336402" x2="147.557197" y2="15.3336402" id="Path"></line>
                <line x1="0.775732218" y1="22.6772385" x2="147.557197" y2="22.6772385" id="Path"></line>
            </g>
            <polyline id="Path" fill="#DEE5E3" fill-rule="nonzero" points="480.566109 444.106695 480.566109 469.214561 472.252845 464.133515 463.939582 469.214561 463.939582 444.106695"></polyline>
            <polygon id="Path" fill="#C43F00" fill-rule="nonzero" points="486.810753 464.133515 477.372678 459.052469 470.184226 464.133515 463.939582 444.106695 480.566109 444.106695"></polygon>
            <path d="M374.226151,479.86795 L345.200837,479.86795 C335.253243,479.865706 326.155722,474.258696 321.68298,465.37336 C317.210238,456.488023 318.125576,445.840695 324.049205,437.849121 C329.034259,431.173535 336.86935,427.232044 345.200837,427.208661 L374.174435,427.208661 C364.628671,426.99712 355.716083,431.968742 350.881088,440.202169 C346.046093,448.435579 346.046093,458.641032 350.881088,466.87445 C355.716083,475.107869 364.628671,480.079491 374.174435,479.86795 L374.226151,479.86795 Z" id="Path" fill="#B22900" fill-rule="nonzero"></path>
            <path d="M393.645314,479.86795 L381.143096,479.86795 C371.195502,479.865706 362.097981,474.258696 357.62524,465.37336 C353.152498,456.488023 354.067836,445.840695 359.991464,437.849121 C364.976519,431.173535 372.811609,427.232044 381.143096,427.208661 L393.645314,427.208661 C386.650046,427.210953 379.944547,430.002972 375.014812,434.965983 C374.106446,435.87916 373.263958,436.855582 372.493682,437.887908 C366.570053,445.879482 365.654715,456.52681 370.127457,465.412146 C374.600199,474.297483 383.69772,479.904492 393.645314,479.906736 L393.645314,479.86795 Z" id="Path" fill="#B22900" fill-rule="nonzero"></path>
            <path d="M347.902971,453.531841 C347.897258,459.183222 349.710497,464.6864 353.074519,469.22749 L324.100921,469.22749 C317.189816,459.909665 317.189816,447.166946 324.100921,437.849121 L353.074519,437.849121 C349.708173,442.384088 347.894518,447.883998 347.902971,453.531841 L347.902971,453.531841 Z" id="Path" fill="#C43F00" fill-rule="nonzero"></path>
            <path d="M367.309205,453.531841 C367.297968,459.184104 369.111764,464.688975 372.480753,469.22749 L359.978536,469.22749 C353.067431,459.909665 353.067431,447.166946 359.978536,437.849121 L372.480753,437.849121 C369.110251,442.381931 367.296128,447.883259 367.309205,453.531841 Z" id="Path" fill="#C43F00" fill-rule="nonzero"></path>
            <path d="M445.774519,479.86795 L433.28523,479.86795 C423.337636,479.865706 414.240115,474.258696 409.767374,465.37336 C405.294632,456.488023 406.209969,445.840695 412.133598,437.849121 C412.920705,436.811414 413.785089,435.834659 414.719372,434.927197 C419.649108,429.964186 426.354607,427.172167 433.349874,427.169874 L445.839163,427.169874 C436.293399,426.958333 427.380811,431.929955 422.545816,440.163383 C417.710821,448.396793 417.710821,458.602245 422.545816,466.835664 C427.380811,475.069083 436.293399,480.040704 445.839163,479.829163 L445.774519,479.86795 Z" id="Path" fill="#B22900" fill-rule="nonzero"></path>
            <path d="M419.451339,453.531841 C419.445626,459.183222 421.258865,464.6864 424.622887,469.22749 L412.133598,469.22749 C405.222494,459.909665 405.222494,447.166946 412.133598,437.849121 L424.622887,437.849121 C421.256541,442.384088 419.442886,447.883998 419.451339,453.531841 L419.451339,453.531841 Z" id="Path" fill="#C43F00" fill-rule="nonzero"></path>
            <path d="M405.216653,308.224268 L511.556611,308.224268 C518.213571,308.217133 523.606318,302.818596 523.606318,296.161632 L523.606318,296.161632 C523.606318,289.504668 518.213571,284.106131 511.556611,284.098996 L405.216653,284.098996 C398.559692,284.106131 393.166946,289.504668 393.166946,296.161632 L393.166946,296.161632 C393.166946,302.818596 398.559692,308.217133 405.216653,308.224268 Z" id="Path" fill="#F2F5F4" fill-rule="nonzero" style="mix-blend-mode: multiply;"></path>
            <rect id="Rectangle" fill="#F2F5F4" fill-rule="nonzero" style="mix-blend-mode: multiply;" x="393.166946" y="318.140711" width="132.249414" height="104.762636" rx="10.34"></rect>
            <rect id="Rectangle" stroke="#F1F1F3" fill="#FFFFFF" fill-rule="nonzero" x="412.521464" y="310.797113" width="132.249414" height="104.762636" rx="10.34"></rect>
            <path d="M424.571172,300.880843 L530.898201,300.880843 C534.105168,300.897874 537.186691,299.635955 539.46045,297.374329 C541.734209,295.112703 543.012552,292.037975 543.012552,288.830962 L543.012552,288.830962 C543.012552,282.168952 537.611926,276.768326 530.949916,276.768326 L424.571172,276.768326 C417.914211,276.775461 412.521464,282.173998 412.521464,288.830962 L412.521464,288.830962 C412.521464,295.485832 417.916302,300.880843 424.571172,300.880843 L424.571172,300.880843 Z" id="Path" stroke="#F1F1F3" fill="#FFFFFF" fill-rule="nonzero"></path>
            <path d="M432.910293,288.830962 C432.910293,291.815657 430.49072,294.23523 427.506025,294.23523 C424.52133,294.23523 422.101757,291.815657 422.101757,288.830962 C422.101757,285.846268 424.52133,283.426695 427.506025,283.426695 C430.49072,283.426695 432.910293,285.846268 432.910293,288.830962 L432.910293,288.830962 Z" id="Path" fill="#D57548" fill-rule="nonzero"></path>
            <path d="M454.423933,288.830962 C454.423933,291.815657 452.00436,294.23523 449.019665,294.23523 C446.034971,294.23523 443.615397,291.815657 443.615397,288.830962 C443.615397,285.846268 446.034971,283.426695 449.019665,283.426695 C450.452966,283.426695 451.827563,283.996071 452.84106,285.009568 C453.854556,286.023065 454.423933,287.397661 454.423933,288.830962 L454.423933,288.830962 Z" id="Path" fill="#FFB72F" fill-rule="nonzero"></path>
            <path d="M475.937573,288.830962 C475.937573,291.815657 473.518,294.23523 470.533305,294.23523 C467.548611,294.23523 465.129038,291.815657 465.129038,288.830962 C465.129038,285.846268 467.548611,283.426695 470.533305,283.426695 C473.518,283.426695 475.937573,285.846268 475.937573,288.830962 L475.937573,288.830962 Z" id="Path" fill="#AABC95" fill-rule="nonzero"></path>
            <line x1="428.423975" y1="331.935816" x2="527.058326" y2="331.935816" id="Path" stroke="#E3E9E7" stroke-width="5" stroke-linecap="round" stroke-linejoin="round"></line>
            <line x1="428.423975" y1="343.90795" x2="483.733682" y2="343.90795" id="Path" stroke="#E3E9E7" stroke-width="5" stroke-linecap="round" stroke-linejoin="round"></line>
            <rect id="Rectangle" stroke="#FFB72F" stroke-width="3" x="431.436402" y="386.13364" width="15.5017155" height="15.5017155"></rect>
            <polygon id="Path" stroke="#AABC95" stroke-width="3" stroke-linejoin="round" points="431.436402 401.635356 431.436402 356.164519 525.093138 401.635356"></polygon>
            <path d="M379.824351,164.300084 C378.958117,164.300084 378.091883,164.300084 377.238577,164.300084" id="Path" stroke="#EAA105"></path>
            <path d="M374.549372,164.519874 C341.748828,167.971883 328.535523,209.124477 343.701088,231.75" id="Path" stroke="#EAA105" stroke-dasharray="4.15"></path>
            <path d="M344.450962,232.823096 C344.968117,233.521255 345.498201,234.193556 346.067071,234.852929" id="Path" stroke="#EAA105"></path>
            <path d="M347.347029,227.612762 C351.323772,228.403491 353.907168,232.267526 353.118051,236.244589 C352.328934,240.221652 348.465947,242.806615 344.488565,242.01911 C340.511182,241.231606 337.924653,237.369668 338.710544,233.391967 C339.08835,231.47974 340.210887,229.796164 341.830844,228.71215 C343.450802,227.628137 345.435264,227.232629 347.347029,227.612762 L347.347029,227.612762 Z" id="Path" fill="#EAA105" fill-rule="nonzero"></path>
            <path d="M555.16569,339.150126 C556.018996,339.344059 556.872301,339.499205 557.751464,339.628494" id="Path" stroke="#AABC95"></path>
            <path d="M560.388954,340.029289 C593.228285,343.093431 614.263556,305.34113 603.842887,280.181548" id="Path" stroke="#AABC95" stroke-dasharray="4.15"></path>
            <path d="M603.312803,278.914519 C602.950795,278.125858 602.55,277.363054 602.123347,276.61318" id="Path" stroke="#AABC95"></path>
            <path d="M599.46,283.452552 C596.715539,282.315562 594.926409,279.637094 594.927093,276.666435 C594.927776,273.695777 596.718138,271.018133 599.463122,269.882405 C602.208106,268.746677 605.366962,269.376599 607.466343,271.478363 C609.565725,273.580127 610.192062,276.739695 609.053222,279.483389 C607.4937,283.222045 603.205148,284.996419 599.46,283.452552 Z" id="Path" fill="#AABC95" fill-rule="nonzero"></path>
            <path d="M482.686444,104.620418 C482.95795,103.780042 483.203598,102.952594 483.41046,102.125146" id="Path" stroke="#D7E0DD"></path>
            <path d="M484.018117,99.5523013 C490.340335,67.2301255 454.876444,42.4713389 428.798912,50.3320921" id="Path" stroke="#D7E0DD" stroke-dasharray="4.15"></path>
            <path d="M427.544812,50.7070293 C426.730293,50.9914644 425.928703,51.3017573 425.140042,51.6508368" id="Path" stroke="#D7E0DD"></path>
            <path d="M431.68205,54.9994142 C429.757126,58.5675601 425.304821,59.9007124 421.735669,57.977656 C418.166516,56.0545997 416.831034,51.6029931 418.752222,48.0328344 C420.67341,44.4626758 425.124318,43.1248644 428.695481,45.0441841 C432.265946,46.9712288 433.602138,51.4252039 431.68205,54.9994142 L431.68205,54.9994142 Z" id="Path" fill="#D7E0DD" fill-rule="nonzero"></path>
            <line x1="91.4458996" y1="108.563724" x2="119.656695" y2="108.563724" id="Path" stroke="#D7E0DD" stroke-width="5" stroke-linecap="round" stroke-linejoin="round"></line>
            <line x1="91.4458996" y1="123.018201" x2="107.180335" y2="123.018201" id="Path" stroke="#D7E0DD" stroke-width="5" stroke-linecap="round" stroke-linejoin="round"></line>
            <line x1="343.093431" y1="100.056527" x2="440.111674" y2="100.056527" id="Path" stroke="#D7E0DD" stroke-width="5" stroke-linecap="round" stroke-linejoin="round"></line>
            <line x1="343.093431" y1="113.993849" x2="378.182385" y2="113.993849" id="Path" stroke="#D7E0DD" stroke-width="5" stroke-linecap="round" stroke-linejoin="round"></line>
            <line x1="575.813096" y1="373.08841" x2="605.226276" y2="373.08841" id="Path" stroke="#D7E0DD" stroke-width="5" stroke-linecap="round" stroke-linejoin="round"></line>
            <line x1="562.069707" y1="373.08841" x2="565.961297" y2="373.08841" id="Path" stroke="#D7E0DD" stroke-width="5" stroke-linecap="round" stroke-linejoin="round"></line>
            <line x1="589.983138" y1="384.711464" x2="605.226276" y2="384.711464" id="Path" stroke="#D7E0DD" stroke-width="5" stroke-linecap="round" stroke-linejoin="round"></line>
            <path d="M310.641967,38.2048117 L310.641967,56.42159 L294.209372,76.0217573 L363.301255,76.0217573 C384.184021,76.0146216 401.111065,59.0875776 401.118201,38.2048117 L401.118201,38.2048117 C401.118201,17.3190894 384.186978,0.387863896 363.301255,0.387863896 L348.471841,0.387863896 C338.439924,0.384436393 328.817714,4.36719616 321.722864,11.4596209 C314.628015,18.5520457 310.641966,28.1728937 310.641967,38.2048117 L310.641967,38.2048117 Z" id="Path" fill="#D7E0DD" fill-rule="nonzero"></path>
            <path d="M339.796582,46.6990795 C339.796582,50.4120968 336.786574,53.4220921 333.073556,53.4220921 C329.360539,53.4220921 326.350544,50.4120968 326.350544,46.6990795 C326.350544,42.9860622 329.360539,39.9760544 333.073556,39.9760544 C334.857663,39.972626 336.569687,40.6798364 337.831244,41.9413925 C339.0928,43.2029486 339.80001,44.9149731 339.796582,46.6990795 L339.796582,46.6990795 Z" id="Path" fill="#F2F5F4" fill-rule="nonzero"></path>
            <path d="M362.641895,46.6990795 C362.641895,50.4120968 359.631888,53.4220921 355.91887,53.4220921 C352.205853,53.4220921 349.195858,50.4120968 349.195858,46.6990795 C349.195858,42.9860622 352.205853,39.9760544 355.91887,39.9760544 C357.702977,39.972626 359.415001,40.6798364 360.676557,41.9413925 C361.938113,43.2029486 362.645324,44.9149731 362.641895,46.6990795 Z" id="Path" fill="#F2F5F4" fill-rule="nonzero"></path>
            <path d="M385.487209,46.6990795 C385.487209,50.4120968 382.477201,53.4220921 378.764184,53.4220921 C375.051167,53.4220921 372.041172,50.4120968 372.041172,46.6990795 C372.041172,42.9860622 375.051167,39.9760544 378.764184,39.9760544 C380.548291,39.972626 382.260315,40.6798364 383.521871,41.9413925 C384.783427,43.2029486 385.490638,44.9149731 385.487209,46.6990795 Z" id="Path" fill="#F2F5F4" fill-rule="nonzero"></path>
            <circle id="Oval" fill="#D7E0DD" fill-rule="nonzero" cx="286.400335" cy="526.437741" r="11.067113"></circle>
            <circle id="Oval" fill="#D7E0DD" fill-rule="nonzero" cx="544.163222" cy="86.3519247" r="7.22723849"></circle>
            <circle id="Oval" fill="#D7E0DD" fill-rule="nonzero" cx="37.8169456" cy="102.08636" r="10.1103766"></circle>
            <path d="M104.116206,519.740586 C104.116206,517.178258 102.572684,514.868234 100.205402,513.887674 C97.8381196,512.907113 95.1132602,513.449122 93.301421,515.260961 C91.4895818,517.0728 90.9475736,519.797659 91.9281339,522.164941 C92.9086942,524.532223 95.2187185,526.075745 97.781046,526.075745 C99.462284,526.079174 101.075654,525.412828 102.264471,524.224011 C103.453288,523.035194 104.119634,521.421824 104.116206,519.740586 Z" id="Path" fill="#D7E0DD" fill-rule="nonzero"></path>
            <path d="M208.322887,503.269205 C208.322887,505.661245 206.383755,507.600377 203.991715,507.600377 C201.599675,507.600377 199.660544,505.661245 199.660544,503.269205 C199.660544,500.877165 201.599675,498.938033 203.991715,498.938033 C205.140414,498.938033 206.242064,499.394352 207.054316,500.206604 C207.866568,501.018856 208.322887,502.120507 208.322887,503.269205 Z" id="Path" fill="#AABC95" fill-rule="nonzero"></path>
            <path d="M275.966756,24.5648536 C275.966756,22.8066541 274.906918,21.2218256 273.282051,20.550206 C271.657184,19.8785864 269.787699,20.252625 268.546319,21.4977112 C267.304938,22.7427974 266.936473,24.613389 267.612933,26.2362469 C268.289393,27.8591047 269.877373,28.9141867 271.635565,28.9089734 C272.786507,28.9089734 273.890121,28.4508662 274.702746,27.6358156 C275.515371,26.8207649 275.970172,25.7157901 275.966756,24.5648536 L275.966756,24.5648536 Z" id="Path" fill="#AABC95" fill-rule="nonzero"></path>
            <path d="M512.047927,63.2092469 C512.053141,61.4458259 510.994909,59.8531313 509.36722,59.1746704 C507.739531,58.4962095 505.863378,58.8657804 504.614594,60.1108586 C503.36581,61.3559368 502.990666,63.2309829 503.664286,64.860681 C504.337907,66.4903791 505.92745,67.5533473 507.690879,67.5533473 C510.092159,67.5533473 512.040782,65.6105171 512.047927,63.2092469 Z" id="Path" fill="#AABC95" fill-rule="nonzero"></path>
            <path d="M14.3510585,283.336192 C14.3562775,286.061797 12.7184391,288.521931 10.2018089,289.568601 C7.68517874,290.615272 4.78581221,290.042169 2.85666479,288.116724 C0.92751736,286.19128 0.348845179,283.29302 1.39067884,280.774383 C2.4325125,278.255747 4.88949515,276.61318 7.6151046,276.61318 C11.3302191,276.61318 14.3439153,279.621085 14.3510585,283.336192 Z" id="Path" fill="#AABC95" fill-rule="nonzero"></path>
            <path d="M617.10793,403.264393 C617.10793,405.335114 615.429257,407.013766 613.358536,407.013766 C611.287814,407.013766 609.609163,405.335114 609.609163,403.264393 C609.609163,401.193672 611.287814,399.514998 613.358536,399.514998 C614.353985,399.51157 615.309658,399.905484 616.013551,400.609377 C616.717445,401.313271 617.111358,402.268944 617.10793,403.264393 Z" id="Path" fill="#AABC95" fill-rule="nonzero"></path>
            <circle id="Oval" fill="#D7E0DD" fill-rule="nonzero" cx="126.444351" cy="20.2595397" r="14.5708368"></circle>
            <circle id="Oval" fill="#D7E0DD" fill-rule="nonzero" transform="translate(113.905622, 61.448760) rotate(-76.650000) translate(-113.905622, -61.448760) " cx="113.905622" cy="61.4487596" r="14.5708368"></circle>
            <circle id="Oval" fill="#D7E0DD" fill-rule="nonzero" transform="translate(167.817867, 43.505138) rotate(-45.000000) translate(-167.817867, -43.505138) " cx="167.817867" cy="43.5051379" r="14.5708368"></circle>
            <line x1="113.890418" y1="61.4509205" x2="126.444351" y2="20.2595397" id="Path" stroke="#D7E0DD" stroke-width="5" stroke-linecap="round" stroke-linejoin="round"></line>
            <line x1="167.816736" y1="43.5056485" x2="128.474184" y2="20.2595397" id="Path" stroke="#D7E0DD" stroke-width="5" stroke-linecap="round" stroke-linejoin="round"></line>
            <line x1="113.890418" y1="61.4509205" x2="167.816736" y2="43.5056485" id="Path" stroke="#D7E0DD" stroke-width="5" stroke-linecap="round" stroke-linejoin="round"></line>
        </g>
    </g>
</svg>