<?xml version="1.0" encoding="UTF-8"?>
<svg width="23px" height="24px" viewBox="0 0 23 24" version="1.1" xmlns="http://www.w3.org/2000/svg" xmlns:xlink="http://www.w3.org/1999/xlink">
    <title>fi-rr-bell</title>
    <g id="Symbols" stroke="none" stroke-width="1" fill="none" fill-rule="evenodd">
        <g id="notification" fill="#A4A4A4" fill-rule="nonzero">
            <g id="fi-rr-bell">
                <path d="M22.555,13.662 L20.655,6.826 C19.5091235,2.70539466 15.7059585,-0.106628622 11.4304637,0.00546743027 C7.15496896,0.117563483 3.50438039,3.12501125 2.576,7.3 L1.105,13.915 C0.7758789,15.3955469 1.13657462,16.9454537 2.08558194,18.1285534 C3.03458925,19.3116531 4.46931291,20.0000431 5.986,20 L7.1,20 C7.57319247,22.330324 9.62211839,24.0050126 12,24.0050126 C14.3778816,24.0050126 16.4268075,22.330324 16.9,20 L17.738,20 C19.3005095,20.0001092 20.7732339,19.2697673 21.7188216,18.0258622 C22.6644093,16.7819571 22.9741276,15.167525 22.556,13.662 L22.555,13.662 Z M12,22 C10.7332146,21.9947486 9.60625455,21.1943509 9.184,20 L14.816,20 C14.3937454,21.1943509 13.2667854,21.9947486 12,22 Z M20.126,16.815 C19.5610055,17.564528 18.6756146,18.0037027 17.737,18.0000232 L5.986,18.0000232 C5.07609292,17.9998439 4.21542904,17.5867328 3.64616144,16.8768981 C3.07689384,16.1670634 2.86055015,15.2372255 3.058,14.349 L4.528,7.733 C5.25710404,4.45366953 8.12452099,2.0913913 11.4827737,2.00341454 C14.8410264,1.91543778 17.8281954,4.12434235 18.728,7.361 L20.628,14.197 C20.882549,15.1000157 20.6965186,16.0701905 20.126,16.815 L20.126,16.815 Z" id="Shape"></path>
            </g>
        </g>
    </g>
</svg>