<?xml version="1.0" encoding="UTF-8"?>
<svg width="26px" height="26px" viewBox="0 0 26 26" version="1.1" xmlns="http://www.w3.org/2000/svg" xmlns:xlink="http://www.w3.org/1999/xlink">
    <title>calendar(1)@2x</title>
    <g id="Symbols" stroke="none" stroke-width="1" fill="none" fill-rule="evenodd">
        <g id="calendar_" fill="#FFFFFF" fill-rule="nonzero">
            <g id="calendar(1)">
                <path d="M19.09375,6.09375 C18.2523555,6.09375 17.5703125,5.41170703 17.5703125,4.5703125 L17.5703125,1.5234375 C17.5703125,0.682042969 18.2523555,0 19.09375,0 C19.9351445,0 20.6171875,0.682042969 20.6171875,1.5234375 L20.6171875,4.5703125 C20.6171875,5.41170703 19.9351445,6.09375 19.09375,6.09375 Z" id="Path"></path>
                <path d="M23.2070312,3.046875 L22.140625,3.046875 L22.140625,4.5703125 C22.140625,6.25035938 20.7737969,7.6171875 19.09375,7.6171875 C17.4137031,7.6171875 16.046875,6.25035938 16.046875,4.5703125 L16.046875,3.046875 L9.953125,3.046875 L9.953125,4.5703125 C9.953125,6.25035938 8.58629688,7.6171875 6.90625,7.6171875 C5.22620312,7.6171875 3.859375,6.25035938 3.859375,4.5703125 L3.859375,3.046875 L2.79296875,3.046875 C1.25292578,3.046875 0,4.29980078 0,5.83984375 L0,9.2421875 L26,9.2421875 L26,5.83984375 C26,4.29980078 24.7470742,3.046875 23.2070312,3.046875 Z" id="Path"></path>
                <path d="M6.90625,6.09375 C6.06485547,6.09375 5.3828125,5.41170703 5.3828125,4.5703125 L5.3828125,1.5234375 C5.3828125,0.682042969 6.06485547,0 6.90625,0 C7.74764453,0 8.4296875,0.682042969 8.4296875,1.5234375 L8.4296875,4.5703125 C8.4296875,5.41170703 7.74764453,6.09375 6.90625,6.09375 Z" id="Path"></path>
                <path d="M0,10.765625 L0,23.2070312 C0,24.7470742 1.25292578,26 2.79296875,26 L23.2070312,26 C24.7470742,26 26,24.7470742 26,23.2070312 L26,10.765625 L0,10.765625 Z M13.8005156,20.6679688 C13.8005156,22.3480156 12.4336875,23.7148437 10.7536406,23.7148437 C9.24198438,23.7148437 7.94477734,22.5872461 7.73606641,21.0919922 C7.71661719,20.9524961 7.70676563,20.8098516 7.70676563,20.6679688 C7.70676563,20.2472969 8.0478125,19.90625 8.46848438,19.90625 C8.88915625,19.90625 9.23020313,20.2472969 9.23020313,20.6679688 C9.23020313,20.7396719 9.23517969,20.8114766 9.24492969,20.8814531 C9.34908203,21.6282422 9.99771094,22.1914062 10.7536406,22.1914062 C11.5936641,22.1914062 12.2770781,21.5079922 12.2770781,20.6679688 C12.2770781,19.8279453 11.5936641,19.1445312 10.7536406,19.1445312 C10.3329688,19.1445312 9.99192188,18.8034844 9.99192188,18.3828125 C9.99192188,17.9621406 10.3329688,17.6210938 10.7536406,17.6210938 C11.5936641,17.6210938 12.2770781,16.9376797 12.2770781,16.0976562 C12.2770781,15.2576328 11.5936641,14.5742188 10.7536406,14.5742188 C10.0271641,14.5742188 9.39849219,15.0904102 9.25879297,15.8015508 C9.17764453,16.2143516 8.77692969,16.4831875 8.36458594,16.4021914 C7.95178516,16.3210937 7.68284766,15.9207344 7.76394531,15.5079336 C8.04354688,14.0841797 9.30089062,13.0507812 10.7536406,13.0507812 C12.4336875,13.0507812 13.8005156,14.4176094 13.8005156,16.0976562 C13.8005156,17.0070469 13.3995469,17.8240664 12.7657461,18.3828125 C13.3995469,18.9415586 13.8005156,19.7585781 13.8005156,20.6679687 L13.8005156,20.6679688 Z M18.2932344,22.953125 C18.2932344,23.3737969 17.9521875,23.7148438 17.5315156,23.7148438 C17.1108438,23.7148438 16.7697969,23.3737969 16.7697969,22.953125 L16.7697969,14.5742188 L15.5778086,14.5742188 C15.1571367,14.5742188 14.8160898,14.2331719 14.8160898,13.8125 C14.8160898,13.3918281 15.1571367,13.0507812 15.5778086,13.0507812 L17.5315156,13.0507812 C17.9521875,13.0507812 18.2932344,13.3918281 18.2932344,13.8125 L18.2932344,22.953125 Z" id="Shape"></path>
            </g>
        </g>
    </g>
</svg>