<?xml version="1.0" encoding="UTF-8"?>
<svg width="43px" height="38px" viewBox="0 0 43 38" version="1.1" xmlns="http://www.w3.org/2000/svg" xmlns:xlink="http://www.w3.org/1999/xlink">
    <title>photo-camera-black-tool@2x</title>
    <g id="Symbols" stroke="none" stroke-width="1" fill="none" fill-rule="evenodd">
        <g id="Camera" fill="#70B547" fill-rule="nonzero">
            <g id="photo-camera-black-tool">
                <path d="M37.5698663,5.42530858 L33.5445413,5.42530858 L32.2027426,2.74171122 C31.4123515,1.17987459 31.0018647,0.0581848185 29.5192871,0.0581848185 L13.4177739,0.0581848185 C11.9351254,0.0581848185 11.4453795,1.33825083 10.7341766,2.74171122 L9.39237789,5.42530858 L5.36712376,5.42530858 C2.40310396,5.42530858 0,7.82841254 0,10.7924323 L0,32.2609274 C0,35.2248762 2.40310396,37.6280512 5.36712376,37.6280512 L37.5699373,37.6280512 C40.5338861,37.6280512 42.9370611,35.2249472 42.9370611,32.2609274 L42.9370611,10.7924323 C42.9370611,7.8284835 40.5338152,5.42530858 37.5698663,5.42530858 Z M21.468495,32.2609274 C15.5405264,32.2609274 10.7342475,27.4547195 10.7342475,21.5267508 C10.7342475,15.5987822 15.5405264,10.7925033 21.468495,10.7925033 C27.3964637,10.7925033 32.2027426,15.5987822 32.2027426,21.5267508 C32.2027426,27.4547195 27.3965347,32.2609274 21.468495,32.2609274 Z" id="Shape"></path>
                <path d="M21.468495,13.4760297 C17.0218267,13.4760297 13.4177739,17.0800825 13.4177739,21.5267508 C13.4177739,25.9734901 17.0218267,29.5774719 21.468495,29.5774719 C25.9151634,29.5774719 29.5192162,25.9734901 29.5192162,21.5267508 C29.5192162,17.0800116 25.9151634,13.4760297 21.468495,13.4760297 Z" id="Path"></path>
            </g>
        </g>
    </g>
</svg>