<?xml version="1.0" encoding="UTF-8"?>
<svg width="30px" height="30px" viewBox="0 0 30 30" version="1.1" xmlns="http://www.w3.org/2000/svg" xmlns:xlink="http://www.w3.org/1999/xlink">
    <title>Group 26@2x</title>
    <g id="Symbols" stroke="none" stroke-width="1" fill="none" fill-rule="evenodd">
        <g id="Group-26">
            <rect id="Rectangle" fill="#FF8080" x="0" y="0" width="30" height="30" rx="4"></rect>
            <g id="fi-rr-cross-small-copy" transform="translate(7.000000, 7.000000)" fill="#FFFFFF" fill-rule="nonzero">
                <path d="M15.5789474,0.421052632 L15.5789474,0.421052632 C15.0856844,-0.0720613958 14.2861051,-0.0720613958 13.7928421,0.421052632 L8,6.21389474 L2.20715789,0.421052632 C1.71389492,-0.0720613958 0.914315602,-0.0720613958 0.421052632,0.421052632 L0.421052632,0.421052632 C-0.0720613958,0.914315602 -0.0720613958,1.71389492 0.421052632,2.20715789 L6.21389474,8 L0.421052632,13.7928421 C-0.0720613958,14.2861051 -0.0720613958,15.0856844 0.421052632,15.5789474 L0.421052632,15.5789474 C0.914315602,16.0720614 1.71389492,16.0720614 2.20715789,15.5789474 L8,9.78610526 L13.7928421,15.5789474 C14.2861051,16.0720614 15.0856844,16.0720614 15.5789474,15.5789474 L15.5789474,15.5789474 C16.0720614,15.0856844 16.0720614,14.2861051 15.5789474,13.7928421 L9.78610526,8 L15.5789474,2.20715789 C16.0720614,1.71389492 16.0720614,0.914315602 15.5789474,0.421052632 Z" id="Path"></path>
            </g>
        </g>
    </g>
</svg>