<?xml version="1.0" encoding="UTF-8"?>
<svg width="20px" height="30px" viewBox="0 0 20 30" version="1.1" xmlns="http://www.w3.org/2000/svg" xmlns:xlink="http://www.w3.org/1999/xlink">
    <title>patent@2x</title>
    <g id="Symbols" stroke="none" stroke-width="1" fill="none" fill-rule="evenodd">
        <g id="Certication" fill="#FFFFFF" fill-rule="nonzero">
            <g id="patent">
                <path d="M12.8428094,16.5529543 C10.7970355,16.5529543 9.13266444,18.2173253 9.13266444,20.2630992 C9.13266444,21.3126136 9.57143188,22.2609837 10.2742475,22.9365155 C10.3575831,23.0166546 10.4446288,23.0929124 10.5351563,23.1650033 C10.5353275,23.1651175 10.5354988,23.1652317 10.53567,23.1654029 C10.5805913,23.2011915 10.6262546,23.2359527 10.6728312,23.2696294 C10.6737445,23.2702573 10.6746577,23.2708852 10.6755139,23.2715701 C10.7212914,23.304676 10.7678109,23.3367545 10.8151295,23.3678056 C10.8171844,23.3691755 10.8193534,23.3704883 10.8214082,23.3718582 C10.8675853,23.401996 10.9143902,23.4312205 10.9619942,23.4593035 C10.9657043,23.4614725 10.9694716,23.4635844 10.9731817,23.4657534 C11.0193588,23.4928089 11.0659924,23.5190082 11.1134252,23.5441231 C11.119019,23.5470912 11.1247839,23.5498881 11.1303777,23.5527991 C11.1760981,23.5767153 11.2222181,23.5998894 11.269023,23.621922 C11.2771282,23.6256892 11.2853476,23.6292281 11.2934528,23.6329953 C11.3382029,23.653658 11.3832954,23.6737498 11.4290158,23.6927001 C11.4398038,23.6971523 11.450763,23.7012049 11.461608,23.7056 C11.5051023,23.7231233 11.5487679,23.740247 11.5930613,23.7561721 C11.6068174,23.7610809 11.6208589,23.7655331 11.634672,23.7703278 C11.6765681,23.7847688 11.7185213,23.7990386 11.7611023,23.8120526 C11.778169,23.8172468 11.7955781,23.8217561 11.812759,23.826722 C11.8526573,23.838252 11.8924986,23.849839 11.9329106,23.8600562 C11.9537445,23.8653645 11.9749779,23.8697026 11.9959831,23.8746685 C12.0333128,23.8834016 12.0705855,23.8924201 12.1083148,23.9000116 C12.1333726,23.9050916 12.1588299,23.9090301 12.1841159,23.9135964 C12.2184776,23.919761 12.252668,23.9263822 12.2873151,23.9316334 C12.3173387,23.9361998 12.3477619,23.9393962 12.3780709,23.9432205 C12.4085512,23.9470448 12.4388031,23.951497 12.4694546,23.9545793 C12.5067844,23.9583465 12.5445708,23.9605726 12.582186,23.9631982 C12.6063875,23.9649106 12.6304178,23.967365 12.6547336,23.9686207 C12.7170069,23.9717601 12.7796798,23.9733583 12.8426952,23.9733583 C12.9057106,23.9733583 12.9683835,23.971703 13.0306569,23.9686207 C13.0550297,23.9674221 13.0790029,23.9649106 13.1032045,23.9631982 C13.1408196,23.9605726 13.178606,23.9583465 13.2159358,23.9545793 C13.2465873,23.951497 13.2768392,23.9470448 13.3073195,23.9432205 C13.3375715,23.9393962 13.3679946,23.9361998 13.3980754,23.9316334 C13.4327224,23.9263822 13.4669128,23.919761 13.5012745,23.9135964 C13.5265605,23.9090301 13.5520178,23.9050916 13.5770756,23.9000116 C13.6148049,23.8924201 13.6520776,23.8834016 13.6894074,23.8746685 C13.7104125,23.8697596 13.7316459,23.8653645 13.7524798,23.8600562 C13.7928919,23.849839 13.8327902,23.838252 13.8726314,23.826722 C13.8898123,23.8217561 13.9072214,23.8172468 13.9242881,23.8120526 C13.9668691,23.7990386 14.0088223,23.7847688 14.0507184,23.7703278 C14.0645315,23.7655331 14.078573,23.761138 14.0923291,23.7561721 C14.1366225,23.740247 14.1802881,23.7231233 14.2237824,23.7056 C14.2346274,23.7012049 14.2455866,23.6972094 14.2563746,23.6927001 C14.302095,23.6737498 14.3471304,23.653658 14.3919376,23.6329953 C14.4000428,23.6292281 14.4082622,23.6257463 14.4163674,23.621922 C14.4631724,23.5998894 14.5092923,23.5767153 14.5550127,23.5527991 C14.5606635,23.549831 14.5663715,23.5470341 14.5719652,23.5441231 C14.619398,23.5190082 14.6660317,23.4928089 14.7122087,23.4657534 C14.7159188,23.4635844 14.7196861,23.4614725 14.7233962,23.4593035 C14.7709431,23.4311634 14.817748,23.401996 14.8639822,23.3718582 C14.8660941,23.3704883 14.868206,23.3691755 14.8702609,23.3678056 C14.9175795,23.3368116 14.964099,23.304676 15.0098765,23.2715701 C15.0107897,23.2709423 15.0116459,23.2703144 15.0125592,23.2696294 C15.0591358,23.2359527 15.1047991,23.2011915 15.1497204,23.1654029 C15.1498916,23.1652887 15.1500629,23.1651746 15.1502341,23.1650033 C15.2407616,23.0928553 15.3277503,23.0165975 15.4111429,22.9365155 C16.1139585,22.2609837 16.552726,21.3126136 16.552726,20.2630992 C16.5529543,18.2173253 14.8885833,16.5529543 12.8428094,16.5529543 L12.8428094,16.5529543 Z" id="Path"></path>
                <path d="M19.1215162,0 L0.856187291,0 C0.38334359,0 0,0.38334359 0,0.856187291 L0,25.1148272 C0,25.5876709 0.38334359,25.9710145 0.856187291,25.9710145 L8.56187291,25.9710145 L8.56187291,23.5961793 C7.82104259,22.6515193 7.42028986,21.4930979 7.42028986,20.2630992 C7.42028986,17.273122 9.85283211,14.8405797 12.8428094,14.8405797 C15.8327866,14.8405797 18.2653289,17.273122 18.2653289,20.2630992 C18.2653289,21.4930979 17.8645761,22.6515193 17.1237458,23.5961793 L17.1237458,25.9710145 L19.1215162,25.9710145 C19.5943599,25.9710145 19.9777035,25.5876709 19.9777035,25.1148272 L19.9777035,0.856187291 C19.9777035,0.38334359 19.5943599,0 19.1215162,0 Z M4.28093645,3.71014493 L7.70568562,3.71014493 C8.17852932,3.71014493 8.56187291,4.09348852 8.56187291,4.56633222 C8.56187291,5.03917592 8.17852932,5.42251951 7.70568562,5.42251951 L4.28093645,5.42251951 C3.80809275,5.42251951 3.42474916,5.03917592 3.42474916,4.56633222 C3.42474916,4.09348852 3.80809275,3.71014493 4.28093645,3.71014493 Z M15.696767,13.9843924 L12.2720178,13.9843924 C11.7991741,13.9843924 11.4158305,13.6010488 11.4158305,13.1282051 C11.4158305,12.6553614 11.7991741,12.2720178 12.2720178,12.2720178 L15.696767,12.2720178 C16.1696107,12.2720178 16.5529543,12.6553614 16.5529543,13.1282051 C16.5529543,13.6010488 16.1696107,13.9843924 15.696767,13.9843924 Z M15.696767,11.1304348 L4.28093645,11.1304348 C3.80809275,11.1304348 3.42474916,10.7470912 3.42474916,10.2742475 C3.42474916,9.80140379 3.80809275,9.4180602 4.28093645,9.4180602 L15.696767,9.4180602 C16.1696107,9.4180602 16.5529543,9.80140379 16.5529543,10.2742475 C16.5529543,10.7470912 16.1696107,11.1304348 15.696767,11.1304348 Z M15.696767,8.27647715 L4.28093645,8.27647715 C3.80809275,8.27647715 3.42474916,7.89313356 3.42474916,7.42028986 C3.42474916,6.94744615 3.80809275,6.56410256 4.28093645,6.56410256 L15.696767,6.56410256 C16.1696107,6.56410256 16.5529543,6.94744615 16.5529543,7.42028986 C16.5529543,7.89313356 16.1696107,8.27647715 15.696767,8.27647715 Z" id="Shape"></path>
                <path d="M10.2742475,25.0375991 L10.2742475,28.8249721 C10.2742475,29.140734 10.4480535,29.4308673 10.7264285,29.579901 C11.0048036,29.7288205 11.3426551,29.71261 11.6053333,29.537377 L12.8428094,28.712355 L14.0802854,29.53732 C14.2235541,29.6328705 14.3891407,29.6811934 14.555241,29.6811934 C14.6937721,29.6811934 14.8325886,29.6475969 14.9591902,29.579901 C15.2375652,29.4309244 15.4113712,29.1407911 15.4113712,28.8249721 L15.4113712,25.0375991 C14.6463964,25.4507951 13.7715443,25.6856187 12.8428094,25.6856187 C11.9140745,25.6856187 11.0392223,25.4507951 10.2742475,25.0375991 L10.2742475,25.0375991 Z" id="Path"></path>
            </g>
        </g>
    </g>
</svg>