<svg id="Layer_1" data-name="Layer 1" xmlns="http://www.w3.org/2000/svg" viewBox="0 0 149 127"><defs><style>.cls-1{fill:#e2e2e2;}.cls-2{fill:none;stroke:#e2e2e2;stroke-linecap:square;stroke-linejoin:round;stroke-width:4px;}</style></defs><title>icon</title><path class="cls-1" d="M2.5,4.5v102h144V4.5Zm137,94H9.5v-86h130Z"/><path class="cls-1" d="M75.5,55.5A23.5,23.5,0,1,0,99,79,23.5,23.5,0,0,0,75.5,55.5Zm0,43A19.5,19.5,0,1,1,95,79,19.5,19.5,0,0,1,75.5,98.5Z"/><path class="cls-1" d="M14,17.5v76H62.49a19.5,19.5,0,1,1,26,0H135v-76Zm89,30H46v-6h57Zm18-13H28v-6h93Z"/><polyline class="cls-2" points="56.05 91.55 43 113.5 56 113.5 61 122.5 75 101.5 88 122.5 93 113.5 105 112.5 94 91.5"/></svg>