<svg xmlns="http://www.w3.org/2000/svg" width="30" height="30" viewBox="0 0 30 30">
  <g id="sms-write" transform="translate(-323 -166)">
    <rect id="Base" width="30" height="30" rx="15" transform="translate(323 166)" fill="#00b0f3"/>
    <path id="Combined_Shape" data-name="Combined Shape" d="M1.143,16a.381.381,0,0,1-.136-.737,4.276,4.276,0,0,0,1.58-2.148A7.241,7.241,0,0,1,0,7.619C0,3.418,3.76,0,8.381,0s8.381,3.418,8.381,7.619S13,15.238,8.381,15.238a9.021,9.021,0,0,1-3.424-.67,6.03,6.03,0,0,1-3.734,1.423A.4.4,0,0,1,1.143,16Zm4.19-7.619a.762.762,0,1,0,0,1.524H9.9a.762.762,0,1,0,0-1.524Zm0-3.047a.762.762,0,1,0,0,1.524h6.095a.762.762,0,1,0,0-1.524Z" transform="translate(330 173)" fill="#fff"/>
  </g>
</svg>
