<?xml version="1.0" encoding="UTF-8"?>
<svg width="55px" height="55px" viewBox="0 0 55 55" version="1.1" xmlns="http://www.w3.org/2000/svg" xmlns:xlink="http://www.w3.org/1999/xlink">
    <title>Message@2x</title>
    <g id="Symbols" stroke="none" stroke-width="1" fill="none" fill-rule="evenodd">
        <g id="Message">
            <g id="Group-23"></g>
            <circle id="Oval" fill="#5A7CFF" fill-rule="nonzero" cx="27.5" cy="27.5" r="27.5"></circle>
            <g id="Group-11" transform="translate(16.000000, 16.000000)" fill="#FFFFFF" fill-rule="nonzero">
                <path d="M20,3.01980663e-14 L4,3.01980663e-14 C1.790861,3.01980663e-14 0,1.790861 0,4 L0,16 C0,18.209139 1.790861,20 4,20 L6.9,20 L11.351,23.763 C11.7238657,24.0785501 12.2701343,24.0785501 12.643,23.763 L17.1,20 L20,20 C22.209139,20 24,18.209139 24,16 L24,4 C24,1.790861 22.209139,3.01980663e-14 20,3.01980663e-14 Z M22,16 C22,17.1045695 21.1045695,18 20,18 L17.1,18 C16.6272913,18.0001455 16.1699131,18.167721 15.809,18.473 L12,21.69 L8.193,18.473 L8.193,18.473 C7.83156194,18.1672767 7.37339631,17.9996725 6.9,18 L4,18 C2.8954305,18 2,17.1045695 2,16 L2,4 C2,2.8954305 2.8954305,2 4,2 L20,2 C21.1045695,2 22,2.8954305 22,4 L22,16 Z" id="Shape"></path>
                <path d="M7,7 L12,7 C12.5522847,7 13,6.55228475 13,6 C13,5.44771525 12.5522847,5 12,5 L7,5 C6.44771525,5 6,5.44771525 6,6 C6,6.55228475 6.44771525,7 7,7 Z" id="Path"></path>
                <path d="M17,9 L7,9 C6.44771525,9 6,9.44771525 6,10 C6,10.5522847 6.44771525,11 7,11 L17,11 C17.5522847,11 18,10.5522847 18,10 C18,9.44771525 17.5522847,9 17,9 Z" id="Path"></path>
                <path d="M17,13 L7,13 C6.44771525,13 6,13.4477153 6,14 C6,14.5522847 6.44771525,15 7,15 L17,15 C17.5522847,15 18,14.5522847 18,14 C18,13.4477153 17.5522847,13 17,13 Z" id="Path"></path>
            </g>
        </g>
    </g>
</svg>