<?xml version="1.0" encoding="UTF-8"?>
<svg width="18px" height="18px" viewBox="0 0 18 18" version="1.1" xmlns="http://www.w3.org/2000/svg" xmlns:xlink="http://www.w3.org/1999/xlink">
    <title>Group 4@2x</title>
    <g id="Symbols" stroke="none" stroke-width="1" fill="none" fill-rule="evenodd">
        <g id="clock" fill="#70B547" fill-rule="nonzero">
            <g id="Group-4">
                <path d="M9,0 C4.03748754,0 0,4.03748754 0,9 C0,13.9625125 4.03748754,18 9,18 C13.9625125,18 18,13.9625125 18,9 C18,4.03748754 13.9625125,0 9,0 Z M9,16.8749949 C4.65764933,16.8749949 1.12500508,13.3423507 1.12500508,9 C1.12500508,4.65764933 4.65764933,1.12500508 9,1.12500508 C13.3423507,1.12500508 16.8749949,4.65764933 16.8749949,9 C16.8749949,13.3423507 13.3423507,16.8749949 9,16.8749949 Z" id="Shape"></path>
                <polygon id="Path" points="9.12500508 4 8 4 8 9.85789566 11.5397907 13.3976864 12.3352042 12.602273 9.12500508 9.39207388"></polygon>
            </g>
        </g>
    </g>
</svg>