<svg id="Capa_1" data-name="Capa 1" xmlns="http://www.w3.org/2000/svg" viewBox="0 0 213.05 219.55"><defs><style>.cls-1{fill:#fff;}</style></defs><title>next</title><path class="cls-1" d="M141.32,72.73c8.5,0,17,.1,25.49,0,4.08-.08,6,1.34,6.39,5.65.89,9,7,15.09,16.22,16.19,4.21.51,5.73,2.26,5.69,6.39-.13,14.83,0,29.66-.07,44.49-.06,12.53-7,21.62-15.52,29.66-10.29,9.69-22.4,16.7-35.19,22.51a8.31,8.31,0,0,1-6.18.05c-15.06-6.94-29.27-15.21-40.47-27.78C90.79,162.1,87,153.27,87.23,142.6c.36-13.66.18-27.33,0-41,0-4.32,1-6.64,6-7.15,8.88-.91,14.71-6.83,15.85-16,.57-4.52,2.46-5.92,6.73-5.82C124.32,72.87,132.82,72.73,141.32,72.73Zm46.28,29.45C176.28,99.57,169,93.11,165.91,82c-.28-1-2.85-1.92-4.37-1.94-13.49-.15-27,0-40.48-.16-3.25,0-4.59,1-5.52,4.12-2.56,8.56-8.26,14.36-16.88,16.87-3.11.91-4.2,2.33-4.15,5.56.16,12.66-.4,25.35.29,38a32.55,32.55,0,0,0,4.89,15.36c9.56,14.61,24.43,22.71,39.67,30.07a4.91,4.91,0,0,0,3.78-.08c14.06-6.72,27.64-14.35,37.33-26.9,3.41-4.42,6.48-10.28,6.81-15.66C188.21,132.48,187.6,117.63,187.6,102.18Z"/><path class="cls-1" d="M18,96.1q0-27.5,0-55c0-13,6.65-19.59,19.74-19.6,28.49,0,57,.32,85.47-.16,13-.21,21.43,8.5,20.29,20.2-.48,4.95-.08,10,0,15,0,2.63,0,5.36-3.55,5.39-3.68,0-4.05-2.77-4.05-5.62,0-5.33,0-10.66,0-16-.07-7.84-3.52-11.4-11.2-11.41q-44,0-88,0c-7.38,0-11.3,4-11.3,11.51q-.06,56.22,0,112.45c0,7.24,3.83,11.12,11.13,11.18,13.32.1,26.65,0,40,0,2.61,0,5.85-.56,6,3.41s-3.14,4.1-6,4.11c-13.33,0-26.66.17-40,0C25,171.47,18.05,164.44,18,153.08,17.89,134.08,18,115.09,18,96.1Z"/><path class="cls-1" d="M80.64,48.09q16,0,32,0c2.64,0,5.42.14,5.55,3.49.13,3.62-2.75,4.1-5.59,4.1q-32,0-63.94,0c-2.7,0-5.23-.57-5.24-3.92s2.6-3.68,5.28-3.67Q64.65,48.11,80.64,48.09Z"/><path class="cls-1" d="M68.31,68.09c7.13,0,14.27,0,21.4,0,1.76,0,3.62.14,3.71,3.49.09,3.62-1.84,4.1-3.74,4.1q-21.39,0-42.78,0c-1.81,0-3.5-.58-3.51-3.93,0-3.5,1.74-3.68,3.53-3.67C54.05,68.11,61.18,68.09,68.31,68.09Z"/><path class="cls-1" d="M62,88.09c5.33,0,10.65,0,16,0,1.32,0,2.71.14,2.77,3.49.07,3.62-1.37,4.1-2.79,4.11H46c-1.35,0-2.61-.58-2.62-3.92,0-3.5,1.3-3.69,2.64-3.68C51.35,88.11,56.68,88.09,62,88.09Z"/><path class="cls-1" d="M55,135.21c3.31,0,6.62,0,9.93,0,.82,0,1.68.14,1.72,3.49,0,3.62-.85,4.1-1.73,4.1q-9.93,0-19.86,0c-.84,0-1.63-.58-1.63-3.93,0-3.5.81-3.68,1.64-3.67C48.34,135.23,51.65,135.21,55,135.21Z"/><path class="cls-1" d="M158.57,161.48h0a3.29,3.29,0,0,0-4-.42l-13.94,8.48h0c-14.53-4.78-26.45-20.43-26.45-20.43V116h0c6.56-2.44,14.71-14.15,14.71-14.15h29.91v-9H126c-2.91,10.4-19.6,20.25-19.6,20.25v36c7.22,17.43,34.22,28.87,34.22,28.87l17.46-11.34A3.31,3.31,0,0,0,158.57,161.48Z"/></svg>