<svg id="Layer_1" data-name="Layer 1" xmlns="http://www.w3.org/2000/svg" viewBox="0 0 249.75 322.87"><defs><style>.cls-1{fill:#fff;}</style></defs><title>Q_man</title><path class="cls-1" d="M27.07,240.46V75.86H19.65a6.55,6.55,0,0,0-6.55,6.55V266.66a6.55,6.55,0,0,0,6.55,6.55H168.1a6.55,6.55,0,0,0,6.55-6.55v-6.55H46.72A19.67,19.67,0,0,1,27.07,240.46Z"/><path class="cls-1" d="M79.47,194.62h13.1v13.1H79.47Z"/><path class="cls-1" d="M79.47,89.83h13.1v13.1H79.47Z"/><path class="cls-1" d="M79.47,142.23h13.1v13.09H79.47Z"/><path class="cls-1" d="M232.4,161.51l-31.66-11.87a6.51,6.51,0,0,0-4.6,0l-31.65,11.87a6.54,6.54,0,0,0-4.25,6.13v31.51A55.34,55.34,0,0,0,196.14,251a6.51,6.51,0,0,0,4.6,0,55.33,55.33,0,0,0,35.91-51.81V167.64A6.56,6.56,0,0,0,232.4,161.51ZM217,191.3l-18.53,18.53a6.56,6.56,0,0,1-9.26,0l-9.26-9.26a6.55,6.55,0,0,1,9.26-9.27l4.63,4.63L207.71,182A6.55,6.55,0,0,1,217,191.3Z"/><path class="cls-1" d="M46.72,247H166.66a68.52,68.52,0,0,1-16-26.19H125.31a6.55,6.55,0,0,1,0-13.1h22.37a69.55,69.55,0,0,1-.54-8.57v-4.53H125.31a6.55,6.55,0,1,1,0-13.1h21.83v-13.1H125.31a6.55,6.55,0,1,1,0-13.1h26.17a19.73,19.73,0,0,1,8.41-6.08l31.66-11.87a19.72,19.72,0,0,1,10.17-1V56.21a6.55,6.55,0,0,0-6.55-6.55H46.72a6.55,6.55,0,0,0-6.55,6.55V240.46A6.55,6.55,0,0,0,46.72,247ZM125.31,76.73H169a6.55,6.55,0,1,1,0,13.1H125.31a6.55,6.55,0,0,1,0-13.1Zm0,26.2h26.2a6.55,6.55,0,1,1,0,13.1h-26.2a6.55,6.55,0,1,1,0-13.1Zm0,26.2h37.11a6.55,6.55,0,1,1,0,13.1H125.31a6.55,6.55,0,0,1,0-13.1ZM66.37,83.28a6.55,6.55,0,0,1,6.55-6.55H99.11a6.55,6.55,0,0,1,6.55,6.55v26.2A6.55,6.55,0,0,1,99.11,116H72.92a6.55,6.55,0,0,1-6.55-6.55Zm0,52.4a6.55,6.55,0,0,1,6.55-6.55H99.11a6.55,6.55,0,0,1,6.55,6.55v26.19a6.55,6.55,0,0,1-6.55,6.55H72.92a6.55,6.55,0,0,1-6.55-6.55Zm0,52.39a6.55,6.55,0,0,1,6.55-6.55H99.11a6.55,6.55,0,0,1,6.55,6.55v26.2a6.55,6.55,0,0,1-6.55,6.55H72.92a6.55,6.55,0,0,1-6.55-6.55Z"/></svg>