<svg xmlns="http://www.w3.org/2000/svg" width="20" height="20" viewBox="0 0 20 20">
  <path id="dollar-symbol" d="M37.6,24.9V26.44H34.3V24.831a18.962,18.962,0,0,1-8.442-2.569l2.609-2.137A15.187,15.187,0,0,0,34.3,22.191V17.508c-4.457-.768-7.464-1.824-7.464-4.658,0-2.593,3.007-4.587,7.464-4.946V6.44h3.3V7.929A17.376,17.376,0,0,1,45.2,10.162L42.741,12.37a14.581,14.581,0,0,0-5.144-1.8v4.514c4.964.744,8.261,1.873,8.261,4.8C45.857,22.647,42.85,24.663,37.6,24.9Zm-3.3-10.4V10.522c-1.775.288-2.9,1.128-2.9,2.065C31.4,13.547,32.342,14.051,34.3,14.507Zm7.029,5.666c0-1.1-1.16-1.609-3.732-2.113v4.274C40.06,22.142,41.328,21.23,41.328,20.173Z" transform="translate(-25.857 -6.44)" fill="#72bd39"/>
</svg>
