<svg id="Layer_1" data-name="Layer 1" xmlns="http://www.w3.org/2000/svg" viewBox="0 0 20 20"><defs><style>.cls-1{fill:#fff;}.cls-2{fill:#00c252;}</style></defs><title>easy pesa</title><path class="cls-1" d="M10.28,12.64a12.71,12.71,0,0,1-7.72-2.26A10,10,0,0,1,1,8.8,1,1,0,0,1,.74,8,8.75,8.75,0,0,1,6.83.7a10.86,10.86,0,0,1,8.74.46c2.62,1.36,4,3.46,3.78,6.3a4.76,4.76,0,0,1-2.87,3.86A14.31,14.31,0,0,1,10.28,12.64Zm.1-3.56c.5-.09,1.47-.19,2.39-.42A2.06,2.06,0,0,0,14.47,7,2.08,2.08,0,0,0,13.4,4.9a4.81,4.81,0,0,0-3.13-.71,5.4,5.4,0,0,0-5,3.11c-.27.56-.23.65.36.93A11.94,11.94,0,0,0,10.38,9.08Z"/><path class="cls-2" d="M16.32,12.81c1.19.65,2.33,1.28,3.48,1.89.31.16.2.32.09.51a8.33,8.33,0,0,1-3.52,3.33A12.48,12.48,0,0,1,9.31,20c-3.4-.28-6.22-1.55-8-4.33A8.39,8.39,0,0,1,0,10.56c.26.44.47.86.75,1.24A10.31,10.31,0,0,0,8.2,16,9.52,9.52,0,0,0,13,15.58,6.15,6.15,0,0,0,16.16,13,1.65,1.65,0,0,1,16.32,12.81Z"/></svg>