<?xml version="1.0" encoding="UTF-8"?>
<svg width="20px" height="20px" viewBox="0 0 20 20" version="1.1" xmlns="http://www.w3.org/2000/svg" xmlns:xlink="http://www.w3.org/1999/xlink">
    <title>Group 4@2x</title>
    <g id="Symbols" stroke="none" stroke-width="1" fill="none" fill-rule="evenodd">
        <g id="delete_edit" transform="translate(-30.000000, 0.000000)">
            <g id="Group-4" transform="translate(30.000000, 0.000000)">
                <rect id="Rectangle-Copy" fill="#4BBAFF" x="0" y="0" width="20" height="20" rx="4"></rect>
                <g id="writing" transform="translate(5.000000, 4.500000)" fill="#FFFFFF" fill-rule="nonzero">
                    <path d="M7.09693478,4.7826087 C7.09693478,4.54247826 6.90228261,4.34782609 6.66215217,4.34782609 L2.1838913,4.34782609 C1.94376087,4.34782609 1.7491087,4.54247826 1.7491087,4.7826087 C1.7491087,5.02273913 1.94376087,5.2173913 2.1838913,5.2173913 L6.66215217,5.2173913 C6.90228261,5.2173913 7.09693478,5.02273913 7.09693478,4.7826087 Z" id="Path"></path>
                    <path d="M2.1838913,6.08695652 C1.94376087,6.08695652 1.7491087,6.2816087 1.7491087,6.52173913 C1.7491087,6.76186957 1.94376087,6.95652174 2.1838913,6.95652174 L4.90369565,6.95652174 C5.14382609,6.95652174 5.33847826,6.76186957 5.33847826,6.52173913 C5.33847826,6.2816087 5.14382609,6.08695652 4.90369565,6.08695652 L2.1838913,6.08695652 Z" id="Path"></path>
                    <path d="M3.20563043,10.2608696 L1.75152174,10.2608696 C1.27204348,10.2608696 0.881956522,9.87078261 0.881956522,9.39130435 L0.881956522,1.73913043 C0.881956522,1.25965217 1.27204348,0.869565217 1.75152174,0.869565217 L7.09693478,0.869565217 C7.57641304,0.869565217 7.9665,1.25965217 7.9665,1.73913043 L7.9665,4.41304348 C7.9665,4.65317391 8.16115217,4.84782609 8.40128261,4.84782609 C8.64141304,4.84782609 8.83606522,4.65317391 8.83606522,4.41304348 L8.83606522,1.73913043 C8.83606522,0.780173913 8.0558913,0 7.09693478,0 L1.75152174,0 C0.792565217,0 0.0123913043,0.780173913 0.0123913043,1.73913043 L0.0123913043,9.39130435 C0.0123913043,10.3502609 0.792565217,11.1304348 1.75152174,11.1304348 L3.20563043,11.1304348 C3.44576087,11.1304348 3.64041304,10.9357826 3.64041304,10.6956522 C3.64041304,10.4555217 3.44576087,10.2608696 3.20563043,10.2608696 Z" id="Path"></path>
                    <path d="M9.60617391,6.29504348 C9.0976087,5.78647826 8.27013043,5.78645652 7.7618913,6.29469565 L5.37486957,8.67643478 C5.32417391,8.72702174 5.28678261,8.78932609 5.26595652,8.85784783 L4.7461087,10.5692609 C4.70002174,10.721 4.74017391,10.8857609 4.85091304,10.9992609 C4.93386957,11.0842826 5.04656522,11.1304348 5.16215217,11.1304348 C5.20082609,11.1304348 5.23986957,11.1252609 5.27819565,11.1146304 L7.03308696,10.6285217 C7.10530435,10.6085217 7.17113043,10.5701957 7.22417391,10.5172391 L9.60619565,8.13969565 C10.1147609,7.63113043 10.1147609,6.80365217 9.60617391,6.29504348 Z M6.69078261,9.82104348 L5.80791304,10.0656087 L6.06628261,9.21497826 L7.67691304,7.60791304 L8.29191304,8.22291304 L6.69078261,9.82104348 Z M8.99163043,7.52456522 L8.9073913,7.60863043 L8.2925,6.99373913 L8.37645652,6.90995652 C8.54597826,6.74043478 8.82180435,6.74043478 8.99132609,6.90995652 C9.16084783,7.07947826 9.16084783,7.35530435 8.99163043,7.52456522 Z" id="Shape"></path>
                    <path d="M6.66215217,2.60869565 L2.1838913,2.60869565 C1.94376087,2.60869565 1.7491087,2.80334783 1.7491087,3.04347826 C1.7491087,3.2836087 1.94376087,3.47826087 2.1838913,3.47826087 L6.66215217,3.47826087 C6.90228261,3.47826087 7.09693478,3.2836087 7.09693478,3.04347826 C7.09693478,2.80334783 6.90228261,2.60869565 6.66215217,2.60869565 Z" id="Path"></path>
                </g>
            </g>
        </g>
    </g>
</svg>