<?xml version="1.0" encoding="UTF-8"?>
<svg width="28px" height="28px" viewBox="0 0 28 28" version="1.1" xmlns="http://www.w3.org/2000/svg" xmlns:xlink="http://www.w3.org/1999/xlink">
    <title>Back icon@2x</title>
    <g id="Symbols" stroke="none" stroke-width="1" fill="none" fill-rule="evenodd">
        <g id="Back-icon" fill="#FFFFFF" fill-rule="nonzero">
            <path d="M8.77220312,3.3796875 L10.1869141,2.79365625 C10.7449453,2.5624375 11.0100156,1.92264844 10.7787969,1.3645625 C10.5475781,0.806476563 9.90784375,0.541296875 9.34970312,0.772679688 L7.93499219,1.35871094 C7.37696094,1.58992969 7.11189062,2.22971875 7.34310937,2.78780469 C7.5735625,3.34403125 8.2123125,3.61145313 8.77220312,3.3796875 Z" id="Path"></path>
            <path d="M14,0 C13.3959219,0 12.90625,0.489671875 12.90625,1.09375 C12.90625,1.69782813 13.3959219,2.1875 14,2.1875 C20.5284844,2.1875 25.8125,7.47075 25.8125,14 C25.8125,20.5284844 20.52925,25.8125 14,25.8125 C7.47151563,25.8125 2.1875,20.52925 2.1875,14 C2.1875,13.3959219 1.69782813,12.90625 1.09375,12.90625 C0.489671875,12.90625 0,13.3959219 0,14 C0,21.7373516 6.26155469,28 14,28 C21.7373516,28 28,21.7384453 28,14 C28,6.26264844 21.7384453,0 14,0 Z" id="Path"></path>
            <path d="M5.10595313,6.18871094 L6.18871094,5.10595312 C6.615875,4.67878906 6.615875,3.98622656 6.18871094,3.55911719 C5.76154688,3.13200781 5.06898438,3.13195312 4.641875,3.55911719 L3.55911719,4.641875 C3.13195313,5.06903906 3.13195313,5.76160156 3.55911719,6.18871094 C3.98617188,6.61576562 4.67878906,6.615875 5.10595313,6.18871094 Z" id="Path"></path>
            <path d="M1.3645625,10.7788516 C1.92385156,11.0105078 2.56298438,10.7437422 2.79365625,10.1869688 L3.3796875,8.77220313 C3.61090625,8.21411719 3.34583594,7.57432813 2.78780469,7.34310938 C2.22960938,7.11194531 1.58992969,7.37696094 1.35871094,7.93499219 L0.772679688,9.34970313 C0.541460938,9.90784375 0.80653125,10.5476328 1.3645625,10.7788516 Z" id="Path"></path>
            <g id="left-arrow(2)" transform="translate(7.000000, 8.000000)">
                <path d="M13.7998318,5.40008044 L1.83027769,5.40008044 L6.41362183,1.03453365 C6.6536189,0.805936437 6.66291879,0.426141066 6.43432158,0.186143991 C6.20602436,-0.0535530871 5.82622899,-0.0631529701 5.58593192,0.165444244 L0.351595715,5.15138347 C0.125098475,5.37818071 0,5.67937704 0,6.00007313 C0,6.32046922 0.125098475,6.62196555 0.362095587,6.85866266 L5.58623191,11.834402 C5.7023305,11.9451007 5.85112868,12 5.99992687,12 C6.15832494,12 6.31672301,11.9376008 6.43462157,11.8137023 C6.66321879,11.5737052 6.6539189,11.1942098 6.41392182,10.9656126 L1.81137792,6.60006582 L13.7998318,6.60006582 C14.1310278,6.60006582 14.3998245,6.33126909 14.3998245,6.00007313 C14.3998245,5.66887717 14.1310278,5.40008044 13.7998318,5.40008044 L13.7998318,5.40008044 Z" id="Path"></path>
            </g>
        </g>
    </g>
</svg>