<?xml version="1.0" encoding="UTF-8"?>
<svg width="60px" height="64px" viewBox="0 0 60 64" version="1.1" xmlns="http://www.w3.org/2000/svg" xmlns:xlink="http://www.w3.org/1999/xlink">
    <title>Group@2x</title>
    <defs>
        <linearGradient x1="0%" y1="50%" x2="100%" y2="50%" id="linearGradient-1">
            <stop stop-color="#22BE5F" offset="0%"></stop>
            <stop stop-color="#9CE051" offset="100%"></stop>
        </linearGradient>
    </defs>
    <g id="Symbols" stroke="none" stroke-width="1" fill="none" fill-rule="evenodd">
        <g id="Logo" fill-rule="nonzero">
            <g id="Group">
                <path d="M58.8625592,23.2777251 L29.2890995,7.10542736e-15 L1.88293825e-13,23.2777251 L3.5943128,23.2777251 L8.72701422,19.2454976 L8.72701422,38.957346 L49.0521327,38.957346 L49.0521327,18.6085308 L54.9952607,23.2777251 L58.8625592,23.2777251 Z M46.2824645,16.4331754 L12.2957346,16.4331754 L29.2947867,3.08246445 L46.2824645,16.4331754 Z M45.0995261,17.971564 L10.3791469,37.4018957 L10.3791469,17.971564 L45.0995261,17.971564 Z M13.1488152,37.7203791 L47.414218,18.5459716 L47.414218,37.7203791 L13.1488152,37.7203791 Z" id="Shape" fill="url(#linearGradient-1)"></path>
                <path d="M0.352606635,55.9734597 L0.352606635,42.963981 L7.0492891,42.963981 C8.00767003,42.9294805 8.96588845,43.0368009 9.892891,43.2824645 C10.5395648,43.4890805 11.0982635,43.9066026 11.4796209,44.4682464 C11.8957256,45.090407 12.106539,45.8272596 12.0824645,46.5753555 C12.1270372,47.8577812 11.4612283,49.0603917 10.3507109,49.7033175 C9.90670975,49.9484005 9.42690783,50.1220888 8.92890995,50.2180095 C9.29877761,50.3263844 9.65118311,50.4872652 9.97535545,50.6957346 C10.2216118,50.9025715 10.4430014,51.1373209 10.6350711,51.3952607 C10.8502359,51.6454912 11.040696,51.9159445 11.2037915,52.2028436 L13.1488152,55.9734597 L8.59905213,55.9734597 L6.4521327,51.9924171 C6.28095294,51.6113986 6.03315404,51.2697071 5.72417062,50.9886256 C5.43483173,50.7875257 5.08976489,50.6821162 4.73744076,50.6872038 L4.38767773,50.6872038 L4.38767773,55.9734597 L0.352606635,55.9734597 Z M4.39052133,48.236019 L6.09668246,48.236019 C6.45583822,48.2083037 6.81177403,48.1483466 7.16018957,48.056872 C7.42103389,48.008991 7.65386511,47.8635986 7.81137441,47.650237 C8.19740148,47.1194415 8.13566154,46.3858258 7.66635071,45.9270142 C7.39905213,45.7023697 6.9014218,45.5914692 6.16777251,45.5914692 L4.38767773,45.5914692 L4.39052133,48.236019 Z" id="Shape" fill="#000000"></path>
                <path d="M13.6151659,49.478673 C13.6151659,47.3554502 14.2066351,45.7014218 15.3895735,44.5165877 C16.5725118,43.3317536 18.2199052,42.7402844 20.3317536,42.7421756 C22.4985782,42.7421756 24.1668246,43.3232227 25.3364929,44.4853081 C26.5061611,45.6473934 27.0881517,47.2758294 27.0825057,49.3706161 C27.0825057,50.8872038 26.8265403,52.1336493 26.3146919,53.1099526 C25.8173626,54.0714608 25.045294,54.863326 24.0966825,55.3848341 C22.9810316,55.962566 21.7351939,56.2426836 20.4796209,56.1981043 C19.2305732,56.2399979 17.9882201,55.9989153 16.8454976,55.492891 C15.8605098,55.0051409 15.0450679,54.2323042 14.5052133,53.2748815 C13.9118483,52.2625592 13.6151659,50.9971564 13.6151659,49.478673 Z M17.636019,49.4957346 C17.636019,50.8094787 17.8796209,51.757346 18.3668246,52.3393365 C18.864531,52.9137242 19.5981642,53.2281385 20.357346,53.1924171 C21.1167599,53.2294254 21.8509327,52.91478 22.3478673,52.3393365 C22.8199052,51.7706161 23.056872,50.7620853 23.0587678,49.3137441 C23.0587678,48.0909953 22.8113744,47.1962085 22.3165877,46.6293839 C21.8091968,46.0566541 21.0706036,45.7432483 20.3061611,45.7763033 C19.5594445,45.7461319 18.8402536,46.0606469 18.3554502,46.6293839 C17.8758294,47.2151659 17.636019,48.1706161 17.636019,49.4957346 Z" id="Shape" fill="#000000"></path>
                <path d="M28.7545024,49.478673 C28.7545024,47.3554502 29.3459716,45.7014218 30.52891,44.5165877 C31.7118483,43.3317536 33.3592417,42.7402844 35.47109,42.7421756 C37.6379147,42.7421756 39.3061611,43.3232227 40.4758294,44.4853081 C41.6454976,45.6473934 42.2312796,47.2758294 42.2331754,49.3706161 C42.2331754,50.8872038 41.9772512,52.1336493 41.4654028,53.1099526 C40.9680735,54.0714608 40.1960049,54.863326 39.2473934,55.3848341 C38.1317425,55.962566 36.8859048,56.2426836 35.6303318,56.1981043 C34.3786745,56.2417907 33.1333577,56.0016711 31.9876777,55.4957346 C31.0035381,55.0078111 30.1890576,54.2349464 29.650237,53.2777251 C29.0530806,52.2635071 28.7545024,50.9971564 28.7545024,49.478673 Z M32.7753555,49.4957346 C32.7753555,50.8094787 33.0189573,51.757346 33.5061611,52.3393365 C34.0261832,52.8862829 34.7468805,53.1973356 35.5015745,53.2005815 C36.2562685,53.2037768 36.9795942,52.8988864 37.5042654,52.3563981 C37.9763033,51.7876777 38.2132701,50.7791469 38.2151659,49.3308057 C38.2151659,48.1080569 37.9677725,47.2132701 37.4729858,46.6464455 C36.9655949,46.0737157 36.2270017,45.7603099 35.4625592,45.7933649 C34.7158426,45.7631935 33.9966517,46.0777085 33.5118483,46.6464455 C33.0170616,47.2208531 32.7696682,48.1706161 32.7696682,49.4957346 L32.7753555,49.4957346 Z" id="Shape" fill="#000000"></path>
                <polygon id="Path" fill="#000000" points="44.3545024 42.963981 49.6407583 42.963981 51.6796209 50.8805687 53.7042654 42.963981 58.9876777 42.963981 58.9876777 55.9734597 55.6947867 55.9734597 55.6947867 46.0521327 53.1582938 55.9734597 50.1781991 55.9734597 47.6473934 46.0521327 47.6473934 55.9734597 44.3545024 55.9734597"></polygon>
                <path d="M4.20853081,62.636019 L2.44549763,62.636019 L2.20094787,63.4663507 L0.614218009,63.4663507 L2.50236967,58.4388626 L4.20853081,58.4388626 L6.09952607,63.4663507 L4.46161137,63.4663507 L4.20853081,62.636019 Z M3.88720379,61.5469194 L3.33270142,59.7412322 L2.78388626,61.5469194 L3.88720379,61.5469194 Z" id="Shape" fill="#000000"></path>
                <polygon id="Path" fill="#000000" points="14.1810427 61.0919431 16.2113744 61.0919431 16.2113744 62.1725118 14.1810427 62.1725118"></polygon>
                <polygon id="Path" fill="#000000" points="24.4890995 58.4388626 29.2123223 58.4388626 29.2123223 59.678673 27.628436 59.678673 27.628436 63.4663507 26.0729858 63.4663507 26.0729858 59.678673 24.4890995 59.678673"></polygon>
                <path d="M31.9848341,61.6549763 C31.970624,61.1371409 32.1774235,60.63772 32.5535545,60.2815166 C33.4902528,59.5273535 34.8365146,59.5671623 35.7270142,60.3753555 C36.0306423,60.7225986 36.1929925,61.1710912 36.1819905,61.6322275 C36.1970168,62.1510433 35.9901505,62.6516599 35.6132701,63.0085308 C35.1914425,63.385514 34.6368117,63.5789185 34.0720379,63.5459716 C33.5603228,63.5691972 33.0568253,63.4110991 32.650237,63.0995261 C32.2147798,62.7485299 31.9685797,62.2140444 31.9848341,61.6549763 L31.9848341,61.6549763 Z M33.3838863,61.6549763 C33.3638096,61.9102907 33.4331768,62.1646372 33.5800948,62.3744076 C33.7021867,62.5217081 33.8835601,62.6069515 34.0748815,62.6069515 C34.2662029,62.6069515 34.4475764,62.5217081 34.5696682,62.3744076 C34.7171009,62.1564946 34.7844307,61.89421 34.7601896,61.6322275 C34.7797984,61.3813928 34.7103212,61.1316777 34.563981,60.9270142 C34.4468245,60.7799999 34.268548,60.6950564 34.0805687,60.6966825 C33.8856237,60.6917128 33.6995113,60.7779344 33.5772512,60.9298578 C33.4291272,61.1400414 33.3605877,61.3960565 33.3838863,61.6521327 L33.3838863,61.6549763 Z" id="Shape" fill="#000000"></path>
                <polygon id="Path" fill="#000000" points="44.5336493 61.0919431 46.563981 61.0919431 46.563981 62.1725118 44.5336493 62.1725118"></polygon>
                <polygon id="Path" fill="#000000" points="55.0663507 58.4388626 59.4625592 58.4388626 59.4625592 59.442654 56.6559242 62.385782 59.5819905 62.385782 59.5819905 63.4663507 54.7962085 63.4663507 54.7962085 62.4227488 57.5886256 59.5109005 55.0663507 59.5109005"></polygon>
            </g>
        </g>
    </g>
</svg>