<?xml version="1.0" encoding="UTF-8"?>
<svg width="54px" height="38px" viewBox="0 0 54 38" version="1.1" xmlns="http://www.w3.org/2000/svg" xmlns:xlink="http://www.w3.org/1999/xlink">
    <title>mortarboard</title>
    <defs>
        <linearGradient x1="50%" y1="100%" x2="50%" y2="0%" id="linearGradient-1">
            <stop stop-color="#22BE5F" offset="0%"></stop>
            <stop stop-color="#9CE051" offset="100%"></stop>
        </linearGradient>
    </defs>
    <g id="Landing_page" stroke="none" stroke-width="1" fill="none" fill-rule="evenodd">
        <g id="01_Home_Page" transform="translate(-398.000000, -1136.000000)" fill="url(#linearGradient-1)" fill-rule="nonzero">
            <g id="mortarboard" transform="translate(398.000000, 1136.000000)">
                <path d="M41.5588105,4.66485947 C41.1450322,4.52511298 40.6960252,4.74743694 40.5560599,5.16286513 C40.4162001,5.57829332 40.6383304,6.02897574 41.0522142,6.16935744 L52.3425717,9.99936399 L47.0280042,12.6000249 C46.8073506,12.4506444 46.5596954,12.3359888 46.2911561,12.2655862 L30.3501961,8.08388431 C29.8434943,5.46734308 26.6338909,4.36916861 24.6624582,6.23129054 C23.9801406,6.87581828 23.5888285,7.78469978 23.5888285,8.72491838 L23.5888285,8.74228082 C23.5944186,9.84934825 24.5073045,10.749972 25.6239681,10.749972 L28.376232,10.749972 C29.0869224,10.749972 29.7977182,10.3777382 30.1663532,9.67699425 L45.0323123,13.5767682 C40.3350899,15.8753861 29.7903349,21.0355252 28.4461619,21.6933923 C27.497309,22.1576259 26.4401334,22.1271358 25.5538272,21.6933923 L1.65731193,9.99936399 L25.9433463,1.76088513 C26.6246091,1.52966822 27.3752745,1.52966822 28.0565373,1.76088513 L37.538421,4.9774893 C37.9524102,5.11776513 38.4012062,4.89512357 38.5411715,4.47948364 C38.6810313,4.06405545 38.458901,3.61337303 38.0450172,3.47299133 L28.5631336,0.256387162 C27.5550038,-0.0854623873 26.4448798,-0.0854623873 25.43675,0.256387162 L1.04186546,8.53170827 C-0.254210999,8.97169797 -0.371182743,10.7734748 0.860659462,11.3761845 L13.3803278,17.5027975 C12.6915762,20.7894866 11.6399907,24.3279312 10.4970639,27.4686276 C10.0291769,28.7530249 10.4323023,30.1818268 11.4999199,31.024117 C15.1129651,33.874416 19.3819592,36.0762701 23.7573775,37.4916268 C25.8135066,38.1565871 28.1062161,38.1822073 30.2420843,37.4916268 C34.6188737,36.0756349 38.8882897,33.8729338 42.4994363,31.024117 C43.5709565,30.1785449 43.9685972,28.7491077 43.5022923,27.4686276 C42.3835193,24.3975927 41.3175892,20.8360688 40.619134,17.5031151 L46.5082236,14.6212673 L46.5082236,26.5717093 C45.5016759,26.6490992 44.7057618,27.4940361 44.7057618,28.5238195 L44.7057618,30.8376825 C44.7057618,31.1814377 44.8544815,31.4902562 45.0896907,31.7053811 L44.7958374,36.1647762 C44.738459,37.0359685 45.4285818,37.7764132 46.2987503,37.7764132 L48.3000324,37.7764132 C49.169779,37.7764132 49.8602182,37.0362861 49.8028398,36.1647762 L49.509092,31.7053811 C49.7443012,31.4902562 49.8930209,31.1815436 49.8930209,30.8376825 L49.8930209,28.5237136 C49.8930209,27.4939302 49.0970013,26.6489933 48.0904536,26.5716034 L48.0904536,14.6040107 C48.0904536,14.3599837 48.0521662,14.1235792 47.9838184,13.8991379 L53.1392242,11.3762904 C54.3694842,10.7742159 54.2562041,8.97233318 52.9580181,8.53170827 L41.5588105,4.66485947 Z M28.376232,9.16194375 L25.6239681,9.16194375 C25.3795825,9.16194375 25.1721133,8.96608694 25.170953,8.73825782 L25.170953,8.72491838 C25.170953,8.21336154 25.3753635,7.73854109 25.7467409,7.38769272 C26.8859761,6.3115389 28.7528831,7.08617909 28.8268211,8.63397729 C28.8444354,9.00462309 28.6066948,9.16194375 28.376232,9.16194375 L28.376232,9.16194375 Z M41.1257302,25.427482 C36.8516734,28.7849972 30.7862296,31.186837 28.6969814,31.5865966 C28.2678037,31.6687506 27.986291,32.0846023 28.0681396,32.5152756 C28.1499882,32.9461606 28.5654541,33.2287237 28.9933661,33.1464639 C31.178702,32.7281772 37.1661998,30.3926111 41.6610157,27.0163572 C41.7715535,27.3327983 41.8996001,27.693069 42.0163609,28.0137448 C42.2484059,28.6510735 42.0495855,29.3589106 41.5217888,29.7755033 C37.2616546,33.1360887 32.7725343,35.0044569 29.7567939,35.9798239 C27.9554923,36.5626302 25.9990371,36.5482321 24.2426678,35.9798239 C21.2269274,35.004351 16.7378071,33.1360887 12.4776729,29.7755033 C11.9499817,29.3591223 11.7508449,28.6513911 11.9832063,28.0136389 C11.9878472,28.0009347 11.9923826,27.9880187 11.9970235,27.9753145 C12.1119912,27.659191 12.239405,27.3004025 12.338446,27.0161454 C16.7270486,30.3116217 22.6981978,32.704992 25.0053573,33.1467815 C25.4350624,33.2287237 25.8488407,32.9463723 25.9306893,32.515699 C26.0125378,32.0849199 25.7310251,31.6690682 25.301953,31.5869142 C23.329571,31.2094929 17.2433486,28.85847 12.8737315,25.4273761 C13.5161795,23.4553626 14.2606219,20.9210813 14.845797,18.2199511 L24.8604347,23.1206063 C26.1938493,23.77318 27.7540351,23.7986943 29.1395544,23.1206063 L39.1535592,18.2201628 C39.7387344,20.9211871 40.4831767,23.4554685 41.1257302,25.427482 L41.1257302,25.427482 Z M46.3797551,36.188279 L46.6549393,32.0129293 L47.9436325,32.0129293 L48.2187112,36.188279 L46.3797551,36.188279 Z M48.3107909,28.5236077 L48.3107909,30.4247952 L46.2878864,30.4247952 L46.2878864,28.5236077 C46.2878864,28.3221399 46.4573846,28.1519032 46.658209,28.1519032 L47.9403628,28.1519032 C48.1410816,28.1520091 48.3107909,28.3221399 48.3107909,28.5236077 L48.3107909,28.5236077 Z" id="Shape"></path>
            </g>
        </g>
    </g>
</svg>