<svg id="Capa_1" data-name="Capa 1" xmlns="http://www.w3.org/2000/svg" viewBox="0 0 477.87 477.87"><title>private</title><path d="M474.61,228.9a453.36,453.36,0,0,0-103.22-98.29l67.35-67.34A17.07,17.07,0,1,0,415,38.72l-.42.42L341,112.64a220.76,220.76,0,0,0-102.09-27.3C109.23,85.34,7.53,223,3.26,228.9a17.06,17.06,0,0,0,0,20.07,453.14,453.14,0,0,0,103.22,98.29L39.14,414.6a17.07,17.07,0,0,0,23.71,24.55l.42-.42,73.57-73.5a220.78,220.78,0,0,0,102.09,27.31c129.71,0,231.41-137.7,235.68-143.57A17.06,17.06,0,0,0,474.61,228.9ZM131.3,322.49a425.06,425.06,0,0,1-92.49-83.55c25.12-30.43,106.6-119.47,200.13-119.47a180.72,180.72,0,0,1,76.61,18.77l-29.63,29.63A85.2,85.2,0,0,0,167.82,286ZM285,217a50.35,50.35,0,0,1,5.12,21.93,51.21,51.21,0,0,1-51.2,51.2A50.39,50.39,0,0,1,217,285Zm-92.16,43.86a50.25,50.25,0,0,1-5.12-21.94,51.19,51.19,0,0,1,51.2-51.19,50.23,50.23,0,0,1,21.93,5.11Zm46.08,97.53a180.8,180.8,0,0,1-76.62-18.77L192,310a85.2,85.2,0,0,0,118.1-118.1l36.53-36.52a425,425,0,0,1,92.48,83.55C413.94,269.37,332.46,358.4,238.94,358.4Z"/></svg>