<?xml version="1.0" encoding="UTF-8"?>
<svg width="16px" height="19px" viewBox="0 0 16 19" version="1.1" xmlns="http://www.w3.org/2000/svg" xmlns:xlink="http://www.w3.org/1999/xlink">
    <title>location</title>
    <g id="Landing_page" stroke="none" stroke-width="1" fill="none" fill-rule="evenodd">
        <g id="01_Home_Page" transform="translate(-1331.000000, -30.000000)" fill="#000000" fill-rule="nonzero">
            <g id="location" transform="translate(1331.000000, 30.000000)">
                <path d="M13.6451244,2.33828571 C12.1372903,0.830414747 10.1324608,0 8.00003687,0 C5.8676129,0 3.86274654,0.830414747 2.35491244,2.33828571 C0.847041475,3.84619355 0.0166267281,5.85098618 0.0166267281,7.98337327 C0.0166267281,12.2971797 4.095447,15.8851982 6.28674654,17.8127926 C6.59126267,18.0806636 6.85423041,18.312 7.06374194,18.5076866 C7.32623041,18.7528848 7.66315207,18.8755023 8,18.8755023 C8.33692166,18.8755023 8.67376959,18.7528848 8.93629493,18.5076866 C9.14580645,18.3119631 9.40877419,18.0806636 9.71329032,17.8127926 C11.9045899,15.8851613 15.9834101,12.2971797 15.9834101,7.98337327 C15.9834101,5.85098618 15.1529954,3.84619355 13.6451244,2.33828571 Z M8.98296774,16.9826359 C8.6717788,17.2563687 8.40305991,17.4927926 8.18149309,17.6997235 C8.07970507,17.7947281 7.92029493,17.794765 7.81847005,17.6997235 C7.59694009,17.4927189 7.32818433,17.2563318 7.01699539,16.9825991 C4.95690323,15.1704332 1.12224885,11.7971982 1.12224885,7.98341014 C1.12224885,4.19104147 4.2075576,1.10573272 7.99996313,1.10573272 C11.7923318,1.10573272 14.8776406,4.19104147 14.8776406,7.98341014 C14.8776406,11.7971982 11.0430599,15.1704332 8.98296774,16.9826359 Z" id="Shape"></path>
                <path d="M8.00003687,4.1636129 C6.06009217,4.1636129 4.48184332,5.74182488 4.48184332,7.68176959 C4.48184332,9.62171429 6.06009217,11.1999263 8.00003687,11.1999263 C9.93998157,11.1999263 11.5181935,9.62171429 11.5181935,7.68176959 C11.5181935,5.74182488 9.93998157,4.1636129 8.00003687,4.1636129 Z M8.00003687,10.0941935 C6.66978802,10.0941935 5.58753917,9.0119447 5.58753917,7.68173272 C5.58753917,6.35152074 6.66978802,5.26927189 8.00003687,5.26927189 C9.33028571,5.26927189 10.4124977,6.35152074 10.4124977,7.68173272 C10.4124977,9.0119447 9.33028571,10.0941935 8.00003687,10.0941935 Z" id="Shape"></path>
            </g>
        </g>
    </g>
</svg>