<svg xmlns="http://www.w3.org/2000/svg" width="448.002" height="448" viewBox="0 0 448.002 448">
  <g id="insurance-policy" transform="translate(-32 -32)">
    <path id="Path_26" data-name="Path 26" d="M72,480H376V64H72Zm280-32H280a8,8,0,0,1-7.589-5.47L268.5,430.81l-14.847,14.847A8,8,0,0,1,248,448a7.916,7.916,0,0,1-1.281-.1,8,8,0,0,1-5.874-4.318l-3.948-7.895L220.438,446.66A7.993,7.993,0,0,1,216,448H192a8,8,0,0,1,0-16h21.578l21.984-14.656a8,8,0,0,1,11.593,3.078l3.036,6.073,16.152-16.152a8,8,0,0,1,13.246,3.127L285.766,432H352a8,8,0,0,1,0,16ZM216,120H328a8,8,0,0,1,0,16H216a8,8,0,0,1,0-16Zm0,32H328a8,8,0,0,1,0,16H216a8,8,0,0,1,0-16ZM96,111.957a8,8,0,0,1,3.884-6.817l40-24a8,8,0,0,1,8.232,0l40,24A8,8,0,0,1,192,112c0,51.391-42.032,77.726-43.821,78.822a8,8,0,0,1-8.275.05C96.217,164.829,95.988,114.1,96,111.957ZM96,216H352a8,8,0,0,1,0,16H96a8,8,0,0,1,0-16Zm0,32H352a8,8,0,0,1,0,16H96a8,8,0,0,1,0-16Zm0,32H352a8,8,0,0,1,0,16H96a8,8,0,0,1,0-16Zm0,32H352a8,8,0,0,1,0,16H96a8,8,0,0,1,0-16Zm0,32H352a8,8,0,0,1,0,16H96a8,8,0,0,1,0-16Zm0,32H352a8,8,0,0,1,0,16H96a8,8,0,0,1,0-16Z" fill="#fff"/>
    <path id="Path_27" data-name="Path 27" d="M143.818,174.36c9.033-6.908,30.2-26.343,32.052-57.908L144,97.33l-31.729,19.037C113.329,127.336,118.508,156.617,143.818,174.36Z" fill="#fff"/>
    <path id="Path_28" data-name="Path 28" d="M56,56a8,8,0,0,1,8-8H336V32H32V448H56Z" fill="#fff"/>
    <path id="Path_29" data-name="Path 29" d="M408,192h32V416H408Z" fill="#fff"/>
    <path id="Path_30" data-name="Path 30" d="M408,144h32v32H408Z" fill="#fff"/>
    <path id="Path_31" data-name="Path 31" d="M408,144h32a32.036,32.036,0,0,1,32,32v66.335a16.086,16.086,0,0,0,1.689,7.155l5.466,10.932a8,8,0,1,1-14.31,7.156l-5.467-10.933A32.166,32.166,0,0,1,456,242.333V176a16.019,16.019,0,0,0-16-16H408Z" fill="#fff"/>
    <path id="Path_32" data-name="Path 32" d="M424,160a8,8,0,0,1-8-8V136a8,8,0,0,1,16,0v16A8,8,0,0,1,424,160Z" fill="#fff"/>
    <path id="Path_33" data-name="Path 33" d="M440,432H408l16,48Z" fill="#fff"/>
  </g>
</svg>
