<svg id="Solid" height="512" viewBox="0 0 512 512" width="512" xmlns="http://www.w3.org/2000/svg"><path d="m72 480h304v-416h-304zm280-32h-72a8 8 0 0 1 -7.589-5.47l-3.911-11.72-14.847 14.847a8 8 0 0 1 -5.653 2.343 7.914 7.914 0 0 1 -1.281-.1 8 8 0 0 1 -5.874-4.318l-3.948-7.895-16.459 10.973a7.993 7.993 0 0 1 -4.438 1.34h-24a8 8 0 0 1 0-16h21.578l21.984-14.656a8 8 0 0 1 11.593 3.078l3.036 6.073 16.152-16.152a8 8 0 0 1 13.246 3.127l6.177 18.53h66.234a8 8 0 0 1 0 16zm-136-328h112a8 8 0 0 1 0 16h-112a8 8 0 0 1 0-16zm0 32h112a8 8 0 0 1 0 16h-112a8 8 0 0 1 0-16zm-120-40.043a8 8 0 0 1 3.884-6.817l40-24a8 8 0 0 1 8.232 0l40 24a8 8 0 0 1 3.884 6.86c0 51.391-42.032 77.726-43.821 78.822a8 8 0 0 1 -8.275.05c-43.687-26.043-43.916-76.772-43.904-78.915zm0 104.043h256a8 8 0 0 1 0 16h-256a8 8 0 0 1 0-16zm0 32h256a8 8 0 0 1 0 16h-256a8 8 0 0 1 0-16zm0 32h256a8 8 0 0 1 0 16h-256a8 8 0 0 1 0-16zm0 32h256a8 8 0 0 1 0 16h-256a8 8 0 0 1 0-16zm0 32h256a8 8 0 0 1 0 16h-256a8 8 0 0 1 0-16zm0 32h256a8 8 0 0 1 0 16h-256a8 8 0 0 1 0-16z"/><path d="m143.818 174.36c9.033-6.908 30.2-26.343 32.052-57.908l-31.87-19.122-31.729 19.037c1.058 10.969 6.237 40.25 31.547 57.993z"/><path d="m56 56a8 8 0 0 1 8-8h272v-16h-304v416h24z"/><path d="m408 192h32v224h-32z"/><path d="m408 143.998h32v32h-32z"/><path d="m408 144h32a32.036 32.036 0 0 1 32 32v66.335a16.086 16.086 0 0 0 1.689 7.155l5.466 10.932a8 8 0 1 1 -14.31 7.156l-5.467-10.933a32.166 32.166 0 0 1 -3.378-14.312v-66.333a16.019 16.019 0 0 0 -16-16h-32z"/><path d="m424 160a8 8 0 0 1 -8-8v-16a8 8 0 0 1 16 0v16a8 8 0 0 1 -8 8z"/><path d="m440 432h-32l16 48z"/></svg>