<?xml version="1.0" encoding="UTF-8"?>
<svg width="26px" height="23px" viewBox="0 0 26 23" version="1.1" xmlns="http://www.w3.org/2000/svg" xmlns:xlink="http://www.w3.org/1999/xlink">
    <title>arrow(1)</title>
    <g id="Symbols" stroke="none" stroke-width="1" fill="none" fill-rule="evenodd">
        <g id="Back-arrow" fill="#FF9595" fill-rule="nonzero">
            <g id="arrow(1)">
                <path d="M24.3959509,9.35704018 C24.2897455,9.33980357 24.1822634,9.33185268 24.0747232,9.33324554 L5.76323661,9.33324554 L6.16252232,9.14753125 C6.5528125,8.96280357 6.907875,8.71139286 7.21180804,8.40467411 L12.346808,3.26967411 C13.0230982,2.62408482 13.1367321,1.58553571 12.6160937,0.808959821 C12.0101429,-0.0185714286 10.8480937,-0.19825 10.0205045,0.407700893 C9.95364732,0.456683036 9.89009821,0.510075893 9.83037946,0.56753125 L0.544665179,9.85324554 C-0.181013393,10.5781116 -0.181651786,11.7539732 0.543214286,12.4796518 C0.543678571,12.4801161 0.544200893,12.4806384 0.544665179,12.4811027 L9.83037946,21.766817 C10.5566384,22.4910446 11.7325,22.4894196 12.4567857,21.7631607 C12.5137768,21.7059955 12.5669955,21.6451741 12.6160937,21.5811027 C13.1367321,20.8045268 13.0230982,19.7659777 12.346808,19.1203884 L7.22109375,13.9761027 C6.94861607,13.7033348 6.63533929,13.4746161 6.29252232,13.2982455 L5.73537946,13.0475312 L23.9725223,13.0475312 C24.9212321,13.0827589 25.7535804,12.4200491 25.931808,11.4875312 C26.0959911,10.4750982 25.4083839,9.52128125 24.3959509,9.35704018 Z" id="Path"></path>
            </g>
        </g>
    </g>
</svg>