<?xml version="1.0" encoding="UTF-8"?>
<svg width="26px" height="27px" viewBox="0 0 26 27" version="1.1" xmlns="http://www.w3.org/2000/svg" xmlns:xlink="http://www.w3.org/1999/xlink">
    <title>logout(2)</title>
    <g id="Symbols" stroke="none" stroke-width="1" fill="none" fill-rule="evenodd">
        <g id="logout" fill="#FFFFFF" fill-rule="nonzero">
            <g id="logout(2)">
                <path d="M13.0184068,0 C19.804471,0 25.3700527,5.19657848 25.9686001,11.8265092 L15.3837953,11.8265092 L15.3837953,8.27853477 C15.3837953,7.80082291 15.0951326,7.36923643 14.6540179,7.18581758 C14.2118204,7.00261526 13.7031417,7.1041778 13.3651053,7.4424307 L8.63432836,12.1732077 C8.17199159,12.6355444 8.17199159,13.3828625 8.63432836,13.8454158 L13.3651053,18.5759761 C13.7031417,18.9142291 14.2118204,19.0160081 14.6540179,18.8325893 C15.0951326,18.649387 15.3837953,18.217584 15.3837953,17.7398721 L15.3837953,14.1918977 L25.9686001,14.1918977 C25.3700527,20.8218284 19.804471,26.0184068 13.0184068,26.0184068 C5.83388859,26.0184068 0.00931171429,20.19383 0.00931171429,13.0093117 C0.00931171429,5.82457688 5.83388859,0 13.0184068,0 Z" id="Path"></path>
            </g>
        </g>
    </g>
</svg>