<?xml version="1.0" encoding="UTF-8"?>
<svg width="55px" height="55px" viewBox="0 0 55 55" version="1.1" xmlns="http://www.w3.org/2000/svg" xmlns:xlink="http://www.w3.org/1999/xlink">
    <title>manual@2x</title>
    <defs>
        <linearGradient x1="50%" y1="100%" x2="50%" y2="0%" id="linearGradient-1">
            <stop stop-color="#FFE59A" offset="0%"></stop>
            <stop stop-color="#FFFFD5" offset="100%"></stop>
        </linearGradient>
        <linearGradient x1="50%" y1="100%" x2="50%" y2="1.0644835e-14%" id="linearGradient-2">
            <stop stop-color="#FFDE00" offset="0%"></stop>
            <stop stop-color="#FD5900" offset="100%"></stop>
        </linearGradient>
    </defs>
    <g id="Symbols" stroke="none" stroke-width="1" fill="none" fill-rule="evenodd">
        <g id="Question" fill-rule="nonzero">
            <g id="manual">
                <circle id="Oval" fill="url(#linearGradient-1)" cx="27.5" cy="27.5" r="27.5"></circle>
                <path d="M31.3165918,38.0166016 C30.1989746,38.0166016 28.9446094,40.0655664 28.5730371,41.8408203 L42.7664746,41.8408203 C43.293916,41.8408203 43.7205957,41.4131738 43.7205957,40.8847656 L43.7205957,38.0166016 L42.7664746,38.0166016 L31.3165918,38.0166016 Z M42.766582,13.1591797 L31.3165918,13.1591797 C30.238291,13.1591797 29.2544141,13.5377344 28.4541211,14.1450977 L28.4541211,33.2363281 C28.4541211,33.7647363 28.027334,34.1923828 27.5,34.1923828 C26.972666,34.1923828 26.5458789,33.7647363 26.5458789,33.2363281 L26.5458789,14.1450977 C25.7455859,13.5377344 24.761709,13.1591797 23.6834082,13.1591797 L12.233418,13.1591797 C11.7059766,13.1591797 11.2792969,13.5868262 11.2792969,14.1152344 L11.2792969,36.1044922 L23.6834082,36.1044922 C25.3635937,36.1044922 26.6759668,37.5745605 27.5,39.2530273 C28.3240332,37.5745605 29.6365137,36.1044922 31.3165918,36.1044922 L43.7207031,36.1044922 L43.7207031,14.1152344 C43.7207031,13.5868262 43.293916,13.1591797 42.766582,13.1591797 Z M19.866709,16.9833984 C21.445166,16.9833984 22.7291797,18.2699902 22.7291797,19.8515625 C22.7291797,20.8720703 22.1813281,21.8243652 21.2978906,22.3350488 C21.0034473,22.505957 20.8208301,22.824248 20.8208301,23.1641309 L20.8208301,23.6757812 C20.8208301,24.2041895 20.394043,24.6318359 19.866709,24.6318359 C19.3392676,24.6318359 18.9125879,24.2041895 18.9125879,23.6757812 L18.9125879,23.1641309 C18.9125879,22.143623 19.4604395,21.1922949 20.3419434,20.6806445 C20.6382129,20.5097363 20.8208301,20.1923047 20.8208301,19.8515625 C20.8208301,19.3240137 20.3922168,18.8955078 19.866709,18.8955078 C19.3412012,18.8955078 18.9125879,19.3240137 18.9125879,19.8515625 C18.9125879,20.3799707 18.4858008,20.8076172 17.9584668,20.8076172 C17.4310254,20.8076172 17.0043457,20.3799707 17.0043457,19.8515625 C17.0042383,18.2699902 18.288252,16.9833984 19.866709,16.9833984 L19.866709,16.9833984 Z M20.8208301,27.5 C20.8208301,28.0279785 20.3936133,28.4560547 19.866709,28.4560547 C19.3398047,28.4560547 18.9125879,28.0279785 18.9125879,27.5 C18.9125879,26.9719141 19.3398047,26.5439453 19.866709,26.5439453 C20.3936133,26.5439453 20.8208301,26.9719141 20.8208301,27.5 Z M22.7291797,32.2802734 L17.0042383,32.2802734 C16.4767969,32.2802734 16.0501172,31.852627 16.0501172,31.3242188 C16.0501172,30.7958105 16.4769043,30.3681641 17.0042383,30.3681641 L22.7291797,30.3681641 C23.2566211,30.3681641 23.6833008,30.7958105 23.6833008,31.3242188 C23.6834082,31.852627 23.2566211,32.2802734 22.7291797,32.2802734 Z M37.9957617,32.2802734 L32.2708203,32.2802734 C31.7433789,32.2802734 31.3166992,31.852627 31.3166992,31.3242188 C31.3166992,30.7958105 31.7434863,30.3681641 32.2708203,30.3681641 L37.9957617,30.3681641 C38.5232031,30.3681641 38.9498828,30.7958105 38.9498828,31.3242188 C38.9498828,31.852627 38.5230957,32.2802734 37.9957617,32.2802734 Z M37.9957617,28.4560547 L32.2708203,28.4560547 C31.7433789,28.4560547 31.3166992,28.0284082 31.3166992,27.5 C31.3166992,26.9715918 31.7434863,26.5439453 32.2708203,26.5439453 L37.9957617,26.5439453 C38.5232031,26.5439453 38.9498828,26.9715918 38.9498828,27.5 C38.9498828,28.0284082 38.5230957,28.4560547 37.9957617,28.4560547 Z M37.9957617,24.6318359 L32.2708203,24.6318359 C31.7433789,24.6318359 31.3166992,24.2041895 31.3166992,23.6757813 C31.3166992,23.147373 31.7434863,22.7197266 32.2708203,22.7197266 L37.9957617,22.7197266 C38.5232031,22.7197266 38.9498828,23.147373 38.9498828,23.6757813 C38.9498828,24.2041895 38.5230957,24.6318359 37.9957617,24.6318359 Z M37.9957617,20.8076172 L32.2708203,20.8076172 C31.7433789,20.8076172 31.3166992,20.3799707 31.3166992,19.8515625 C31.3166992,19.3231543 31.7434863,18.8955078 32.2708203,18.8955078 L37.9957617,18.8955078 C38.5232031,18.8955078 38.9498828,19.3231543 38.9498828,19.8515625 C38.9498828,20.3799707 38.5230957,20.8076172 37.9957617,20.8076172 Z M23.6834082,38.0166016 L11.2792969,38.0166016 L11.2792969,40.8847656 C11.2792969,41.4131738 11.706084,41.8408203 12.233418,41.8408203 L26.4268555,41.8408203 C26.0553906,40.0655664 24.800918,38.0166016 23.6834082,38.0166016 L23.6834082,38.0166016 Z" id="Shape" fill="url(#linearGradient-2)"></path>
            </g>
        </g>
    </g>
</svg>