<?xml version="1.0" encoding="UTF-8"?>
<svg width="20px" height="26px" viewBox="0 0 20 26" version="1.1" xmlns="http://www.w3.org/2000/svg" xmlns:xlink="http://www.w3.org/1999/xlink">
    <title>shopping-support-online copy@2x</title>
    <g id="Symbols" stroke="none" stroke-width="1" fill="none" fill-rule="evenodd">
        <g id="coures-icons" transform="translate(-354.000000, 0.000000)" fill="#E7A4DC" fill-rule="nonzero">
            <g id="shopping-support-online-copy" transform="translate(354.000000, 0.000000)">
                <path d="M3.96484848,17.7818182 L4.62424242,17.1224242 L9.44848485,17.1224242 L6.37030303,11.5606061 L4.09393939,12.0236364 C3.4969697,12.1448485 3.02060606,12.5945455 2.86484848,13.1836364 L0.162424242,22.0030303 C0.0351515152,22.4830303 0.138787879,22.9951515 0.441818182,23.3878788 C0.744848485,23.7818182 1.21333333,24.0121212 1.71030303,24.0121212 L3.96545455,24.0121212 L3.96484848,17.7818182 L3.96484848,17.7818182 Z" id="Path"></path>
                <path d="M19.5818182,22.0030303 L16.8793939,13.1836364 C16.7212121,12.5872727 16.2357576,12.1345455 15.629697,12.0193939 L13.3618182,11.590303 L10.2963636,17.1218182 L15.4842424,17.1218182 L16.1436364,17.7812121 L16.1436364,24.0109091 L18.0351515,24.0109091 C18.5315152,24.0109091 19.0006061,23.7806061 19.3036364,23.3866667 C19.6060606,22.9927273 19.7078788,22.4830303 19.5818182,22.0030303 Z" id="Path"></path>
                <polygon id="Path" points="5.28424242 24.0121212 5.10121212 24.0121212 5.10121212 24.0145455 14.6418182 24.0139394 14.6418182 24.0121212 14.8242424 24.0121212 14.8242424 18.4424242 5.28424242 18.4424242"></polygon>
                <rect id="Rectangle" x="2.64969697" y="24.6109091" width="14.4442424" height="1.19272727"></rect>
                <path d="M4.72969697,7.66909091 C4.75515152,7.72121212 4.78848485,7.80121212 4.82363636,7.88484848 C4.96363636,8.22181818 5.07757576,8.47333333 5.23575758,8.62121212 C5.96848485,11.0121212 7.85939394,12.6672727 9.86848485,12.6612287 C11.8690909,12.6545455 13.7369697,10.9848485 14.4424242,8.58727273 C14.5975758,8.43818182 14.7078788,8.18787879 14.8442424,7.85333333 C14.8787879,7.76787879 14.910303,7.68727273 14.9351515,7.63515152 C15.2060606,7.07515152 15.1127273,6.46848485 14.7339394,6.17333333 C14.7339394,6.15515152 14.7339394,6.13636364 14.7339394,6.11818182 C14.7248485,3.15030303 14.3375758,-0.0151515152 9.82484848,-5.41789121e-05 C5.27878788,0.0145454545 4.90909091,3.04666667 4.91878788,6.15030303 C4.91878788,6.16909091 4.91939394,6.18727273 4.91939394,6.20545455 C4.54363636,6.50484848 4.45515152,7.11212121 4.72969697,7.66909091 Z M5.36424242,6.71333333 L5.37757576,6.70787879 C5.45212121,6.68060606 5.51151515,6.62787879 5.54969697,6.56242424 L6.3369697,6.68424242 C6.41272727,6.69515152 6.48606061,6.65454545 6.51636364,6.58484848 L7.01393939,5.43575758 C7.5769697,5.57090909 9.70909091,6.05272727 11.38,6.04666667 C11.8975758,6.04545455 12.3272727,5.99515152 12.66,5.89757576 L12.9757576,6.65939394 C13.0018182,6.72363636 13.0642424,6.76363636 13.130303,6.7630303 C13.1442424,6.7630303 13.1606061,6.76060606 13.1751515,6.7569697 L14.0921212,6.49939394 C14.1284848,6.58 14.1957576,6.64606061 14.2818182,6.67818182 L14.2945455,6.68242424 C14.4309091,6.75030303 14.4757576,7.04787879 14.3321212,7.34363636 C14.2975758,7.41515152 14.2618182,7.50545455 14.2218182,7.60121212 C14.1660606,7.74 14.0515152,8.02242424 13.9818182,8.09818182 C13.9060606,8.14181818 13.8484848,8.21393939 13.8254545,8.29939394 C13.2260606,10.4678788 11.5951515,11.9860606 9.86242424,11.992136 C8.12060606,11.9975758 6.46727273,10.490303 5.84242424,8.32666667 C5.81757576,8.24121212 5.76121212,8.17030303 5.68424242,8.12727273 C5.61393939,8.05151515 5.49515152,7.76727273 5.43757576,7.62787879 C5.39878788,7.53393939 5.36121212,7.44424242 5.32606061,7.37393939 C5.18484848,7.07939394 5.22727273,6.78181818 5.36424242,6.71333333 Z" id="Shape"></path>
            </g>
        </g>
    </g>
</svg>