<?xml version="1.0" encoding="UTF-8"?>
<svg width="30px" height="30px" viewBox="0 0 30 30" version="1.1" xmlns="http://www.w3.org/2000/svg" xmlns:xlink="http://www.w3.org/1999/xlink">
    <title>Group 19</title>
    <g id="Symbols" stroke="none" stroke-width="1" fill="none" fill-rule="evenodd">
        <g id="Group-19">
            <circle id="Oval-Copy-13" fill="#4BBAFF" cx="15" cy="15" r="15"></circle>
            <g id="online-class" transform="translate(6.000000, 6.000000)" fill="#FFFFFF" fill-rule="nonzero">
                <path d="M5.56103517,15.9182942 C4.83756508,16.1186523 4.33577475,16.7760417 4.33333333,17.5266927 L4.33333333,18.6666667 L5.33333333,18.6666667 L5.33333333,17.3333333 L6,17.3333333 L6,18.6666667 L11.3333333,18.6666667 L11.3333333,17.3333333 L12,17.3333333 L12,18.6666667 L13,18.6666667 L13,17.5266927 C12.9972331,16.7757162 12.4951172,16.1181641 11.7713216,15.9179687 L10.2000325,15.4907227 L8.88004558,16.5906575 C8.75634767,16.6936849 8.57698567,16.6936849 8.45328775,16.5906575 L7.13330079,15.4907227 L5.56103517,15.9182942 Z" id="Path"></path>
                <path d="M8.66666667,14.6666667 C8.44075521,14.6660156 8.21614583,14.6323242 8,14.5667318 L8,15 C7.99886067,15.0955404 7.95654296,15.1858724 7.88362629,15.2477213 L8.66666667,15.9000651 L9.44970704,15.2480469 C9.37679038,15.1861979 9.33430992,15.0957031 9.33333333,15 L9.33333333,14.5667318 C9.1171875,14.6321615 8.89257812,14.6658529 8.66666667,14.6666667 Z" id="Path"></path>
                <path d="M13.4064128,4.79166667 C13.4695638,4.71256508 13.5654297,4.66666667 13.6666667,4.66666667 L17.6666667,4.66666667 C17.8507487,4.66666667 18,4.51741537 18,4.33333333 L18,0.333333333 C18,0.149251292 17.8507487,0 17.6666667,0 L11,0 C10.815918,0 10.6666667,0.149251292 10.6666667,0.333333333 L10.6666667,4.33333333 C10.6666667,4.51741537 10.815918,4.66666667 11,4.66666667 L12.3333333,4.66666667 C12.5174154,4.66666667 12.6666667,4.81591796 12.6666667,5 L12.6666667,5.71630858 L13.4064128,4.79166667 Z M12,0.666666667 L16.6666667,0.666666667 L16.6666667,1.33333333 L12,1.33333333 L12,0.666666667 Z M12,2 L16.6666667,2 L16.6666667,2.66666667 L12,2.66666667 L12,2 Z M12,4 L12,3.33333333 L16.6666667,3.33333333 L16.6666667,4 L12,4 Z" id="Shape"></path>
                <polygon id="Path" points="12.0712891 8.33333333 8.66666667 7.02360025 5.26204425 8.33333333 8.66666667 9.64306642"></polygon>
                <path d="M7.83072917,13.7729492 C8.34586587,14.0717773 8.98144533,14.0729167 9.49772133,13.7758789 C10.0139974,13.4788412 10.3325195,12.9288737 10.3333333,12.3333333 L10.3333333,11.9755859 C9.80126954,12.1857096 9.2381185,12.3066406 8.66666667,12.3333333 C8.09521483,12.3066406 7.53206379,12.1857096 6.99998113,11.9755859 L6.99998113,12.3333333 C6.99788412,12.7752279 7.17382812,13.1993815 7.48795575,13.5099284 C7.589681,13.6129558 7.70491537,13.7014974 7.83072917,13.7729492 L7.83072917,13.7729492 Z" id="Path"></path>
                <path d="M10.6666667,11.1212565 L10.6666667,9.58805337 L8.78629558,10.3113607 C8.70930992,10.3406575 8.62402342,10.3406575 8.54703775,10.3113607 L6.66666667,9.58805337 L6.66666667,11.1212565 C7.29459633,11.4231771 7.97233075,11.6079102 8.66666667,11.6666667 C9.36100258,11.6082357 10.038737,11.4233398 10.6666667,11.1212565 L10.6666667,11.1212565 Z" id="Path"></path>
                <path d="M13.8266602,5.33333333 L12.5932617,6.875 C12.5301107,6.95393879 12.4344075,7 12.3333333,7 C12.2957357,6.99983725 12.2584635,6.99348958 12.2229818,6.98128254 C12.0893555,6.93440754 12,6.80826825 12,6.66666667 L12,5.33333333 L11,5.33333333 C10.4477539,5.33333333 10,4.88557942 10,4.33333333 L10,2.66666667 L0.333333333,2.66666667 C0.149251292,2.66666667 2.36847579e-15,2.81591796 2.36847579e-15,3 L2.36847579e-15,4.66666667 L9.33333333,4.66666667 L9.33333333,5.33333333 L2.36847579e-15,5.33333333 L2.36847579e-15,18.3333333 C2.36847579e-15,18.5174154 0.149251292,18.6666667 0.333333333,18.6666667 L3.66666667,18.6666667 L3.66666667,17.5266927 C3.66975913,16.4759115 4.37207033,15.5556641 5.38460288,15.2753906 L7.33333333,14.74528 L7.33333333,14.2416992 C6.70247396,13.8121745 6.32747396,13.0963542 6.33333333,12.3333333 L6.33333333,11.7023112 C6.24837242,11.6634115 6.19466146,11.6357422 6.18440754,11.6316732 C6.07128908,11.5751953 6,11.4596354 6,11.3333333 L6,9.33333333 L4.66666667,8.8203125 L4.66666667,9.86360675 L5.56901042,10.7659505 L5.09765625,11.2373047 L4.66666667,10.8046875 L4.66666667,11.3333333 L4,11.3333333 L4,10.8046875 L3.56901042,11.2356771 L3.09765625,10.7643229 L4,9.86197917 L4,8.33333333 C3.99983725,8.1953125 4.08479817,8.07161458 4.21370442,8.02197267 L8.54703775,6.355306 C8.62402342,6.32600913 8.70930992,6.32600913 8.78629558,6.355306 L13.1196289,8.02197267 C13.2486979,8.07128908 13.3339844,8.19514975 13.3339844,8.33333333 C13.3339844,8.47151692 13.2486979,8.59537758 13.1196289,8.644694 L11.3333333,9.33333333 L11.3333333,11.3333333 C11.3339844,11.4602865 11.2625325,11.5766602 11.1489258,11.6333008 C11.1386719,11.6383463 11.0849609,11.6650391 11,11.7039388 L11,12.3333333 C10.9975586,13.0940755 10.624349,13.8059896 10,14.2407227 L10,14.74528 L11.9475912,15.2750651 C12.9607748,15.5551758 13.6634115,16.4755859 13.6666667,17.5266927 L13.6666667,18.6666667 L17,18.6666667 C17.184082,18.6666667 17.3333333,18.5174154 17.3333333,18.3333333 L17.3333333,5.33333333 L13.8266602,5.33333333 Z M2,4 L1.33333333,4 L1.33333333,3.33333333 L2,3.33333333 L2,4 Z M3.33333333,4 L2.66666667,4 L2.66666667,3.33333333 L3.33333333,3.33333333 L3.33333333,4 Z M4.66666667,4 L4,4 L4,3.33333333 L4.66666667,3.33333333 L4.66666667,4 Z" id="Shape"></path>
            </g>
        </g>
    </g>
</svg>