<?xml version="1.0" encoding="UTF-8"?>
<svg width="80px" height="70px" viewBox="0 0 80 70" version="1.1" xmlns="http://www.w3.org/2000/svg" xmlns:xlink="http://www.w3.org/1999/xlink">
    <title>Group 3@2x</title>
    <g id="Symbols" stroke="none" stroke-width="1" fill="none" fill-rule="evenodd">
        <g id="Parents" fill="#C8C8C8" fill-rule="nonzero">
            <g id="Group-3" transform="translate(0.000000, 0.000000)">
                <path d="M53.1414379,9.9145498e-15 C62.3001418,-0.0101093408 69.7330502,7.4062573 69.7433746,16.5649612 C69.750565,23.0968285 65.9229889,29.0244338 59.966776,31.7053718 C59.7110593,31.8215536 59.4553427,31.9278103 59.1963177,32.0375699 C58.3766232,32.3682112 57.5312403,32.631323 56.6687318,32.8247646 C56.5027301,32.8613512 56.3365337,32.8812014 56.1672236,32.9144795 C55.2035182,33.0991638 54.2256064,33.1980253 53.2443862,33.2100911 C52.802623,33.2100911 52.3575515,33.1768129 51.9157883,33.1371126 C51.7497866,33.1371126 51.5835902,33.1371126 51.4175885,33.1038344 C49.5298781,32.8815906 47.6935445,32.340382 45.98721,31.5029781 C45.9241565,31.4730083 45.8509834,31.4763167 45.78793,31.4498498 C45.4557319,31.2904648 45.1237284,31.1509299 44.8281168,30.9715001 C44.8547783,30.9382219 44.8713201,30.9018299 44.897787,30.8685517 C46.4207995,28.9115604 47.621539,26.7241516 48.4548562,24.3886452 L48.5578045,24.1095754 C48.9367088,22.9940748 49.2309581,21.851718 49.4380225,20.6918465 C49.4679923,20.5225364 49.4911508,20.3596484 49.5178123,20.1771048 C49.7098917,18.9964101 49.8108939,17.8028711 49.8200406,16.6066076 C49.8105047,15.4126794 49.7095025,14.2212811 49.5178123,13.0427271 C49.4911508,12.8701086 49.4679923,12.710529 49.4380225,12.5279854 C49.2309581,11.3683085 48.9367088,10.2257572 48.5578045,9.11025652 L48.4548562,8.83118676 C47.621539,6.49568029 46.4206049,4.30827151 44.897787,2.35128017 C44.8711255,2.31800198 44.8545837,2.28161003 44.8281168,2.24833184 C47.3514213,0.776306929 50.2201573,9.9145498e-15 53.1414379,9.9145498e-15 Z" id="Path"></path>
                <path d="M9.96418999,16.6068022 C9.94069834,7.45899643 17.3372148,0.0241418999 26.4850206,0.000538682408 C30.7730424,-0.0104985594 34.8983708,1.64192919 37.9930482,4.61011057 C38.1857115,4.79615708 38.3750663,4.98200898 38.5609182,5.17467221 C39.1313182,5.77231744 39.6573472,6.41063601 40.1353077,7.08437348 C40.2814593,7.29027015 40.4143774,7.50959485 40.5504093,7.72210823 C41.0145526,8.43651905 41.4220645,9.18615416 41.7692475,9.96400762 C41.8523457,10.1533625 41.9153991,10.3460257 41.9883776,10.535186 C42.3384798,11.3955538 42.6140466,12.2845292 42.8121589,13.192187 C42.835512,13.291827 42.8421287,13.391467 42.8619789,13.4944153 C43.2827242,15.5566903 43.2827242,17.6827971 42.8619789,19.7450721 C42.8421287,19.8480205 42.8353174,19.9476604 42.8121589,20.0473004 C42.6142412,20.9549583 42.3386744,21.8439337 41.9883776,22.7043015 C41.9153991,22.8936563 41.8521511,23.0863196 41.7692475,23.2754798 C41.4216753,24.0521656 41.0141634,24.8006331 40.5504093,25.5140709 C40.4141828,25.7265842 40.2814593,25.945909 40.1353077,26.1518056 C39.6575418,26.8257377 39.1313182,27.4638617 38.5609182,28.0615069 C38.3748717,28.2541701 38.1855169,28.4402166 37.9930482,28.6260685 C36.6482978,29.9075709 35.0978454,30.9539852 33.4063011,31.7215244 C33.1373511,31.8443229 32.864898,31.9573909 32.5893312,32.0537225 C31.7887085,32.3715195 30.9649272,32.626847 30.1249934,32.8175641 C29.9157883,32.8640757 29.699772,32.8905426 29.4872586,32.9271292 C28.585439,33.095077 27.6709698,33.1871272 26.7537761,33.2028906 L26.3884944,33.2028906 C25.4713007,33.1873218 24.5568314,33.095077 23.6550119,32.9271292 C23.4424985,32.8905426 23.2264821,32.8640757 23.0172771,32.8175641 C22.1773433,32.626847 21.3533674,32.3715195 20.5529393,32.0537225 C20.2771779,31.9441575 20.0049194,31.8312841 19.7359693,31.7215244 C13.7937683,29.0386403 9.97183583,23.1264091 9.96418999,16.6068022 Z" id="Path"></path>
                <path d="M53.1414379,69.7479913 L-1.18974598e-13,69.7479913 L-1.18974598e-13,63.1053913 C-0.0484035418,51.8505504 7.04277093,41.8018981 17.6629908,38.075908 C23.3642655,40.4495579 29.7772265,40.4495579 35.4786958,38.075908 C36.5875797,38.4810846 37.6682453,38.9592397 38.7136866,39.5074542 C39.4045497,39.8628108 40.0422844,40.2679874 40.706486,40.6764723 C41.1383241,40.9454224 41.5765843,41.2079504 41.9918806,41.503562 C42.6329237,41.9585586 43.2373802,42.4534501 43.8319117,42.961575 C44.2139298,43.2937731 44.592445,43.6257766 44.9511099,43.9579747 C45.4991298,44.4760247 46.0138714,45.0240446 46.5087629,45.5854925 C46.8641196,45.9906691 47.2095511,46.4024624 47.5384409,46.8276838 C47.9735873,47.3856287 48.388689,47.9570017 48.7740155,48.5447218 C49.1062136,49.0429217 49.4018251,49.5609717 49.6939337,50.0792163 C50.0261318,50.6503947 50.3316685,51.2217677 50.6105436,51.8162991 C50.8896134,52.4108306 51.135405,53.0617988 51.3743852,53.6962252 C51.5835902,54.2475534 51.8062233,54.7955733 51.9788418,55.3568265 C52.2113999,56.1272848 52.3740933,56.9244046 52.5367867,57.7215244 C52.6364267,58.1930628 52.7660365,58.6548707 52.839015,59.1330258 C53.035765,60.448001 53.1367672,61.7756258 53.1414379,63.1053913 L53.1414379,69.7479913 L53.1414379,69.7479913 Z" id="Path"></path>
                <path d="M79.712227,69.7479913 L59.7842324,69.7479913 L59.7842324,63.1053913 C59.7842324,62.0657883 59.7244874,61.0361104 59.6314641,60.0165521 C59.6048026,59.7176322 59.5584856,59.4220207 59.5252074,59.1231007 C59.4354925,58.3890344 59.3325442,57.6617793 59.1930093,56.9409464 C59.1332643,56.6332691 59.0702108,56.3242295 59.0036545,56.0142168 C58.8442694,55.2747014 58.6593906,54.5418027 58.4490179,53.8155207 C58.3793477,53.5763459 58.3160997,53.3338626 58.2431212,53.0981907 C57.3130833,50.1251441 55.9654137,47.2994168 54.2409805,44.7052745 L54.1113707,44.5159197 C53.5401924,43.6678122 52.9300921,42.8475339 52.2812646,42.0548902 L52.2581061,42.0249203 C51.5939045,41.2013337 50.8730716,40.4007109 50.1158467,39.6434861 C50.15905,39.6434861 50.2055616,39.6434861 50.2520733,39.6434861 C51.1893117,39.7666738 52.133167,39.8332302 53.078579,39.842766 L53.2613172,39.842766 C54.1362807,39.8351762 55.009882,39.7785449 55.878618,39.6734559 C56.1508764,39.6401777 56.4200211,39.5903577 56.6922795,39.5471545 C57.3987114,39.4387571 58.0961912,39.2980545 58.784719,39.1254361 C58.9806906,39.0756161 59.1799705,39.0291044 59.3792504,38.9726677 C60.2828215,38.7268762 61.17024,38.4250371 62.0362515,38.0692913 C72.6642558,41.7915838 79.7618524,51.8447121 79.7126782,63.1055859 L79.7126782,69.7479913 L79.712227,69.7479913 Z" id="Path"></path>
            </g>
        </g>
    </g>
</svg>