<?xml version="1.0" encoding="UTF-8"?>
<svg width="26px" height="26px" viewBox="0 0 26 26" version="1.1" xmlns="http://www.w3.org/2000/svg" xmlns:xlink="http://www.w3.org/1999/xlink">
    <title>wallet@2x</title>
    <g id="Symbols" stroke="none" stroke-width="1" fill="none" fill-rule="evenodd">
        <g id="wallet" fill="#FFFFFF" fill-rule="nonzero">
            <g id="Shape">
                <path d="M24.1931106,21.2429404 L20.0625957,21.2429404 C17.4597191,21.2429404 15.3420468,19.1252681 15.3420468,16.5223915 C15.3420468,13.9195149 17.4597191,11.8018426 20.0625957,11.8018426 L24.1931106,11.8018426 C24.5192723,11.8018426 24.7832,11.5379149 24.7832,11.2117532 L24.7832,9.44154043 C24.7832,8.2041617 23.8234128,7.19785106 22.6107617,7.10026809 L19.2219106,1.18111915 C18.9078638,0.633680851 18.4007532,0.242408511 17.7939574,0.0799361702 C17.1900383,-0.0814297872 16.5585149,0.00331914894 16.0179915,0.317919149 L4.40080426,7.0812383 L2.36046809,7.0812383 C1.05875319,7.0812383 0.000165957447,8.13977021 0.000165957447,9.44154043 L0.000165957447,23.6032426 C0.000165957447,24.9049574 1.05869787,25.9635447 2.36046809,25.9635447 L22.4228979,25.9635447 C23.7246128,25.9635447 24.7832,24.9050128 24.7832,23.6032426 L24.7832,21.8330298 C24.7832,21.5068681 24.5192723,21.2429404 24.1931106,21.2429404 Z M19.9537277,4.83550213 L21.2394553,7.0812383 L16.0963787,7.0812383 L19.9537277,4.83550213 Z M6.74633617,7.0812383 L16.6120638,1.3378383 C16.8788681,1.18167234 17.1905915,1.14018298 17.4885404,1.21973191 C17.7899191,1.30038723 18.0411787,1.49516596 18.1973447,1.7677234 L18.1985617,1.76988085 L9.07588085,7.0812383 L6.74633617,7.0812383 Z"></path>
                <path d="M24.1931106,12.981966 L20.0625957,12.981966 C18.1102723,12.981966 16.5221702,14.5700681 16.5221702,16.5223915 C16.5221702,18.4747149 18.1102723,20.062817 20.0625957,20.062817 L24.1931106,20.062817 C25.1692723,20.062817 25.9633234,19.268766 25.9633234,18.2926043 L25.9633234,14.7521787 C25.9633234,13.776017 25.1692723,12.981966 24.1931106,12.981966 Z M20.0625957,17.7025149 C19.4120426,17.7025149 18.8824723,17.1729447 18.8824723,16.5223915 C18.8824723,15.8718383 19.4120426,15.3422681 20.0625957,15.3422681 C20.7131489,15.3422681 21.2427191,15.8718383 21.2427191,16.5223915 C21.2427745,17.1729447 20.7132043,17.7025149 20.0625957,17.7025149 Z"></path>
            </g>
        </g>
    </g>
</svg>