<svg id="Layer_1" data-name="Layer 1" xmlns="http://www.w3.org/2000/svg" xmlns:xlink="http://www.w3.org/1999/xlink" viewBox="0 0 112.48 38"><defs><style>.cls-1{fill:#3e7d29;}.cls-2{fill:url(#linear-gradient);}</style><linearGradient id="linear-gradient" x1="-209.86" y1="262.63" x2="-212.03" y2="261.76" gradientTransform="matrix(69.89, 0, 0, -32.93, 14742.88, 8665.78)" gradientUnits="userSpaceOnUse"><stop offset="0" stop-color="#69b21b"/><stop offset="1" stop-color="#1d664a"/></linearGradient></defs><title>price_tag</title><path id="Path" class="cls-1" d="M2.53.72A4.43,4.43,0,0,0,.59,2.45,3.91,3.91,0,0,0,.07,4.27,4,4,0,0,0,.59,6.11,4.39,4.39,0,0,0,2.53,7.83a6.13,6.13,0,0,0,3.57.64V.08A6.21,6.21,0,0,0,2.53.72Z"/><path id="Path-2" data-name="Path" class="cls-2" d="M110.23,8.48H9.58a14.91,14.91,0,0,1-5.64-.64,7,7,0,0,1-3-1.73A3,3,0,0,1,.07,4.28V33A3,3,0,0,0,.89,34.8a7,7,0,0,0,3.05,1.73,14.7,14.7,0,0,0,5.2.66v0H110.23L90.84,22.84Z"/></svg>