<?xml version="1.0" encoding="UTF-8"?>
<svg width="24px" height="30px" viewBox="0 0 24 30" version="1.1" xmlns="http://www.w3.org/2000/svg" xmlns:xlink="http://www.w3.org/1999/xlink">
    <title>shield@2x</title>
    <g id="Symbols" stroke="none" stroke-width="1" fill="none" fill-rule="evenodd">
        <g id="Privacy" fill="#FFFFFF" fill-rule="nonzero">
            <g id="shield">
                <path d="M4.32628846,4.32634615 L4.32628846,11.0555769 C4.32628846,14.6510769 5.10323077,17.5180385 6.70153846,19.82025 C7.89998077,21.5465769 9.59105769,23.0583462 12.0000577,24.5515385 C14.4090577,23.0582885 16.1001346,21.5466346 17.2985769,19.8203077 C18.8969423,17.5180385 19.6738269,14.6510769 19.6738269,11.0555769 L19.6738269,4.32634615 L4.32628846,4.32634615 Z M13.7655,13.4891538 L13.7655,18.3298269 L10.2345577,18.3298269 L10.2345577,13.4891538 C9.37113462,12.9163846 8.80153846,11.9360192 8.80153846,10.8223269 C8.80153846,9.05584615 10.2335769,7.62386538 12.0000577,7.62386538 C13.7665385,7.62386538 15.1985192,9.05584615 15.1985192,10.8223269 C15.1985192,11.9360769 14.6289231,12.9164423 13.7655,13.4891538 Z" id="Shape"></path>
                <path d="M-0.000115384615,0 L-0.000115384615,11.0556346 C-0.000115384615,15.5626154 1.02951923,19.2365769 3.14757692,22.2875769 C4.99119231,24.9432692 7.67238462,27.1752692 11.58525,29.3120192 L12,29.5384615 L12.4146923,29.3120192 C16.3276154,27.1753269 19.0088077,24.9433269 20.8523654,22.2875769 C22.9704231,19.2365769 24.0000577,15.5626154 24.0000577,11.0556346 L24.0000577,0 L-0.000115384615,0 Z M21.4044231,11.0556346 C21.4044231,15.0156923 20.5263462,18.2055 18.7201154,20.8073077 C17.304,22.8471346 15.3096346,24.59475 12.4438846,26.3071731 L12.0000577,26.5723846 L11.5562308,26.3071731 C8.69036538,24.59475 6.69611538,22.8471923 5.28,20.80725 C3.47376923,18.2055577 2.59575,15.0158077 2.59575,11.0556346 L2.59575,2.59580769 L21.4044231,2.59580769 L21.4044231,11.0556346 L21.4044231,11.0556346 Z" id="Shape"></path>
            </g>
        </g>
    </g>
</svg>