<?xml version="1.0" encoding="UTF-8"?>
<svg width="26px" height="31px" viewBox="0 0 26 31" version="1.1" xmlns="http://www.w3.org/2000/svg" xmlns:xlink="http://www.w3.org/1999/xlink">
    <title>examination@2x</title>
    <g id="Symbols" stroke="none" stroke-width="1" fill="none" fill-rule="evenodd">
        <g id="Quiz" fill="#FFFFFF" fill-rule="nonzero">
            <g id="examination">
                <path d="M7.4199536,7.23897912 L16.1067285,7.23897912 C16.5065263,7.23897912 16.8306265,6.91487898 16.8306265,6.51508121 L16.8306265,3.13689095 C16.8306265,2.73709317 16.5065263,2.41299304 16.1067285,2.41299304 L14.8157773,2.41299304 C14.4798781,0.99893412 13.2167477,0.00070297965 11.7633411,0.00070297965 C10.3099344,0.00070297965 9.04680404,0.99893412 8.71090487,2.41299304 L7.4199536,2.41299304 C7.02015582,2.41299304 6.69605568,2.73709317 6.69605568,3.13689095 L6.69605568,6.51508121 C6.69605568,6.91487898 7.02015582,7.23897912 7.4199536,7.23897912 L7.4199536,7.23897912 Z M11.7633411,2.41299304 C12.1631388,2.41299304 12.487239,2.73709317 12.487239,3.13689095 C12.487239,3.53668873 12.1631388,3.86078886 11.7633411,3.86078886 C11.3635433,3.86078886 11.0394432,3.53668873 11.0394432,3.13689095 C11.0394432,2.73709317 11.3635433,2.41299304 11.7633411,2.41299304 L11.7633411,2.41299304 Z" id="Shape"></path>
                <path d="M6.45475638,13.0301624 L9.35034803,13.0301624 C9.7501458,13.0301624 10.0742459,12.7060623 10.0742459,12.3062645 L10.0742459,9.41067285 C10.0742459,9.01087508 9.7501458,8.68677494 9.35034803,8.68677494 L6.45475638,8.68677494 C6.0549586,8.68677494 5.73085847,9.01087508 5.73085847,9.41067285 L5.73085847,12.3062645 C5.73085847,12.7060623 6.0549586,13.0301624 6.45475638,13.0301624 Z M7.17865429,10.1345708 L8.62645012,10.1345708 L8.62645012,11.5823666 L7.17865429,11.5823666 L7.17865429,10.1345708 Z" id="Shape"></path>
                <path d="M6.45475638,19.3039443 L9.35034803,19.3039443 C9.7501458,19.3039443 10.0742459,18.9798442 10.0742459,18.5800464 L10.0742459,15.6844548 C10.0742459,15.284657 9.7501458,14.9605568 9.35034803,14.9605568 L6.45475638,14.9605568 C6.0549586,14.9605568 5.73085847,15.284657 5.73085847,15.6844548 L5.73085847,18.5800464 C5.73085847,18.9798442 6.0549586,19.3039443 6.45475638,19.3039443 Z M7.17865429,16.4083527 L8.62645012,16.4083527 L8.62645012,17.8561485 L7.17865429,17.8561485 L7.17865429,16.4083527 Z" id="Shape"></path>
                <path d="M12.2459397,10.1345708 C11.8461419,10.1345708 11.5220418,10.4586709 11.5220418,10.8584687 C11.5220418,11.2582665 11.8461419,11.5823666 12.2459397,11.5823666 L16.5893271,11.5823666 C16.9891249,11.5823666 17.3132251,11.2582665 17.3132251,10.8584687 C17.3132251,10.4586709 16.9891249,10.1345708 16.5893271,10.1345708 L12.2459397,10.1345708 Z" id="Path"></path>
                <path d="M16.5893271,16.4083527 L12.2459397,16.4083527 C11.8461419,16.4083527 11.5220418,16.7324528 11.5220418,17.1322506 C11.5220418,17.5320484 11.8461419,17.8561485 12.2459397,17.8561485 L16.5893271,17.8561485 C16.9891249,17.8561485 17.3132251,17.5320484 17.3132251,17.1322506 C17.3132251,16.7324528 16.9891249,16.4083527 16.5893271,16.4083527 Z" id="Path"></path>
                <path d="M20.6914153,3.13689095 L20.6914153,19.062645 C21.7037796,19.0615262 22.6999404,19.3167924 23.587007,19.8046404 L23.587007,3.86078886 C23.5861093,3.06156541 22.9384346,2.41389065 22.1392111,2.41299304 L19.9675174,2.41299304 C20.3673152,2.41299304 20.6914153,2.73709317 20.6914153,3.13689095 L20.6914153,3.13689095 Z" id="Path"></path>
                <path d="M3.55916473,25.0951276 C3.15936696,25.0951276 2.83526682,24.7710275 2.83526682,24.3712297 L2.83526682,3.13689095 C2.83526682,2.73709317 3.15936696,2.41299304 3.55916473,2.41299304 L1.44779582,2.41299304 C0.648572368,2.41389065 0.000897612517,3.06156541 0,3.86078886 L0,26.5429234 C0.000897612517,27.3421469 0.648572368,27.9898216 1.44779582,27.9907193 L15.4009281,27.9907193 C14.9130801,27.1036527 14.6578139,26.1074918 14.6589327,25.0951276 L3.55916473,25.0951276 Z" id="Path"></path>
                <path d="M20.6914153,19.7865429 C17.7595649,19.7865429 15.3828306,22.1632772 15.3828306,25.0951276 C15.3828306,28.026978 17.7595649,30.4037123 20.6914153,30.4037123 C23.6232657,30.4037123 26,28.026978 26,25.0951276 C25.9966756,22.1646554 23.6218876,19.7898673 20.6914153,19.7865429 L20.6914153,19.7865429 Z M23.6162645,24.1591879 L20.7206729,27.0547796 C20.437977,27.3374567 19.9796564,27.3374567 19.6969606,27.0547796 L18.2491647,25.6069838 C17.9703899,25.323631 17.9722431,24.8684962 18.2533163,24.587423 C18.5343894,24.3063499 18.9895242,24.3044966 19.272877,24.5832715 L20.2088167,25.5191508 L22.5925522,23.1354756 C22.875905,22.8567008 23.3310398,22.858554 23.6121129,23.1396272 C23.8931861,23.4207004 23.8950394,23.8758351 23.6162645,24.1591879 L23.6162645,24.1591879 Z" id="Shape"></path>
            </g>
        </g>
    </g>
</svg>