<?xml version="1.0" encoding="UTF-8"?>
<svg width="20px" height="24px" viewBox="0 0 20 24" version="1.1" xmlns="http://www.w3.org/2000/svg" xmlns:xlink="http://www.w3.org/1999/xlink">
    <title>reading-book@2x</title>
    <g id="Symbols" stroke="none" stroke-width="1" fill="none" fill-rule="evenodd">
        <g id="students" transform="translate(-7.000000, -5.000000)" fill="#FFFFFF" fill-rule="nonzero">
            <g id="reading-book" transform="translate(7.000000, 5.000000)">
                <circle id="Oval" cx="10" cy="3.95348837" r="3.95348837"></circle>
                <path d="M12.9050698,8.44255814 C12.068,8.98613953 11.0702791,9.30232558 10,9.30232558 C8.92972093,9.30232558 7.932,8.98613953 7.09493023,8.44255814 C6.1695814,8.79618605 5.31162791,9.31790698 4.56562791,9.98748837 L10,12.0253953 L15.4343721,9.98748837 C14.6883721,9.31790698 13.8304186,8.79613953 12.9050698,8.44255814 Z" id="Path"></path>
                <path d="M18.372093,14.4186047 L17.9069767,14.4186047 C17.5216744,14.4186047 17.2093023,14.7309767 17.2093023,15.1162791 L17.2093023,16.9767442 C17.2093023,17.3620465 17.5216744,17.6744186 17.9069767,17.6744186 L18.372093,17.6744186 C19.2711628,17.6744186 20,16.9455814 20,16.0465116 C20,15.1474419 19.2711628,14.4186047 18.372093,14.4186047 Z" id="Path"></path>
                <path d="M2.16074419,10.8965581 C1.97265116,11.0269302 1.86046512,11.2411628 1.86046512,11.47 L1.86046512,13.0232558 L2.09302326,13.0232558 C3.24711628,13.0232558 4.18604651,13.962186 4.18604651,15.1162791 L4.18604651,16.9767442 C4.18604651,18.1308372 3.24711628,19.0697674 2.09302326,19.0697674 L1.86046512,19.0697674 L1.86046512,20.5397674 C1.86046512,20.8306047 2.04088372,21.0909302 2.31316279,21.1930233 L9.30232558,23.8139535 L9.30232558,13.2539535 L2.80311628,10.8167442 C2.58883721,10.7363256 2.3487907,10.7661395 2.16074419,10.8965581 Z" id="Path"></path>
                <path d="M15.8139535,16.9767442 L15.8139535,15.1162791 C15.8139535,13.962186 16.7528837,13.0232558 17.9069767,13.0232558 L18.1395349,13.0232558 L18.1395349,11.47 C18.1395349,11.2411628 18.0273488,11.0269302 17.8392558,10.8965581 C17.6511628,10.7661395 17.4110698,10.7363256 17.1968837,10.8167442 L10.6976744,13.2539535 L10.6976744,23.8139535 L17.6868372,21.1930233 C17.9591163,21.0909302 18.1395349,20.8306047 18.1395349,20.5397674 L18.1395349,19.0697674 L17.9069767,19.0697674 C16.7528837,19.0697674 15.8139535,18.1308372 15.8139535,16.9767442 L15.8139535,16.9767442 Z" id="Path"></path>
                <path d="M2.79069767,16.9767442 L2.79069767,15.1162791 C2.79069767,14.7309767 2.47832558,14.4186047 2.09302326,14.4186047 L1.62790698,14.4186047 C0.728837209,14.4186047 0,15.1474419 0,16.0465116 C0,16.9455814 0.728837209,17.6744186 1.62790698,17.6744186 L2.09302326,17.6744186 C2.47832558,17.6744186 2.79069767,17.3620465 2.79069767,16.9767442 Z" id="Path"></path>
            </g>
        </g>
    </g>
</svg>