<svg id="Layer_1" data-name="Layer 1" xmlns="http://www.w3.org/2000/svg" viewBox="0 0 249.75 322.87"><defs><style>.cls-1{fill:#fff;}</style></defs><title>Q_man</title><path class="cls-1" d="M124.23,104a53.22,53.22,0,0,0-53.16,53.16c2.68,70.42,103.66,70.4,106.32,0A53.22,53.22,0,0,0,124.23,104Zm-5.54,80.08-24-24,12.53-12.53,11.46,11.45,22.52-22.52,12.53,12.53Z"/><path class="cls-1" d="M212.18,43.29C174.54,48.7,144,34.78,123.64,7.11,103.29,34.78,72.73,48.71,35.1,43.28L17.33,40.75v115A153.61,153.61,0,0,0,88.44,285.27l35.2,22.4,35.2-22.4A153.62,153.62,0,0,0,230,155.72v-115ZM124.23,228.06a71,71,0,0,1-70.88-70.87c3.57-93.9,138.21-93.88,141.76,0A71,71,0,0,1,124.23,228.06Z"/></svg>