<svg id="Capa_1" data-name="Capa 1" xmlns="http://www.w3.org/2000/svg" viewBox="0 0 213.05 219.55"><defs><style>.cls-1{fill:#fff;}</style></defs><title>next</title><path class="cls-1" d="M198.24,78.07l-31-40.21a3.62,3.62,0,0,0-4.82-.85l-20,12.71H116.42a3.44,3.44,0,0,0-1,.17L95.21,55.7,74.24,50,53.87,37a3.63,3.63,0,0,0-4.77.78L14.86,80.2a3.62,3.62,0,0,0,.46,5l18,15.45,16.09,21.69a12.81,12.81,0,0,0,8.06,21.51,12.81,12.81,0,0,0,12.67,14.77h.13v.26A12.82,12.82,0,0,0,83,171.72a13.16,13.16,0,0,0,2-.16,12.81,12.81,0,0,0,21.81,7.8l2-2,.82.67a12.81,12.81,0,0,0,21.72-9.42,12.79,12.79,0,0,0,13-13,12.81,12.81,0,0,0,13-13,12.82,12.82,0,0,0,10.95-19.79l11.75-24.62L197.73,83A3.63,3.63,0,0,0,198.24,78.07ZM52.71,44.87l14.65,9.31L35.49,93,22.72,82Zm2.07,82.32,4.42-4.42a5.14,5.14,0,0,1,.42-.38,5.58,5.58,0,0,1,3-1.23h.09l.48,0a5.52,5.52,0,0,1,4,1.74,5.7,5.7,0,0,1-.24,7.89l-4.29,4.29a5.56,5.56,0,0,1-7.86-7.87Zm11.37,22.57a5.55,5.55,0,0,1,0-7.86l8.58-8.58a5.62,5.62,0,0,1,6.32-1.09A5.54,5.54,0,0,1,84.11,138a5.86,5.86,0,0,1-1.65,3.35L74,149.76a5.56,5.56,0,0,1-7.87,0ZM79.1,162.83a5.55,5.55,0,0,1,0-7.86l8.57-8.58a5.64,5.64,0,0,1,6.73-.88,5.53,5.53,0,0,1,2.65,5.62,5.86,5.86,0,0,1-1.65,3.27L87,162.83a5.56,5.56,0,0,1-7.87,0Zm14.75,11.4a5.56,5.56,0,0,1,0-7.86L98.27,162a4.86,4.86,0,0,1,.41-.38h0a5.61,5.61,0,0,1,2.47-1.15h.06a4,4,0,0,1,.48-.07h.19a2.54,2.54,0,0,1,.39,0,5.52,5.52,0,0,1,4,1.74,4.71,4.71,0,0,1,.36.42A5.74,5.74,0,0,1,106,170l-4.27,4.26A5.56,5.56,0,0,1,93.85,174.23Zm67.64-40.47a5.56,5.56,0,0,1-7.86,0l-.25-.22L130.06,110a3.62,3.62,0,1,0-5.15,5.1l23.57,23.82h0a5.56,5.56,0,1,1-7.86,7.86l-15.77-15.93a3.62,3.62,0,0,0-5.15,5.1l15.52,15.69a3.45,3.45,0,0,0,.26.28,5.56,5.56,0,0,1-7.87,7.87l-8.61-8.7a3.62,3.62,0,0,0-5.15,5.1l8.36,8.46a3.45,3.45,0,0,0,.26.28,5.56,5.56,0,0,1-7.87,7.87,8.76,8.76,0,0,0-.82-.66c-.24-.18-.3-.3-.18-.59s.3-.56.42-.85.24-.67.34-1a13,13,0,0,0,.47-5.58A12.69,12.69,0,0,0,104,153.19a13,13,0,0,0-3.1-11.67,12.74,12.74,0,0,0-9.14-4H91.4a12.7,12.7,0,0,0-12.56-13.07,13.44,13.44,0,0,0-3.1.33,12.7,12.7,0,0,0-12.43-10.88,12.85,12.85,0,0,0-8.76,3.29l-14-18.89L74.07,57.44l10.69,2.92L70.8,85a12.82,12.82,0,0,0,4.83,17.47q.28.17.57.3l0,0a12.9,12.9,0,0,0,1.54.65,12.82,12.82,0,0,0,15.32-5.8l9.07-16,16.2,1.15,43.12,43.13A5.56,5.56,0,0,1,161.49,133.76Zm1.5-16.62L122.54,76.69a2.4,2.4,0,0,0-.24-.22,3.68,3.68,0,0,0-2.07-.84l-19.83-1.4A3.66,3.66,0,0,0,97,76.06l-10.2,18a5.56,5.56,0,0,1-9.68-5.48l13.61-24L96.24,63l.11,0,20.59-6h24.88l31.05,39.48Zm14.63-26.38L148.9,54.23l14.66-9.32L190.4,79.77Z"/></svg>