<?xml version="1.0" encoding="UTF-8"?>
<svg width="30px" height="30px" viewBox="0 0 30 30" version="1.1" xmlns="http://www.w3.org/2000/svg" xmlns:xlink="http://www.w3.org/1999/xlink">
    <title>Group 6</title>
    <g id="Symbols" stroke="none" stroke-width="1" fill="none" fill-rule="evenodd">
        <g id="Group-6">
            <circle id="Oval-Copy-16" fill="#8C67FF" cx="15" cy="15" r="15"></circle>
            <g id="favorite" transform="translate(6.000000, 7.000000)" fill="#FFFFFF" fill-rule="nonzero">
                <path d="M16.3828125,0.0347695313 L1.6171875,0.0347695313 C0.725484375,0.0347695313 0,0.760253906 0,1.65195703 L0,10.792582 C0,11.6843203 0.725484375,12.4097695 1.6171875,12.4097695 L2.25,12.4097695 L2.25,13.8812695 C2.25,14.4106875 2.54879297,14.877 3.02976563,15.0982031 C3.211875,15.1819805 3.40361719,15.223043 3.59346094,15.223043 C3.90505078,15.223043 4.2114375,15.1124062 4.46122266,14.8983047 C4.4713125,14.8896562 4.48108594,14.8806562 4.49057812,14.8713047 L6.98108203,12.4097695 L16.3828125,12.4097695 C17.2745156,12.4097695 18,11.6843203 18,10.792582 L18,1.65195703 C18,0.760253906 17.2745156,0.0347695313 16.3828125,0.0347695313 Z M13.0415273,5.66177344 L11.4969375,7.18393359 C11.4560508,7.22422266 11.437418,7.28194922 11.4470156,7.33855078 L11.812043,9.49028906 C11.84175,9.66547266 11.7945,9.84789844 11.6737031,9.97822266 C11.5623633,10.0983516 11.4114023,10.1597695 11.2595977,10.1597695 C11.1692109,10.1597695 11.078543,10.1380078 10.9956445,10.093957 L9.08247656,9.0770625 C9.03090234,9.04964062 8.9690625,9.04964062 8.91748828,9.0770625 L7.0160625,10.0877344 C6.85768359,10.1719336 6.66759375,10.1839219 6.50496094,10.1083359 C6.26980078,9.999 6.14394141,9.74977734 6.18574219,9.50322656 L6.55294922,7.33858594 C6.56254687,7.28198437 6.54391406,7.22429297 6.50302734,7.18396875 L4.9584375,5.66180859 C4.83141797,5.53661719 4.76293359,5.36013281 4.78529297,5.18319141 C4.81763672,4.92686719 5.01546094,4.73143359 5.26197656,4.69522266 L7.40309766,4.38067969 C7.46050781,4.37224219 7.51004297,4.33603125 7.53549609,4.28385937 L8.48865234,2.33128125 C8.56761328,2.1695625 8.71505859,2.04788672 8.89178906,2.01389062 C9.14705859,1.9648125 9.39554297,2.09401172 9.50547656,2.31929297 L10.4644687,4.28385937 C10.4899219,4.33599609 10.539457,4.37224219 10.5968672,4.38067969 L12.7379883,4.69522266 C12.9845039,4.73143359 13.182293,4.92690234 13.2146719,5.18319141 C13.2370313,5.36009766 13.168582,5.53658203 13.0415273,5.66177344 Z" id="Shape"></path>
            </g>
        </g>
    </g>
</svg>