<?xml version="1.0" encoding="UTF-8"?>
<svg width="320px" height="278px" viewBox="0 0 320 278" version="1.1" xmlns="http://www.w3.org/2000/svg" xmlns:xlink="http://www.w3.org/1999/xlink">
    <title>2-01</title>
    <g id="Symbols" stroke="none" stroke-width="1" fill="none" fill-rule="evenodd">
        <g id="image" fill-rule="nonzero">
            <g id="2-01">
                <g id="Group" transform="translate(131.000000, 60.000000)">
                    <path d="M115.8,20.1 C116.9,18.05 118.75,14.6 116.85,14 C115.95,13.7 115.3,14.2 114.75,14.95 C115.1,14 115.1,12.6 114.15,12.3 C113.35,12.05 112.05,12.9 111.85,13.75 C112.25,12.9 112,10.95 111.1,10.7 C110.2,10.4 108.85,11 108.35,11.8 C108.75,10.5 113.55,1.05 111.6,0.45 C109.65,-0.2 104.6,12.25 103.8,14.25 C102.95,16.25 86.7,62.85 18.55,56.85 L17.8,69.1 C92.6,74.75 114.7,22.15 115.8,20.1 Z" id="Path" fill="#FDDCBE"></path>
                    <path d="M1.1,66.5 C7.15,68.1 12.7,68.85 17.8,69 L18.55,56.75 C12.2,56.4 8.05,55.75 0.35,53.7 L1.1,66.5 Z" id="Path" fill="#F5F5F5"></path>
                    <g opacity="0.05" transform="translate(0.000000, 53.500000)" fill="#000000" id="Path">
                        <path d="M0.35,0.2 L1.1,13 C4.05,13.75 6.9,14.35 9.6,14.75 L1.55,0.5 C1.15,0.4 0.8,0.3 0.35,0.2 Z"></path>
                    </g>
                </g>
                <ellipse id="Oval" fill="#000000" opacity="0.05" cx="160.15" cy="265.2" rx="159.45" ry="12.35"></ellipse>
                <g id="Group" transform="translate(0.000000, 7.000000)">
                    <g id="Path">
                        <path d="M191.2,245.85 C177.4,231.1 167.85,245.25 167.85,245.25 L150.45,170.15 C95.75,184.95 67.25,205.15 67.25,205.15 L64.2,252.95 C64.2,252.95 56.25,245.8 47,251.85 C34.7,260 69.65,261.25 69.65,261.25 L78.2,212.45 C122.3,202.85 142.25,190.15 142.25,190.15 L163.95,253.3 C163.9,253.3 201,256.35 191.2,245.85 Z" fill="#523D26"></path>
                        <g>
                            <path d="M130.8,105 C130.8,105 102.9,-2.55 34,61.75 C34,61.75 15.25,90.05 34.35,143.15 C119.6,129.6 130.8,105 130.8,105 Z" fill="#FDDCBE"></path>
                            <path d="M106,0.1 C106,0.1 130,67 43.2,77.7 L45.2,99.1 C45.2,99.1 33.55,94.3 34.45,104.65 C35.3,115 45.5,106.7 45.5,106.7 C45.5,106.7 43.8,132.5 34.4,143.05 C35.1,143.7 -30.8,55.35 18.45,50.5 C18.45,50.5 17.8,29.65 43.95,18.95 C71.05,8 94.4,37.9 106,0.1 Z" fill="#523D26"></path>
                        </g>
                        <path d="M130.8,105 L150.4,170.2 C150.4,170.2 120.55,191.2 67.2,205.2 L34.35,143.15 C34.35,143.1 102.4,128.15 130.8,105 Z" fill="#F5F5F5"></path>
                    </g>
                    <polygon id="Path" fill="#523D26" points="110.15 126.5 113.5 129.6 112.2 135.1 124.5 168.1 115.7 181.35 104.2 171.6 106.75 137.5 101.75 133.9 102.45 130.2"></polygon>
                </g>
                <path d="M98.15,85.1 C99.6,88.7 102.15,91.05 103.9,90.4 C105.6,89.7 105.85,86.25 104.35,82.65 C102.9,79.05 100.35,76.7 98.6,77.35 C96.9,78 96.7,81.45 98.15,85.1 Z" id="Path" fill="#523D26"></path>
                <path d="M56.5,103.4 C57.95,107 60.5,109.35 62.25,108.7 C63.95,108 64.15,104.55 62.7,100.95 C61.25,97.35 58.7,95 56.95,95.65 C55.25,96.35 55.05,99.8 56.5,103.4 Z" id="Path" fill="#523D26"></path>
                <path d="M101.8,101.55 C97.5,103 84.05,107.75 75.55,113.75 C74.9,114.2 74.65,115.05 75,115.8 C76.5,119.35 81.85,128.55 95.7,122.55 C109.4,116.65 105.75,106.1 103.9,102.45 C103.5,101.65 102.6,101.25 101.8,101.55 Z" id="Path" fill="#EB7D86"></path>
                <g id="Group" transform="translate(113.000000, 0.000000)">
                    <path d="M152.15,39.7 L152.15,15.5 L10.65,15.5 L10.65,39.7 C10.65,99.95 47.8,123.7 68.25,132.2 C69.4,132.7 69.4,134.2 68.25,134.7 C47.8,143.2 10.65,167 10.65,227.2 L10.65,251.4 L152.15,251.4 L152.15,227.2 C152.15,166.95 115,143.2 94.55,134.7 C93.4,134.2 93.4,132.7 94.55,132.2 C115.05,123.7 152.15,99.95 152.15,39.7 Z" id="Path" fill="#F2F2F2" opacity="0.8"></path>
                    <path d="M158.05,0.05 L4.8,0.05 C2.25,0.05 0.2,2.1 0.2,4.65 L0.2,10.9 C0.2,13.45 2.25,15.5 4.8,15.5 L158.05,15.5 C160.6,15.5 162.65,13.45 162.65,10.9 L162.65,4.65 C162.65,2.1 160.6,0.05 158.05,0.05 Z" id="Path" fill="#8C6239"></path>
                    <path d="M158.05,251.4 L4.8,251.4 C2.25,251.4 0.2,253.45 0.2,256 L0.2,262.25 C0.2,264.8 2.25,266.85 4.8,266.85 L158.05,266.85 C160.6,266.85 162.65,264.8 162.65,262.25 L162.65,256 C162.65,253.45 160.6,251.4 158.05,251.4 Z" id="Path" fill="#8C6239"></path>
                    <path d="M158.05,262.15 L4.8,262.15 C2.25,262.15 0.2,260.1 0.2,257.55 L0.2,262.25 C0.2,264.8 2.25,266.85 4.8,266.85 L158.05,266.85 C160.6,266.85 162.65,264.8 162.65,262.25 L162.65,257.55 C162.65,260.1 160.6,262.15 158.05,262.15 Z" id="Path" fill="#855C36"></path>
                    <path d="M19.75,50.9 C18.35,50.45 16.95,51.6 17.1,53.05 C18.4,65.7 21.65,77.15 26.75,87.25 C32.2,98 39.8,107.25 49.3,114.8 C63.2,125.8 77.35,129.9 81.4,130.95 C85.4,129.95 99.25,125.95 113.1,115.15 C122.75,107.65 130.4,98.35 135.9,87.6 C141.1,77.45 144.4,65.85 145.7,53.1 C145.85,51.65 144.45,50.5 143.05,50.95 L99.5,65.2 C87.7,69.05 75,69.05 63.2,65.2 L19.75,50.9 Z" id="Path" fill="#EDCD7E"></path>
                    <polygon id="Path" fill="#EDCD7E" points="16.45 251.4 81.45 194.35 146.4 251.4"></polygon>
                    <rect id="Rectangle" fill="#EDCD7E" x="79.15" y="125.55" width="4.6" height="76.5"></rect>
                </g>
                <path d="M142.9,152.15 L139.15,139.65 C126.05,151.1 103.15,162.2 65.55,155.55 C59.25,154.65 55.15,154.25 47.7,151.5 L47.35,163.75 C53.25,165.85 58.7,167.1 63.75,167.7 C101.5,173.95 126.9,163.8 142.9,152.15 Z" id="Path" fill="#000000" opacity="0.05"></path>
                <g id="Group" transform="translate(46.500000, 97.500000)">
                    <path d="M115.5,19.85 C116.6,17.8 118.45,14.35 116.55,13.75 C115.65,13.45 115,13.95 114.45,14.7 C114.8,13.75 114.8,12.35 113.85,12.05 C113.05,11.8 111.75,12.65 111.55,13.5 C111.95,12.65 111.7,10.7 110.8,10.45 C109.9,10.15 108.55,10.75 108.05,11.55 C108.45,10.25 113.25,0.8 111.3,0.2 C109.35,-0.45 104.3,12 103.5,14 C102.65,16 86.4,62.6 18.25,56.6 L17.5,68.85 C92.3,74.5 114.35,21.9 115.5,19.85 Z" id="Path" fill="#FDDCBE"></path>
                    <path d="M0.8,66.25 C6.85,67.85 12.4,68.6 17.5,68.75 L18.25,56.5 C11.9,56.15 7.75,55.5 0.05,53.45 L0.8,66.25 Z" id="Path" fill="#F5F5F5"></path>
                </g>
                <path d="M271.05,10.85 L117.8,10.85 C115.25,10.85 113.2,8.8 113.2,6.25 L113.2,10.95 C113.2,13.5 115.25,15.55 117.8,15.55 L271.05,15.55 C273.6,15.55 275.65,13.5 275.65,10.95 L275.65,6.25 C275.65,8.75 273.6,10.85 271.05,10.85 Z" id="Path" fill="#855C36"></path>
                <g id="Group" opacity="0.3" transform="translate(194.000000, 15.500000)" fill="#FFFFFF">
                    <path d="M13.6,116.7 C34.05,108.2 71.2,84.4 71.2,24.2 L71.2,0 L16.45,0 C16.45,63.1 15.75,97.45 0.45,117.95 C15.55,142.5 16.9,188.6 16.45,235.9 L71.2,235.9 L71.2,211.7 C71.2,151.45 34.05,127.7 13.6,119.2 C12.45,118.7 12.45,117.2 13.6,116.7 Z" id="Path" opacity="0.8"></path>
                </g>
                <rect id="Rectangle" fill="#000000" opacity="0.05" x="123.7" y="15.5" width="141.5" height="8.9"></rect>
            </g>
        </g>
    </g>
</svg>