<?xml version="1.0" encoding="UTF-8"?>
<svg width="55px" height="55px" viewBox="0 0 55 55" version="1.1" xmlns="http://www.w3.org/2000/svg" xmlns:xlink="http://www.w3.org/1999/xlink">
    <title>Group 7</title>
    <g id="Symbols" stroke="none" stroke-width="1" fill="none" fill-rule="evenodd">
        <g id="Group-7">
            <circle id="Oval" fill="#2B75A4" cx="27.5" cy="27.5" r="27.5"></circle>
            <g id="settings(1)-copy" transform="translate(14.000000, 14.000000)" fill="#FFFFFF" fill-rule="nonzero">
                <path d="M27.476904,16.5580977 L24.841488,14.6057608 C24.87492,14.3046872 24.903592,13.952736 24.903592,13.5803596 C24.903592,13.2079832 24.876096,12.856032 24.841488,12.5549583 L27.479312,10.6015074 C27.969144,10.2348076 28.102928,9.58401095 27.79112,9.04191916 L25.050536,4.54979368 C24.757824,4.04276968 24.116288,3.78244042 23.465232,4.00993011 L20.355496,5.19263242 C19.759376,4.78518821 19.134528,4.44114189 18.488232,4.16611705 L18.015144,1.041264 C17.937472,0.448188632 17.392704,0 16.748816,0 L11.253368,0 C10.609424,0 10.065888,0.448188632 9.989392,1.032192 L9.515128,4.16839832 C8.889104,4.43551832 8.273888,4.77505516 7.651448,5.19491368 L4.533368,4.008816 C3.94912,3.79490779 3.25024,4.03481179 2.959936,4.53960758 L0.215824,9.03735663 C-0.107912,9.55573389 0.025872,10.2291309 0.526456,10.6049027 L3.161872,12.5572396 C3.12004,12.9386349 3.099768,13.2702669 3.099768,13.5815267 C3.099768,13.8927865 3.120096,14.2243655 3.161872,14.606928 L0.524048,16.5603789 C0.034216,16.9281928 -0.098392,17.5789895 0.213416,18.1199672 L2.954,22.6120396 C3.246712,23.1179495 3.882256,23.3805069 4.539304,23.1519032 L7.64904,21.9692008 C8.243984,22.3755309 8.868776,22.7195773 9.515128,22.9957162 L9.988216,26.1194552 C10.065832,26.7147587 10.609424,27.1629474 11.254544,27.1629474 L16.749992,27.1629474 C17.393936,27.1629474 17.938704,26.7147587 18.015144,26.1307554 L18.489408,22.9957162 C19.115432,22.7274821 19.729472,22.3890594 20.353088,21.9680337 L23.471168,23.1541314 C23.621696,23.2095714 23.778216,23.2379015 23.939496,23.2379015 C24.403008,23.2379015 24.829504,22.9979444 25.044544,22.6244539 L27.797056,18.1086139 C28.102928,17.5789364 27.969088,16.9281928 27.476904,16.5580977 Z M14.001064,18.1086139 C11.365648,18.1086139 9.222416,16.0781836 9.222416,13.5814737 C9.222416,11.0847638 11.365648,9.05433347 14.001064,9.05433347 C16.63648,9.05433347 18.779712,11.0847638 18.779712,13.5814737 C18.779712,16.0781836 16.63648,18.1086139 14.001064,18.1086139 Z" id="Shape"></path>
            </g>
        </g>
    </g>
</svg>