<?xml version="1.0" encoding="UTF-8"?>
<svg width="25px" height="25px" viewBox="0 0 25 25" version="1.1" xmlns="http://www.w3.org/2000/svg" xmlns:xlink="http://www.w3.org/1999/xlink">
    <title>chat icon@2x</title>
    <g id="Symbols" stroke="none" stroke-width="1" fill="none" fill-rule="evenodd">
        <g id="chat-icon" fill="#FFFFFF" fill-rule="nonzero">
            <path d="M20.8333333,3.19744231e-14 L4.16666667,3.19744231e-14 C1.86548021,3.19744231e-14 0,1.86548021 0,4.16666667 L0,16.6666667 C0,18.9678531 1.86548021,20.8333333 4.16666667,20.8333333 L7.1875,20.8333333 L11.8239583,24.753125 C12.2123601,25.081823 12.7813899,25.081823 13.1697917,24.753125 L17.8125,20.8333333 L20.8333333,20.8333333 C23.1345198,20.8333333 25,18.9678531 25,16.6666667 L25,4.16666667 C25,1.86548021 23.1345198,3.19744231e-14 20.8333333,3.19744231e-14 Z M22.9166667,16.6666667 C22.9166667,17.8172599 21.9839266,18.75 20.8333333,18.75 L17.8125,18.75 C17.3200951,18.7501516 16.8436595,18.9247093 16.4677083,19.2427083 L12.5,22.59375 L8.534375,19.2427083 L8.534375,19.2427083 C8.15787702,18.9242466 7.68062116,18.7496588 7.1875,18.75 L4.16666667,18.75 C3.01607344,18.75 2.08333333,17.8172599 2.08333333,16.6666667 L2.08333333,4.16666667 C2.08333333,3.01607344 3.01607344,2.08333333 4.16666667,2.08333333 L20.8333333,2.08333333 C21.9839266,2.08333333 22.9166667,3.01607344 22.9166667,4.16666667 L22.9166667,16.6666667 Z" id="Shape"></path>
            <path d="M7.29166667,7.29166667 L12.5,7.29166667 C13.0752966,7.29166667 13.5416667,6.82529661 13.5416667,6.25 C13.5416667,5.67470339 13.0752966,5.20833333 12.5,5.20833333 L7.29166667,5.20833333 C6.71637005,5.20833333 6.25,5.67470339 6.25,6.25 C6.25,6.82529661 6.71637005,7.29166667 7.29166667,7.29166667 Z" id="Path"></path>
            <path d="M17.7083333,9.375 L7.29166667,9.375 C6.71637005,9.375 6.25,9.84137005 6.25,10.4166667 C6.25,10.9919633 6.71637005,11.4583333 7.29166667,11.4583333 L17.7083333,11.4583333 C18.2836299,11.4583333 18.75,10.9919633 18.75,10.4166667 C18.75,9.84137005 18.2836299,9.375 17.7083333,9.375 Z" id="Path"></path>
            <path d="M17.7083333,13.5416667 L7.29166667,13.5416667 C6.71637005,13.5416667 6.25,14.0080367 6.25,14.5833333 C6.25,15.1586299 6.71637005,15.625 7.29166667,15.625 L17.7083333,15.625 C18.2836299,15.625 18.75,15.1586299 18.75,14.5833333 C18.75,14.0080367 18.2836299,13.5416667 17.7083333,13.5416667 Z" id="Path"></path>
        </g>
    </g>
</svg>