<?xml version="1.0" encoding="UTF-8"?>
<svg width="24px" height="24px" viewBox="0 0 24 24" version="1.1" xmlns="http://www.w3.org/2000/svg" xmlns:xlink="http://www.w3.org/1999/xlink">
    <title>fi-rr-clock@2x</title>
    <g id="Symbols" stroke="none" stroke-width="1" fill="none" fill-rule="evenodd">
        <g id="clock_2" fill="#4D4D4D" fill-rule="nonzero">
            <g id="fi-rr-clock">
                <path d="M12,0 C5.372583,0 0,5.372583 0,12 C0,18.627417 5.372583,24 12,24 C18.627417,24 24,18.627417 24,12 C23.9928352,5.37555305 18.624447,0.00716484761 12,0 Z M12,22 C6.4771525,22 2,17.5228475 2,12 C2,6.4771525 6.4771525,2 12,2 C17.5228475,2 22,6.4771525 22,12 C21.9939376,17.5203344 17.5203344,21.9939376 12,22 L12,22 Z" id="Shape"></path>
                <path d="M12,6 C11.4477153,6 11,6.44771525 11,7 L11,11.325 L7.629,13.437 C7.15955798,13.7302632 7.01673683,14.348558 7.31000002,14.818 C7.60326322,15.287442 8.22155796,15.4302632 8.691,15.137 L12.531,12.737 C12.8260357,12.552145 13.0036881,12.2271433 13.0000563,11.879 L13.0000563,7 C13.0000563,6.44771525 12.5522847,6 12,6 Z" id="Path"></path>
            </g>
        </g>
    </g>
</svg>