<?xml version="1.0" encoding="UTF-8"?>
<svg width="38px" height="38px" viewBox="0 0 38 38" version="1.1" xmlns="http://www.w3.org/2000/svg" xmlns:xlink="http://www.w3.org/1999/xlink">
    <title>school-bag</title>
    <defs>
        <linearGradient x1="46.5824179%" y1="20.959288%" x2="57.4806141%" y2="71.8966066%" id="linearGradient-1">
            <stop stop-color="#0E6BA8" offset="0%"></stop>
            <stop stop-color="#155799" offset="100%"></stop>
        </linearGradient>
        <linearGradient x1="46.5824179%" y1="-30.6686444%" x2="57.4806141%" y2="110.823907%" id="linearGradient-2">
            <stop stop-color="#0E6BA8" offset="0%"></stop>
            <stop stop-color="#155799" offset="100%"></stop>
        </linearGradient>
        <linearGradient x1="49.1456045%" y1="-30.6686444%" x2="51.8701535%" y2="110.823907%" id="linearGradient-3">
            <stop stop-color="#0E6BA8" offset="0%"></stop>
            <stop stop-color="#155799" offset="100%"></stop>
        </linearGradient>
        <linearGradient x1="46.5824179%" y1="-30.3249269%" x2="57.4806141%" y2="110.564745%" id="linearGradient-4">
            <stop stop-color="#0E6BA8" offset="0%"></stop>
            <stop stop-color="#155799" offset="100%"></stop>
        </linearGradient>
        <linearGradient x1="49.9191105%" y1="-30.6686444%" x2="50.177056%" y2="110.823907%" id="linearGradient-5">
            <stop stop-color="#0E6BA8" offset="0%"></stop>
            <stop stop-color="#155799" offset="100%"></stop>
        </linearGradient>
        <linearGradient x1="46.5824179%" y1="-30.6686444%" x2="57.4806141%" y2="110.823907%" id="linearGradient-6">
            <stop stop-color="#0E6BA8" offset="0%"></stop>
            <stop stop-color="#155799" offset="100%"></stop>
        </linearGradient>
        <linearGradient x1="49.7864011%" y1="-30.6686444%" x2="50.4675384%" y2="110.823907%" id="linearGradient-7">
            <stop stop-color="#0E6BA8" offset="0%"></stop>
            <stop stop-color="#155799" offset="100%"></stop>
        </linearGradient>
    </defs>
    <g id="Landing_page" stroke="none" stroke-width="1" fill="none" fill-rule="evenodd">
        <g id="01_Home_Page" transform="translate(-1278.000000, -1136.000000)" fill-rule="nonzero">
            <g id="school-bag" transform="translate(1278.000000, 1136.000000)">
                <path d="M25.5517241,22.2758621 L12.4482759,22.2758621 C10.64,22.2779914 9.1745431,23.7434483 9.17241379,25.5517241 L9.17241379,30.7931034 C9.1745431,32.6013793 10.64,34.0668362 12.4482759,34.0689655 L25.5517241,34.0689655 C27.36,34.0668362 28.8254569,32.6013793 28.8275862,30.7931034 L28.8275862,25.5517241 C28.8254569,23.7434483 27.36,22.2779914 25.5517241,22.2758621 Z M27.5172414,30.7931034 C27.5172414,31.8786422 26.6372629,32.7586207 25.5517241,32.7586207 L12.4482759,32.7586207 C11.3627371,32.7586207 10.4827586,31.8786422 10.4827586,30.7931034 L10.4827586,27.5172414 L11.7931034,27.5172414 L11.7931034,30.7931034 C11.7931034,31.1549224 12.0864569,31.4482759 12.4482759,31.4482759 L15.0689655,31.4482759 C15.4307845,31.4482759 15.7241379,31.1549224 15.7241379,30.7931034 L15.7241379,27.5172414 L27.5172414,27.5172414 L27.5172414,30.7931034 Z M13.1034483,30.137931 L13.1034483,27.5172414 L14.4137931,27.5172414 L14.4137931,30.137931 L13.1034483,30.137931 Z M27.5172414,26.2068966 L10.4827586,26.2068966 L10.4827586,25.5517241 C10.4827586,24.4661853 11.3627371,23.5862069 12.4482759,23.5862069 L25.5517241,23.5862069 C26.6372629,23.5862069 27.5172414,24.4661853 27.5172414,25.5517241 L27.5172414,26.2068966 Z" id="Shape" fill="url(#linearGradient-1)"></path>
                <path d="M33.4137931,19.6551724 L32.3904138,19.6551724 L32.3655172,18.3284483 C32.3457802,17.5559181 32.258069,16.7865819 32.1034483,16.0294483 L32.1034483,2.62068966 C32.1034483,2.25887069 31.8100948,1.96551724 31.4482759,1.96551724 L27.5172414,1.96551724 C27.5106897,1.96551724 27.5054483,1.96551724 27.4982414,1.96944828 C27.3380517,1.97305172 27.1849871,2.03643966 27.0691034,2.147 C27.0501034,2.16534483 27.0376552,2.18696552 27.0206207,2.20662069 C26.9941681,2.23421983 26.9700086,2.26403017 26.9485517,2.29572414 L24.5552069,6.4862069 C24.4503793,6.43706897 24.3481724,6.38203448 24.2413793,6.33617241 L24.2413793,5.24137931 C24.2413793,2.34666379 21.8947155,0 19,0 C16.1052845,0 13.7586207,2.34666379 13.7586207,5.24137931 L13.7586207,6.33355172 C13.6518276,6.37941379 13.5496207,6.43444828 13.4447931,6.48358621 L11.0514483,2.29310345 C11.0304009,2.26206466 11.0067328,2.23290948 10.9806897,2.20596552 C10.9650474,2.18328017 10.9481767,2.16141379 10.9302414,2.14044828 C10.814194,2.03013362 10.6612112,1.96707328 10.5011034,1.96355172 C10.4949612,1.96387931 10.488819,1.96453448 10.4827586,1.96551724 L6.55172414,1.96551724 C6.18990517,1.96551724 5.89655172,2.25887069 5.89655172,2.62068966 L5.89655172,16.0294483 L5.90048276,16.0294483 C5.74586207,16.7865819 5.65815086,17.5559181 5.63841379,18.3284483 L5.60958621,19.6551724 L4.5862069,19.6551724 C2.05453879,19.6580388 0.00286637931,21.7097112 0,24.2413793 L0,34.0689655 C0,34.4307845 0.293353448,34.7241379 0.655172414,34.7241379 L5.30231034,34.7241379 C5.29723276,36.5282371 6.75564655,37.9949224 8.55982759,38 C8.56400431,38 8.56809914,38 8.57227586,38 L29.4277241,38 C31.2319052,38.0018017 32.6958879,36.5407672 32.6976897,34.7365862 C32.6976897,34.7324095 32.6976897,34.7283147 32.6976897,34.7241379 L37.3448276,34.7241379 C37.7066466,34.7241379 38,34.4307845 38,34.0689655 L38,24.2413793 C37.9971336,21.7097112 35.9454612,19.6580388 33.4137931,19.6551724 Z M5.32327586,33.4137931 L1.31034483,33.4137931 L1.31034483,26.2068966 L5.47331034,26.2068966 L5.32327586,33.4137931 Z M5.50344828,24.8965517 L1.31034483,24.8965517 L1.31034483,24.2413793 C1.31247414,22.4331034 2.77793103,20.9676466 4.5862069,20.9655172 L5.58272414,20.9655172 L5.50344828,24.8965517 Z M28.1724138,3.27586207 L30.7931034,3.27586207 L30.7931034,12.3788276 C30.1098405,11.0984569 29.2249483,9.93634483 28.1724138,8.9372069 L28.1724138,3.27586207 Z M26.862069,5.08806897 L26.862069,7.84896552 C26.4930431,7.57788793 26.1105862,7.32556466 25.7161724,7.09289655 L26.862069,5.08806897 Z M15.0689655,5.24137931 C15.0689655,3.07030172 16.8289224,1.31034483 19,1.31034483 C21.1710776,1.31034483 22.9310345,3.07030172 22.9310345,5.24137931 L22.9310345,5.84217241 C20.3715216,5.04114224 17.6284784,5.04114224 15.0689655,5.84217241 L15.0689655,5.24137931 Z M11.137931,5.08806897 L12.2838276,7.09289655 C11.8894138,7.32556466 11.5070388,7.57788793 11.137931,7.84896552 L11.137931,5.08806897 Z M7.20689655,3.27586207 L9.82758621,3.27586207 L9.82758621,8.9372069 C8.77505172,9.93634483 7.89015948,11.0984569 7.20689655,12.3788276 L7.20689655,3.27586207 Z M29.4661336,36.6892457 C29.4522112,36.6896552 29.4382888,36.6896552 29.4244483,36.6896552 L8.57227586,36.6896552 C7.48673707,36.6896552 6.60634914,35.8100862 6.60634914,34.7245474 C6.60634914,34.7108707 6.60634914,34.697194 6.60675862,34.6835172 L6.94482759,18.3559655 C7.08364224,11.6994957 12.5923319,6.41593966 19.2488017,6.55483621 C25.7097845,6.68963793 30.9152112,11.8950647 31.049931,18.3559655 L31.3899655,34.6828621 C31.4127328,35.7681552 30.5514267,36.6663966 29.4661336,36.6892457 Z M36.6896552,33.4137931 L32.6773793,33.4137931 L32.5266897,26.2068966 L36.6896552,26.2068966 L36.6896552,33.4137931 Z M36.6896552,24.8965517 L32.4965517,24.8965517 L32.4146552,20.9655172 L33.4137931,20.9655172 C35.222069,20.9676466 36.6875259,22.4331034 36.6896552,24.2413793 L36.6896552,24.8965517 Z" id="Shape" fill="url(#linearGradient-2)"></path>
                <rect id="Rectangle" fill="url(#linearGradient-3)" x="17.0344828" y="13.0798621" width="1.31034483" height="2.62068966"></rect>
                <rect id="Rectangle" fill="url(#linearGradient-3)" x="19.6551724" y="13.0798621" width="1.31034483" height="2.62068966"></rect>
                <path d="M23.5462414,12.7666897 L20.6215517,9.84134483 C19.7139741,8.97528879 18.2860259,8.97528879 17.3784483,9.84134483 L14.4537586,12.7693103 C13.5585474,13.6647672 13.5585474,15.1163017 14.4537586,16.0117586 L17.3784483,18.9344828 C18.2747241,19.8283017 19.7252759,19.8283017 20.6215517,18.9344828 L23.5462414,16.0091379 C24.4414526,15.113681 24.4414526,13.6621466 23.5462414,12.7666897 Z M22.6198276,15.0827241 L19.6951379,18.0106897 C19.3114526,18.3946207 18.6892026,18.3947845 18.3052716,18.0110991 C18.3051078,18.0109353 18.304944,18.0107716 18.3048621,18.0106897 L15.3801724,15.0853448 C14.99575,14.7022328 14.9946034,14.0799828 15.3777974,13.6954784 C15.3786164,13.6946595 15.3794353,13.6938405 15.3801724,13.6931034 L18.3055172,10.7677586 C18.6892845,10.3840733 19.3113707,10.3840733 19.6951379,10.7677586 L22.6198276,13.6931034 C23.0035129,14.0768707 23.0035129,14.6989569 22.6198276,15.0827241 Z" id="Shape" fill="url(#linearGradient-4)"></path>
                <rect id="Rectangle" fill="url(#linearGradient-5)" x="2.62068966" y="4.5862069" width="1.31034483" height="8.51724138"></rect>
                <rect id="Rectangle" fill="url(#linearGradient-6)" x="2.62068966" y="14.4137931" width="1.31034483" height="1.31034483"></rect>
                <rect id="Rectangle" fill="url(#linearGradient-7)" x="33.4137931" y="11.137931" width="1.31034483" height="5.24137931"></rect>
                <rect id="Rectangle" fill="url(#linearGradient-6)" x="33.4137931" y="8.51724138" width="1.31034483" height="1.31034483"></rect>
            </g>
        </g>
    </g>
</svg>