<?xml version="1.0" encoding="UTF-8"?>
<svg width="28px" height="28px" viewBox="0 0 28 28" version="1.1" xmlns="http://www.w3.org/2000/svg" xmlns:xlink="http://www.w3.org/1999/xlink">
    <title>fi-rr-calendar@2x</title>
    <g id="Symbols" stroke="none" stroke-width="1" fill="none" fill-rule="evenodd">
        <g id="calendar" fill="#000000" fill-rule="nonzero">
            <g id="fi-rr-calendar">
                <path d="M22.1666667,2.33333333 L21,2.33333333 L21,1.16666667 C21,0.522334459 20.4776655,0 19.8333333,0 C19.1890011,0 18.6666667,0.522334459 18.6666667,1.16666667 L18.6666667,2.33333333 L9.33333333,2.33333333 L9.33333333,1.16666667 C9.33333333,0.522334459 8.81099887,0 8.16666667,0 C7.52233446,0 7,0.522334459 7,1.16666667 L7,2.33333333 L5.83333333,2.33333333 C2.61327132,2.33719047 0.00385713572,4.94660466 0,8.16666667 L0,22.1666667 C0.00385713572,25.3867287 2.61327132,27.9961429 5.83333333,28 L22.1666667,28 C25.3867287,27.9961429 27.9961429,25.3867287 28,22.1666667 L28,8.16666667 C27.9961429,4.94660466 25.3867287,2.33719047 22.1666667,2.33333333 Z M2.33333333,8.16666667 C2.33333333,6.23367004 3.90033671,4.66666667 5.83333333,4.66666667 L22.1666667,4.66666667 C24.0996633,4.66666667 25.6666667,6.23367004 25.6666667,8.16666667 L25.6666667,9.33333333 L2.33333333,9.33333333 L2.33333333,8.16666667 Z M22.1666667,25.6666667 L5.83333333,25.6666667 C3.90033671,25.6666667 2.33333333,24.0996633 2.33333333,22.1666667 L2.33333333,11.6666667 L25.6666667,11.6666667 L25.6666667,22.1666667 C25.6666667,24.0996633 24.0996633,25.6666667 22.1666667,25.6666667 Z" id="Shape"></path>
                <circle id="Oval" cx="14" cy="17.5" r="1.75"></circle>
                <circle id="Oval" cx="8.16666667" cy="17.5" r="1.75"></circle>
                <circle id="Oval" cx="19.8333333" cy="17.5" r="1.75"></circle>
            </g>
        </g>
    </g>
</svg>