<?xml version="1.0" encoding="UTF-8"?>
<svg width="16px" height="17px" viewBox="0 0 16 17" version="1.1" xmlns="http://www.w3.org/2000/svg" xmlns:xlink="http://www.w3.org/1999/xlink">
    <title>telephone</title>
    <g id="Landing_page" stroke="none" stroke-width="1" fill="none" fill-rule="evenodd">
        <g id="01_Home_Page" transform="translate(-879.000000, -32.000000)" fill="#000000" fill-rule="nonzero">
            <g id="telephone" transform="translate(879.000000, 32.000000)">
                <path d="M3.26436515,10.6489627 C4.84444813,12.5377593 6.74652282,14.0248963 8.91747718,15.0771784 C9.7440332,15.4688797 10.8494274,15.93361 12.0809627,16.013278 C12.1573112,16.0165975 12.2303402,16.019917 12.3066888,16.019917 C13.1332448,16.019917 13.7971452,15.7344398 14.3382241,15.146888 C14.3415436,15.1435685 14.3481826,15.1369295 14.3515021,15.1302905 C14.5440332,14.8979253 14.7631203,14.6887967 14.992166,14.46639 C15.1481826,14.3170124 15.3075187,14.1609959 15.4602158,14.0016598 C16.1672697,13.2647303 16.1672697,12.3286307 15.4535768,11.6149378 L13.458556,9.61991701 C13.1199668,9.26804979 12.7149876,9.08215768 12.2900913,9.08215768 C11.865195,9.08215768 11.4568963,9.26804979 11.1083485,9.61659751 L9.9199668,10.8049793 C9.81042324,10.7419087 9.69756017,10.6854772 9.5913361,10.6323651 C9.45855602,10.5659751 9.33573444,10.5029046 9.22619087,10.433195 C8.1440332,9.74605809 7.16146058,8.84979253 6.22204149,7.69792531 C5.7473527,7.09709544 5.4286805,6.59253112 5.20627386,6.0780083 C5.51830705,5.79585062 5.81042324,5.50041494 6.09258091,5.21161826 C6.19216598,5.10871369 6.29507054,5.00580913 6.3979751,4.90290456 C6.75648133,4.54439834 6.94901245,4.12946058 6.94901245,3.70788382 C6.94901245,3.28630705 6.75980083,2.87136929 6.3979751,2.51286307 L5.40876349,1.52365145 C5.29258091,1.40746888 5.18303734,1.29460581 5.07017427,1.17842324 C4.85108714,0.952697095 4.62204149,0.72033195 4.39631535,0.51120332 C4.05440664,0.17593361 3.65274689,0 3.22785062,0 C2.80627386,0 2.40129461,0.17593361 2.04610788,0.514522822 L0.804614108,1.7560166 C0.353161826,2.20746888 0.097560166,2.75518672 0.0444481328,3.38921162 C-0.0186224066,4.18257261 0.127435685,5.02572614 0.505858921,6.04481328 C1.08677178,7.62157676 1.96312033,9.08547718 3.26436515,10.6489627 Z M0.854406639,3.45892116 C0.894240664,3.01742739 1.06353527,2.64896266 1.38220747,2.33029046 L2.61706224,1.09543568 C2.80959336,0.909543568 3.02204149,0.813278008 3.22785062,0.813278008 C3.43034025,0.813278008 3.63614938,0.909543568 3.825361,1.10207469 C4.04776763,1.30788382 4.25689627,1.52365145 4.48262241,1.7526971 C4.59548548,1.86887967 4.71166805,1.98506224 4.82785062,2.10456432 L5.81706224,3.09377593 C6.02287137,3.29958506 6.12909544,3.50871369 6.12909544,3.71452282 C6.12909544,3.92033195 6.02287137,4.12946058 5.81706224,4.33526971 C5.71415768,4.43817427 5.61125311,4.54439834 5.50834855,4.6473029 C5.19963485,4.9593361 4.91083817,5.25477178 4.59216598,5.53692946 C4.58552697,5.54356846 4.58220747,5.54688797 4.57556846,5.55352697 C4.30004979,5.82904564 4.34320332,6.09128631 4.40959336,6.29045643 C4.41291286,6.30041494 4.41623237,6.30705394 4.41955187,6.31701245 C4.67515353,6.93112033 5.03034025,7.5153527 5.5846971,8.21244813 C6.58054772,9.4406639 7.62951037,10.393361 8.7846971,11.126971 C8.92743568,11.219917 9.08013278,11.2929461 9.22287137,11.3659751 C9.35565145,11.4323651 9.47847303,11.4954357 9.5880166,11.5651452 C9.60129461,11.5717842 9.61125311,11.5784232 9.62453112,11.5850622 C9.73407469,11.6414938 9.84029876,11.6680498 9.94652282,11.6680498 C10.212083,11.6680498 10.3846971,11.4987552 10.4411286,11.4423237 L11.6826224,10.2008299 C11.8751535,10.0082988 12.0842822,9.90539419 12.2900913,9.90539419 C12.5423734,9.90539419 12.7481826,10.0614108 12.8776432,10.2008299 L14.8793029,12.1991701 C15.2776432,12.5975104 15.2743237,13.0290456 14.8693444,13.4506224 C14.7299253,13.6 14.5838672,13.7427386 14.4278506,13.8921162 C14.1954855,14.1178423 13.9531618,14.3502075 13.7340747,14.6124481 C13.352332,15.0240664 12.8975602,15.2165975 12.3100083,15.2165975 C12.2535768,15.2165975 12.1938257,15.213278 12.1373942,15.2099585 C11.0485975,15.140249 10.0361494,14.7153527 9.2759834,14.353527 C7.21125311,13.3543568 5.39880498,11.9369295 3.89507054,10.1377593 C2.65689627,8.6473029 1.82370124,7.25975104 1.2726639,5.77261411 C0.930755187,4.85975104 0.801294606,4.12614108 0.854406639,3.45892116 Z" id="Shape"></path>
            </g>
        </g>
    </g>
</svg>