<svg id="Capa_1" data-name="Capa 1" xmlns="http://www.w3.org/2000/svg" viewBox="0 0 213.05 219.55"><defs><style>.cls-1{fill:#fff;}</style></defs><title>next</title><path class="cls-1" d="M24.4,80.51c.39-5.38.59-10.78,1.3-16.12a6.58,6.58,0,0,1,2.93-4.25C51.48,47.28,74.43,34.6,97.32,21.81a5,5,0,0,1,5.56,0q34.17,19.1,68.43,38c2.06,1.14,3.34,2.38,3.31,4.89-.16,11.64-.1,23.29-.43,34.93a7.34,7.34,0,0,0,1.84,5.68c22.52,26.08,13.85,64.72-17.64,78.62-10,4.4-20.35,5-31,2.75a7.15,7.15,0,0,0-4.41.71c-6.55,3.43-12.9,7.26-19.55,10.48a8.84,8.84,0,0,1-6.63.07c-35-15.57-57.69-42-67.1-79.12-3.15-12.44-3.31-25.6-5.32-38.34Zm93.16,102.9C90.19,168.2,84.22,140.1,93.14,119.18c5-11.82,13.32-20.69,25-25.93,17.07-7.65,33.62-5.78,50.28,4.77,0-10.41,0-19.79,0-29.16,0-2.29-.91-3.56-2.92-4.67Q134.39,47,103.38,29.6c-2.6-1.46-4.47-1.14-6.87.2Q65.81,47,35,64a5.65,5.65,0,0,0-3.34,5.21c-1.38,21.08,1.06,41.63,8.59,61.42,10.67,28,30.07,47.94,57.2,60.44,1.16.53,2.86,1.07,3.84.61C106.57,189.2,111.72,186.41,117.56,183.41Zm60.36-26.63c5.48-12.56,5.58-24.67-.07-36.94l-4.93,2.43-3-5.39L174,114c-4.21-8.83-20.56-19.25-31.61-18.06-.17,1.53-.33,3.09-.51,4.73H136c-.21-1.73-.4-3.3-.59-4.83-10.39-.94-27.22,8.9-31.39,18.23L108.1,117l-3.18,5.28L100,119.86c-5.39,12.43-5.52,24.52.07,36.84l4.91-2.34,3.12,5.29-4.56,3.17c8.07,10.9,18.39,17.05,31.8,18.29.23-2,.41-3.54.6-5.23h6l.46,5.27c13.58-1.32,24-7.44,32-18.39l-4.54-3.09,3.12-5.36Z"/><polygon class="cls-1" points="117.23 132.17 121.14 127.88 133.51 142.44 160.34 111.12 165.32 115.36 134.39 151.61 117.23 132.17"/></svg>