<svg id="Layer_1" data-name="Layer 1" xmlns="http://www.w3.org/2000/svg" viewBox="0 0 249.75 322.87"><defs><style>.cls-1{fill:#fff;}</style></defs><title>Q_man</title><path class="cls-1" d="M94.81,189.6l-.93-.67a4.65,4.65,0,0,0-6.49,1l-8.76,12.16a4.65,4.65,0,0,0,1.05,6.49h0l.93.67a4.66,4.66,0,0,0,6.49-1.05l8.76-12.17a4.64,4.64,0,0,0-1-6.48Z"/><path class="cls-1" d="M87.74,179.71a4.66,4.66,0,0,0-1.87-3l-.93-.67a4.66,4.66,0,0,0-6.49,1.06L66.62,193.49a4.65,4.65,0,0,0,1,6.49h0l.93.67a4.66,4.66,0,0,0,6.49-1.06l11.83-16.42a4.64,4.64,0,0,0,.82-3.46Z"/><path class="cls-1" d="M104.3,201.73l-.92-.66a4.65,4.65,0,0,0-6.49,1.05l-6.25,8.68a4.64,4.64,0,0,0,1,6.48l.93.67a4.65,4.65,0,0,0,6.49-1l6.25-8.68a4.66,4.66,0,0,0-1.06-6.49Z"/><path class="cls-1" d="M89.5,118.22,51.08,96.13l-31.35,60,38.39,21.48a1.36,1.36,0,0,0,1.87-.51l0,0L90,120a1.38,1.38,0,0,0-.49-1.8Zm-35.76,2.17L40,146.2a2.18,2.18,0,0,1-3.85-2l13.76-25.81a2.18,2.18,0,1,1,3.88,2l0,.07Zm5.34-10-1.65,3.08a2.18,2.18,0,0,1-3.88-2l0-.07,1.64-3.08a2.18,2.18,0,0,1,3.89,2Z"/><path class="cls-1" d="M155.72,126.6a27.54,27.54,0,0,1-14.83-.52l-11.6-3.26a13.22,13.22,0,0,0-7.53.12l-11.19,3.54a13.16,13.16,0,0,0-8.17,7.44l-8.46,23A12.66,12.66,0,0,0,105,155.56a12.24,12.24,0,0,0,5.45-9.05,12,12,0,0,1,.42-2.21,16.22,16.22,0,0,1,1.32-3.27c1.82-3.39,4.53-5.19,7.83-5.2a3.09,3.09,0,0,1,.6.08l5.24,1.48a16,16,0,0,1,6.93,4l39.64,38a18.45,18.45,0,0,0,7.33-6.85l-22.08-46.81Z"/><path class="cls-1" d="M159,114.74l-.1,0a1.38,1.38,0,0,0-.78,1.78.59.59,0,0,0,0,.08l27.67,58.68a1.37,1.37,0,0,0,1.76.68L230,156.16,201.54,95.4Z"/><path class="cls-1" d="M113.8,213.87l-.93-.67a4.65,4.65,0,0,0-6.48,1.06l-3.74,5.19a4.64,4.64,0,0,0,1,6.48l.93.67a4.65,4.65,0,0,0,6.49-1l3.74-5.19a4.67,4.67,0,0,0-1.06-6.49Z"/><path class="cls-1" d="M176.38,188.64l-46.66-44.11a11.69,11.69,0,0,0-5-2.94l-4.92-1.38c-2.93.21-4.26,3.74-4.73,5.4a7.29,7.29,0,0,0-.23,1.32h0a16.64,16.64,0,0,1-7.38,12.27,16.91,16.91,0,0,1-16.34,1.25l-.74-.32a2.19,2.19,0,0,1-1.18-2.68l9.21-25.21a18.84,18.84,0,0,1,1.5-2.8,22.34,22.34,0,0,0-10.12.42l-23.09,44,5.07,5.1,3.18-4.41a9,9,0,0,1,12.58-2.05l.77.56a9.34,9.34,0,0,1,3.51,4.78,9,9,0,0,1-.22,5.89,9,9,0,0,1,4.88,1.69l.93.67a9,9,0,0,1,3.39,9.78,8.93,8.93,0,0,1,5.18,1.69l.93.66a9,9,0,0,1,3.38,9.78,9,9,0,0,1,5.18,1.69l.93.67a9,9,0,0,1,3.39,9.78l5.3,4.23.07.06a5.93,5.93,0,1,0,7.76-9l-4.36-3.77a2.21,2.21,0,0,1-.21-3.12,2.26,2.26,0,0,1,1-.66,1.94,1.94,0,0,1,2,.48l7.8,6.73a6,6,0,0,0,8.29-.27,5.94,5.94,0,0,0-.19-8.4l-.21-.2-7.86-6.78a2.24,2.24,0,0,1-.43-3,2.18,2.18,0,0,1,3-.53l.17.13L153.46,206a5.93,5.93,0,0,0,7.78-9l-11.44-9.89a2.25,2.25,0,0,1-.43-3,2.19,2.19,0,0,1,3-.52l.16.13,15.85,13.69a5.88,5.88,0,0,0,4.32,1.43,5.94,5.94,0,0,0,4.08-2.07l0,0a6,6,0,0,0,1.5-4.12,5.67,5.67,0,0,0-2-4.05Z"/></svg>