<?xml version="1.0" encoding="UTF-8"?>
<svg width="512px" height="512px" viewBox="0 0 512 512" version="1.1" xmlns="http://www.w3.org/2000/svg" xmlns:xlink="http://www.w3.org/1999/xlink">
    <title>timer</title>
    <g id="User" stroke="none" stroke-width="1" fill="none" fill-rule="evenodd">
        <g id="timer" fill="#FFFFFF" fill-rule="nonzero">
            <circle id="Oval" cx="192" cy="106.666667" r="106.666667"></circle>
            <path d="M202.666667,373.333333 C202.666667,327.872 220.650667,286.613333 249.728,256 L101.333333,256 C45.4613333,256 0,301.461333 0,357.333333 L0,432 C0,440.832 7.168,448 16,448 L220.096,448 C209.045333,425.408 202.666667,400.128 202.666667,373.333333 Z" id="Path"></path>
            <path d="M373.333333,234.666667 C296.874667,234.666667 234.666667,296.874667 234.666667,373.333333 C234.666667,449.792 296.874667,512 373.333333,512 C449.792,512 512,449.792 512,373.333333 C512,296.874667 449.792,234.666667 373.333333,234.666667 Z M420.416,420.416 C416.256,424.576 410.794667,426.666667 405.333333,426.666667 C399.872,426.666667 394.410667,424.576 390.250667,420.416 L358.250667,388.416 C354.24,384.426667 352,379.008 352,373.333333 L352,320 C352,308.202667 361.557333,298.666667 373.333333,298.666667 C385.109333,298.666667 394.666667,308.202667 394.666667,320 L394.666667,364.501333 L420.416,390.250667 C428.757333,398.592 428.757333,412.074667 420.416,420.416 Z" id="Shape"></path>
        </g>
    </g>
</svg>