<?xml version="1.0" encoding="UTF-8"?>
<svg width="104px" height="90px" viewBox="0 0 104 90" version="1.1" xmlns="http://www.w3.org/2000/svg" xmlns:xlink="http://www.w3.org/1999/xlink">
    <title>Group 11@2x</title>
    <defs>
        <rect id="path-1" x="0" y="0" width="104" height="90" rx="9"></rect>
        <mask id="mask-2" maskContentUnits="userSpaceOnUse" maskUnits="objectBoundingBox" x="0" y="0" width="104" height="90" fill="white">
            <use xlink:href="#path-1"></use>
        </mask>
    </defs>
    <g id="Symbols" stroke="none" stroke-width="1" fill="none" fill-rule="evenodd">
        <g id="Group-11">
            <use id="Rectangle" stroke="#FF6363" mask="url(#mask-2)" stroke-width="2" stroke-dasharray="4" xlink:href="#path-1"></use>
            <g id="arroe-01" transform="translate(41.000000, 15.000000)" fill="#979797" fill-rule="nonzero">
                <path d="M0.025,16.74375 C0.20625,16.34375 0.4625,16.0375 0.93125,16 C1.54375,15.95625 2.0125,16.39375 2.0125,17.01875 C2.01875,18.2625 2.0125,19.5125 2.0125,20.75625 C2.0125,21.61875 2.38125,21.98125 3.25,21.98125 C7.7375,21.98125 12.225,21.98125 16.70625,21.98125 C17.60625,21.98125 17.96875,21.61875 17.96875,20.71875 C17.96875,19.50625 17.96875,18.2875 17.96875,17.075 C17.96875,16.44375 18.38125,16 18.9625,16 C19.54375,16 19.95625,16.44375 19.9625,17.075 C19.9625,18.3625 19.9625,19.65 19.9625,20.9375 C19.9625,22.4125 19.01875,23.5875 17.58125,23.9125 C17.525,23.925 17.46875,23.95625 17.4125,23.975 C12.46875,23.975 7.525,23.975 2.575,23.975 C2.51875,23.95625 2.4625,23.925 2.4,23.9125 C1.4625,23.7125 0.775,23.18125 0.34375,22.33125 C0.20625,22.0625 0.125,21.7625 0.01875,21.475 C0.025,19.90625 0.025,18.325 0.025,16.74375 Z" id="Path"></path>
                <path d="M10.99375,3.46875 C10.99375,3.65625 10.99375,3.76875 10.99375,3.8875 C10.99375,8.5625 10.99375,13.2375 10.99375,17.9125 C10.99375,18.575 10.5625,19.0125 9.9375,18.99375 C9.46875,18.975 9.04375,18.58125 9.00625,18.1125 C8.99375,18 9,17.88125 9,17.76875 C9,13.1375 9,8.50625 9,3.86875 C9,3.75625 9,3.65 9,3.475 C8.88125,3.58125 8.80625,3.64375 8.7375,3.71875 C7.74375,4.70625 6.75625,5.70625 5.75625,6.6875 C5.1625,7.26875 4.29375,7.075 4.05625,6.31875 C3.93125,5.9125 4.05625,5.56875 4.35625,5.275 C5.075,4.55625 5.79375,3.8375 6.5125,3.11875 C7.40625,2.225 8.3,1.325 9.2,0.43125 C9.725,-0.0875 10.25625,-0.1 10.78125,0.41875 C12.4,2.03125 14.0125,3.65 15.625,5.26875 C15.99375,5.6375 16.075,6.05 15.88125,6.45625 C15.70625,6.83125 15.30625,7.09375 14.9,7.0125 C14.64375,6.9625 14.375,6.8125 14.18125,6.63125 C13.19375,5.68125 12.23125,4.70625 11.2625,3.7375 C11.19375,3.65 11.11875,3.5875 10.99375,3.46875 Z" id="Path"></path>
            </g>
            <text id="Upload-Doc" font-family="Helvetica" font-size="12" font-weight="normal" fill="#979797">
                <tspan x="15" y="66">Upload  Doc</tspan>
            </text>
        </g>
    </g>
</svg>