<?xml version="1.0" encoding="UTF-8"?>
<svg width="54px" height="71px" viewBox="0 0 54 71" version="1.1" xmlns="http://www.w3.org/2000/svg" xmlns:xlink="http://www.w3.org/1999/xlink">
    <title>Group 2@2x</title>
    <g id="Symbols" stroke="none" stroke-width="1" fill="none" fill-rule="evenodd">
        <g id="user" fill="#FFFFFF" fill-rule="nonzero">
            <g id="Group-2" transform="translate(0.000000, -0.000000)">
                <path d="M10.0677587,16.7788705 C10.0440228,7.53598162 17.5174194,0.0238485514 26.7603083,1.46168791e-14 C31.0929001,-0.0111519639 35.2611076,1.65845127 38.3879514,4.65748418 C38.5826171,4.84546448 38.7739402,5.03324814 38.9617238,5.22791393 C39.5380526,5.83177114 40.0695491,6.47672445 40.5524776,7.15746481 C40.7001483,7.36550158 40.834448,7.58710597 40.9718939,7.80182823 C41.4408615,8.5236647 41.8526091,9.28109158 42.2034008,10.0670301 C42.2873627,10.2583532 42.3510715,10.4530189 42.4248085,10.6441454 C42.7785497,11.5134559 43.0569808,12.4116714 43.2571523,13.3287635 C43.2807481,13.4294392 43.2874336,13.5301148 43.3074901,13.6341332 C43.7326087,15.7178436 43.7326087,17.8660494 43.3074901,19.9497599 C43.2874336,20.0537783 43.2805515,20.1544539 43.2571523,20.2551295 C43.0571774,21.1722217 42.7787463,22.0704372 42.4248085,22.9397477 C42.3510715,23.1310708 42.2871661,23.3257365 42.2034008,23.516863 C41.8522158,24.3016217 41.4404682,25.0578688 40.9718939,25.7787221 C40.8342514,25.9934444 40.7001483,26.2150487 40.5524776,26.4230855 C40.0697458,27.1040225 39.5380526,27.7487792 38.9617238,28.3526364 C38.7737436,28.5473022 38.5824205,28.7352825 38.3879514,28.9230661 C37.0292235,30.2178886 35.4626555,31.2751794 33.7535292,32.0506965 C33.4817836,32.1747713 33.2064987,32.2890146 32.9280676,32.3863475 C32.1191231,32.7074477 31.2867794,32.965429 30.4381152,33.1581285 C30.2267357,33.2051236 30.0084741,33.2318655 29.7937518,33.2688324 C28.8825586,33.4385259 27.9585843,33.5315329 27.0318572,33.5474601 L26.6627787,33.5474601 C25.7360516,33.5317295 24.8120773,33.4385259 23.9008841,33.2688324 C23.6861619,33.2318655 23.4679002,33.2051236 23.2565207,33.1581285 C22.4078565,32.965429 21.5753162,32.7074477 20.7665683,32.3863475 C20.4879406,32.2756436 20.2128523,32.161597 19.9411067,32.0506965 C13.9371419,29.3399262 10.075484,23.3662428 10.0677587,16.7788705 Z" id="Path"></path>
                <path d="M53.6937947,70.4724138 L-2.22907407e-13,70.4724138 L-2.22907407e-13,63.76077 C-0.0489066525,52.3889453 7.11597411,42.2358464 17.8465815,38.4711281 C23.6071158,40.8694499 30.0867336,40.8694499 35.8474645,38.4711281 C36.9678743,38.8805161 38.0597724,39.3636412 39.1160801,39.9175539 C39.814124,40.2766041 40.4584875,40.6859921 41.1295928,41.0987229 C41.5659195,41.3704685 42.008735,41.6357252 42.4283479,41.9344094 C43.0760541,42.3941353 43.6867934,42.8941707 44.2875045,43.4075771 C44.6734933,43.7432282 45.0559428,44.0786825 45.4183358,44.4143335 C45.9720518,44.9377682 46.4921437,45.4914842 46.9921792,46.0587679 C47.3512294,46.4681559 47.7002514,46.8842294 48.0325596,47.3138706 C48.472229,47.8776149 48.8916453,48.4549267 49.2809769,49.0487557 C49.6166279,49.5521339 49.9153121,50.0755686 50.2104569,50.5991999 C50.5461079,51.1763151 50.8548203,51.753627 51.1365941,52.3543381 C51.4185645,52.9550492 51.6669109,53.6127836 51.9083751,54.2538042 C52.1197546,54.810863 52.3447018,55.364579 52.5191145,55.931666 C52.7540898,56.7101325 52.9184743,57.5155377 53.0828587,58.3209428 C53.1835343,58.7973824 53.3144913,59.2639904 53.3882284,59.7471154 C53.5870234,61.0757586 53.6890755,62.4171828 53.6937947,63.76077 L53.6937947,70.4724138 L53.6937947,70.4724138 Z" id="Path"></path>
            </g>
        </g>
    </g>
</svg>