<?xml version="1.0" encoding="UTF-8"?>
<svg width="20px" height="15px" viewBox="0 0 20 15" version="1.1" xmlns="http://www.w3.org/2000/svg" xmlns:xlink="http://www.w3.org/1999/xlink">
    <title>youtube@2x</title>
    <g id="Symbols" stroke="none" stroke-width="1" fill="none" fill-rule="evenodd">
        <g id="video-course" transform="translate(-7.000000, -10.000000)" fill="#FFFFFF" fill-rule="nonzero">
            <g id="youtube" transform="translate(7.000000, 10.000000)">
                <path d="M19.5878906,2.21984863 C19.3574219,1.36303712 18.6818848,0.687622062 17.8251953,0.456909187 C16.2601318,0.0286865312 9.99975588,0.0286865312 9.99975588,0.0286865312 C9.99975588,0.0286865312 3.73962403,0.0286865312 2.17456056,0.440673812 C1.33435059,0.671142562 0.642334,1.36315919 0.41186525,2.21984863 C0,3.78479003 0,7.03027344 0,7.03027344 C0,7.03027344 0,10.2921143 0.41186525,11.8406982 C0.642578125,12.6973877 1.31787109,13.3728027 2.17468263,13.6035156 C3.7561035,14.0318603 10,14.0318603 10,14.0318603 C10,14.0318603 16.2601318,14.0318603 17.8251953,13.6198731 C18.6820068,13.3892822 19.3574219,12.7138672 19.5881348,11.8571778 C19.999962,10.2921143 19.999962,7.04675294 19.999962,7.04675294 C19.999962,7.04675294 20.0163574,3.78479003 19.5878906,2.21984863 L19.5878906,2.21984863 Z M8.00659181,10.0285644 L8.00659181,4.03198244 L13.2124023,7.03027344 L8.00659181,10.0285644 Z" id="Shape"></path>
            </g>
        </g>
    </g>
</svg>