<?xml version="1.0" encoding="UTF-8"?>
<svg width="454px" height="512px" viewBox="0 0 454 512" version="1.1" xmlns="http://www.w3.org/2000/svg" xmlns:xlink="http://www.w3.org/1999/xlink">
    <title>waiting-list</title>
    <g id="User" stroke="none" stroke-width="1" fill="none" fill-rule="evenodd">
        <g id="waiting-list" transform="translate(0.140000, 0.000000)" fill="#FFFFFF" fill-rule="nonzero">
            <polygon id="Path" points="317.353 8.909 317.353 88.21 396.654 88.21"></polygon>
            <path d="M367.734,146.817 C380.807,146.817 393.548,148.965 405.563,153.081 L405.563,118.627 L286.936,118.627 L286.936,0 L0,0 L0,512 L405.563,512 L405.563,373.36 C393.548,377.475 380.806,379.624 367.734,379.624 C336.641,379.624 307.41,367.516 285.424,345.53 C263.438,323.544 251.33,294.312 251.33,263.22 C251.33,232.128 263.438,202.897 285.424,180.91 C307.409,158.925 336.641,146.817 367.734,146.817 Z M69.959,88.583 L170.78,88.583 L170.78,119 L69.959,119 L69.959,88.583 Z M231.171,423.416 L69.959,423.416 L69.959,392.999 L231.171,392.999 L231.171,423.416 L231.171,423.416 Z M231.171,372.68 L69.959,372.68 L69.959,342.263 L231.171,342.263 L231.171,372.68 L231.171,372.68 Z M231.171,321.944 L69.959,321.944 L69.959,291.527 L231.171,291.527 L231.171,321.944 L231.171,321.944 Z M231.171,271.208 L69.959,271.208 L69.959,240.791 L231.171,240.791 L231.171,271.208 L231.171,271.208 Z M231.171,220.472 L69.959,220.472 L69.959,190.055 L231.171,190.055 L231.171,220.472 L231.171,220.472 Z M231.171,169.736 L69.959,169.736 L69.959,139.319 L231.171,139.319 L231.171,169.736 L231.171,169.736 Z" id="Shape"></path>
            <path d="M367.734,177.234 C320.245,177.234 281.748,215.731 281.748,263.22 C281.748,310.709 320.245,349.207 367.734,349.207 C415.222,349.207 453.72,310.71 453.72,263.22 C453.72,215.73 415.223,177.234 367.734,177.234 Z M422.338,278.429 L352.525,278.429 L352.525,208.616 L382.942,208.616 L382.942,248.011 L422.337,248.011 L422.337,278.429 L422.338,278.429 Z" id="Shape"></path>
        </g>
    </g>
</svg>