<?xml version="1.0" encoding="UTF-8"?>
<svg width="20px" height="14px" viewBox="0 0 20 14" version="1.1" xmlns="http://www.w3.org/2000/svg" xmlns:xlink="http://www.w3.org/1999/xlink">
    <title>Shape</title>
    <g id="Symbols" stroke="none" stroke-width="1" fill="none" fill-rule="evenodd">
        <g id="coures-icons" transform="translate(0.000000, -12.000000)" fill="#66ABE7" fill-rule="nonzero">
            <g id="youtube-copy" transform="translate(0.000000, 12.000000)">
                <path d="M19.5878906,2.19116209 C19.3574219,1.33435059 18.6818848,0.658935531 17.8251953,0.428222656 C16.2601318,0 9.99975588,0 9.99975588,0 C9.99975588,0 3.73962403,0 2.17456056,0.411987281 C1.33435059,0.642456031 0.642334,1.33447266 0.41186525,2.19116209 C0,3.7561035 0,7.00158691 0,7.00158691 C0,7.00158691 0,10.2634277 0.41186525,11.8120117 C0.642578125,12.6687012 1.31787109,13.3441162 2.17468263,13.5748291 C3.7561035,14.0031738 10,14.0031738 10,14.0031738 C10,14.0031738 16.2601318,14.0031738 17.8251953,13.5911865 C18.6820068,13.3605957 19.3574219,12.6851807 19.5881348,11.8284912 C19.999962,10.2634277 19.999962,7.01806641 19.999962,7.01806641 C19.999962,7.01806641 20.0163574,3.7561035 19.5878906,2.19116209 L19.5878906,2.19116209 Z M8.00659181,9.99987791 L8.00659181,4.00329591 L13.2124023,7.00158691 L8.00659181,9.99987791 Z" id="Shape"></path>
            </g>
        </g>
    </g>
</svg>