<?xml version="1.0" encoding="UTF-8"?>
<svg width="200px" height="200px" viewBox="0 0 200 200" version="1.1" xmlns="http://www.w3.org/2000/svg" xmlns:xlink="http://www.w3.org/1999/xlink">
    <title>Avatar_x5F_23@2x</title>
    <defs>
        <linearGradient x1="50.0688107%" y1="54.0341031%" x2="50.0688107%" y2="6.70114607%" id="linearGradient-1">
            <stop stop-color="#A95037" offset="0%"></stop>
            <stop stop-color="#E99E81" offset="100%"></stop>
        </linearGradient>
        <linearGradient x1="50.0302688%" y1="186.487321%" x2="50.0302688%" y2="-118.667521%" id="linearGradient-2">
            <stop stop-color="#000000" offset="0%"></stop>
            <stop stop-color="#35596F" offset="100%"></stop>
        </linearGradient>
        <linearGradient x1="49.9512686%" y1="187.048089%" x2="49.9512686%" y2="-49.1506369%" id="linearGradient-3">
            <stop stop-color="#000000" offset="0%"></stop>
            <stop stop-color="#35596F" offset="100%"></stop>
        </linearGradient>
        <linearGradient x1="50.7856508%" y1="33.9364914%" x2="46.0501888%" y2="-26.2905134%" id="linearGradient-4">
            <stop stop-color="#000000" offset="0%"></stop>
            <stop stop-color="#35596F" offset="100%"></stop>
        </linearGradient>
        <linearGradient x1="50.9326215%" y1="43.9973183%" x2="47.4325716%" y2="-35.6038062%" id="linearGradient-5">
            <stop stop-color="#000000" offset="0%"></stop>
            <stop stop-color="#35596F" offset="100%"></stop>
        </linearGradient>
        <linearGradient x1="79.3931787%" y1="73.6707213%" x2="3.33110505%" y2="19.3324675%" id="linearGradient-6">
            <stop stop-color="#000000" offset="0%"></stop>
            <stop stop-color="#35596F" offset="100%"></stop>
        </linearGradient>
        <linearGradient x1="26.1642123%" y1="137.153528%" x2="76.9480923%" y2="-53.5007299%" id="linearGradient-7">
            <stop stop-color="#000000" offset="0%"></stop>
            <stop stop-color="#35596F" offset="100%"></stop>
        </linearGradient>
        <linearGradient x1="50.2523165%" y1="43.364159%" x2="50.2523165%" y2="3.93793567%" id="linearGradient-8">
            <stop stop-color="#000000" offset="0%"></stop>
            <stop stop-color="#17272F" offset="100%"></stop>
        </linearGradient>
    </defs>
    <g id="Symbols" stroke="none" stroke-width="1" fill="none" fill-rule="evenodd">
        <g id="Avatars" transform="translate(0.000000, -1.000000)" fill-rule="nonzero">
            <g id="Group" transform="translate(0.000000, 1.000000)">
                <circle id="Oval" fill="#288EB1" transform="translate(99.993929, 100.136490) rotate(-45.000000) translate(-99.993929, -100.136490) " cx="99.9939295" cy="100.13649" r="70.6115677"></circle>
                <g transform="translate(58.998145, 38.589981)">
                    <path d="M67.4211503,114.137291 C64.6382189,106.975881 67.6808905,87.7179963 67.6808905,87.7179963 L22.0408163,84.4155844 C22.0408163,84.4155844 22.5602968,109.721707 20.7792208,114.693878 C19.6289425,117.959184 12.7272727,121.781076 8.0890538,124.044527 C17.9220779,129.202226 29.0909091,132.133581 40.9647495,132.133581 C53.8033395,132.133581 65.8627087,128.682746 76.2152134,122.70872 C72.6530612,120.593692 68.7940631,117.625232 67.4211503,114.137291 Z" id="Path" fill="#F2AB8B"></path>
                    <g>
                        <path d="M78.961039,58.2931354 L79.8886827,47.012987 C79.8886827,47.012987 78.5899814,37.2912801 78.3302412,36.7346939 C78.0705009,36.1781076 74.5825603,29.5732839 74.5825603,29.5732839 C74.5825603,29.5732839 71.0946197,23.9703154 70.7235622,23.8961039 C70.3525046,23.8218924 63.0055659,20.6679035 63.0055659,20.6679035 L39.1465677,23.7847866 C39.1465677,23.7847866 31.2430427,25.2690167 30.0556586,25.528757 C28.8682746,25.7884972 19.1465677,31.2059369 18.6641929,31.5769944 C18.2189239,31.9480519 11.0575139,39.7402597 10.0556586,41.038961 C9.05380334,42.3376623 6.93877551,52.1335807 6.93877551,52.1335807 L3.71057514,56.1781076 C3.07977737,56.6233766 2.41187384,63.3395176 2.33766234,65.7142857 C2.26345083,68.0890538 3.26530612,69.2022263 4.63821892,71.1317254 C6.01113173,73.0612245 8.20037106,78.5528757 8.20037106,78.5528757 C8.94248609,81.9294991 10.8719852,84.7124304 14.8051948,83.5250464 C14.8051948,83.5250464 16.9944341,91.1317254 19.9257885,94.9165121 C22.8571429,98.6641929 32.1335807,105.380334 35.5102041,107.755102 C38.8868275,110.12987 43.3024119,113.358071 49.8330241,113.061224 C56.3636364,112.801484 60.3710575,109.128015 62.9684601,106.382189 C65.528757,103.636364 70.0185529,99.0352505 71.5769944,95.7328386 C72.987013,92.7643785 74.5454545,85.1948052 75.1020408,80.9647495 C76.8460111,81.0760668 76.6233766,79.1465677 76.8831169,77.8478664 C77.3283859,75.6957328 77.8478664,73.5435993 78.3673469,71.4285714 L78.4415584,71.1688312 C80,67.8664193 80.6307978,64.4897959 80.6307978,60.8163265 C80.2597403,59.851577 79.703154,58.961039 78.961039,58.2931354 Z" id="Path" fill="#FFBA9B"></path>
                        <g transform="translate(2.226345, 20.779221)">
                            <path d="M26.5306122,43.3024119 C26.5306122,43.3024119 32.1706865,42.3376623 33.9517625,40.5565863 L35.3246753,40.8163265 C35.3246753,40.8163265 33.3951763,43.3024119 26.5306122,43.3024119 Z" id="Path" fill="#FFBA9B"></path>
                            <path d="M61.8923933,42.8942486 C61.8923933,42.8942486 57.8478664,41.9294991 56.5491651,40.148423 L55.5473098,40.4081633 C55.5473098,40.4081633 56.9202226,42.8942486 61.8923933,42.8942486 Z" id="Path" fill="#FFBA9B"></path>
                            <path d="M38.4044527,81.1131725 C38.4044527,81.1131725 41.3358071,78.7384045 42.2634508,78.3673469 C43.1910946,77.9962894 45.5658627,79.109462 49.2393321,79.109462 C52.9128015,79.109462 53.8404453,78.1818182 54.5454545,78.1818182 C55.2504638,78.1818182 57.4768089,81.1131725 57.4768089,81.1131725 C57.4768089,81.1131725 45.8998145,80.742115 38.4044527,81.1131725 Z" id="Path" fill="#FFBA9B"></path>
                            <g transform="translate(7.792208, 38.218924)" fill="#FFBA9B" id="Path">
                                <path d="M15.0649351,31.5398887 C20.6679035,30.1298701 23.4879406,22.0037106 21.3358071,13.3580705 C19.1836735,4.71243043 12.8756957,-1.15027829 7.23562152,0.25974026 C1.63265306,1.66975881 -1.18738404,9.79591837 0.964749536,18.4415584 C1.55844156,20.7792208 2.44897959,22.9313544 3.56215213,24.7866419 C3.9703154,24.7495362 4.37847866,24.6753247 4.82374768,24.5269017 C4.82374768,24.5269017 5.2690167,26.0482375 6.01113173,28.0519481 C8.71985158,30.9090909 11.9851577,32.3191095 15.0649351,31.5398887 Z"></path>
                                <path d="M66.9016698,18.8497217 C67.3469388,16.6975881 67.8664193,14.5454545 68.3858998,12.4304267 L68.4601113,12.1706865 C69.6474954,9.61038961 70.3153989,7.01298701 70.5751391,4.26716141 C70.0185529,3.82189239 69.3877551,3.45083488 68.6827458,3.19109462 C63.2653061,1.18738404 56.3265306,6.30797774 53.2096475,14.6567718 C50.0927644,23.0055659 51.9851577,31.3914657 57.4397032,33.432282 C59.1465677,34.0630798 60.9647495,33.9888683 62.7829314,33.3580705 C63.7847866,29.8330241 64.7124304,25.0463822 65.1205937,22.0037106 C66.864564,22.0779221 66.6419295,20.148423 66.9016698,18.8497217 Z"></path>
                            </g>
                            <path d="M17.6623377,26.6048237 C17.6623377,26.6048237 19.406308,15.6586271 29.7588126,14.1372913 C42.0408163,12.3191095 60.2226345,10.2782931 63.3395176,11.7625232 C66.4564007,13.2467532 70.8719852,16.5491651 70.6864564,26.7903525 L53.9888683,34.32282 L42.2634508,34.5083488 L28.4972171,28.6456401 L17.6623377,26.6048237 Z" id="Path" fill="#FFBA9B"></path>
                            <path d="M37.8478664,55.3988868 C37.8478664,55.3988868 39.6660482,52.83859 41.5213358,51.1688312 C43.7105751,49.2022263 45.4545455,40.9276438 44.5640074,39.851577 C43.6363636,38.7384045 36.5862709,41.6326531 35.6586271,44.7495362 C34.7309833,47.8664193 32.9128015,53.3580705 37.1428571,58.7012987 L37.8478664,55.3988868 Z" id="Path" fill="#FFBA9B"></path>
                            <path d="M56.3636364,53.7662338 C56.3636364,53.7662338 52.9128015,52.244898 52.244898,45.2319109 C51.8738404,41.5584416 51.4656772,40 52.393321,40 C53.3209647,40 58.2189239,44.6011132 59.3320965,48.0890538 C60.445269,51.5769944 59.8886827,55.9925788 58.2189239,57.6252319 L56.3636364,53.7662338 Z" id="Path" fill="#FFBA9B"></path>
                            <path d="M24.2671614,78.7012987 C22.6345083,76.6975881 20.2226345,64.7495362 17.8478664,61.6326531 C15.4730983,58.5157699 12.541744,53.5435993 12.541744,53.5435993 L10.3525046,53.3580705 C10.3525046,53.3580705 11.6512059,57.0315399 11.6512059,59.9628942 C11.6512059,62.4860853 9.3135436,62.4489796 8.68274583,62.3747681 C9.68460111,63.0426716 10.9833024,63.2282004 12.6530612,62.7087199 C12.6530612,62.7087199 14.8423006,70.3153989 17.7736549,74.1001855 C20,76.9573284 25.9369202,81.5584416 30.1298701,84.6382189 C28.2374768,82.8571429 25.3432282,80.0371058 24.2671614,78.7012987 Z M74.9165121,50.2782931 L75.2875696,48.0890538 C74.9165121,50.2782931 74.174397,51.0204082 72.7272727,54.1372913 C71.2430427,57.2541744 69.6103896,68.8311688 68.3116883,73.2096475 C67.2727273,76.8089054 64.9721707,80.6679035 64.1929499,81.9294991 C66.3079777,79.5918367 68.4230056,77.0315399 69.4248609,74.9536178 C70.8348794,71.9851577 72.393321,64.4155844 72.9499072,60.1855288 C73.3580705,60.2226345 73.6549165,60.1113173 73.877551,59.9628942 C72.8014842,59.5176252 73.4693878,57.9962894 73.4693878,57.9962894 L74.9165121,50.2782931 Z" id="Shape" fill="#FFBA9B"></path>
                            <path d="M49.9072356,62.0037106 C49.9072356,62.0037106 47.4211503,62.2634508 45.380334,59.406308 C43.3024119,56.5120594 45.380334,53.0612245 45.2319109,49.3506494 C45.0834879,45.6400742 45.4916512,38.8868275 45.4916512,38.8868275 L51.5398887,38.3302412 C51.5398887,38.3302412 50.8348794,40.1113173 51.1317254,42.5974026 C51.3914657,45.0834879 52.3562152,49.7588126 52.6530612,51.2801484 C52.9499072,52.8014842 57.3283859,60.9276438 49.9072356,62.0037106 Z" id="Path" fill="#FFBA9B"></path>
                            <path d="M44.1187384,53.4693878 C44.1187384,53.4693878 49.4990724,51.2801484 53.3209647,53.2096475 L53.3209647,52.096475 C53.3209647,52.096475 48.9053803,50.4638219 43.8218924,52.5046382 L44.1187384,53.4693878 Z" id="Path" fill="#FFBA9B"></path>
                            <path d="M36.8460111,59.4434137 C36.6604824,57.8849722 37.9220779,52.1706865 40.5194805,54.174397 C42.1150278,55.3988868 40.5565863,57.2541744 39.4805195,58.1447124 C38.9981447,58.5528757 37.0686456,61.187384 36.7346939,60.2597403 L36.8460111,59.4434137 Z" id="Path" fill="#FFBA9B"></path>
                            <path d="M56.6604824,53.8404453 C54.8423006,52.987013 55.8441558,56.2523191 56.2152134,56.8460111 C56.9573284,57.9962894 58.0333952,59.1465677 58.2931354,60.5194805 C58.6641929,59.406308 58.0333952,58.1447124 57.8478664,57.0686456 C57.6623377,55.9554731 57.5139147,55.0278293 56.9202226,54.025974 L56.6604824,53.8404453 Z" id="Path" fill="#FFBA9B"></path>
                            <path d="M10.3153989,35.5844156 C10.3153989,35.5844156 15.4359926,30.4638219 16.7346939,23.6734694 C18.0333952,16.8831169 25.528757,12.4675325 30.6864564,11.9480519 C35.8070501,11.3914657 48.4972171,11.5769944 52.8756957,9.57328386 C52.8756957,9.57328386 64.4155844,9.3877551 66.4564007,10.6864564 C68.4601113,11.9851577 69.3877551,15.8070501 70.5009276,16.9202226 C71.6141002,18.0333952 72.690167,22.9684601 72.1706865,27.3840445 L74.5454545,32.8756957 C74.5454545,32.8756957 74.7309833,37.2912801 75.1020408,38.1818182 C75.4730983,39.109462 77.6623377,34.1372913 77.6623377,34.1372913 C77.6623377,34.1372913 76.9202226,22.5974026 76.7346939,21.8552876 C76.5491651,21.1131725 75.6215213,12.8756957 73.9888683,10.4638219 C72.3191095,8.0890538 71.7996289,3.67346939 67.1985158,2.37476809 C62.5974026,1.07606679 48.6827458,-0.371057514 45.0092764,0.185528757 C41.3358071,0.742115028 23.7105751,7.34693878 22.6345083,7.90352505 C21.5213358,8.46011132 14.9165121,13.2096475 13.6549165,14.5083488 C12.3562152,15.8070501 8.86827458,21.4842301 8.34879406,23.6734694 C7.79220779,25.8627087 7.60667904,28.9795918 7.60667904,28.9795918 L10.3153989,35.5844156 Z" id="Path" fill="#FFBA9B"></path>
                            <path d="M19.6289425,38.3673469 C19.6289425,38.3673469 13.8404453,36.5862709 13.580705,32.987013 C13.580705,32.987013 16.4749536,29.6846011 19.9257885,29.5361781 C23.3766234,29.3877551 32.1706865,30.6493506 32.1706865,30.6493506 L37.1428571,32.0222635 L42.6345083,34.5083488 C42.6345083,34.5083488 40.7050093,39.0352505 35.6215213,39.1836735 L30.7977737,38.7755102 L19.6289425,38.3673469 Z" id="Path" fill="#FFBA9B"></path>
                            <path d="M56.1038961,38.7755102 C56.1038961,38.7755102 53.6178108,37.1057514 53.6178108,34.3599258 L57.1799629,31.2059369 L63.5250464,28.4601113 L70.5380334,28.4601113 L73.0241187,30.6493506 L74.6938776,32.83859 C74.6938776,32.83859 73.729128,37.3654917 68.7940631,38.3302412 C63.8218924,39.3320965 56.1038961,38.7755102 56.1038961,38.7755102 Z" id="Path" fill="#FFBA9B"></path>
                            <path d="M37.4768089,61.5584416 C37.4768089,61.5584416 39.406308,60.0742115 41.9666048,60.0742115 C44.5269017,60.0742115 46.0111317,61.7068646 46.0111317,61.7068646 C46.0111317,61.7068646 47.755102,63.2653061 50.2411874,62.8942486 C52.7272727,62.5231911 54.9165121,59.851577 54.9165121,59.851577 C54.9165121,59.851577 57.7736549,60.0371058 58.1447124,62.0408163 C58.1447124,62.0408163 57.6994434,63.5992579 56.0296846,63.7847866 C56.0296846,63.7847866 53.1725417,67.0871985 49.1651206,67.0871985 C44.1929499,67.0871985 40.0742115,64.1558442 38.7012987,62.6716141 C38.6641929,62.7458256 37.9220779,62.4860853 37.4768089,61.5584416 Z" id="Path" fill="#FFBA9B"></path>
                            <path d="M1.26159555,40.742115 C1.70686456,39.4434137 2.82003711,38.812616 3.93320965,39.554731 C5.60296846,40.5565863 5.86270872,43.9703154 6.49350649,45.6029685 C7.23562152,47.3469388 8.79406308,49.6474954 8.49721707,51.6512059 C8.23747681,53.2096475 7.38404453,53.3951763 8.12615955,54.7680891 C8.49721707,55.3246753 8.86827458,55.6957328 9.3135436,56.0667904 C9.3135436,56.0667904 8.68274583,57.8849722 7.82931354,57.6252319 C7.01298701,57.3654917 4.97217069,53.6920223 4.34137291,52.1335807 C3.71057514,50.5751391 1.78107607,49.0909091 1.2244898,46.8274583 C0.705009276,44.4897959 1.26159555,40.742115 1.26159555,40.742115 Z" id="Path" fill="#FFBA9B"></path>
                            <path d="M75.4730983,46.9758813 C76.2152134,44.9721707 76.4749536,42.8571429 77.8478664,41.2987013 C77.8478664,41.2987013 77.5881262,46.419295 76.6604824,48.1632653 C75.7328386,49.9072356 74.2857143,56.1410019 74.2857143,56.1410019 L73.0983302,58.8868275 C73.0983302,58.8868275 74.1001855,53.2096475 74.7309833,51.2801484 C75.3617811,49.3506494 75.4730983,46.9758813 75.4730983,46.9758813 Z" id="Path" fill="#FFBA9B"></path>
                            <path d="M8.49721707,51.6512059 C8.75695733,49.6474954 7.19851577,47.3469388 6.49350649,45.6029685 C5.86270872,43.9703154 5.56586271,40.5565863 3.93320965,39.554731 C2.82003711,38.812616 1.74397032,39.4805195 1.26159555,40.742115 C1.26159555,40.742115 1.18738404,41.1131725 1.15027829,41.7068646 C1.48423006,41.5213358 2.85714286,40.8534323 3.11688312,41.6697588 C3.37662338,42.5974026 3.56215213,44.0445269 3.56215213,44.0445269 C3.56215213,44.0445269 4.30426716,43.1168831 4.74953618,44.6011132 C4.74953618,44.6011132 3.93320965,45.974026 4.00742115,46.9016698 C4.00742115,46.9016698 4.93506494,45.7884972 5.67717996,46.5306122 C6.41929499,47.2727273 7.86641929,49.7588126 7.86641929,50.6493506 C7.86641929,51.5398887 6.82745826,52.690167 7.86641929,53.9146568 C7.79220779,53.2096475 8.27458256,52.8014842 8.49721707,51.6512059 Z" id="Path" fill="#FFBA9B"></path>
                            <path d="M75.4730983,46.9758813 C75.4730983,46.9758813 75.4359926,48.1632653 75.1762523,49.5361781 C75.9183673,47.8664193 77.3283859,44.6011132 77.8478664,41.5584416 C77.8478664,41.3729128 77.8478664,41.2615955 77.8478664,41.2615955 C76.4749536,42.8571429 76.1781076,44.9721707 75.4730983,46.9758813 Z" id="Path" fill="#FFBA9B"></path>
                            <path d="M78.5528757,39.9628942 C78.4415584,39.4805195 77.9962894,38.9239332 77.6994434,38.5157699 C77.4397032,38.1076067 77.1057514,37.7736549 76.7346939,37.5139147 C76.7346939,37.5139147 76.7346939,37.5139147 76.7346939,37.5139147 C77.3283859,38.1818182 78.3673469,39.257885 78.3302412,40.2226345 C78.2931354,41.3729128 78.2560297,42.4860853 78.1447124,43.6363636 C77.8849722,45.974026 77.2541744,48.2003711 76.2523191,50.3153989 C76.2523191,50.3153989 76.2894249,50.3525046 76.2894249,50.3153989 C77.3283859,48.1261596 78.0333952,45.7884972 78.3673469,43.4137291 C78.5528757,42.4118738 78.812616,41.038961 78.5528757,39.9628942 Z M76.1781076,50.6493506 C75.6586271,52.7643785 75.1020408,54.9165121 74.619666,57.0315399 C74.5083488,57.5881262 74.471243,58.1818182 74.3599258,58.7755102 C74.2115028,59.5918367 73.8033395,60 73.0241187,60.0371058 C73.135436,59.257885 73.2096475,58.4415584 73.3580705,57.6623377 C74.174397,53.1725417 75.8812616,48.8682746 75.4359926,44.2300557 C75.4359926,44.1929499 75.3617811,44.1929499 75.3617811,44.2300557 C75.7328386,48.2745826 74.5083488,52.1706865 73.580705,56.0667904 C73.283859,57.3654917 73.0612245,58.7012987 72.8756957,60.0371058 C72.8756957,60.0371058 72.8756957,60.0371058 72.83859,60.0371058 C72.6530612,60.0371058 72.6530612,60.296846 72.8014842,60.3339518 C72.6159555,61.6697588 72.4304267,62.9684601 72.2077922,64.3042672 C71.6512059,67.2727273 71.0204082,70.2411874 70.0556586,73.135436 C69.0909091,76.0296846 67.1985158,78.4044527 65.2319109,80.7050093 C63.2653061,82.9684601 61.2615955,85.2319109 59.0723562,87.2356215 C56.7346939,89.4248609 53.9517625,91.0575139 50.7977737,91.7996289 C47.0500928,92.690167 43.1168831,92.1706865 39.6289425,90.6493506 C37.1057514,89.5361781 34.8794063,87.903525 32.6530612,86.3450835 C28.0148423,83.0426716 23.2282004,79.6289425 19.2207792,75.5844156 C17.1799629,73.5064935 15.8812616,70.9833024 14.7680891,68.3116883 C14.025974,66.5306122 13.3580705,64.6753247 12.8014842,62.8200371 C12.8014842,62.8200371 12.8014842,62.8200371 12.8014842,62.8200371 C12.8014842,62.7829314 12.7272727,62.7458256 12.690167,62.7458256 C11.0946197,63.1910946 9.49907236,63.1168831 8.23747681,61.9666048 C7.12430427,60.9647495 6.60482375,59.4434137 6.27087199,58.0333952 C6.12244898,57.4025974 5.78849722,56.7717996 5.52875696,56.1781076 C5.00927644,54.9536178 4.45269017,53.6920223 3.82189239,52.5046382 C3.19109462,51.2801484 2.44897959,50.2040816 1.63265306,49.0538033 C0.667903525,47.6808905 0.25974026,46.3079777 0.333951763,44.6382189 C0.445269017,42.0779221 0.705009276,39.4805195 1.18738404,36.9573284 C1.26159555,36.5862709 1.33580705,35.8441558 1.66975881,35.5844156 C1.70686456,35.5473098 1.63265306,35.4730983 1.59554731,35.5102041 C1.15027829,35.8812616 1.07606679,36.9202226 1.00185529,37.4397032 C0.779220779,38.7012987 0.630797774,40 0.482374768,41.2615955 C0.371057514,42.4489796 0.25974026,43.6734694 0.185528757,44.8608534 C0.111317254,46.3450835 0.482374768,47.606679 1.2987013,48.8311688 C2.04081633,50.0185529 2.89424861,51.0575139 3.52504638,52.3191095 C4.15584416,53.5435993 4.71243043,54.7680891 5.23191095,56.0296846 C5.52875696,56.6975881 5.89981447,57.4025974 6.04823748,58.1076067 C6.34508349,59.3692022 6.82745826,60.6307978 7.64378479,61.6697588 C8.38589981,62.5974026 9.4619666,63.1168831 10.6122449,63.2282004 C10.7977737,63.2282004 12.6530612,63.1910946 12.5788497,62.8942486 C12.6159555,63.0797774 12.690167,63.2282004 12.7272727,63.4137291 C13.4693878,65.7513915 14.32282,68.0890538 15.3617811,70.3153989 C16.5120594,72.7643785 17.9591837,74.8051948 19.8886827,76.6604824 C22.0408163,78.7012987 24.4155844,80.593692 26.7532468,82.4118738 C28.8311688,84.0074212 30.9090909,85.528757 33.0612245,87.0500928 C35.3988868,88.6827458 37.7365492,90.3153989 40.4081633,91.3543599 C43.7105751,92.6530612 47.3840445,92.9128015 50.8348794,92.1335807 C53.8033395,91.4656772 56.4378479,89.9072356 58.7012987,87.9406308 C60.890538,86.0111317 62.8571429,83.7476809 64.7866419,81.5955473 C66.716141,79.4434137 68.7569573,77.1057514 69.8330241,74.3599258 C70.8719852,71.6883117 71.4656772,68.7940631 72.0593692,65.974026 C72.3562152,64.5269017 72.6159555,63.0426716 72.83859,61.5584416 C72.8756957,61.2244898 72.9499072,60.8534323 72.987013,60.5194805 C74.32282,60.5565863 74.5825603,59.257885 74.7309833,58.1076067 C75.0278293,55.6586271 75.6957328,53.2096475 76.2523191,50.8348794 C76.2152134,50.6122449 76.1781076,50.6122449 76.1781076,50.6493506 Z" id="Shape" fill="#FFBA9B"></path>
                            <path d="M8.16326531,53.0612245 C8.49721707,52.1706865 8.60853432,51.3914657 8.49721707,50.4267161 C8.20037106,48.3487941 6.75324675,46.6048237 6.23376623,44.6011132 C5.78849722,43.0055659 5.60296846,41.187384 4.56400742,39.851577 C3.45083488,38.4415584 1.78107607,39.257885 1.26159555,40.7050093 C1.26159555,40.7050093 1.26159555,40.7050093 1.26159555,40.7050093 C1.48423006,40.148423 1.85528757,39.6289425 2.44897959,39.3692022 C2.78293135,39.2207792 3.11688312,39.2949907 3.41372913,39.406308 C3.41372913,39.406308 3.41372913,39.4434137 3.41372913,39.4434137 C4.1187384,40.7050093 4.19294991,41.8552876 3.78478664,43.2282004 C3.45083488,44.3413729 3.00556586,45.380334 2.7458256,46.4935065 C2.7458256,46.4935065 2.7458256,46.4935065 2.7458256,46.4935065 C3.33951763,44.3042672 5.15769944,41.7068646 3.63636364,39.554731 C3.74768089,39.6289425 3.85899814,39.6660482 3.9703154,39.7402597 C4.67532468,40.2226345 5.08348794,41.0760668 5.38033395,41.8181818 C5.93692022,43.3024119 6.12244898,44.8608534 6.7903525,46.270872 C7.71799629,48.2003711 9.12801484,50.3153989 8.12615955,52.5046382 C7.90352505,53.0241187 7.60667904,53.5064935 7.68089054,54.1001855 C7.79220779,54.9536178 8.64564007,55.6215213 9.3135436,56.0667904 C9.35064935,56.1038961 9.42486085,56.0296846 9.3877551,55.9925788 C8.53432282,55.2504638 7.71799629,54.2486085 8.16326531,53.0612245 Z M4.93506494,51.7254174 C4.78664193,51.2430427 4.60111317,50.7606679 4.45269017,50.2411874 C4.60111317,50.7606679 4.74953618,51.2430427 4.93506494,51.7254174 C4.89795918,51.7625232 4.93506494,51.7625232 4.93506494,51.7254174 Z M4.08163265,48.5714286 C4.15584416,49.1651206 4.30426716,49.7217069 4.45269017,50.2782931 C4.30426716,49.6846011 4.15584416,49.1280148 4.08163265,48.5714286 Z M5.3432282,43.9332096 C4.93506494,43.8218924 4.48979592,44.7866419 4.41558442,45.0463822 C3.9703154,46.270872 3.93320965,47.4211503 4.08163265,48.5714286 C4.00742115,48.0890538 4.00742115,47.606679 4.0445269,47.1243043 C4.1187384,46.3079777 4.41558442,45.528757 4.82374768,44.8237477 C4.97217069,44.5640074 5.12059369,44.3413729 5.38033395,44.1929499 C5.78849722,43.9332096 6.08534323,44.7124304 6.19666048,44.9721707 C6.19666048,44.9721707 6.23376623,44.9721707 6.23376623,44.9721707 C6.04823748,44.4155844 5.86270872,44.0816327 5.3432282,43.9332096 Z M77.8478664,41.2987013 C76.4749536,42.8200371 75.9183673,45.0463822 75.4359926,46.9758813 C75.4359926,47.012987 75.5102041,47.0500928 75.5102041,47.012987 C76.3636364,45.0834879 76.4749536,42.9684601 77.8478664,41.2987013 C77.8478664,41.2987013 77.8478664,41.2987013 77.8478664,41.2987013 Z" id="Shape" fill="#FFBA9B"></path>
                            <path d="M41.2244898,61.4100186 C41.2244898,61.4100186 43.2282004,61.187384 44.6011132,62.1150278 C44.6011132,62.0779221 43.6363636,63.1168831 41.2244898,61.4100186 Z" id="Path" fill="#000000"></path>
                            <path d="M54.4341373,61.6697588 C54.4341373,61.6697588 55.6215213,61.5213358 56.5491651,62.0779221 C56.5491651,62.0779221 55.9183673,62.4860853 53.9888683,62.4118738 L54.4341373,61.6697588 Z" id="Path" fill="#000000"></path>
                        </g>
                        <path d="M39.2207792,80.1113173 C39.2207792,79.0352505 39.406308,77.9220779 39.703154,76.8831169 C39.9628942,75.9554731 40.3710575,74.9165121 41.2615955,74.471243 C41.2987013,74.471243 41.2615955,74.3970315 41.2244898,74.4341373 C40.4081633,74.6938776 39.9257885,75.6586271 39.6660482,76.4007421 C39.1836735,77.5881262 38.961039,78.8868275 38.8868275,80.148423 C38.812616,81.187384 38.9981447,82.3005566 39.851577,83.0055659 C40.890538,83.8589981 42.2634508,83.9703154 43.4508349,84.3784787 C43.4508349,84.3784787 43.4508349,84.3784787 43.4508349,84.3784787 C42.4118738,84.0074212 41.2987013,83.7105751 40.4081633,83.0426716 C39.4434137,82.3747681 39.2207792,81.2244898 39.2207792,80.1113173 Z M60.8534323,80.3710575 C60.7792208,79.1465677 60.4823748,77.9220779 60.0742115,76.7717996 C59.7773655,75.9183673 59.3692022,74.9907236 58.7012987,74.32282 C58.6641929,74.2857143 58.5899814,74.32282 58.6270872,74.3970315 C59.7402597,75.9183673 60.2597403,77.9591837 60.445269,79.8144712 C60.6307978,81.6697588 60.5194805,84.3042672 58.2189239,84.6382189 C58.2189239,84.6382189 58.2189239,84.6382189 58.2189239,84.6382189 C60.4081633,84.4897959 60.9647495,82.1892393 60.8534323,80.3710575 Z M42.0037106,82.5231911 C42.0037106,82.5231911 42.0037106,82.5231911 42.0037106,82.5231911 C43.6734694,82.0037106 45.4545455,82.3376623 47.012987,83.0426716 C47.0871985,83.0797774 47.16141,83.0055659 47.0871985,82.9313544 C45.6400742,81.7068646 43.6363636,81.8552876 42.0037106,82.5231911 Z M59.3320965,83.2282004 C58.7012987,82.5602968 57.7365492,82.3376623 56.8460111,82.3005566 C56.8460111,82.2634508 56.8831169,82.2634508 56.8831169,82.2263451 C56.8831169,82.1892393 56.8460111,82.1521336 56.8089054,82.1892393 C56.7717996,82.2263451 56.7717996,82.2634508 56.7346939,82.2634508 C56.6604824,82.2634508 56.6233766,82.3376623 56.6233766,82.3747681 C55.5473098,83.7847866 54.1372913,84.6382189 52.3191095,84.8237477 C50.6122449,85.0092764 48.6827458,84.5640074 47.3469388,83.4508349 C47.3469388,83.4508349 47.309833,83.4508349 47.309833,83.4879406 C49.6846011,85.8998145 55.1762523,85.8998145 56.6975881,82.4860853 C57.6994434,82.5602968 58.5899814,82.6716141 59.3320965,83.2282004 C59.3320965,83.3024119 59.3692022,83.2653061 59.3320965,83.2282004 Z M54.9165121,69.3506494 C55.1762523,71.2059369 55.8441558,72.9128015 56.3636364,74.6938776 C56.9573284,76.6233766 57.2541744,78.5899814 57.0686456,80.593692 C57.0686456,80.593692 57.0686456,80.593692 57.0686456,80.593692 C57.3654917,78.9239332 57.2541744,77.2541744 56.8831169,75.5844156 C56.4749536,73.729128 55.5844156,72.0593692 55.1762523,70.2411874 C54.7680891,68.5343228 54.6938776,66.716141 54.3970315,64.9721707 C54.2486085,64.1187384 54.1372913,63.2282004 54.1001855,62.3747681 C54.025974,61.2615955 54.2115028,60.296846 54.5454545,59.257885 C54.5454545,59.2207792 54.5083488,59.1836735 54.471243,59.2207792 C54.174397,60.0371058 53.9888683,60.7792208 53.9517625,61.6326531 C53.9146568,62.4860853 54.025974,63.3024119 54.1372913,64.1558442 C54.3599258,65.8998145 54.6567718,67.606679 54.9165121,69.3506494 Z" id="Shape" fill="url(#linearGradient-1)"></path>
                        <g transform="translate(33.395176, 88.682746)">
                            <path d="M3.00556586,3.74768089 C3.00556586,3.74768089 5.93692022,6.12244898 8.31168831,7.23562152 C10.6864564,8.34879406 12.987013,10.3525046 16.4007421,10.3525046 C19.7773655,10.3525046 22.2634508,10.1669759 24.3042672,7.86641929 C26.3079777,5.56586271 29.5361781,4.1187384 29.5361781,4.1187384 L25.3061224,3.93320965 L18.0705009,2.93135436 C18.0705009,2.93135436 12.6530612,2.85714286 11.7254174,3.00556586 C10.7977737,3.19109462 3.00556586,3.74768089 3.00556586,3.74768089 Z" id="Path" fill="#F37968"></path>
                            <path d="M19.0723562,9.42486085 C20.4823748,9.35064935 21.8552876,8.90538033 22.9313544,7.90352505 C23.9332096,6.97588126 25.4174397,5.38033395 23.1910946,5.12059369 C20.4081633,4.82374768 17.7365492,5.75139147 14.9165121,5.49165121 C13.5064935,5.3432282 12.2077922,5.12059369 10.7977737,5.12059369 C10.2782931,5.12059369 9.27643785,5.23191095 9.09090909,5.86270872 C8.75695733,7.05009276 12.096475,8.23747681 12.8756957,8.53432282 C14.8423006,9.27643785 16.9573284,9.53617811 19.0723562,9.42486085 Z" id="Path" fill="#FF857A"></path>
                            <g fill="#E1685D">
                                <path d="M29.3506494,3.63636364 C28.4230056,3.82189239 27.5324675,3.07977737 25.1205937,1.63265306 C22.7458256,0.148423006 21.8923933,0.445269017 20.8163265,0.519480519 C19.703154,0.593692022 18.2560297,1.89239332 18.2560297,1.89239332 L17.1428571,0.964749536 C16.1410019,-0.0371057514 14.7680891,0.222634508 14.7680891,0.222634508 C11.5398887,0.296846011 6.7903525,2.78293135 4.23005566,3.15398887 C1.66975881,3.52504638 0.111317254,2.33766234 0.111317254,2.33766234 C4.23005566,5.71428571 11.2059369,3.33951763 16.0667904,4.15584416 L16.2152134,4.15584416 L16.4378479,4.34137291 C17.6252319,5.00927644 18.7384045,4.78664193 19.8144712,4.23005566 C22.9684601,4.08163265 29.2764378,5.4174397 31.5769944,2.78293135 C31.5398887,2.82003711 30.2411874,3.48794063 29.3506494,3.63636364 Z" id="Path"></path>
                                <path d="M16.0296846,4.15584416 C14.9165121,3.82189239 13.6549165,3.8961039 12.5046382,3.8961039 C11.0946197,3.93320965 9.68460111,4.08163265 8.27458256,4.15584416 C5.45454545,4.30426716 2.37476809,4.19294991 0.0742115028,2.37476809 C0.0742115028,2.37476809 0.0742115028,2.37476809 0.0742115028,2.37476809 C2.15213358,4.08163265 4.89795918,4.34137291 7.49536178,4.34137291 C8.97959184,4.34137291 10.4638219,4.26716141 11.9480519,4.19294991 C13.3209647,4.1187384 14.6938776,4.23005566 16.0667904,4.26716141 C16.1038961,4.26716141 16.1038961,4.15584416 16.0296846,4.15584416 Z M31.5027829,2.82003711 C29.9443414,4.26716141 27.755102,4.41558442 25.7513915,4.41558442 C23.8589981,4.41558442 21.9666048,4.1187384 20.1113173,4.26716141 C20.296846,4.15584416 20.4823748,4.00742115 20.6679035,3.8961039 C20.7050093,3.85899814 20.6679035,3.78478664 20.6307978,3.82189239 C19.257885,4.41558442 17.9220779,5.08348794 16.4378479,4.37847866 C16.4007421,4.37847866 16.3636364,4.41558442 16.4007421,4.41558442 C17.0315399,4.78664193 17.6994434,4.97217069 18.4415584,4.89795918 C18.961039,4.82374768 19.5176252,4.60111317 20,4.34137291 C22.1150278,4.37847866 24.1929499,4.63821892 26.3079777,4.60111317 C28.0519481,4.56400742 30.4267161,4.41558442 31.5769944,2.85714286 C31.5769944,2.82003711 31.5398887,2.78293135 31.5027829,2.82003711 Z" id="Shape"></path>
                            </g>
                        </g>
                        <path d="M55.6957328,55.2875696 C55.6957328,55.2875696 58.8497217,54.32282 61.0760668,52.9499072 C63.2653061,51.5769944 70.7235622,51.1688312 72.7643785,51.1688312 C72.7643785,51.1688312 76.2152134,52.393321 76.8831169,54.0630798 C76.8831169,54.0630798 76.7346939,52.4304267 75.9183673,51.1688312 C75.1020408,49.9443414 74.5454545,47.8664193 74.5454545,47.8664193 C74.5454545,47.8664193 70.1298701,46.3450835 68.7569573,46.6419295 C67.3840445,46.9016698 62.3005566,49.2393321 61.038961,49.9443414 C59.8144712,50.6493506 58.4415584,51.6141002 57.9962894,51.7254174 C57.6252319,51.8367347 56.1410019,55.2875696 55.6957328,55.2875696 Z" id="Path" fill="#0A151A"></path>
                        <path d="M44.9721707,55.2875696 C44.9721707,55.2875696 40.593692,54.32282 37.5510204,52.9499072 C34.5083488,51.5769944 24.2300557,51.1688312 21.3729128,51.1688312 C21.3729128,51.1688312 16.6233766,52.393321 15.6586271,54.0630798 C15.6586271,54.0630798 15.8441558,52.4304267 16.9944341,51.1688312 C18.1447124,49.9443414 18.8868275,47.8664193 18.8868275,47.8664193 C18.8868275,47.8664193 24.9721707,46.3450835 26.864564,46.6419295 C28.7569573,46.9016698 35.8070501,49.2393321 37.5139147,49.9443414 C39.2207792,50.6493506 41.1131725,51.6141002 41.7068646,51.7254174 C42.3005566,51.8367347 44.4155844,55.2875696 44.9721707,55.2875696 Z" id="Path" fill="#0A151A"></path>
                        <path d="M22.0779221,58.8497217 L18.8497217,59.6660482 L19.2207792,60.296846 L21.9666048,59.554731 C21.9666048,59.554731 24.3413729,61.5584416 28.1261596,61.5584416 C31.8738404,61.5584416 33.2467532,60.3710575 33.2467532,60.3710575 L22.0779221,58.8497217 Z" id="Path" fill="#FFBA9B"></path>
                        <path d="M64.0074212,61.2244898 C64.0074212,61.2244898 69.0538033,61.7810761 71.4285714,59.5918367 L73.432282,60.0371058 L73.6178108,59.406308 L70.8719852,58.6641929 L69.0538033,58.9239332 L64.0074212,61.2244898 Z" id="Path" fill="#FFBA9B"></path>
                        <g transform="translate(21.521336, 55.287570)" id="Path">
                            <path d="M0.482374768,3.74768089 C0.482374768,3.74768089 1.96660482,1.63265306 3.59925788,0.816326531 C3.59925788,0.816326531 7.64378479,-0.296846011 12.8756957,0.742115028 C12.8756957,0.742115028 14.6938776,1.92949907 15.2504638,3.48794063 L8.38589981,3.85899814 L0.482374768,3.74768089 Z" fill="#000000"></path>
                            <path d="M1.59554731,4.52690167 C5.04638219,6.45640074 10.6864564,6.45640074 14.8051948,4.52690167 L15.2504638,4.37847866 L16.0667904,4.63821892 L15.1762523,3.41372913 C14.7680891,2.70871985 12.987013,1.2244898 12.987013,1.2244898 C8.57142857,0.408163265 4.30426716,1.2244898 4.30426716,1.2244898 C3.00556586,1.81818182 1.59554731,2.78293135 0.445269017,3.67346939 L1.59554731,4.52690167 Z" fill="#FFFFFF"></path>
                            <g transform="translate(4.452690, 0.371058)">
                                <path d="M7.12430427,2.07792208 C7.12430427,1.55844156 7.01298701,1.03896104 6.7903525,0.593692022 C3.93320965,0.296846011 1.33580705,0.593692022 0.333951763,0.779220779 C0.185528757,1.18738404 0.0742115028,1.63265306 0.0742115028,2.07792208 C0.0742115028,3.9703154 1.55844156,5.49165121 3.41372913,5.60296846 C3.59925788,5.60296846 3.78478664,5.60296846 3.9703154,5.60296846 C5.75139147,5.4174397 7.12430427,3.8961039 7.12430427,2.07792208 Z" fill="#3F0D00"></path>
                                <path d="M3.59925788,5.19480519 C5.30612245,5.19480519 6.716141,3.78478664 6.716141,2.07792208 C6.716141,1.52133581 6.567718,1.00185529 6.30797774,0.556586271 C4.00742115,0.371057514 1.92949907,0.556586271 0.816326531,0.705009276 C0.593692022,1.11317254 0.482374768,1.59554731 0.482374768,2.07792208 C0.482374768,3.82189239 1.89239332,5.19480519 3.59925788,5.19480519 Z" fill="#3F0D00"></path>
                                <path d="M5.45454545,2.07792208 C5.45454545,3.07977737 4.63821892,3.93320965 3.59925788,3.93320965 C2.5974026,3.93320965 1.74397032,3.11688312 1.74397032,2.07792208 C1.74397032,1.07606679 2.56029685,0.222634508 3.59925788,0.222634508 C4.63821892,0.25974026 5.45454545,1.07606679 5.45454545,2.07792208 Z" fill="#000000"></path>
                                <path d="M4.89795918,2.07792208 C4.89795918,2.78293135 4.30426716,3.37662338 3.59925788,3.37662338 C2.89424861,3.37662338 2.30055659,2.78293135 2.30055659,2.07792208 C2.30055659,1.3729128 2.89424861,0.779220779 3.59925788,0.779220779 C4.34137291,0.779220779 4.89795918,1.3729128 4.89795918,2.07792208 Z" fill="#000000"></path>
                                <path d="M3.59925788,1.33580705 C4.00742115,1.33580705 4.34137291,1.00185529 4.34137291,0.593692022 C4.34137291,0.556586271 4.34137291,0.556586271 4.34137291,0.519480519 C3.82189239,0.519480519 3.30241187,0.519480519 2.85714286,0.556586271 C2.85714286,0.556586271 2.85714286,0.593692022 2.85714286,0.593692022 C2.85714286,0.964749536 3.19109462,1.33580705 3.59925788,1.33580705 Z" fill="#FFFFFF"></path>
                            </g>
                            <path d="M0.222634508,3.85899814 C0.964749536,3.26530612 1.74397032,2.7458256 2.52319109,2.22634508 C3.04267161,1.89239332 3.78478664,1.3729128 4.37847866,1.26159555 C5.4174397,1.07606679 6.45640074,1.00185529 7.49536178,0.964749536 C8.34879406,0.927643785 9.20222635,0.927643785 10.0556586,1.00185529 C10.5009276,1.03896104 10.9090909,1.07606679 11.3543599,1.11317254 C11.6883117,1.15027829 12.0593692,1.18738404 12.393321,1.26159555 C12.4675325,1.26159555 12.8756957,1.2987013 12.9128015,1.3729128 C13.6549165,2.00371058 14.5454545,2.70871985 15.0649351,3.52504638 C15.1391466,3.67346939 15.3617811,3.52504638 15.2875696,3.41372913 C14.7309833,2.56029685 13.8404453,1.89239332 13.0983302,1.2244898 C12.9499072,1.07606679 12.690167,1.11317254 12.4675325,1.07606679 C11.9480519,1.00185529 11.3914657,0.927643785 10.8348794,0.890538033 C9.79591837,0.816326531 8.75695733,0.816326531 7.71799629,0.853432282 C6.60482375,0.890538033 5.45454545,1.00185529 4.34137291,1.2244898 C3.71057514,1.33580705 3.00556586,1.89239332 2.44897959,2.22634508 C1.66975881,2.6716141 0.927643785,3.22820037 0.222634508,3.85899814 C0.185528757,3.85899814 0.185528757,3.85899814 0.222634508,3.85899814 L0.222634508,3.85899814 Z" fill="#000000"></path>
                            <path d="M1.55844156,4.52690167 C3.45083488,5.60296846 5.64007421,5.97402597 7.79220779,6.01113173 C10.1298701,6.04823748 12.690167,5.64007421 14.7680891,4.52690167 C14.8051948,4.52690167 14.7680891,4.45269017 14.7309833,4.48979592 C10.6493506,6.12244898 5.64007421,6.67903525 1.55844156,4.52690167 C1.55844156,4.52690167 1.55844156,4.52690167 1.55844156,4.52690167 L1.55844156,4.52690167 Z" fill="#EB9E9E"></path>
                        </g>
                        <g transform="translate(57.884972, 55.287570)" id="Path">
                            <path d="M13.2096475,3.74768089 C13.2096475,3.74768089 11.9851577,1.63265306 10.5751391,0.816326531 C10.5751391,0.816326531 7.16141002,-0.296846011 2.7458256,0.742115028 C2.7458256,0.742115028 1.18738404,1.92949907 0.742115028,3.48794063 L6.567718,3.85899814 L13.2096475,3.74768089 Z" fill="#000000"></path>
                            <path d="M12.2820037,4.52690167 C9.3877551,6.45640074 4.60111317,6.45640074 1.15027829,4.52690167 L0.779220779,4.37847866 L0.0742115028,4.63821892 L0.816326531,3.41372913 C1.15027829,2.70871985 2.6716141,1.2244898 2.6716141,1.2244898 C6.38218924,0.408163265 9.98144712,1.2244898 9.98144712,1.2244898 C11.0946197,1.81818182 12.244898,2.78293135 13.2467532,3.67346939 L12.2820037,4.52690167 Z" fill="#FFFFFF"></path>
                            <g transform="translate(2.968460, 0.371058)">
                                <path d="M3.56215213,5.49165121 C5.38033395,5.49165121 6.82745826,3.93320965 6.82745826,1.96660482 C6.82745826,1.55844156 6.75324675,1.15027829 6.6419295,0.779220779 C5.71428571,0.630797774 3.22820037,0.25974026 0.519480519,0.705009276 C0.371057514,1.11317254 0.296846011,1.52133581 0.296846011,1.96660482 C0.296846011,3.8961039 1.74397032,5.49165121 3.56215213,5.49165121 Z" fill="#3F0D00"></path>
                                <path d="M3.56215213,5.08348794 C5.15769944,5.08348794 6.45640074,3.67346939 6.45640074,1.96660482 C6.45640074,1.52133581 6.38218924,1.11317254 6.19666048,0.705009276 C5.12059369,0.556586271 3.11688312,0.333951763 0.927643785,0.630797774 C0.742115028,1.03896104 0.667903525,1.48423006 0.667903525,1.96660482 C0.667903525,3.67346939 1.96660482,5.08348794 3.56215213,5.08348794 Z" fill="#3F0D00"></path>
                                <path d="M5.2690167,1.96660482 C5.2690167,2.96846011 4.48979592,3.82189239 3.56215213,3.82189239 C2.63450835,3.82189239 1.85528757,3.00556586 1.85528757,1.96660482 C1.85528757,0.964749536 2.63450835,0.111317254 3.56215213,0.111317254 C4.48979592,0.111317254 5.2690167,0.927643785 5.2690167,1.96660482 Z" fill="#000000"></path>
                                <path d="M4.74953618,1.96660482 C4.74953618,2.6716141 4.19294991,3.26530612 3.52504638,3.26530612 C2.85714286,3.26530612 2.30055659,2.6716141 2.30055659,1.96660482 C2.30055659,1.26159555 2.85714286,0.667903525 3.52504638,0.667903525 C4.23005566,0.667903525 4.74953618,1.2244898 4.74953618,1.96660482 Z" fill="#000000"></path>
                                <path d="M3.56215213,1.18738404 C3.93320965,1.18738404 4.23005566,0.890538033 4.26716141,0.519480519 C3.82189239,0.482374768 3.37662338,0.482374768 2.89424861,0.482374768 C2.89424861,0.890538033 3.19109462,1.18738404 3.56215213,1.18738404 Z" fill="#FFFFFF"></path>
                            </g>
                            <path d="M13.4693878,3.85899814 C12.83859,3.26530612 12.2077922,2.7458256 11.5027829,2.22634508 C11.0575139,1.89239332 10.4267161,1.3729128 9.90723562,1.26159555 C9.01669759,1.07606679 8.12615955,1.00185529 7.27272727,0.964749536 C6.53061224,0.927643785 5.82560297,0.927643785 5.08348794,1.00185529 C4.71243043,1.03896104 4.34137291,1.07606679 4.00742115,1.11317254 C3.71057514,1.15027829 3.41372913,1.18738404 3.11688312,1.26159555 C3.07977737,1.26159555 2.70871985,1.2987013 2.6716141,1.3729128 C2.04081633,2.00371058 1.2987013,2.70871985 0.853432282,3.52504638 C0.779220779,3.67346939 0.593692022,3.52504638 0.667903525,3.41372913 C1.15027829,2.56029685 1.89239332,1.89239332 2.52319109,1.2244898 C2.6716141,1.07606679 2.89424861,1.11317254 3.04267161,1.07606679 C3.48794063,1.00185529 3.93320965,0.927643785 4.41558442,0.890538033 C5.30612245,0.816326531 6.19666048,0.816326531 7.05009276,0.853432282 C8.0148423,0.890538033 8.94248609,1.00185529 9.90723562,1.2244898 C10.4267161,1.33580705 11.0204082,1.89239332 11.5027829,2.22634508 C12.2077922,2.6716141 12.83859,3.22820037 13.4693878,3.85899814 C13.4693878,3.85899814 13.4693878,3.85899814 13.4693878,3.85899814 L13.4693878,3.85899814 Z" fill="#000000"></path>
                            <path d="M12.3191095,4.52690167 C10.7235622,5.60296846 8.86827458,5.97402597 7.05009276,6.01113173 C5.08348794,6.04823748 2.93135436,5.64007421 1.15027829,4.52690167 C1.11317254,4.52690167 1.15027829,4.45269017 1.18738404,4.48979592 C4.63821892,6.12244898 8.86827458,6.67903525 12.3191095,4.52690167 C12.3191095,4.52690167 12.3191095,4.52690167 12.3191095,4.52690167 L12.3191095,4.52690167 Z" fill="#EB9E9E"></path>
                        </g>
                        <g>
                            <path d="M21.1502783,16.4378479 C23.0055659,17.1428571 25.4174397,17.5139147 27.3840445,17.2912801 C26.4935065,17.7736549 25.3061224,18.0333952 24.2671614,18.1447124 C25.974026,18.812616 27.9777365,18.2560297 29.6846011,17.8849722 C27.8664193,19.0723562 26.1966605,20.0371058 24.0445269,20.742115 C30.0556586,24.0074212 37.5881262,22.6345083 43.7847866,21.2615955 C43.1910946,22.2634508 41.8552876,22.6716141 40.9647495,23.2653061 C42.2263451,23.1168831 43.4879406,22.6716141 44.6011132,22.1150278 C43.4879406,23.3766234 41.8552876,24.4897959 40.1855288,25.1205937 C44.1929499,26.122449 52.0222635,23.3766234 53.9517625,20.0742115 C54.025974,21.038961 53.580705,21.8923933 52.9128015,22.5974026 C54.1001855,21.9294991 56.3636364,20.3710575 56.6233766,18.7755102 C57.3654917,19.5176252 57.1799629,20.6307978 56.8831169,21.5213358 C59.0723562,19.7402597 61.8181818,18.2560297 61.9666048,15.3617811 C62.6716141,15.4730983 63.2282004,15.6215213 63.7476809,16.1410019 C64.1187384,14.8051948 62.8571429,13.6920223 61.9666048,12.7643785 C60.8163265,16.7346939 58.3673469,17.4768089 54.3970315,18.961039 C52.5046382,19.6660482 50.8348794,22.0408163 48.6456401,22.0037106 C46.7532468,21.9666048 46.4564007,20.4823748 44.8237477,19.9628942 C42.4860853,19.1836735 39.554731,20.890538 37.2170686,20.9647495 C33.729128,21.0760668 34.174397,19.406308 31.9851577,17.8849722 C30.9833024,17.1799629 22.0037106,16.4749536 26.122449,14.471243 C23.4137291,14.9165121 20.593692,15.5844156 17.8107607,15.2875696 L21.1502783,16.4378479 Z" id="Path" fill="url(#linearGradient-2)"></path>
                            <path d="M42.3747681,20.593692 C40.0742115,20.8163265 37.6252319,21.7810761 35.3246753,21.5213358 C33.580705,21.3358071 32.7272727,20.148423 31.7625232,18.8868275 C30.9833024,17.8107607 30.3525046,17.6252319 29.0538033,17.3654917 C28.4230056,17.2541744 23.3024119,16.2152134 24.4526902,15.2875696 C23.4508349,15.4359926 22.3005566,15.7328386 21.2615955,15.6586271 L20.7050093,15.8441558 C21.9294991,16.0296846 23.2282004,16.3265306 24.4897959,16.5862709 C25.2690167,16.7346939 26.9387755,16.9573284 27.4211503,17.6623377 C27.3469388,17.7736549 27.2727273,17.9220779 27.16141,18.0333952 C27.7179963,17.8478664 29.7959184,17.3654917 30.2040816,18.0333952 C30.8719852,19.1465677 27.0500928,20.6307978 26.3450835,20.8163265 C28.0519481,20.890538 29.7217069,20.593692 31.4285714,20.9276438 C31.8367347,21.0018553 34.1001855,21.8181818 32.83859,22.3005566 C35.1762523,22.3376623 37.6252319,21.8923933 39.8886827,21.4471243 C40.3710575,21.3358071 45.3432282,20.3339518 44.0074212,22.0037106 C44.6011132,21.8181818 45.3432282,21.9666048 45.380334,22.6716141 C45.4174397,23.5992579 43.5621521,24.8237477 42.8200371,25.0463822 C45.974026,24.7866419 50.1298701,23.6734694 52.2077922,21.1502783 C51.1688312,21.7068646 49.8701299,22.5231911 48.6456401,22.5974026 C46.1966605,22.6716141 44.8608534,20.3710575 42.3747681,20.593692 Z M62.1892393,13.3951763 C61.8923933,14.8794063 60.296846,17.0686456 58.9981447,17.7736549 C57.5881262,18.5528757 55.9183673,18.6270872 54.5083488,19.3320965 L54.6938776,19.5176252 C54.8051948,19.7773655 54.8423006,20.1113173 54.8794063,20.4081633 C55.8812616,19.4805195 57.1057514,17.9962894 57.4397032,20.148423 C57.7365492,19.3692022 58.2931354,18.4415584 59.109462,18.2560297 C59.9257885,18.0333952 60,18.4415584 60.5565863,17.6994434 C61.5584416,16.4749536 61.1131725,14.3970315 63.1168831,14.9165121 C62.7458256,14.4341373 62.4489796,13.9146568 62.1892393,13.3951763 Z M53.1725417,20.5194805 L53.729128,19.9628942 C53.3209647,19.9628942 53.0241187,20.1113173 53.1725417,20.5194805 Z" id="Shape" fill="url(#linearGradient-3)"></path>
                            <g transform="translate(0.371058, 20.037106)" id="Path">
                                <path d="M16.8831169,7.79220779 C14.7309833,5.08348794 13.729128,4.86085343 10.3153989,4.71243043 C6.75324675,4.52690167 8.23747681,3.45083488 8.0890538,0.0742115028 C6.01113173,-0.0742115028 4.08163265,1.3729128 2.30055659,2.63450835 C0.222634508,5.67717996 0.148423006,7.90352505 0.148423006,7.90352505 C1.26159555,4.45269017 5.52875696,1.55844156 5.52875696,1.55844156 C0.705009276,6.38218924 1.26159555,12.5788497 1.26159555,12.5788497 C2.22634508,7.75510204 4.82374768,6.12244898 4.82374768,6.12244898 C-0.853432282,16.5862709 3.8961039,26.3079777 3.33951763,36.4007421 C3.33951763,36.4007421 4.82374768,36.1410019 5.89981447,35.9925788 C7.01298701,35.8441558 7.82931354,37.2170686 7.82931354,37.2170686 C8.53432282,38.4415584 9.4619666,40.7792208 9.4619666,40.7792208 C11.2430427,45.3061224 11.9480519,54.2486085 11.9480519,54.2486085 C13.4693878,55.8812616 14.8423006,55.6215213 14.8423006,55.6215213 C11.7996289,46.419295 11.9480519,33.877551 11.9480519,33.877551 C13.729128,24.3784787 19.3692022,16.8089054 19.3692022,16.8089054 C21.9294991,14.32282 24.8237477,12.393321 27.458256,10.9461967 C23.4508349,11.6883117 19.3692022,10.9090909 16.8831169,7.79220779 Z" fill="url(#linearGradient-4)"></path>
                                <path d="M71.4285714,11.4285714 C71.4285714,14.9907236 73.2096475,17.4768089 73.2096475,17.4768089 C72.8014842,15.5473098 73.0612245,12.9499072 73.0612245,12.9499072 C73.0612245,15.2875696 74.4341373,18.7384045 74.4341373,18.7384045 C74.4341373,18.7384045 75.5473098,20.6679035 76.5120594,24.5269017 C77.4768089,28.3858998 77.3283859,35.3988868 77.3283859,35.3988868 C77.3283859,35.3988868 76.5120594,36.6233766 76.3636364,38.961039 C76.2152134,41.2987013 77.3283859,45.1576994 77.3283859,45.1576994 C77.3283859,41.038961 79.5176252,36.7717996 79.5176252,36.7717996 C83.3766234,19.554731 81.7068646,10.0927644 81.7068646,10.0927644 L80.3339518,7.60667904 C80.3339518,5.4174397 79.109462,4.15584416 79.109462,4.15584416 C79.1836735,3.52504638 79.0352505,2.85714286 78.8497217,2.26345083 C78.5899814,3.15398887 77.0686456,3.19109462 76.5491651,4.08163265 C75.8441558,5.2690167 76.5862709,7.86641929 75.7328386,8.79406308 C74.3599258,10.3153989 72.9128015,8.23747681 71.5769944,9.05380334 C70.7235622,9.57328386 70.3896104,11.2059369 70.2782931,12.5788497 C70.6864564,14.174397 71.3543599,15.0278293 71.3543599,15.0278293 C71.1688312,12.9499072 71.4285714,11.4285714 71.4285714,11.4285714 Z" fill="url(#linearGradient-5)"></path>
                                <path d="M16.8831169,7.79220779 C14.7309833,5.08348794 13.729128,4.86085343 10.3153989,4.71243043 C6.75324675,4.52690167 8.23747681,3.45083488 8.0890538,0.0742115028 C6.01113173,-0.0742115028 4.08163265,1.3729128 2.30055659,2.63450835 C1.00185529,4.52690167 0.482374768,6.08534323 0.296846011,6.97588126 C0.408163265,6.86456401 0.519480519,6.7903525 0.667903525,6.67903525 C2.18923933,3.78478664 5.52875696,1.52133581 5.52875696,1.52133581 C4.19294991,2.85714286 3.26530612,4.34137291 2.63450835,5.71428571 C6.15955473,4.52690167 11.3914657,4.82374768 13.6549165,6.45640074 C15.1391466,7.53246753 15.9554731,9.35064935 16.9944341,10.7977737 C18.1447124,12.393321 19.554731,13.9888683 21.187384,15.1762523 C23.2653061,13.432282 25.4545455,12.0222635 27.4953618,10.9090909 C23.4508349,11.6883117 19.3692022,10.9090909 16.8831169,7.79220779 Z" fill="url(#linearGradient-6)"></path>
                                <path d="M78.8868275,2.26345083 C78.6270872,3.15398887 77.1057514,3.19109462 76.5862709,4.08163265 C75.8812616,5.2690167 76.6233766,7.86641929 75.7699443,8.79406308 C74.3970315,10.3153989 72.9499072,8.23747681 71.6141002,9.05380334 C70.7606679,9.57328386 70.4267161,11.2059369 70.3153989,12.5788497 C70.7235622,14.174397 71.3914657,15.0278293 71.3914657,15.0278293 C71.1317254,12.9499072 71.3914657,11.4656772 71.3914657,11.4656772 C71.3914657,15.0278293 73.1725417,17.5139147 73.1725417,17.5139147 C73.1725417,17.4768089 73.135436,17.4025974 73.135436,17.3654917 C72.690167,16.1781076 72.393321,14.8794063 72.2820037,13.580705 C72.1335807,11.5027829 72.5046382,10.9833024 74.471243,10.6864564 C76.9573284,10.3153989 76.0296846,10.2782931 76.8089054,8.12615955 C77.5139147,6.15955473 78.9239332,6.53061224 80.296846,7.53246753 C80.2597403,5.4174397 79.0723562,4.19294991 79.0723562,4.19294991 C79.2207792,3.48794063 79.0723562,2.85714286 78.8868275,2.26345083 Z" fill="url(#linearGradient-7)"></path>
                            </g>
                            <path d="M3.78478664,56.3636364 C4.0445269,51.3914657 3.07977737,46.5306122 2.63450835,41.5955473 C2.15213358,36.2152134 2.70871985,30.9461967 5.2690167,26.122449 C5.30612245,26.0482375 5.23191095,25.974026 5.15769944,26.0111317 C3.07977737,27.3469388 2.00371058,30.2411874 1.55844156,32.5046382 C1.59554731,32.5046382 1.66975881,32.5046382 1.70686456,32.541744 C1.3729128,28.5714286 3.22820037,24.3784787 5.97402597,21.5955473 C6.04823748,21.5213358 5.93692022,21.4100186 5.86270872,21.4471243 C3.59925788,22.9684601 1.33580705,25.1948052 0.445269017,27.8293135 C0.519480519,27.8293135 0.556586271,27.8293135 0.630797774,27.8664193 C0.667903525,26.716141 1.18738404,25.528757 1.66975881,24.5269017 C3.19109462,21.4100186 5.82560297,18.961039 8.57142857,16.9573284 C8.68274583,16.8831169 8.60853432,16.7346939 8.49721707,16.7717996 C6.6419295,17.1799629 4.93506494,18.5157699 3.78478664,19.9628942 C3.85899814,20 3.8961039,20.0371058 3.9703154,20.0742115 C4.19294991,19.0723562 4.93506494,18.1076067 5.56586271,17.3654917 C7.82931354,14.7680891 11.1688312,13.2467532 14.3599258,12.1706865 C14.4341373,12.1335807 14.5083488,11.9851577 14.3970315,11.9480519 C12.1335807,10.8719852 9.3877551,11.7996289 7.53246753,13.1725417 C7.56957328,13.2467532 7.64378479,13.3209647 7.68089054,13.3580705 C10.2040816,10.6864564 14.1372913,9.16512059 17.7736549,9.53617811 C17.8849722,9.53617811 17.9220779,9.42486085 17.9220779,9.35064935 C17.4397032,6.97588126 13.9888683,7.42115028 12.393321,7.86641929 C12.4304267,7.9406308 12.4675325,8.05194805 12.5046382,8.12615955 C14.025974,7.45825603 15.7699443,7.05009276 17.4397032,7.12430427 C18.8497217,7.16141002 20.2597403,7.64378479 21.6697588,7.45825603 C21.8181818,7.42115028 21.8923933,7.19851577 21.7068646,7.16141002 C20.0742115,6.90166976 18.3673469,6.19666048 17.2170686,5.00927644 C17.1428571,5.08348794 17.1057514,5.15769944 17.0315399,5.23191095 C18.9239332,6.34508349 21.4100186,5.75139147 23.3024119,5.00927644 C25.0834879,4.30426716 27.012987,3.85899814 28.8682746,3.37662338 C34.9907236,1.89239332 41.2987013,0.853432282 47.5695733,0.556586271 C48.9795918,0.482374768 50.3896104,0.482374768 51.7996289,0.556586271 C52.5788497,0.593692022 53.432282,0.556586271 54.174397,0.890538033 C56.2152134,1.81818182 58.2189239,2.7458256 60.2226345,3.74768089 C62.5231911,4.89795918 64.6382189,6.27087199 67.012987,7.23562152 C67.2727273,7.34693878 67.5695733,7.45825603 67.8293135,7.56957328 C67.6808905,7.49536178 67.7922078,7.56957328 67.8664193,7.71799629 C67.9777365,7.90352505 68.0890538,8.05194805 68.2003711,8.23747681 C68.8311688,9.20222635 69.6103896,10.3153989 69.7588126,11.4656772 C69.7959184,11.6141002 70.0185529,11.6141002 70.0556586,11.4656772 C70.3896104,9.87012987 69.9814471,8.12615955 69.0909091,6.7903525 C69.0166976,6.86456401 68.9424861,6.90166976 68.8311688,6.97588126 C70.3153989,8.20037106 71.6512059,10.2040816 71.1317254,12.2077922 C71.0946197,12.3562152 71.2430427,12.4304267 71.3543599,12.393321 C72.541744,11.7996289 73.9146568,10.6493506 73.6178108,9.20222635 C73.5064935,9.2393321 73.432282,9.27643785 73.3209647,9.3135436 C74.1372913,10.5751391 73.6920223,12.0222635 72.6530612,12.987013 C72.541744,13.0983302 72.6530612,13.283859 72.8014842,13.2467532 C73.580705,13.135436 74.7680891,12.8756957 75.1020408,12.0593692 C74.9907236,12.0222635 74.9165121,12.0222635 74.8051948,11.9851577 C74.8051948,12.9128015 74.9907236,13.9888683 74.3970315,14.8051948 C74.3599258,14.8794063 74.3970315,14.9907236 74.4341373,15.0278293 C75.1762523,15.3617811 75.9183673,15.6957328 76.6233766,16.0667904 C77.4768089,16.5120594 78.2189239,17.1799629 79.109462,17.6623377 C79.1465677,17.5510204 79.1836735,17.4768089 79.2207792,17.3654917 C78.1076067,16.9202226 76.7717996,16.4749536 75.5473098,16.6604824 C75.3617811,16.6975881 75.4359926,16.9202226 75.5473098,16.9573284 C76.9202226,17.5139147 78.3673469,18.5899814 78.8868275,20 C78.9981447,19.9628942 79.0723562,19.9257885 79.1836735,19.8886827 C78.5528757,18.9981447 77.5510204,18.3302412 76.4378479,18.2931354 C76.3265306,18.2931354 76.2152134,18.4786642 76.3265306,18.5528757 C76.9944341,19.109462 77.5881262,19.8144712 78.1076067,20.5194805 C78.5528757,21.1502783 78.8868275,21.8181818 79.1465677,22.5231911 C79.257885,22.8942486 79.3320965,23.3024119 79.3320965,23.7105751 C79.3320965,23.8589981 79.257885,24.0816327 79.3692022,24.1929499 C79.6289425,24.4897959 79.851577,24.8237477 80,25.1576994 C80.1855288,25.4916512 80.296846,25.8627087 80.4081633,26.270872 C80.4823748,26.5306122 80.5194805,26.7903525 80.5194805,27.0500928 C80.5194805,27.1985158 80.4823748,27.458256 80.5565863,27.5695733 C80.9647495,28.3116883 81.3729128,29.0538033 81.7810761,29.7959184 C82.0037106,30.2411874 82.0408163,30.9833024 82.0779221,31.5398887 C82.2263451,33.283859 82.2634508,35.0278293 82.2263451,36.7717996 C82.1521336,41.6326531 81.5955473,46.4935065 80.742115,51.2430427 C80.4823748,52.7643785 80.1855288,54.2857143 79.851577,55.7699443 C79.703154,56.4749536 79.4434137,57.0315399 79.1465677,57.6994434 C78.1818182,60 77.4768089,62.4860853 77.4768089,65.0092764 C77.5881262,65.0092764 77.6623377,64.9721707 77.7736549,64.9721707 C77.0686456,62.4489796 76.4749536,59.703154 77.0686456,57.1428571 C77.1799629,56.5862709 77.3654917,56.0667904 77.6252319,55.5473098 C77.6994434,55.4359926 77.7736549,55.3246753 77.7736549,55.1762523 C77.7736549,54.3970315 77.7736549,53.6178108 77.7736549,52.83859 C77.7365492,50.0185529 77.6252319,47.0871985 76.9573284,44.3042672 C76.5862709,42.7458256 76.0667904,41.187384 75.4359926,39.6660482 C75.2504638,39.1836735 74.9536178,38.7012987 74.8051948,38.2931354 C74.1372913,36.5491651 73.5435993,34.6567718 73.5064935,32.7643785 C73.5064935,32.5788497 73.2467532,32.5788497 73.2096475,32.7643785 C73.0612245,34.2857143 73.0612245,35.8441558 73.3580705,37.3283859 C73.432282,37.2912801 73.5435993,37.2541744 73.6178108,37.2170686 C72.393321,35.5102041 71.8738404,33.283859 71.8367347,31.2430427 C71.8367347,31.0946197 71.5769944,31.0204082 71.5398887,31.2059369 C71.3172542,32.393321 71.3914657,33.6178108 71.5398887,34.8051948 C71.6141002,34.7680891 71.6883117,34.7309833 71.7996289,34.6938776 C70.5751391,33.1725417 70.3525046,30.7606679 70.4638219,28.8682746 C70.4638219,28.7198516 70.2782931,28.6827458 70.2040816,28.7940631 C69.6846011,29.6103896 68.8311688,30.2411874 67.8664193,30.3896104 C67.903525,30.4638219 67.9406308,30.5380334 67.9777365,30.6493506 C68.7198516,30.0185529 69.1280148,28.8682746 69.3877551,27.9777365 C69.4248609,27.8664193 69.2764378,27.755102 69.1651206,27.8293135 C67.6437848,28.8682746 65.8627087,29.6846011 64.0816327,30.0185529 C62.8942486,30.2411874 61.5955473,30.2040816 60.4081633,30.2040816 C60.0742115,30.2040816 59.7402597,30.2040816 59.406308,30.1669759 C59.406308,30.2782931 59.3692022,30.3525046 59.3692022,30.4638219 C61.8923933,30.2411874 64.6382189,29.1280148 66.1966605,27.1243043 C66.270872,27.012987 66.1595547,26.7903525 66.0111317,26.9016698 C63.7105751,28.4972171 60.7792208,29.7217069 57.9591837,29.7588126 C57.9591837,29.8330241 57.9962894,29.9443414 57.9962894,30.0185529 C60.5194805,29.2393321 63.1168831,27.606679 64.4155844,25.2690167 C64.4897959,25.1205937 64.3042672,25.0092764 64.1929499,25.0834879 C63.1539889,25.8998145 61.9666048,26.6790353 60.8163265,27.3840445 C58.961039,28.5343228 56.7717996,29.8701299 54.5083488,29.9814471 C54.5454545,30.0556586 54.5454545,30.1669759 54.5825603,30.2411874 C57.5139147,28.9424861 60.6679035,26.716141 62.0779221,23.7105751 C62.1150278,23.5992579 62.0037106,23.4137291 61.8923933,23.5250464 C58.4044527,26.1595547 54.2115028,28.2374768 50.0185529,29.3506494 C47.3469388,30.0556586 44.5640074,30.3525046 41.8181818,30.4638219 C39.9628942,30.5380334 38.2560297,30.8348794 36.4749536,31.4656772 C36.5120594,31.5398887 36.5491651,31.6141002 36.5862709,31.6883117 C37.2912801,30.8348794 38.2560297,30.1669759 39.2949907,29.7959184 C39.4434137,29.7217069 39.406308,29.4990724 39.2207792,29.5361781 C37.0315399,29.9814471 34.3970315,30.6493506 32.690167,32.1706865 C32.7643785,32.2077922 32.83859,32.2820037 32.8756957,32.3191095 C33.0983302,31.9480519 33.432282,31.6141002 33.7662338,31.3172542 C34.8794063,30.2411874 36.1781076,29.4248609 37.5139147,28.6456401 C37.6252319,28.5714286 37.5510204,28.3858998 37.4025974,28.4230056 C35.2133581,28.9424861 32.6530612,29.6103896 30.8719852,31.0575139 C30.9461967,31.0946197 31.0204082,31.1688312 31.0575139,31.2059369 C32.0222635,29.4990724 33.9517625,28.2374768 35.6957328,27.3840445 C35.8070501,27.309833 35.7328386,27.1243043 35.5844156,27.16141 C31.4285714,28.3487941 27.4211503,30.4267161 23.8961039,32.8756957 C22.1150278,34.1001855 20.2226345,35.4359926 19.0352505,37.2170686 C17.6994434,39.1836735 16.5491651,41.2987013 15.5102041,43.4508349 C14.7680891,44.9721707 14.1372913,46.5306122 13.580705,48.1261596 C13.283859,48.9795918 13.0241187,49.8701299 12.7643785,50.7235622 C12.6530612,51.1688312 12.541744,51.6141002 12.4304267,52.096475 C12.3191095,52.541744 12.1335807,53.0612245 12.1335807,53.5064935 C12.1335807,54.8423006 12.1706865,56.1781076 12.244898,57.5139147 C12.393321,60.5565863 12.6530612,63.5621521 13.0983302,66.567718 C13.3580705,68.3116883 13.6920223,70.0927644 14.1001855,71.7996289 C14.2857143,72.6159555 14.5083488,73.432282 14.7680891,74.2486085 C14.8051948,74.3970315 14.9907236,75.1391466 15.1020408,75.1391466 C14.9165121,75.1762523 14.6938776,75.1391466 14.5083488,75.1020408 C13.729128,74.9907236 13.0983302,74.5083488 12.541744,73.9517625 C12.3562152,73.7662338 12.393321,73.7662338 12.3562152,73.5064935 C12.2820037,72.7643785 12.2077922,71.9851577 12.1335807,71.2430427 C11.8367347,68.6827458 11.4656772,66.122449 10.8719852,63.6363636 C10.3525046,61.4100186 9.53617811,59.3692022 8.53432282,57.3283859 C8.16326531,56.5862709 7.68089054,55.8812616 6.86456401,55.5473098 C6.34508349,55.3246753 5.71428571,55.5473098 5.19480519,55.6215213 C4.67532468,55.6957328 4.15584416,55.8070501 3.63636364,55.8812616 C3.56215213,55.8812616 3.59925788,56.0296846 3.67346939,55.9925788 C4.93506494,55.7699443 6.49350649,55.1762523 7.53246753,56.1410019 C8.38589981,56.9202226 8.75695733,58.1818182 9.20222635,59.2207792 C10.2040816,61.5213358 10.7606679,63.8961039 11.2059369,66.3821892 C11.6141002,68.6456401 11.8738404,70.9461967 12.096475,73.2096475 C12.1706865,73.9146568 12.2077922,74.0630798 12.9128015,74.5825603 C13.5435993,75.0278293 14.3599258,75.4730983 15.1762523,75.3246753 C15.2133581,75.3246753 15.2504638,75.2504638 15.2504638,75.2133581 C13.283859,69.0909091 12.6159555,62.5602968 12.4304267,56.1781076 C12.393321,55.4359926 12.393321,54.6567718 12.393321,53.9146568 C12.393321,52.9128015 12.7272727,51.9480519 12.9499072,50.9833024 C13.8404453,47.5695733 15.2133581,44.3042672 16.8831169,41.2244898 C17.6994434,39.703154 18.5899814,38.1818182 19.5918367,36.7717996 C20.0371058,36.1410019 20.7050093,35.6215213 21.2987013,35.1391466 C22.5974026,34.025974 24.0074212,33.0241187 25.4545455,32.096475 C28.6085343,30.0927644 32.096475,28.3858998 35.6957328,27.3469388 C35.6586271,27.2727273 35.6215213,27.1985158 35.5844156,27.1243043 C33.8404453,27.9777365 31.8738404,29.2764378 30.8719852,31.0204082 C30.7977737,31.1688312 30.9461967,31.2430427 31.0575139,31.1688312 C32.2077922,30.2411874 33.6920223,29.7217069 35.0649351,29.2764378 C35.8441558,29.0166976 36.6604824,28.7940631 37.4768089,28.5714286 C37.4397032,28.4972171 37.4025974,28.4230056 37.3654917,28.3487941 C36.0296846,29.0909091 34.7680891,29.9072356 33.6549165,30.9461967 C33.283859,31.2801484 32.9128015,31.6512059 32.6530612,32.096475 C32.5788497,32.244898 32.7643785,32.3562152 32.83859,32.244898 C34.5083488,30.7606679 37.1057514,30.1298701 39.257885,29.6474954 C39.2207792,29.5732839 39.2207792,29.4619666 39.1836735,29.3877551 C38.1076067,29.7588126 37.1057514,30.4638219 36.3636364,31.3543599 C36.2894249,31.4285714 36.3636364,31.6141002 36.4749536,31.5769944 C38.2931354,30.9090909 40.0371058,30.6493506 41.9666048,30.5751391 C44.6753247,30.4638219 47.3840445,30.1298701 50.0185529,29.4619666 C54.2486085,28.3858998 58.4786642,26.270872 61.9666048,23.5992579 C61.8923933,23.5250464 61.8552876,23.4879406 61.7810761,23.4137291 C60.4081633,26.3450835 57.3283859,28.5343228 54.3970315,29.8330241 C54.2857143,29.9072356 54.32282,30.0927644 54.471243,30.0927644 C56.6604824,29.9814471 58.7755102,28.7569573 60.6307978,27.6437848 C61.9294991,26.864564 63.1539889,26.0111317 64.3413729,25.1205937 C64.2671614,25.0463822 64.1929499,25.0092764 64.1187384,24.9350649 C62.8571429,27.1985158 60.3339518,28.7940631 57.8849722,29.5361781 C57.7365492,29.5732839 57.7736549,29.7959184 57.9220779,29.7959184 C60.8163265,29.7588126 63.7847866,28.5343228 66.122449,26.9016698 C66.0482375,26.8274583 66.0111317,26.7532468 65.9369202,26.6790353 C64.4155844,28.6456401 61.7439703,29.7217069 59.2949907,29.9443414 C59.1465677,29.9443414 59.0723562,30.2040816 59.257885,30.2411874 C59.5918367,30.3153989 59.9257885,30.2782931 60.2226345,30.3153989 C61.4471243,30.3525046 62.6716141,30.3525046 63.8961039,30.1669759 C65.7884972,29.9072356 67.7179963,28.9795918 69.2764378,27.903525 C69.2022263,27.8664193 69.1280148,27.7922078 69.0538033,27.755102 C68.7940631,28.6085343 68.4230056,29.6846011 67.7179963,30.3153989 C67.6437848,30.3896104 67.6808905,30.5751391 67.8293135,30.5751391 C68.9053803,30.4267161 69.8330241,29.7588126 70.4267161,28.8682746 C70.3525046,28.8311688 70.2411874,28.8311688 70.1669759,28.7940631 C70.0556586,30.7606679 70.3153989,33.1725417 71.5769944,34.8051948 C71.6512059,34.9165121 71.8367347,34.8423006 71.8367347,34.6938776 C71.6883117,33.5435993 71.6141002,32.3191095 71.8367347,31.1688312 C71.7254174,31.1688312 71.6512059,31.1317254 71.5398887,31.1317254 C71.5769944,33.2096475 72.096475,35.5102041 73.3580705,37.2541744 C73.4693878,37.4025974 73.6549165,37.2912801 73.6178108,37.1428571 C73.3209647,35.6586271 73.3209647,34.1372913 73.4693878,32.6530612 C73.3580705,32.6530612 73.283859,32.6530612 73.1725417,32.6530612 C73.2096475,34.1372913 73.580705,35.6215213 74.025974,37.0315399 C74.2115028,37.5881262 74.3599258,38.1447124 74.619666,38.6641929 C75.9183673,41.1131725 76.6604824,43.9703154 77.0315399,46.716141 C77.3654917,49.3135436 77.4397032,51.9480519 77.4025974,54.5454545 C77.4025974,54.7309833 77.4025974,54.9165121 77.4025974,55.0649351 C77.4025974,54.9165121 77.3654917,55.1020408 77.3283859,55.1762523 C77.2170686,55.3617811 77.1428571,55.5473098 77.0686456,55.7328386 C76.5120594,57.1057514 76.3636364,58.5899814 76.4749536,60.0742115 C76.6233766,61.7068646 76.9573284,63.3395176 77.4025974,64.8979592 C77.4397032,65.0463822 77.6994434,65.0463822 77.6994434,64.8608534 C77.7365492,62.0037106 78.5899814,59.0723562 79.8886827,56.5491651 C80.0371058,56.2523191 80.0742115,55.7699443 80.148423,55.4359926 C80.2597403,54.9165121 80.3710575,54.3970315 80.4823748,53.877551 C80.7050093,52.8014842 80.890538,51.7254174 81.0760668,50.6864564 C81.3729128,48.9053803 81.6326531,47.0871985 81.8552876,45.3061224 C82.4118738,40.7050093 82.7087199,35.9925788 82.3005566,31.3914657 C82.2634508,30.8719852 82.1892393,30.3153989 82.1150278,29.7959184 C82.0779221,29.5361781 81.8181818,29.2393321 81.7068646,28.9795918 C81.4100186,28.4601113 80.742115,27.6808905 80.742115,27.0500928 C80.7050093,26.0111317 80.3710575,24.9721707 79.7773655,24.1558442 C79.6660482,23.9703154 79.4805195,23.8589981 79.5176252,23.6734694 C79.554731,23.1168831 79.4434137,22.5602968 79.257885,22.0408163 C78.7755102,20.5194805 77.6252319,19.109462 76.4378479,18.1076067 C76.4007421,18.1818182 76.3636364,18.2931354 76.3265306,18.3673469 C77.3283859,18.4044527 78.2189239,19.0352505 78.812616,19.8144712 C78.9239332,19.9628942 79.1465677,19.8886827 79.109462,19.703154 C78.5528757,18.1447124 77.0315399,17.0315399 75.5473098,16.4378479 C75.5473098,16.5491651 75.5473098,16.6233766 75.5473098,16.7346939 C76.6975881,16.5120594 77.9962894,16.9944341 79.0352505,17.4397032 C79.1836735,17.5139147 79.2949907,17.2541744 79.1465677,17.1428571 C78.3302412,16.6975881 77.6252319,16.1038961 76.8089054,15.6586271 C76.0667904,15.2133581 75.2504638,14.8794063 74.471243,14.5454545 C74.471243,14.619666 74.5083488,14.6938776 74.5083488,14.7680891 C75.1020408,13.9146568 74.9536178,12.8014842 74.9536178,11.7996289 C74.9536178,11.6512059 74.7309833,11.5769944 74.6567718,11.7254174 C74.3599258,12.4304267 73.2467532,12.6530612 72.541744,12.7643785 C72.5788497,12.83859 72.6530612,12.9499072 72.690167,13.0241187 C73.8404453,11.9851577 74.2857143,10.3525046 73.3951763,8.97959184 C73.283859,8.83116883 73.0983302,8.94248609 73.0983302,9.09090909 C73.3580705,10.3896104 72.0222635,11.4285714 70.9833024,11.9480519 C71.0575139,12.0222635 71.1317254,12.0593692 71.2059369,12.1335807 C71.7625232,10.0556586 70.3896104,7.90352505 68.8311688,6.60482375 C68.7198516,6.49350649 68.4972171,6.6419295 68.5714286,6.7903525 C69.4248609,8.05194805 69.8330241,9.72170686 69.5361781,11.2059369 C69.6474954,11.2059369 69.7217069,11.2059369 69.8330241,11.2059369 C69.6846011,10.0556586 68.9053803,8.97959184 68.3116883,8.0148423 C68.1261596,7.71799629 67.9406308,7.45825603 67.755102,7.19851577 C67.6437848,7.05009276 67.3469388,6.97588126 67.1985158,6.93877551 C64.6011132,5.86270872 62.2263451,4.37847866 59.703154,3.11688312 C57.7365492,2.15213358 55.7699443,1.2244898 53.7662338,0.333951763 C53.5064935,0.222634508 53.2096475,0.222634508 52.9128015,0.185528757 C52.1706865,0.111317254 51.4285714,0.0742115028 50.6493506,0.0742115028 C49.0909091,0.0371057514 47.5324675,0.0742115028 45.974026,0.185528757 C40.148423,0.556586271 34.3599258,1.55844156 28.6827458,2.89424861 C26.864564,3.33951763 25.0092764,3.78478664 23.2282004,4.45269017 C21.2987013,5.15769944 18.8868275,5.93692022 16.9202226,4.82374768 C16.7717996,4.74953618 16.6233766,4.93506494 16.7346939,5.04638219 C17.9220779,6.27087199 19.6660482,7.05009276 21.3358071,7.27272727 C21.3358071,7.16141002 21.3729128,7.08719852 21.3729128,6.97588126 C19.8144712,7.19851577 18.2560297,6.6419295 16.7346939,6.6419295 C15.1762523,6.6419295 13.5064935,7.05009276 12.096475,7.71799629 C11.9480519,7.79220779 12.0593692,8.0148423 12.2077922,7.97773655 C13.6549165,7.56957328 16.9573284,7.05009276 17.4025974,9.2393321 C17.4397032,9.16512059 17.4768089,9.12801484 17.5139147,9.05380334 C13.8033395,8.64564007 9.79591837,10.2411874 7.23562152,12.9499072 C7.12430427,13.0612245 7.27272727,13.2467532 7.38404453,13.135436 C9.16512059,11.7996289 11.8367347,10.8719852 13.9888683,11.9109462 C13.9888683,11.8367347 14.025974,11.7625232 14.025974,11.6883117 C10.7977737,12.7643785 7.53246753,14.32282 5.23191095,16.8460111 C4.52690167,17.6252319 3.71057514,18.6641929 3.48794063,19.7402597 C3.45083488,19.851577 3.59925788,19.9257885 3.67346939,19.851577 C4.82374768,18.4415584 6.45640074,17.1057514 8.31168831,16.6975881 C8.27458256,16.6233766 8.27458256,16.5491651 8.23747681,16.5120594 C5.4174397,18.5528757 2.85714286,21.038961 1.26159555,24.1929499 C0.742115028,25.2319109 0.222634508,26.4564007 0.185528757,27.6437848 C0.185528757,27.755102 0.333951763,27.755102 0.371057514,27.6808905 C1.2244898,25.1205937 3.48794063,22.8942486 5.67717996,21.4100186 C5.64007421,21.3729128 5.60296846,21.3358071 5.56586271,21.2615955 C2.82003711,24.0816327 0.927643785,28.3116883 1.2987013,32.3191095 C1.2987013,32.393321 1.4471243,32.4304267 1.4471243,32.3562152 C1.92949907,30.0556586 2.89424861,27.606679 4.74953618,26.0853432 C5.15769944,25.7513915 4.74953618,26.0482375 4.63821892,26.3079777 C4.19294991,27.16141 3.82189239,28.0519481 3.48794063,28.9424861 C2.85714286,30.6864564 2.44897959,32.541744 2.26345083,34.3970315 C1.4471243,41.6697588 3.82189239,48.8311688 3.48794063,56.1410019 C3.71057514,56.4007421 3.78478664,56.4007421 3.78478664,56.3636364 Z" id="Path" fill="url(#linearGradient-8)"></path>
                            <path d="M3.74768089,56.3636364 C4.30426716,46.270872 -0.482374768,36.5491651 5.23191095,26.0853432 C5.23191095,26.0853432 2.63450835,27.755102 1.66975881,32.541744 C1.66975881,32.541744 1.11317254,26.3450835 5.93692022,21.5213358 C5.93692022,21.5213358 1.66975881,24.4155844 0.556586271,27.8664193 C0.556586271,27.8664193 0.705009276,22.4860853 8.53432282,16.8460111 C8.53432282,16.8460111 5.93692022,17.4025974 3.85899814,20 C3.85899814,20 4.82374768,15.1762523 14.32282,12.0222635 C14.32282,12.0222635 11.1688312,10.5009276 7.56957328,13.2467532 C7.56957328,13.2467532 11.8367347,8.71985158 17.7365492,9.3877551 C17.7365492,9.3877551 17.1799629,6.6419295 12.3562152,8.0148423 C12.3562152,8.0148423 15.3988868,6.6419295 17.9962894,7.05009276 C20.593692,7.45825603 21.5584416,7.30983302 21.5584416,7.30983302 C21.5584416,7.30983302 18.6641929,6.90166976 17.0315399,5.12059369 C17.0315399,5.12059369 19.3692022,6.49350649 22.9313544,4.97217069 C26.4935065,3.45083488 43.4508349,-0.519480519 53.7662338,0.556586271 C53.7662338,0.556586271 60.2226345,3.45083488 62.4489796,4.82374768 C64.6382189,6.19666048 67.8293135,7.42115028 67.8293135,7.42115028 C67.8293135,7.42115028 69.7588126,10.1669759 69.9072356,11.4285714 C69.9072356,11.4285714 70.4638219,8.94248609 68.9424861,6.90166976 C68.9424861,6.90166976 72.096475,9.49907236 71.2801484,12.2820037 C71.2801484,12.2820037 73.877551,11.0575139 73.4693878,9.2393321 C73.4693878,9.2393321 74.8423006,11.3172542 72.7643785,13.0983302 C72.7643785,13.0983302 74.6938776,12.83859 74.9536178,11.9851577 C74.9536178,11.9851577 74.9536178,12.9499072 74.9536178,13.6549165 C74.9536178,14.3599258 74.5454545,14.8794063 74.5454545,14.8794063 C74.5454545,14.8794063 75.7699443,15.4359926 76.6233766,15.8441558 C77.4397032,16.2523191 78.7012987,17.2170686 79.2207792,17.5139147 C79.2207792,17.5139147 76.8831169,16.5491651 75.6586271,16.8089054 C75.6586271,16.8089054 78.4044527,17.9220779 79.109462,19.9628942 C79.109462,19.9628942 77.9962894,18.4415584 76.5120594,18.4415584 C76.5120594,18.4415584 79.8144712,21.187384 79.554731,24.0816327 C79.554731,24.0816327 80.7792208,25.3061224 80.7792208,27.5324675 L82.1521336,30.0185529 C82.1521336,30.0185529 83.8218924,39.5176252 79.9628942,56.6975881 C79.9628942,56.6975881 77.7736549,60.9647495 77.7736549,65.0834879 C77.7736549,65.0834879 76.6604824,61.2244898 76.8089054,58.8868275 C76.9573284,56.5491651 77.7736549,55.3246753 77.7736549,55.3246753 C77.7736549,55.3246753 77.9220779,48.3116883 76.9573284,44.4526902 C75.9925788,40.593692 74.8794063,38.6641929 74.8794063,38.6641929 C74.8794063,38.6641929 73.5064935,35.2133581 73.5064935,32.8756957 C73.5064935,32.8756957 73.2467532,35.4730983 73.6549165,37.4025974 C73.6549165,37.4025974 71.8738404,34.9165121 71.8738404,31.3543599 C71.8738404,31.3543599 71.6141002,32.8756957 71.8738404,34.9165121 C71.8738404,34.9165121 70.2411874,32.83859 70.5009276,29.0166976 C70.5009276,29.0166976 69.5361781,30.5380334 68.0148423,30.6493506 C68.0148423,30.6493506 68.8311688,29.9443414 69.3877551,28.0519481 C69.3877551,28.0519481 66.2337662,30.2411874 63.1910946,30.3896104 C60.148423,30.5380334 59.4805195,30.3896104 59.4805195,30.3896104 C59.4805195,30.3896104 64.0074212,29.9814471 66.2337662,27.0871985 C66.2337662,27.0871985 62.1150278,29.9814471 58.1076067,29.9814471 C58.1076067,29.9814471 62.6345083,28.6085343 64.4526902,25.3061224 C64.4526902,25.3061224 58.2560297,30.1298701 54.6938776,30.2782931 C54.6938776,30.2782931 60.3339518,27.7922078 62.1150278,23.8218924 C62.1150278,23.8218924 55.7699443,28.6456401 48.6456401,30.0185529 C41.4842301,31.3914657 41.2244898,30.1669759 36.6604824,31.7996289 C36.6604824,31.7996289 37.7736549,30.4267161 39.406308,29.8701299 C39.406308,29.8701299 34.7309833,30.8348794 32.9499072,32.4675325 C32.9499072,32.4675325 33.9146568,30.8348794 37.6252319,28.7569573 C37.6252319,28.7569573 32.9499072,29.8701299 31.1688312,31.3543599 C31.1688312,31.3543599 32.393321,29.1651206 35.8441558,27.4953618 C35.8441558,27.4953618 26.6419295,30.0927644 19.8886827,36.6975881 C19.8886827,36.6975881 14.2486085,44.2671614 12.4675325,53.7662338 C12.4675325,53.7662338 12.3191095,66.270872 15.3617811,75.5102041 C15.3617811,75.5102041 13.9888683,75.7699443 12.4675325,74.1372913 C12.4675325,74.1372913 11.7625232,65.1948052 9.98144712,60.6679035 C9.98144712,60.6679035 9.01669759,58.3302412 8.34879406,57.1057514 C8.34879406,57.1057514 7.53246753,55.7328386 6.41929499,55.8812616 C5.19480519,56.1038961 3.74768089,56.3636364 3.74768089,56.3636364 Z" id="Path" fill="#0A151A"></path>
                        </g>
                    </g>
                </g>
            </g>
        </g>
    </g>
</svg>