<?xml version="1.0" encoding="UTF-8"?>
<svg width="36px" height="44px" viewBox="0 0 36 44" version="1.1" xmlns="http://www.w3.org/2000/svg" xmlns:xlink="http://www.w3.org/1999/xlink">
    <title>arroe-01@2x</title>
    <g id="Symbols" stroke="none" stroke-width="1" fill="none" fill-rule="evenodd">
        <g id="Upload_icon" fill="#979797" fill-rule="nonzero">
            <g id="arroe-01" transform="translate(0.000000, -0.000000)">
                <path d="M0.045,30.13875 C0.37125,29.41875 0.8325,28.8675 1.67625,28.8 C2.77875,28.72125 3.6225,29.50875 3.6225,30.63375 C3.63375,32.8725 3.6225,35.1225 3.6225,37.36125 C3.6225,38.91375 4.28625,39.56625 5.85,39.56625 C13.9275,39.56625 22.005,39.56625 30.07125,39.56625 C31.69125,39.56625 32.34375,38.91375 32.34375,37.29375 C32.34375,35.11125 32.34375,32.9175 32.34375,30.735 C32.34375,29.59875 33.08625,28.8 34.1325,28.8 C35.17875,28.8 35.92125,29.59875 35.9325,30.735 C35.9325,33.0525 35.9325,35.37 35.9325,37.6875 C35.9325,40.3425 34.23375,42.4575 31.64625,43.0425 C31.545,43.065 31.44375,43.12125 31.3425,43.155 C22.44375,43.155 13.545,43.155 4.635,43.155 C4.53375,43.12125 4.4325,43.065 4.32,43.0425 C2.6325,42.6825 1.395,41.72625 0.61875,40.19625 C0.37125,39.7125 0.225,39.1725 0.03375,38.655 C0.045,35.83125 0.045,32.985 0.045,30.13875 Z" id="Path"></path>
                <path d="M19.78875,6.24375 C19.78875,6.58125 19.78875,6.78375 19.78875,6.9975 C19.78875,15.4125 19.78875,23.8275 19.78875,32.2425 C19.78875,33.435 19.0125,34.2225 17.8875,34.18875 C17.04375,34.155 16.27875,33.44625 16.21125,32.6025 C16.18875,32.4 16.2,32.18625 16.2,31.98375 C16.2,23.6475 16.2,15.31125 16.2,6.96375 C16.2,6.76125 16.2,6.57 16.2,6.255 C15.98625,6.44625 15.85125,6.55875 15.7275,6.69375 C13.93875,8.47125 12.16125,10.27125 10.36125,12.0375 C9.2925,13.08375 7.72875,12.735 7.30125,11.37375 C7.07625,10.6425 7.30125,10.02375 7.84125,9.495 C9.135,8.20125 10.42875,6.9075 11.7225,5.61375 C13.33125,4.005 14.94,2.385 16.56,0.77625 C17.505,-0.1575 18.46125,-0.18 19.40625,0.75375 C22.32,3.65625 25.2225,6.57 28.125,9.48375 C28.78875,10.1475 28.935,10.89 28.58625,11.62125 C28.27125,12.29625 27.55125,12.76875 26.82,12.6225 C26.35875,12.5325 25.875,12.2625 25.52625,11.93625 C23.74875,10.22625 22.01625,8.47125 20.2725,6.7275 C20.14875,6.57 20.01375,6.4575 19.78875,6.24375 Z" id="Path"></path>
            </g>
        </g>
    </g>
</svg>